%TF.GenerationSoftware,KiCad,Pcbnew,8.0.7*%
%TF.CreationDate,2025-02-13T13:50:40+08:00*%
%TF.ProjectId,NewSkyH7-Air,4e657753-6b79-4483-972d-4169722e6b69,rev?*%
%TF.SameCoordinates,Original*%
%TF.FileFunction,Copper,L3,Inr*%
%TF.FilePolarity,Positive*%
%FSLAX46Y46*%
G04 Gerber Fmt 4.6, Leading zero omitted, Abs format (unit mm)*
G04 Created by KiCad (PCBNEW 8.0.7) date 2025-02-13 13:50:40*
%MOMM*%
%LPD*%
G01*
G04 APERTURE LIST*
%TA.AperFunction,ComponentPad*%
%ADD10C,5.000000*%
%TD*%
%TA.AperFunction,ViaPad*%
%ADD11C,0.400000*%
%TD*%
%TA.AperFunction,ViaPad*%
%ADD12C,0.600000*%
%TD*%
%TA.AperFunction,Conductor*%
%ADD13C,0.142500*%
%TD*%
G04 APERTURE END LIST*
D10*
%TO.N,*%
%TO.C,J1*%
X128455000Y-66305000D03*
X128455000Y-96805000D03*
X158955000Y-66305000D03*
X158955000Y-96805000D03*
%TD*%
D11*
%TO.N,GND*%
X149675000Y-71215000D03*
X135005000Y-79910000D03*
X160760000Y-77750000D03*
X137935000Y-82265000D03*
X145920000Y-84840000D03*
X154155000Y-91902000D03*
X161005000Y-80710000D03*
X143410000Y-80890000D03*
X154350000Y-88520000D03*
X128703500Y-70970000D03*
X148767500Y-73035000D03*
X145070000Y-75120000D03*
X149945000Y-80120000D03*
X131995000Y-70560000D03*
X136472500Y-92455000D03*
X138880000Y-91865000D03*
D12*
X151090000Y-73380000D03*
D11*
X133455000Y-83265000D03*
X143390000Y-95270000D03*
X152700000Y-94560000D03*
X143590000Y-87280000D03*
X135010000Y-94560000D03*
X147628000Y-95260000D03*
X135270000Y-65080000D03*
X158030000Y-82140000D03*
X155540000Y-85000000D03*
X157752500Y-73830000D03*
X144150000Y-84890000D03*
X140660000Y-85235000D03*
X128457500Y-82932500D03*
X144870000Y-71720000D03*
X131155000Y-93510000D03*
X141605000Y-75230000D03*
X132603500Y-81210000D03*
X145035000Y-82475000D03*
X155925000Y-82025000D03*
X143420000Y-81690000D03*
X144500000Y-70370000D03*
X131995000Y-71330000D03*
X145730000Y-89840000D03*
X131155000Y-92050000D03*
X138880000Y-86545000D03*
X135445000Y-73020000D03*
X145400000Y-93470000D03*
X133260000Y-85110000D03*
X152370000Y-88510000D03*
X159225000Y-85405000D03*
%TO.N,Net-(C4-Pad1)*%
X142620000Y-79230000D03*
%TO.N,Net-(C5-Pad1)*%
X143460000Y-79230000D03*
%TO.N,+3V3*%
X144190000Y-80830000D03*
X155040000Y-70125000D03*
X144260000Y-77645000D03*
X153770000Y-70125000D03*
X154375000Y-70125000D03*
X141845000Y-84040000D03*
X149675000Y-76330000D03*
X146880000Y-84880000D03*
X155310000Y-88520000D03*
X144220000Y-82470000D03*
X150820000Y-91100000D03*
X145495000Y-87560000D03*
X156500000Y-85000000D03*
X153330000Y-88510000D03*
X159820000Y-81805000D03*
X155970000Y-69780000D03*
X137935000Y-85070000D03*
X140240000Y-84000000D03*
X144520000Y-87320000D03*
X127900000Y-93360000D03*
X161150000Y-85405000D03*
X153725000Y-70755000D03*
X161137500Y-83620000D03*
X155030000Y-70755000D03*
X139685000Y-74690000D03*
X144210000Y-81660000D03*
X154365000Y-71210000D03*
%TO.N,Net-(U1C-VDDA)*%
X145050000Y-84880000D03*
%TO.N,VCC*%
X132430000Y-65930000D03*
X135205000Y-70710000D03*
X133270000Y-65940000D03*
X132840000Y-66430000D03*
X129860000Y-92330000D03*
X129370000Y-91800000D03*
X134730000Y-70190000D03*
X134075000Y-79940000D03*
X146100000Y-68010000D03*
X135200000Y-72180000D03*
X146060000Y-68770000D03*
X129825000Y-93195000D03*
X134720000Y-71660000D03*
X131155000Y-83995000D03*
X130360000Y-90845000D03*
%TO.N,+5V*%
X130725000Y-81435000D03*
X130725000Y-82680000D03*
X131280000Y-68145000D03*
X150320000Y-96010000D03*
X134365000Y-95955000D03*
X130725000Y-82057500D03*
X148767500Y-74170000D03*
X130215000Y-82370000D03*
X134010000Y-94560000D03*
X153700000Y-94560000D03*
X130215000Y-81755000D03*
X131280000Y-68730000D03*
X131280000Y-67560000D03*
X150310000Y-95260000D03*
X148085000Y-74315000D03*
X147600000Y-73965000D03*
X147600000Y-74580000D03*
X152280000Y-72460000D03*
%TO.N,+12V*%
X133160000Y-92395000D03*
X145420000Y-96010000D03*
X133770000Y-93015000D03*
X146355000Y-94560000D03*
X133140000Y-93015000D03*
X134975000Y-93015000D03*
X133790000Y-92395000D03*
X144470000Y-96010000D03*
X127250000Y-84865000D03*
X134345000Y-93015000D03*
%TO.N,/Plug/OSD-IN*%
X151790000Y-93300000D03*
X152460000Y-96190000D03*
%TO.N,Net-(D4-K)*%
X160180000Y-85405000D03*
%TO.N,Net-(D9-K)*%
X160167500Y-83620000D03*
%TO.N,/IMU.icm42688_EXIT*%
X150975000Y-75965000D03*
X148025000Y-79675000D03*
%TO.N,/IMU.icm42688_MISO*%
X152502885Y-76057115D03*
X148680000Y-76400000D03*
%TO.N,/IMU.icm42688_MOSI*%
X147635000Y-75500000D03*
X153275000Y-77220000D03*
%TO.N,/IMU.icm42688_CLK*%
X148425000Y-78515000D03*
X151870000Y-77480000D03*
%TO.N,/IMU.icm42688_CS*%
X147695000Y-78885000D03*
X153390000Y-78670000D03*
%TO.N,/BMI088.EXIT_GYRO*%
X136345000Y-83905000D03*
X141010000Y-83280000D03*
%TO.N,/BMI088.CS_ACCEL*%
X138790000Y-78870000D03*
X136325000Y-84905000D03*
%TO.N,/QSPI.BK1_IO0*%
X147232150Y-76015000D03*
X159640000Y-70020000D03*
%TO.N,SWDIO*%
X140190000Y-77660000D03*
%TO.N,/QSPI.BK1_IO2*%
X147968540Y-76800690D03*
X158410000Y-77710000D03*
%TO.N,/QSPI.BK1_IO1*%
X157760000Y-76190000D03*
X148820000Y-77260000D03*
%TO.N,/QSPI.BK1_CLK*%
X150815000Y-81520000D03*
X158980000Y-70725000D03*
%TO.N,ADC_CUL*%
X144175000Y-83330000D03*
X140150000Y-69770000D03*
X152020000Y-69650000D03*
%TO.N,SWCLK*%
X140180000Y-78400000D03*
%TO.N,/PWM_Control2*%
X138950000Y-65250000D03*
%TO.N,/PWM_Control3*%
X141550000Y-66360000D03*
%TO.N,/PWM_Control4*%
X144000000Y-66380000D03*
%TO.N,/PWM_Control1*%
X136620000Y-65280000D03*
%TO.N,/Plug/OSD-OUT*%
X153430000Y-96920000D03*
X148890000Y-96940000D03*
%TO.N,/USART.TX6*%
X144430000Y-75980000D03*
X145990000Y-69870000D03*
%TO.N,/USART.RX6*%
X143870000Y-76230000D03*
X145410000Y-70460000D03*
%TO.N,/USART.TX3*%
X147665000Y-78070000D03*
X151340000Y-70120000D03*
%TO.N,/USART.RX3*%
X152440000Y-70170000D03*
X145490000Y-66620000D03*
X148212835Y-77962165D03*
%TO.N,/PWM_Control5*%
X148370000Y-65270000D03*
%TO.N,/PWM_Control6*%
X150770000Y-65180000D03*
%TO.N,/PWM_Control7*%
X153120000Y-65190000D03*
%TO.N,/PWM_Control8*%
X154100000Y-66430000D03*
%TO.N,/USART.TX1*%
X140510000Y-70380000D03*
X141799615Y-76660385D03*
%TO.N,/USART.RX1*%
X141830000Y-76060000D03*
X141190000Y-70890000D03*
%TO.N,/USART.TX2*%
X140210000Y-80060000D03*
X144025000Y-97155000D03*
X139020000Y-93460000D03*
%TO.N,/USART.RX2*%
X141090000Y-80080000D03*
X142280000Y-96940000D03*
X138030000Y-93390000D03*
%TO.N,/USART.TX4*%
X140980000Y-79240000D03*
X138590000Y-98220000D03*
X137170000Y-93500000D03*
%TO.N,/USART.RX4*%
X136450000Y-93300000D03*
X141010000Y-78490000D03*
X135890000Y-98220000D03*
%TO.N,/BOOT0*%
X137850000Y-78430000D03*
X127775000Y-88535000D03*
X141019524Y-81637150D03*
%TO.N,Net-(U1B-PDR_ON)*%
X143460000Y-80050000D03*
%TO.N,VCC_Voltage*%
X143430000Y-83320000D03*
X142950000Y-70410000D03*
%TO.N,/QSPI.BK1_NCS*%
X158350000Y-78620000D03*
X148675000Y-79100000D03*
%TO.N,/PA0*%
X138255000Y-73005000D03*
X144240000Y-84085000D03*
%TO.N,/PB0*%
X137745000Y-73385000D03*
X146560000Y-82385000D03*
%TO.N,/PA1*%
X138765000Y-73535000D03*
X145050000Y-84035000D03*
%TO.N,/PA2*%
X148800000Y-84925000D03*
%TO.N,/Device/ICM42688-VDD*%
X150905000Y-80120000D03*
X149675000Y-78185000D03*
X149675000Y-77300000D03*
X151775000Y-80120000D03*
%TO.N,/Magnetometer.SDA*%
X142020000Y-71140000D03*
X143460000Y-76760000D03*
%TO.N,/PB1*%
X137245000Y-72865000D03*
X147570000Y-82080000D03*
%TO.N,/Magnetometer.SCL*%
X140700000Y-72190000D03*
X142870000Y-76110000D03*
%TO.N,/PE11*%
X146330000Y-73010000D03*
X146610000Y-80085000D03*
%TO.N,/OSD.OSD_CS*%
X144975000Y-83220000D03*
X153260000Y-84820000D03*
%TO.N,/Device/IST8310-VDD*%
X143910000Y-71720000D03*
X143060000Y-71710000D03*
X139680000Y-72860000D03*
X140655000Y-74690000D03*
X140680000Y-73750000D03*
%TO.N,/PE14*%
X149005000Y-80885000D03*
%TO.N,/Magnetometer.INT*%
X142370000Y-73870000D03*
X141000000Y-77640000D03*
%TO.N,/PE9*%
X147705000Y-81270000D03*
%TO.N,/OSD.OSD_CLK*%
X151927500Y-84812500D03*
X145795000Y-83235000D03*
%TO.N,/PE13*%
X148525000Y-80460000D03*
%TO.N,/Device/BMI008-VDD*%
X133457500Y-84227500D03*
X137935000Y-84100000D03*
X137935000Y-83225000D03*
%TO.N,/Device/DPS310-VDD*%
X146735000Y-86585000D03*
X147675000Y-86575000D03*
X145495000Y-86590000D03*
X145405000Y-91925000D03*
X146735000Y-91925000D03*
%TO.N,/QSPI.BK1_IO3*%
X143382150Y-82502850D03*
X157745000Y-70745000D03*
%TO.N,/Barometer.SDA*%
X139205000Y-82605000D03*
X146735000Y-87605000D03*
%TO.N,/Barometer.SCL*%
X138770000Y-82115000D03*
X147675000Y-87595000D03*
%TO.N,/Barometer.INT*%
X147395000Y-90210000D03*
X138700000Y-81410000D03*
%TO.N,/PA3*%
X148325000Y-83730000D03*
%TO.N,Net-(LED1-DI)*%
X159860000Y-80710000D03*
%TD*%
D13*
%TO.N,+3V3*%
X148610000Y-92610000D02*
X150120000Y-91100000D01*
X137930000Y-89760000D02*
X140780000Y-92610000D01*
X127900000Y-93360000D02*
X127900000Y-92030000D01*
X127900000Y-92030000D02*
X130170000Y-89760000D01*
X130170000Y-89760000D02*
X137930000Y-89760000D01*
X150120000Y-91100000D02*
X150820000Y-91100000D01*
X140780000Y-92610000D02*
X148610000Y-92610000D01*
%TO.N,/QSPI.BK1_IO0*%
X149450000Y-74740000D02*
X149450000Y-73070000D01*
X149640000Y-72880000D02*
X150210000Y-72880000D01*
X154690000Y-72130000D02*
X156800000Y-70020000D01*
X156800000Y-70020000D02*
X159640000Y-70020000D01*
X150390000Y-75140000D02*
X150730000Y-75480000D01*
X152730000Y-70800000D02*
X153120000Y-71190000D01*
X147232150Y-76015000D02*
X147232150Y-75197850D01*
X150210000Y-72880000D02*
X150390000Y-73060000D01*
X151350000Y-72600000D02*
X151350000Y-71370000D01*
X153120000Y-71190000D02*
X153120000Y-71890000D01*
X150390000Y-73060000D02*
X150390000Y-75140000D01*
X149450000Y-73070000D02*
X149640000Y-72880000D01*
X151950000Y-73770000D02*
X152460000Y-73770000D01*
X149170000Y-75020000D02*
X149450000Y-74740000D01*
X151920000Y-70800000D02*
X152730000Y-70800000D01*
X151610000Y-74110000D02*
X151950000Y-73770000D01*
X152460000Y-73770000D02*
X152610000Y-73620000D01*
X152610000Y-73620000D02*
X152610000Y-73180000D01*
X147410000Y-75020000D02*
X149170000Y-75020000D01*
X147232150Y-75197850D02*
X147410000Y-75020000D01*
X153120000Y-71890000D02*
X153360000Y-72130000D01*
X153360000Y-72130000D02*
X154690000Y-72130000D01*
X151350000Y-71370000D02*
X151920000Y-70800000D01*
X151780000Y-73030000D02*
X151350000Y-72600000D01*
X151610000Y-75240000D02*
X151610000Y-74110000D01*
X151370000Y-75480000D02*
X151610000Y-75240000D01*
X150730000Y-75480000D02*
X151370000Y-75480000D01*
X152460000Y-73030000D02*
X151780000Y-73030000D01*
X152610000Y-73180000D02*
X152460000Y-73030000D01*
%TO.N,/QSPI.BK1_IO2*%
X148640000Y-77760000D02*
X150120000Y-77760000D01*
X154410000Y-76900000D02*
X154410000Y-77640000D01*
X154660000Y-75130000D02*
X155820000Y-75130000D01*
X150120000Y-77760000D02*
X150780000Y-77100000D01*
X157390000Y-78610000D02*
X157610000Y-78390000D01*
X152600000Y-77400000D02*
X152600000Y-77850000D01*
X152300000Y-77100000D02*
X152600000Y-77400000D01*
X154280000Y-76170000D02*
X154280000Y-75510000D01*
X156040000Y-74910000D02*
X156040000Y-74290000D01*
X156910000Y-73950000D02*
X157220000Y-74260000D01*
X153780000Y-77800000D02*
X153780000Y-76670000D01*
X156030000Y-77160000D02*
X156280000Y-76910000D01*
X157030000Y-78610000D02*
X157390000Y-78610000D01*
X157220000Y-75370000D02*
X156240000Y-76350000D01*
X153780000Y-76670000D02*
X154280000Y-76170000D01*
X158410000Y-76980000D02*
X158410000Y-77710000D01*
X156690000Y-76910000D02*
X156830000Y-77050000D01*
X154410000Y-77640000D02*
X154700000Y-77930000D01*
X157610000Y-77000000D02*
X157840000Y-76770000D01*
X156040000Y-74290000D02*
X156380000Y-73950000D01*
X157610000Y-78390000D02*
X157610000Y-77000000D01*
X155750000Y-77930000D02*
X156030000Y-77650000D01*
X150780000Y-77100000D02*
X152300000Y-77100000D01*
X156830000Y-77050000D02*
X156830000Y-78410000D01*
X152920000Y-78170000D02*
X153410000Y-78170000D01*
X153410000Y-78170000D02*
X153780000Y-77800000D01*
X156280000Y-76910000D02*
X156690000Y-76910000D01*
X152600000Y-77850000D02*
X152920000Y-78170000D01*
X147968540Y-77088540D02*
X148640000Y-77760000D01*
X158200000Y-76770000D02*
X158410000Y-76980000D01*
X156030000Y-77650000D02*
X156030000Y-77160000D01*
X154700000Y-77930000D02*
X155750000Y-77930000D01*
X156830000Y-78410000D02*
X157030000Y-78610000D01*
X154280000Y-75510000D02*
X154660000Y-75130000D01*
X147968540Y-76800690D02*
X147968540Y-77088540D01*
X157840000Y-76770000D02*
X158200000Y-76770000D01*
X154960000Y-76350000D02*
X154410000Y-76900000D01*
X157220000Y-74260000D02*
X157220000Y-75370000D01*
X155820000Y-75130000D02*
X156040000Y-74910000D01*
X156240000Y-76350000D02*
X154960000Y-76350000D01*
X156380000Y-73950000D02*
X156910000Y-73950000D01*
%TO.N,/QSPI.BK1_IO1*%
X155060000Y-74660000D02*
X154600000Y-74660000D01*
X149720000Y-75560000D02*
X148390000Y-75560000D01*
X148820000Y-77095000D02*
X148820000Y-77260000D01*
X153370000Y-73880000D02*
X153370000Y-74590000D01*
X158640000Y-74500000D02*
X158640000Y-73210000D01*
X156710000Y-73150000D02*
X156430000Y-73430000D01*
X153570000Y-76040000D02*
X153250000Y-76040000D01*
X151660000Y-76690000D02*
X150440000Y-76690000D01*
X150440000Y-76690000D02*
X150170000Y-76420000D01*
X153600000Y-73650000D02*
X153370000Y-73880000D01*
X148390000Y-75560000D02*
X148030000Y-75920000D01*
X156780000Y-71390000D02*
X156070000Y-71390000D01*
X157380000Y-72590000D02*
X157090000Y-72300000D01*
X155360000Y-74360000D02*
X155060000Y-74660000D01*
X156710000Y-72770000D02*
X156710000Y-73150000D01*
X155750000Y-73430000D02*
X155360000Y-73820000D01*
X153830000Y-75780000D02*
X153570000Y-76040000D01*
X158640000Y-73210000D02*
X158020000Y-72590000D01*
X151970000Y-75400000D02*
X151970000Y-76380000D01*
X152320000Y-75050000D02*
X151970000Y-75400000D01*
X155660000Y-72200000D02*
X155970000Y-72510000D01*
X155360000Y-73820000D02*
X155360000Y-74360000D01*
X154600000Y-74660000D02*
X154360000Y-74420000D01*
X157760000Y-76190000D02*
X157760000Y-75380000D01*
X153830000Y-75050000D02*
X153830000Y-75780000D01*
X153000000Y-75790000D02*
X153000000Y-75340000D01*
X150170000Y-76010000D02*
X149720000Y-75560000D01*
X148030000Y-76305000D02*
X148820000Y-77095000D01*
X156430000Y-73430000D02*
X155750000Y-73430000D01*
X152710000Y-75050000D02*
X152320000Y-75050000D01*
X153370000Y-74590000D02*
X153830000Y-75050000D01*
X156070000Y-71390000D02*
X155660000Y-71800000D01*
X153250000Y-76040000D02*
X153000000Y-75790000D01*
X157090000Y-71700000D02*
X156780000Y-71390000D01*
X155660000Y-71800000D02*
X155660000Y-72200000D01*
X157090000Y-72300000D02*
X157090000Y-71700000D01*
X151970000Y-76380000D02*
X151660000Y-76690000D01*
X148030000Y-75920000D02*
X148030000Y-76305000D01*
X158020000Y-72590000D02*
X157380000Y-72590000D01*
X156450000Y-72510000D02*
X156710000Y-72770000D01*
X154360000Y-73910000D02*
X154100000Y-73650000D01*
X153000000Y-75340000D02*
X152710000Y-75050000D01*
X154360000Y-74420000D02*
X154360000Y-73910000D01*
X157760000Y-75380000D02*
X158640000Y-74500000D01*
X150170000Y-76420000D02*
X150170000Y-76010000D01*
X154100000Y-73650000D02*
X153600000Y-73650000D01*
X155970000Y-72510000D02*
X156450000Y-72510000D01*
%TO.N,/QSPI.BK1_CLK*%
X159698159Y-75649757D02*
X160321841Y-75649757D01*
X160561829Y-73489757D02*
X160561829Y-73609757D01*
X160321841Y-76249757D02*
X160250000Y-76249757D01*
X159458159Y-75289757D02*
X159458159Y-75409757D01*
X160010000Y-76489757D02*
X160010000Y-79310000D01*
X159698171Y-73849757D02*
X160321829Y-73849757D01*
X160561841Y-75889757D02*
X160561841Y-76009757D01*
X159698159Y-75049757D02*
X160321829Y-75049757D01*
X159698171Y-74449757D02*
X160321829Y-74449757D01*
X160010000Y-79310000D02*
X157800000Y-81520000D01*
X160010000Y-71870000D02*
X160010000Y-73009757D01*
X158980000Y-70725000D02*
X158980000Y-70840000D01*
X160561829Y-74689757D02*
X160561829Y-74809757D01*
X160250000Y-73249757D02*
X160321829Y-73249757D01*
X157800000Y-81520000D02*
X150815000Y-81520000D01*
X158980000Y-70840000D02*
X160010000Y-71870000D01*
X159458171Y-74089757D02*
X159458171Y-74209757D01*
X160321829Y-73249757D02*
G75*
G02*
X160561843Y-73489757I-29J-240043D01*
G01*
X160321829Y-74449757D02*
G75*
G02*
X160561843Y-74689757I-29J-240043D01*
G01*
X159698159Y-75049757D02*
G75*
G03*
X159458157Y-75289757I41J-240043D01*
G01*
X160321841Y-75649757D02*
G75*
G02*
X160561843Y-75889757I-41J-240043D01*
G01*
X159458171Y-74209757D02*
G75*
G03*
X159698171Y-74449829I240029J-43D01*
G01*
X159698171Y-73849757D02*
G75*
G03*
X159458157Y-74089757I29J-240043D01*
G01*
X159458159Y-75409757D02*
G75*
G03*
X159698159Y-75649841I240041J-43D01*
G01*
X160561829Y-74809757D02*
G75*
G02*
X160321829Y-75049829I-240029J-43D01*
G01*
X160250000Y-76249757D02*
G75*
G03*
X160009957Y-76489757I0J-240043D01*
G01*
X160561841Y-76009757D02*
G75*
G02*
X160321841Y-76249841I-240041J-43D01*
G01*
X160010000Y-73009757D02*
G75*
G03*
X160250000Y-73249800I240000J-43D01*
G01*
X160561829Y-73609757D02*
G75*
G02*
X160321829Y-73849829I-240029J-43D01*
G01*
%TO.N,ADC_CUL*%
X142570000Y-67350000D02*
X150280000Y-67350000D01*
X144289229Y-81250000D02*
X144190000Y-81250000D01*
X150280000Y-67350000D02*
X152020000Y-69090000D01*
X143690000Y-82940000D02*
X144080000Y-83330000D01*
X143130000Y-82940000D02*
X143690000Y-82940000D01*
X144190000Y-81250000D02*
X144182850Y-81257150D01*
X145590000Y-79949229D02*
X144289229Y-81250000D01*
X143333621Y-81257150D02*
X142880000Y-81710771D01*
X142880000Y-82690000D02*
X143130000Y-82940000D01*
X145590000Y-72760000D02*
X145590000Y-79949229D01*
X144080000Y-83330000D02*
X144175000Y-83330000D01*
X152020000Y-69650000D02*
X148700000Y-69650000D01*
X152020000Y-69090000D02*
X152020000Y-69650000D01*
X142880000Y-81710771D02*
X142880000Y-82690000D01*
X140150000Y-69770000D02*
X142570000Y-67350000D01*
X144182850Y-81257150D02*
X143333621Y-81257150D01*
X148700000Y-69650000D02*
X145590000Y-72760000D01*
%TO.N,/USART.TX6*%
X144430000Y-75980000D02*
X144430000Y-73140000D01*
X145990000Y-71580000D02*
X145990000Y-69870000D01*
X144430000Y-73140000D02*
X145990000Y-71580000D01*
%TO.N,/USART.RX6*%
X144370000Y-72320000D02*
X143870000Y-72820000D01*
X145410000Y-70460000D02*
X144370000Y-71500000D01*
X143870000Y-72820000D02*
X143870000Y-76230000D01*
X144370000Y-71500000D02*
X144370000Y-72320000D01*
%TO.N,/USART.TX3*%
X146430000Y-73720000D02*
X146890000Y-73260000D01*
X149040000Y-70120000D02*
X151340000Y-70120000D01*
X146890000Y-73260000D02*
X146890000Y-72270000D01*
X146430000Y-76835000D02*
X146430000Y-73720000D01*
X146890000Y-72270000D02*
X149040000Y-70120000D01*
X147665000Y-78070000D02*
X146430000Y-76835000D01*
%TO.N,/USART.RX3*%
X149130000Y-70520000D02*
X147290000Y-72360000D01*
X152440000Y-70170000D02*
X152810000Y-69800000D01*
X152810000Y-69800000D02*
X152810000Y-68460000D01*
X146770000Y-74010000D02*
X146770000Y-76519330D01*
X152440000Y-70170000D02*
X151970000Y-70170000D01*
X150970000Y-66620000D02*
X152810000Y-68460000D01*
X145490000Y-66620000D02*
X150970000Y-66620000D01*
X146770000Y-76519330D02*
X148212835Y-77962165D01*
X151620000Y-70520000D02*
X149130000Y-70520000D01*
X151970000Y-70170000D02*
X151620000Y-70520000D01*
X147290000Y-72360000D02*
X147290000Y-73490000D01*
X147290000Y-73490000D02*
X146770000Y-74010000D01*
%TO.N,/USART.TX1*%
X140510000Y-70380000D02*
X140180000Y-70710000D01*
X140180000Y-75040770D02*
X141799615Y-76660385D01*
X140180000Y-70710000D02*
X140180000Y-75040770D01*
%TO.N,/USART.RX1*%
X141190000Y-75420000D02*
X141190000Y-70890000D01*
X141830000Y-76060000D02*
X141190000Y-75420000D01*
%TO.N,/USART.TX2*%
X139020000Y-93460000D02*
X140300000Y-93460000D01*
X140300000Y-93460000D02*
X143995000Y-97155000D01*
X143995000Y-97155000D02*
X144025000Y-97155000D01*
%TO.N,/USART.RX2*%
X141550000Y-96940000D02*
X142280000Y-96940000D01*
X138030000Y-93420000D02*
X141550000Y-96940000D01*
X138030000Y-93390000D02*
X138030000Y-93420000D01*
%TO.N,/USART.TX4*%
X137170000Y-93500000D02*
X137170000Y-96800000D01*
X137170000Y-96800000D02*
X138590000Y-98220000D01*
%TO.N,/USART.RX4*%
X135890000Y-98220000D02*
X136450000Y-97660000D01*
X136450000Y-97660000D02*
X136450000Y-93300000D01*
%TO.N,/BOOT0*%
X130495000Y-88535000D02*
X127775000Y-88535000D01*
X137850000Y-78430000D02*
X134950000Y-81330000D01*
X134950000Y-84080000D02*
X130495000Y-88535000D01*
X134950000Y-81330000D02*
X134950000Y-84080000D01*
%TO.N,VCC_Voltage*%
X142430000Y-70930000D02*
X142950000Y-70410000D01*
X142590000Y-82920000D02*
X142590000Y-81350000D01*
X142370000Y-75160000D02*
X143090000Y-74440000D01*
X141800000Y-77600000D02*
X142370000Y-77030000D01*
X142430000Y-72810000D02*
X142430000Y-70930000D01*
X142370000Y-77030000D02*
X142370000Y-75160000D01*
X143430000Y-83320000D02*
X142990000Y-83320000D01*
X142990000Y-83320000D02*
X142590000Y-82920000D01*
X142590000Y-81350000D02*
X141800000Y-80560000D01*
X143090000Y-74440000D02*
X143090000Y-73470000D01*
X143090000Y-73470000D02*
X142430000Y-72810000D01*
X141800000Y-80560000D02*
X141800000Y-77600000D01*
%TO.N,/QSPI.BK1_NCS*%
X151500000Y-77960000D02*
X151190000Y-77960000D01*
X153544213Y-80160000D02*
X153544213Y-79640000D01*
X148950000Y-79500000D02*
X148675000Y-79225000D01*
X155344213Y-78640000D02*
X155344213Y-80160000D01*
X151890000Y-79400000D02*
X153304213Y-79400000D01*
X151020000Y-78130000D02*
X151020000Y-79390000D01*
X156544213Y-79640000D02*
X156544213Y-80160000D01*
X151020000Y-79390000D02*
X150820000Y-79590000D01*
X154744213Y-80160000D02*
X154744213Y-78640000D01*
X153904213Y-80400000D02*
X153784213Y-80400000D01*
X149550000Y-78770000D02*
X149550000Y-79310000D01*
X155944213Y-80160000D02*
X155944213Y-78640000D01*
X154144213Y-78640000D02*
X154144213Y-80160000D01*
X158350000Y-78620000D02*
X158350000Y-78750000D01*
X154504213Y-78400000D02*
X154384213Y-78400000D01*
X156304213Y-80400000D02*
X156184213Y-80400000D01*
X150090000Y-78610000D02*
X149710000Y-78610000D01*
X150820000Y-79590000D02*
X150420000Y-79590000D01*
X157700000Y-79400000D02*
X156784213Y-79400000D01*
X149710000Y-78610000D02*
X149550000Y-78770000D01*
X150220000Y-78740000D02*
X150090000Y-78610000D01*
X151690000Y-79200000D02*
X151690000Y-78150000D01*
X155704213Y-78400000D02*
X155584213Y-78400000D01*
X149550000Y-79310000D02*
X149360000Y-79500000D01*
X158350000Y-78750000D02*
X157700000Y-79400000D01*
X148675000Y-79225000D02*
X148675000Y-79100000D01*
X150420000Y-79590000D02*
X150220000Y-79390000D01*
X151690000Y-78150000D02*
X151500000Y-77960000D01*
X150220000Y-79390000D02*
X150220000Y-78740000D01*
X151890000Y-79400000D02*
X151690000Y-79200000D01*
X155104213Y-80400000D02*
X154984213Y-80400000D01*
X151190000Y-77960000D02*
X151020000Y-78130000D01*
X149360000Y-79500000D02*
X148950000Y-79500000D01*
X154744213Y-78640000D02*
G75*
G03*
X154504213Y-78399987I-240013J0D01*
G01*
X155944213Y-78640000D02*
G75*
G03*
X155704213Y-78399987I-240013J0D01*
G01*
X156544213Y-80160000D02*
G75*
G02*
X156304213Y-80400013I-240013J0D01*
G01*
X153784213Y-80400000D02*
G75*
G02*
X153544200Y-80160000I-13J240000D01*
G01*
X154984213Y-80400000D02*
G75*
G02*
X154744200Y-80160000I-13J240000D01*
G01*
X153544213Y-79640000D02*
G75*
G03*
X153304213Y-79399987I-240013J0D01*
G01*
X156184213Y-80400000D02*
G75*
G02*
X155944200Y-80160000I-13J240000D01*
G01*
X154384213Y-78400000D02*
G75*
G03*
X154144200Y-78640000I-13J-240000D01*
G01*
X155344213Y-80160000D02*
G75*
G02*
X155104213Y-80400013I-240013J0D01*
G01*
X156784213Y-79400000D02*
G75*
G03*
X156544200Y-79640000I-13J-240000D01*
G01*
X154144213Y-80160000D02*
G75*
G02*
X153904213Y-80400013I-240013J0D01*
G01*
X155584213Y-78400000D02*
G75*
G03*
X155344200Y-78640000I-13J-240000D01*
G01*
%TO.N,/PA0*%
X141920000Y-81980000D02*
X141920000Y-83400000D01*
X138255000Y-73005000D02*
X138255000Y-75615000D01*
X140920000Y-80980000D02*
X141920000Y-81980000D01*
X140280000Y-80980000D02*
X140920000Y-80980000D01*
X139710000Y-80410000D02*
X140280000Y-80980000D01*
X138255000Y-75615000D02*
X139710000Y-77070000D01*
X142605000Y-84085000D02*
X144240000Y-84085000D01*
X141920000Y-83400000D02*
X142605000Y-84085000D01*
X139710000Y-77070000D02*
X139710000Y-80410000D01*
%TO.N,/PB0*%
X147350000Y-83110000D02*
X147350000Y-85160000D01*
X146560000Y-82385000D02*
X146625000Y-82385000D01*
X147350000Y-85160000D02*
X147182850Y-85327150D01*
X141280000Y-83810000D02*
X141510000Y-83580000D01*
X147182850Y-85327150D02*
X142377150Y-85327150D01*
X142377150Y-85327150D02*
X141280000Y-84230000D01*
X141510000Y-83580000D02*
X141510000Y-82830000D01*
X141510000Y-82830000D02*
X139200000Y-80520000D01*
X137745000Y-75945000D02*
X137745000Y-73385000D01*
X146625000Y-82385000D02*
X147350000Y-83110000D01*
X139200000Y-80520000D02*
X139200000Y-77400000D01*
X139200000Y-77400000D02*
X137745000Y-75945000D01*
X141280000Y-84230000D02*
X141280000Y-83810000D01*
%TO.N,/PA1*%
X142230000Y-83075000D02*
X142230000Y-81780000D01*
X142230000Y-81780000D02*
X140600000Y-80150000D01*
X138765000Y-75175000D02*
X138765000Y-73535000D01*
X144732850Y-83717850D02*
X142872850Y-83717850D01*
X145050000Y-84035000D02*
X144732850Y-83717850D01*
X140600000Y-80150000D02*
X140600000Y-77010000D01*
X142872850Y-83717850D02*
X142230000Y-83075000D01*
X140600000Y-77010000D02*
X138765000Y-75175000D01*
%TO.N,/PB1*%
X147860000Y-82370000D02*
X147860000Y-85180000D01*
X140800000Y-83780000D02*
X140360000Y-83340000D01*
X137245000Y-76255000D02*
X137245000Y-72865000D01*
X138320000Y-80340000D02*
X138320000Y-77330000D01*
X147570000Y-82080000D02*
X147860000Y-82370000D01*
X147860000Y-85180000D02*
X147120000Y-85920000D01*
X138320000Y-77330000D02*
X137245000Y-76255000D01*
X140360000Y-82380000D02*
X138320000Y-80340000D01*
X142280000Y-85920000D02*
X140800000Y-84440000D01*
X147120000Y-85920000D02*
X142280000Y-85920000D01*
X140800000Y-84440000D02*
X140800000Y-83780000D01*
X140360000Y-83340000D02*
X140360000Y-82380000D01*
%TO.N,/PE11*%
X146050000Y-73290000D02*
X146330000Y-73010000D01*
X146610000Y-80085000D02*
X146050000Y-79525000D01*
X146050000Y-79525000D02*
X146050000Y-73290000D01*
%TO.N,/QSPI.BK1_IO3*%
X143382150Y-82502850D02*
X143782150Y-82102850D01*
X157745000Y-71555000D02*
X157745000Y-70745000D01*
X147392850Y-80092850D02*
X148902850Y-80092850D01*
X148902850Y-80092850D02*
X149640000Y-80830000D01*
X159060000Y-79070000D02*
X159060000Y-72870000D01*
X157300000Y-80830000D02*
X159060000Y-79070000D01*
X145382850Y-82102850D02*
X147392850Y-80092850D01*
X159060000Y-72870000D02*
X157745000Y-71555000D01*
X149640000Y-80830000D02*
X157300000Y-80830000D01*
X143782150Y-82102850D02*
X145382850Y-82102850D01*
%TO.N,/Barometer.SDA*%
X139205000Y-82605000D02*
X139205000Y-84955000D01*
X145885000Y-88455000D02*
X146735000Y-87605000D01*
X142705000Y-88455000D02*
X145885000Y-88455000D01*
X139205000Y-84955000D02*
X142705000Y-88455000D01*
%TO.N,/Barometer.SCL*%
X142445000Y-88985000D02*
X138755000Y-85295000D01*
X146655000Y-88985000D02*
X142445000Y-88985000D01*
X147675000Y-87595000D02*
X147675000Y-87965000D01*
X138755000Y-82130000D02*
X138770000Y-82115000D01*
X147675000Y-87965000D02*
X146655000Y-88985000D01*
X138755000Y-85295000D02*
X138755000Y-82130000D01*
%TO.N,/Barometer.INT*%
X141865000Y-90495000D02*
X137160000Y-85790000D01*
X137160000Y-82065000D02*
X137815000Y-81410000D01*
X137815000Y-81410000D02*
X138700000Y-81410000D01*
X137160000Y-85790000D02*
X137160000Y-82065000D01*
X147110000Y-90495000D02*
X141865000Y-90495000D01*
X147395000Y-90210000D02*
X147110000Y-90495000D01*
%TD*%
%TA.AperFunction,Conductor*%
%TO.N,/USART.RX1*%
G36*
X141605014Y-75730367D02*
G01*
X141896603Y-75870451D01*
X141902576Y-75877122D01*
X141902366Y-75885425D01*
X141832564Y-76056162D01*
X141826261Y-76062523D01*
X141826162Y-76062564D01*
X141655425Y-76132366D01*
X141646470Y-76132325D01*
X141640452Y-76126603D01*
X141500367Y-75835014D01*
X141499874Y-75826073D01*
X141502639Y-75821677D01*
X141591676Y-75732640D01*
X141599948Y-75729214D01*
X141605014Y-75730367D01*
G37*
%TD.AperFunction*%
%TD*%
%TA.AperFunction,Conductor*%
%TO.N,/USART.TX1*%
G36*
X141574629Y-76330752D02*
G01*
X141866218Y-76470836D01*
X141872191Y-76477507D01*
X141871981Y-76485810D01*
X141802179Y-76656547D01*
X141795876Y-76662908D01*
X141795777Y-76662949D01*
X141625040Y-76732751D01*
X141616085Y-76732710D01*
X141610067Y-76726988D01*
X141469982Y-76435399D01*
X141469489Y-76426458D01*
X141472254Y-76422062D01*
X141561291Y-76333025D01*
X141569563Y-76329599D01*
X141574629Y-76330752D01*
G37*
%TD.AperFunction*%
%TD*%
%TA.AperFunction,Conductor*%
%TO.N,/USART.TX4*%
G36*
X138365014Y-97890367D02*
G01*
X138656603Y-98030451D01*
X138662576Y-98037122D01*
X138662366Y-98045425D01*
X138592564Y-98216162D01*
X138586261Y-98222523D01*
X138586162Y-98222564D01*
X138415425Y-98292366D01*
X138406470Y-98292325D01*
X138400452Y-98286603D01*
X138260367Y-97995014D01*
X138259874Y-97986073D01*
X138262639Y-97981677D01*
X138351676Y-97892640D01*
X138359948Y-97889214D01*
X138365014Y-97890367D01*
G37*
%TD.AperFunction*%
%TD*%
%TA.AperFunction,Conductor*%
%TO.N,/PB0*%
G36*
X137919613Y-73457272D02*
G01*
X137925916Y-73463634D01*
X137926126Y-73471936D01*
X137818996Y-73777175D01*
X137813023Y-73783846D01*
X137807956Y-73785000D01*
X137682044Y-73785000D01*
X137673771Y-73781573D01*
X137671004Y-73777175D01*
X137637047Y-73680425D01*
X137563873Y-73471934D01*
X137564367Y-73462995D01*
X137570384Y-73457273D01*
X137740474Y-73385898D01*
X137749428Y-73385858D01*
X137919613Y-73457272D01*
G37*
%TD.AperFunction*%
%TD*%
%TA.AperFunction,Conductor*%
%TO.N,/QSPI.BK1_IO3*%
G36*
X157919613Y-70817272D02*
G01*
X157925916Y-70823634D01*
X157926126Y-70831936D01*
X157818996Y-71137175D01*
X157813023Y-71143846D01*
X157807956Y-71145000D01*
X157682044Y-71145000D01*
X157673771Y-71141573D01*
X157671004Y-71137175D01*
X157637047Y-71040425D01*
X157563873Y-70831934D01*
X157564367Y-70822995D01*
X157570384Y-70817273D01*
X157740474Y-70745898D01*
X157749428Y-70745858D01*
X157919613Y-70817272D01*
G37*
%TD.AperFunction*%
%TD*%
%TA.AperFunction,Conductor*%
%TO.N,/USART.RX2*%
G36*
X138212878Y-93317940D02*
G01*
X138219181Y-93324301D01*
X138219190Y-93324324D01*
X138342316Y-93627286D01*
X138342256Y-93636241D01*
X138339750Y-93639964D01*
X138250695Y-93729019D01*
X138242422Y-93732446D01*
X138236774Y-93730992D01*
X138048694Y-93627286D01*
X137962586Y-93579806D01*
X137956995Y-93572810D01*
X137957404Y-93565133D01*
X138027435Y-93393836D01*
X138033738Y-93387476D01*
X138033780Y-93387458D01*
X138203925Y-93317899D01*
X138212878Y-93317940D01*
G37*
%TD.AperFunction*%
%TD*%
%TA.AperFunction,Conductor*%
%TO.N,ADC_CUL*%
G36*
X140388324Y-69442641D02*
G01*
X140477358Y-69531675D01*
X140480785Y-69539948D01*
X140479631Y-69545015D01*
X140339548Y-69836603D01*
X140332877Y-69842576D01*
X140324574Y-69842366D01*
X140153837Y-69772564D01*
X140147476Y-69766261D01*
X140147435Y-69766162D01*
X140077633Y-69595425D01*
X140077674Y-69586470D01*
X140083394Y-69580452D01*
X140374985Y-69440367D01*
X140383926Y-69439874D01*
X140388324Y-69442641D01*
G37*
%TD.AperFunction*%
%TD*%
%TA.AperFunction,Conductor*%
%TO.N,/USART.RX4*%
G36*
X136128324Y-97892641D02*
G01*
X136217358Y-97981675D01*
X136220785Y-97989948D01*
X136219631Y-97995015D01*
X136079548Y-98286603D01*
X136072877Y-98292576D01*
X136064574Y-98292366D01*
X135893837Y-98222564D01*
X135887476Y-98216261D01*
X135887435Y-98216162D01*
X135817633Y-98045425D01*
X135817674Y-98036470D01*
X135823394Y-98030452D01*
X136114985Y-97890367D01*
X136123926Y-97889874D01*
X136128324Y-97892641D01*
G37*
%TD.AperFunction*%
%TD*%
%TA.AperFunction,Conductor*%
%TO.N,+3V3*%
G36*
X127971229Y-92963427D02*
G01*
X127973996Y-92967825D01*
X128081126Y-93273063D01*
X128080632Y-93282005D01*
X128074613Y-93287727D01*
X127904527Y-93359100D01*
X127895573Y-93359141D01*
X127895473Y-93359100D01*
X127725386Y-93287727D01*
X127719083Y-93281366D01*
X127718873Y-93273065D01*
X127826004Y-92967825D01*
X127831978Y-92961154D01*
X127837044Y-92960000D01*
X127962956Y-92960000D01*
X127971229Y-92963427D01*
G37*
%TD.AperFunction*%
%TD*%
%TA.AperFunction,Conductor*%
%TO.N,/QSPI.BK1_NCS*%
G36*
X158354087Y-78622708D02*
G01*
X158354157Y-78622778D01*
X158482385Y-78752294D01*
X158485771Y-78760584D01*
X158482303Y-78768840D01*
X158481495Y-78769569D01*
X158208772Y-78993458D01*
X158200203Y-78996059D01*
X158193075Y-78992688D01*
X158104135Y-78903748D01*
X158100708Y-78895475D01*
X158100891Y-78893416D01*
X158148276Y-78629596D01*
X158153112Y-78622060D01*
X158159748Y-78619965D01*
X158345802Y-78619310D01*
X158354087Y-78622708D01*
G37*
%TD.AperFunction*%
%TD*%
%TA.AperFunction,Conductor*%
%TO.N,/PB0*%
G36*
X146744744Y-82312177D02*
G01*
X146750044Y-82316616D01*
X146912383Y-82567855D01*
X146914129Y-82570556D01*
X146915741Y-82579365D01*
X146912575Y-82585179D01*
X146823575Y-82674179D01*
X146815302Y-82677606D01*
X146811668Y-82677027D01*
X146495418Y-82573682D01*
X146488618Y-82567855D01*
X146487931Y-82558927D01*
X146488213Y-82558155D01*
X146557435Y-82388836D01*
X146563738Y-82382476D01*
X146563780Y-82382458D01*
X146735791Y-82312136D01*
X146744744Y-82312177D01*
G37*
%TD.AperFunction*%
%TD*%
%TA.AperFunction,Conductor*%
%TO.N,/USART.TX3*%
G36*
X147440014Y-77740367D02*
G01*
X147731603Y-77880451D01*
X147737576Y-77887122D01*
X147737366Y-77895425D01*
X147667564Y-78066162D01*
X147661261Y-78072523D01*
X147661162Y-78072564D01*
X147490425Y-78142366D01*
X147481470Y-78142325D01*
X147475452Y-78136603D01*
X147335367Y-77845014D01*
X147334874Y-77836073D01*
X147337639Y-77831677D01*
X147426676Y-77742640D01*
X147434948Y-77739214D01*
X147440014Y-77740367D01*
G37*
%TD.AperFunction*%
%TD*%
%TA.AperFunction,Conductor*%
%TO.N,/PE11*%
G36*
X146155581Y-72937696D02*
G01*
X146325471Y-73007148D01*
X146331833Y-73013451D01*
X146331862Y-73013521D01*
X146401823Y-73183334D01*
X146401806Y-73192289D01*
X146395462Y-73198609D01*
X146394849Y-73198841D01*
X146123118Y-73293370D01*
X146119274Y-73294020D01*
X145997039Y-73294020D01*
X145988766Y-73290593D01*
X145985339Y-73282320D01*
X145986417Y-73277416D01*
X146140533Y-72943623D01*
X146147112Y-72937548D01*
X146155581Y-72937696D01*
G37*
%TD.AperFunction*%
%TD*%
%TA.AperFunction,Conductor*%
%TO.N,/USART.RX3*%
G36*
X147987849Y-77632532D02*
G01*
X148279438Y-77772616D01*
X148285411Y-77779287D01*
X148285201Y-77787590D01*
X148215399Y-77958327D01*
X148209096Y-77964688D01*
X148208997Y-77964729D01*
X148038260Y-78034531D01*
X148029305Y-78034490D01*
X148023287Y-78028768D01*
X147883202Y-77737179D01*
X147882709Y-77728238D01*
X147885474Y-77723842D01*
X147974511Y-77634805D01*
X147982783Y-77631379D01*
X147987849Y-77632532D01*
G37*
%TD.AperFunction*%
%TD*%
%TA.AperFunction,Conductor*%
%TO.N,/USART.RX3*%
G36*
X145882176Y-66546004D02*
G01*
X145888846Y-66551976D01*
X145890000Y-66557043D01*
X145890000Y-66682956D01*
X145886573Y-66691229D01*
X145882175Y-66693996D01*
X145576936Y-66801126D01*
X145567994Y-66800632D01*
X145562272Y-66794613D01*
X145490898Y-66624525D01*
X145490858Y-66615573D01*
X145490871Y-66615540D01*
X145562273Y-66445384D01*
X145568633Y-66439083D01*
X145576934Y-66438873D01*
X145882176Y-66546004D01*
G37*
%TD.AperFunction*%
%TD*%
%TA.AperFunction,Conductor*%
%TO.N,/QSPI.BK1_CLK*%
G36*
X151207176Y-81446004D02*
G01*
X151213846Y-81451976D01*
X151215000Y-81457043D01*
X151215000Y-81582956D01*
X151211573Y-81591229D01*
X151207175Y-81593996D01*
X150901936Y-81701126D01*
X150892994Y-81700632D01*
X150887272Y-81694613D01*
X150815898Y-81524525D01*
X150815858Y-81515573D01*
X150815871Y-81515540D01*
X150887273Y-81345384D01*
X150893633Y-81339083D01*
X150901934Y-81338873D01*
X151207176Y-81446004D01*
G37*
%TD.AperFunction*%
%TD*%
%TA.AperFunction,Conductor*%
%TO.N,/PB1*%
G36*
X137419613Y-72937272D02*
G01*
X137425916Y-72943634D01*
X137426126Y-72951936D01*
X137318996Y-73257175D01*
X137313023Y-73263846D01*
X137307956Y-73265000D01*
X137182044Y-73265000D01*
X137173771Y-73261573D01*
X137171004Y-73257175D01*
X137137047Y-73160425D01*
X137063873Y-72951934D01*
X137064367Y-72942995D01*
X137070384Y-72937273D01*
X137240474Y-72865898D01*
X137249428Y-72865858D01*
X137419613Y-72937272D01*
G37*
%TD.AperFunction*%
%TD*%
%TA.AperFunction,Conductor*%
%TO.N,VCC_Voltage*%
G36*
X143352005Y-83139367D02*
G01*
X143357727Y-83145386D01*
X143429100Y-83315473D01*
X143429141Y-83324428D01*
X143429100Y-83324527D01*
X143357727Y-83494613D01*
X143351365Y-83500916D01*
X143343063Y-83501126D01*
X143037825Y-83393996D01*
X143031154Y-83388023D01*
X143030000Y-83382956D01*
X143030000Y-83257043D01*
X143033427Y-83248770D01*
X143037822Y-83246004D01*
X143343065Y-83138873D01*
X143352005Y-83139367D01*
G37*
%TD.AperFunction*%
%TD*%
%TA.AperFunction,Conductor*%
%TO.N,/USART.TX1*%
G36*
X140335423Y-70307632D02*
G01*
X140471306Y-70363185D01*
X140506162Y-70377435D01*
X140512523Y-70383738D01*
X140512564Y-70383837D01*
X140582366Y-70554574D01*
X140582325Y-70563529D01*
X140576603Y-70569548D01*
X140285015Y-70709631D01*
X140276073Y-70710125D01*
X140271675Y-70707358D01*
X140182641Y-70618324D01*
X140179214Y-70610051D01*
X140180367Y-70604986D01*
X140320452Y-70313394D01*
X140327122Y-70307423D01*
X140335423Y-70307632D01*
G37*
%TD.AperFunction*%
%TD*%
%TA.AperFunction,Conductor*%
%TO.N,/Barometer.INT*%
G36*
X138622005Y-81229367D02*
G01*
X138627727Y-81235386D01*
X138699100Y-81405473D01*
X138699141Y-81414428D01*
X138699100Y-81414527D01*
X138627727Y-81584613D01*
X138621365Y-81590916D01*
X138613063Y-81591126D01*
X138307825Y-81483996D01*
X138301154Y-81478023D01*
X138300000Y-81472956D01*
X138300000Y-81347043D01*
X138303427Y-81338770D01*
X138307822Y-81336004D01*
X138613065Y-81228873D01*
X138622005Y-81229367D01*
G37*
%TD.AperFunction*%
%TD*%
%TA.AperFunction,Conductor*%
%TO.N,/QSPI.BK1_IO2*%
G36*
X158481229Y-77313427D02*
G01*
X158483996Y-77317825D01*
X158591126Y-77623063D01*
X158590632Y-77632005D01*
X158584613Y-77637727D01*
X158414527Y-77709100D01*
X158405573Y-77709141D01*
X158405473Y-77709100D01*
X158235386Y-77637727D01*
X158229083Y-77631366D01*
X158228873Y-77623065D01*
X158336004Y-77317825D01*
X158341978Y-77311154D01*
X158347044Y-77310000D01*
X158472956Y-77310000D01*
X158481229Y-77313427D01*
G37*
%TD.AperFunction*%
%TD*%
%TA.AperFunction,Conductor*%
%TO.N,/USART.TX2*%
G36*
X139412176Y-93386004D02*
G01*
X139418846Y-93391976D01*
X139420000Y-93397043D01*
X139420000Y-93522956D01*
X139416573Y-93531229D01*
X139412175Y-93533996D01*
X139106936Y-93641126D01*
X139097994Y-93640632D01*
X139092272Y-93634613D01*
X139020898Y-93464525D01*
X139020858Y-93455573D01*
X139020871Y-93455540D01*
X139092273Y-93285384D01*
X139098633Y-93279083D01*
X139106934Y-93278873D01*
X139412176Y-93386004D01*
G37*
%TD.AperFunction*%
%TD*%
%TA.AperFunction,Conductor*%
%TO.N,/PB1*%
G36*
X147753529Y-82007674D02*
G01*
X147759548Y-82013396D01*
X147899631Y-82304984D01*
X147900125Y-82313926D01*
X147897358Y-82318324D01*
X147808324Y-82407358D01*
X147800051Y-82410785D01*
X147794984Y-82409631D01*
X147503396Y-82269548D01*
X147497423Y-82262877D01*
X147497632Y-82254576D01*
X147567435Y-82083836D01*
X147573738Y-82077476D01*
X147573780Y-82077458D01*
X147744576Y-82007633D01*
X147753529Y-82007674D01*
G37*
%TD.AperFunction*%
%TD*%
%TA.AperFunction,Conductor*%
%TO.N,/USART.TX3*%
G36*
X151262005Y-69939367D02*
G01*
X151267727Y-69945386D01*
X151339100Y-70115473D01*
X151339141Y-70124428D01*
X151339100Y-70124527D01*
X151267727Y-70294613D01*
X151261365Y-70300916D01*
X151253063Y-70301126D01*
X150947825Y-70193996D01*
X150941154Y-70188023D01*
X150940000Y-70182956D01*
X150940000Y-70057043D01*
X150943427Y-70048770D01*
X150947822Y-70046004D01*
X151253065Y-69938873D01*
X151262005Y-69939367D01*
G37*
%TD.AperFunction*%
%TD*%
%TA.AperFunction,Conductor*%
%TO.N,/BOOT0*%
G36*
X137675423Y-78357632D02*
G01*
X137811306Y-78413185D01*
X137846162Y-78427435D01*
X137852523Y-78433738D01*
X137852564Y-78433837D01*
X137922366Y-78604574D01*
X137922325Y-78613529D01*
X137916603Y-78619548D01*
X137625015Y-78759631D01*
X137616073Y-78760125D01*
X137611675Y-78757358D01*
X137522641Y-78668324D01*
X137519214Y-78660051D01*
X137520367Y-78654986D01*
X137660452Y-78363394D01*
X137667122Y-78357423D01*
X137675423Y-78357632D01*
G37*
%TD.AperFunction*%
%TD*%
%TA.AperFunction,Conductor*%
%TO.N,/USART.RX1*%
G36*
X141364613Y-70962272D02*
G01*
X141370916Y-70968634D01*
X141371126Y-70976936D01*
X141263996Y-71282175D01*
X141258023Y-71288846D01*
X141252956Y-71290000D01*
X141127044Y-71290000D01*
X141118771Y-71286573D01*
X141116004Y-71282175D01*
X141082047Y-71185425D01*
X141008873Y-70976934D01*
X141009367Y-70967995D01*
X141015384Y-70962273D01*
X141185474Y-70890898D01*
X141194428Y-70890858D01*
X141364613Y-70962272D01*
G37*
%TD.AperFunction*%
%TD*%
%TA.AperFunction,Conductor*%
%TO.N,/Barometer.SCL*%
G36*
X147848927Y-87666984D02*
G01*
X147855229Y-87673345D01*
X147855188Y-87682299D01*
X147855162Y-87682360D01*
X147710958Y-88020663D01*
X147704562Y-88026930D01*
X147695607Y-88026838D01*
X147691922Y-88024348D01*
X147605000Y-87937426D01*
X147602518Y-87933759D01*
X147494876Y-87682400D01*
X147494769Y-87673446D01*
X147501025Y-87667039D01*
X147501030Y-87667036D01*
X147671192Y-87596172D01*
X147680146Y-87596156D01*
X147848927Y-87666984D01*
G37*
%TD.AperFunction*%
%TD*%
%TA.AperFunction,Conductor*%
%TO.N,/PA0*%
G36*
X138429613Y-73077272D02*
G01*
X138435916Y-73083634D01*
X138436126Y-73091936D01*
X138328996Y-73397175D01*
X138323023Y-73403846D01*
X138317956Y-73405000D01*
X138192044Y-73405000D01*
X138183771Y-73401573D01*
X138181004Y-73397175D01*
X138147047Y-73300425D01*
X138073873Y-73091934D01*
X138074367Y-73082995D01*
X138080384Y-73077273D01*
X138250474Y-73005898D01*
X138259428Y-73005858D01*
X138429613Y-73077272D01*
G37*
%TD.AperFunction*%
%TD*%
%TA.AperFunction,Conductor*%
%TO.N,+3V3*%
G36*
X150742005Y-90919367D02*
G01*
X150747727Y-90925386D01*
X150819100Y-91095473D01*
X150819141Y-91104428D01*
X150819100Y-91104527D01*
X150747727Y-91274613D01*
X150741365Y-91280916D01*
X150733063Y-91281126D01*
X150427825Y-91173996D01*
X150421154Y-91168023D01*
X150420000Y-91162956D01*
X150420000Y-91037043D01*
X150423427Y-91028770D01*
X150427822Y-91026004D01*
X150733065Y-90918873D01*
X150742005Y-90919367D01*
G37*
%TD.AperFunction*%
%TD*%
%TA.AperFunction,Conductor*%
%TO.N,/Barometer.SDA*%
G36*
X146560423Y-87532632D02*
G01*
X146696306Y-87588185D01*
X146731162Y-87602435D01*
X146737523Y-87608738D01*
X146737564Y-87608837D01*
X146807366Y-87779574D01*
X146807325Y-87788529D01*
X146801603Y-87794548D01*
X146510015Y-87934631D01*
X146501073Y-87935125D01*
X146496675Y-87932358D01*
X146407641Y-87843324D01*
X146404214Y-87835051D01*
X146405367Y-87829986D01*
X146545452Y-87538394D01*
X146552122Y-87532423D01*
X146560423Y-87532632D01*
G37*
%TD.AperFunction*%
%TD*%
%TA.AperFunction,Conductor*%
%TO.N,/Barometer.INT*%
G36*
X147220423Y-90137632D02*
G01*
X147356306Y-90193185D01*
X147391162Y-90207435D01*
X147397523Y-90213738D01*
X147397564Y-90213837D01*
X147467366Y-90384574D01*
X147467325Y-90393529D01*
X147461603Y-90399548D01*
X147170015Y-90539631D01*
X147161073Y-90540125D01*
X147156675Y-90537358D01*
X147067641Y-90448324D01*
X147064214Y-90440051D01*
X147065367Y-90434986D01*
X147205452Y-90143394D01*
X147212122Y-90137423D01*
X147220423Y-90137632D01*
G37*
%TD.AperFunction*%
%TD*%
%TA.AperFunction,Conductor*%
%TO.N,/USART.TX4*%
G36*
X137344613Y-93572272D02*
G01*
X137350916Y-93578634D01*
X137351126Y-93586936D01*
X137243996Y-93892175D01*
X137238023Y-93898846D01*
X137232956Y-93900000D01*
X137107044Y-93900000D01*
X137098771Y-93896573D01*
X137096004Y-93892175D01*
X137062047Y-93795425D01*
X136988873Y-93586934D01*
X136989367Y-93577995D01*
X136995384Y-93572273D01*
X137165474Y-93500898D01*
X137174428Y-93500858D01*
X137344613Y-93572272D01*
G37*
%TD.AperFunction*%
%TD*%
%TA.AperFunction,Conductor*%
%TO.N,/PA1*%
G36*
X138939613Y-73607272D02*
G01*
X138945916Y-73613634D01*
X138946126Y-73621936D01*
X138838996Y-73927175D01*
X138833023Y-73933846D01*
X138827956Y-73935000D01*
X138702044Y-73935000D01*
X138693771Y-73931573D01*
X138691004Y-73927175D01*
X138657047Y-73830425D01*
X138583873Y-73621934D01*
X138584367Y-73612995D01*
X138590384Y-73607273D01*
X138760474Y-73535898D01*
X138769428Y-73535858D01*
X138939613Y-73607272D01*
G37*
%TD.AperFunction*%
%TD*%
%TA.AperFunction,Conductor*%
%TO.N,/USART.RX2*%
G36*
X142202005Y-96759367D02*
G01*
X142207727Y-96765386D01*
X142279100Y-96935473D01*
X142279141Y-96944428D01*
X142279100Y-96944527D01*
X142207727Y-97114613D01*
X142201365Y-97120916D01*
X142193063Y-97121126D01*
X141887825Y-97013996D01*
X141881154Y-97008023D01*
X141880000Y-97002956D01*
X141880000Y-96877043D01*
X141883427Y-96868770D01*
X141887822Y-96866004D01*
X142193065Y-96758873D01*
X142202005Y-96759367D01*
G37*
%TD.AperFunction*%
%TD*%
%TA.AperFunction,Conductor*%
%TO.N,/USART.TX6*%
G36*
X144501229Y-75583427D02*
G01*
X144503996Y-75587825D01*
X144611126Y-75893063D01*
X144610632Y-75902005D01*
X144604613Y-75907727D01*
X144434527Y-75979100D01*
X144425573Y-75979141D01*
X144425473Y-75979100D01*
X144255386Y-75907727D01*
X144249083Y-75901366D01*
X144248873Y-75893065D01*
X144356004Y-75587825D01*
X144361978Y-75581154D01*
X144367044Y-75580000D01*
X144492956Y-75580000D01*
X144501229Y-75583427D01*
G37*
%TD.AperFunction*%
%TD*%
%TA.AperFunction,Conductor*%
%TO.N,/QSPI.BK1_IO3*%
G36*
X143620474Y-82175491D02*
G01*
X143709508Y-82264525D01*
X143712935Y-82272798D01*
X143711781Y-82277865D01*
X143571698Y-82569453D01*
X143565027Y-82575426D01*
X143556724Y-82575216D01*
X143385987Y-82505414D01*
X143379626Y-82499111D01*
X143379585Y-82499012D01*
X143309783Y-82328275D01*
X143309824Y-82319320D01*
X143315544Y-82313302D01*
X143607135Y-82173217D01*
X143616076Y-82172724D01*
X143620474Y-82175491D01*
G37*
%TD.AperFunction*%
%TD*%
%TA.AperFunction,Conductor*%
%TO.N,/PA0*%
G36*
X144162005Y-83904367D02*
G01*
X144167727Y-83910386D01*
X144239100Y-84080473D01*
X144239141Y-84089428D01*
X144239100Y-84089527D01*
X144167727Y-84259613D01*
X144161365Y-84265916D01*
X144153063Y-84266126D01*
X143847825Y-84158996D01*
X143841154Y-84153023D01*
X143840000Y-84147956D01*
X143840000Y-84022043D01*
X143843427Y-84013770D01*
X143847822Y-84011004D01*
X144153065Y-83903873D01*
X144162005Y-83904367D01*
G37*
%TD.AperFunction*%
%TD*%
%TA.AperFunction,Conductor*%
%TO.N,ADC_CUL*%
G36*
X151942005Y-69469367D02*
G01*
X151947727Y-69475386D01*
X152019100Y-69645473D01*
X152019141Y-69654428D01*
X152019100Y-69654527D01*
X151947727Y-69824613D01*
X151941365Y-69830916D01*
X151933063Y-69831126D01*
X151627825Y-69723996D01*
X151621154Y-69718023D01*
X151620000Y-69712956D01*
X151620000Y-69587043D01*
X151623427Y-69578770D01*
X151627822Y-69576004D01*
X151933065Y-69468873D01*
X151942005Y-69469367D01*
G37*
%TD.AperFunction*%
%TD*%
%TA.AperFunction,Conductor*%
%TO.N,/QSPI.BK1_IO1*%
G36*
X157831229Y-75793427D02*
G01*
X157833996Y-75797825D01*
X157941126Y-76103063D01*
X157940632Y-76112005D01*
X157934613Y-76117727D01*
X157764527Y-76189100D01*
X157755573Y-76189141D01*
X157755473Y-76189100D01*
X157585386Y-76117727D01*
X157579083Y-76111366D01*
X157578873Y-76103065D01*
X157686004Y-75797825D01*
X157691978Y-75791154D01*
X157697044Y-75790000D01*
X157822956Y-75790000D01*
X157831229Y-75793427D01*
G37*
%TD.AperFunction*%
%TD*%
%TA.AperFunction,Conductor*%
%TO.N,/USART.TX2*%
G36*
X143787713Y-96842683D02*
G01*
X143895675Y-96886559D01*
X144090675Y-96965809D01*
X144097049Y-96972098D01*
X144097109Y-96981053D01*
X144097100Y-96981076D01*
X144027564Y-97151162D01*
X144021261Y-97157523D01*
X144021162Y-97157564D01*
X143849867Y-97227594D01*
X143840912Y-97227553D01*
X143835193Y-97222413D01*
X143684006Y-96948224D01*
X143683013Y-96939327D01*
X143685978Y-96934306D01*
X143775036Y-96845248D01*
X143783308Y-96841822D01*
X143787713Y-96842683D01*
G37*
%TD.AperFunction*%
%TD*%
%TA.AperFunction,Conductor*%
%TO.N,/USART.RX6*%
G36*
X145235423Y-70387632D02*
G01*
X145371306Y-70443185D01*
X145406162Y-70457435D01*
X145412523Y-70463738D01*
X145412564Y-70463837D01*
X145482366Y-70634574D01*
X145482325Y-70643529D01*
X145476603Y-70649548D01*
X145185015Y-70789631D01*
X145176073Y-70790125D01*
X145171675Y-70787358D01*
X145082641Y-70698324D01*
X145079214Y-70690051D01*
X145080367Y-70684986D01*
X145220452Y-70393394D01*
X145227122Y-70387423D01*
X145235423Y-70387632D01*
G37*
%TD.AperFunction*%
%TD*%
%TA.AperFunction,Conductor*%
%TO.N,/USART.RX3*%
G36*
X152678324Y-69842641D02*
G01*
X152767358Y-69931675D01*
X152770785Y-69939948D01*
X152769631Y-69945015D01*
X152629548Y-70236603D01*
X152622877Y-70242576D01*
X152614574Y-70242366D01*
X152443837Y-70172564D01*
X152437476Y-70166261D01*
X152437435Y-70166162D01*
X152367633Y-69995425D01*
X152367674Y-69986470D01*
X152373394Y-69980452D01*
X152664985Y-69840367D01*
X152673926Y-69839874D01*
X152678324Y-69842641D01*
G37*
%TD.AperFunction*%
%TD*%
%TA.AperFunction,Conductor*%
%TO.N,/QSPI.BK1_NCS*%
G36*
X148865397Y-79099966D02*
G01*
X148873658Y-79103422D01*
X148876839Y-79109425D01*
X148928166Y-79372484D01*
X148926387Y-79381261D01*
X148924956Y-79382998D01*
X148836030Y-79471924D01*
X148827757Y-79475351D01*
X148820412Y-79472758D01*
X148543662Y-79249553D01*
X148539374Y-79241692D01*
X148541900Y-79233101D01*
X148542679Y-79232228D01*
X148670843Y-79102777D01*
X148679098Y-79099310D01*
X148679119Y-79099310D01*
X148865397Y-79099966D01*
G37*
%TD.AperFunction*%
%TD*%
%TA.AperFunction,Conductor*%
%TO.N,/USART.RX4*%
G36*
X136624613Y-93372272D02*
G01*
X136630916Y-93378634D01*
X136631126Y-93386936D01*
X136523996Y-93692175D01*
X136518023Y-93698846D01*
X136512956Y-93700000D01*
X136387044Y-93700000D01*
X136378771Y-93696573D01*
X136376004Y-93692175D01*
X136342047Y-93595425D01*
X136268873Y-93386934D01*
X136269367Y-93377995D01*
X136275384Y-93372273D01*
X136445474Y-93300898D01*
X136454428Y-93300858D01*
X136624613Y-93372272D01*
G37*
%TD.AperFunction*%
%TD*%
%TA.AperFunction,Conductor*%
%TO.N,/Barometer.SDA*%
G36*
X139379613Y-82677272D02*
G01*
X139385916Y-82683634D01*
X139386126Y-82691936D01*
X139278996Y-82997175D01*
X139273023Y-83003846D01*
X139267956Y-83005000D01*
X139142044Y-83005000D01*
X139133771Y-83001573D01*
X139131004Y-82997175D01*
X139097047Y-82900425D01*
X139023873Y-82691934D01*
X139024367Y-82682995D01*
X139030384Y-82677273D01*
X139200474Y-82605898D01*
X139209428Y-82605858D01*
X139379613Y-82677272D01*
G37*
%TD.AperFunction*%
%TD*%
%TA.AperFunction,Conductor*%
%TO.N,ADC_CUL*%
G36*
X152091229Y-69253427D02*
G01*
X152093996Y-69257825D01*
X152201126Y-69563063D01*
X152200632Y-69572005D01*
X152194613Y-69577727D01*
X152024527Y-69649100D01*
X152015573Y-69649141D01*
X152015473Y-69649100D01*
X151845386Y-69577727D01*
X151839083Y-69571366D01*
X151838873Y-69563065D01*
X151946004Y-69257825D01*
X151951978Y-69251154D01*
X151957044Y-69250000D01*
X152082956Y-69250000D01*
X152091229Y-69253427D01*
G37*
%TD.AperFunction*%
%TD*%
%TA.AperFunction,Conductor*%
%TO.N,/QSPI.BK1_CLK*%
G36*
X159160868Y-70653762D02*
G01*
X159167171Y-70660123D01*
X159167767Y-70662032D01*
X159241320Y-70995677D01*
X159239754Y-71004494D01*
X159238167Y-71006469D01*
X159149244Y-71095392D01*
X159140971Y-71098819D01*
X159133783Y-71096349D01*
X158848975Y-70874518D01*
X158844553Y-70866731D01*
X158846934Y-70858099D01*
X158847843Y-70857063D01*
X158977616Y-70725986D01*
X158981497Y-70723391D01*
X159151914Y-70653721D01*
X159160868Y-70653762D01*
G37*
%TD.AperFunction*%
%TD*%
%TA.AperFunction,Conductor*%
%TO.N,/QSPI.BK1_IO0*%
G36*
X147303379Y-75618427D02*
G01*
X147306146Y-75622825D01*
X147413276Y-75928063D01*
X147412782Y-75937005D01*
X147406763Y-75942727D01*
X147236677Y-76014100D01*
X147227723Y-76014141D01*
X147227623Y-76014100D01*
X147057536Y-75942727D01*
X147051233Y-75936366D01*
X147051023Y-75928065D01*
X147158154Y-75622825D01*
X147164128Y-75616154D01*
X147169194Y-75615000D01*
X147295106Y-75615000D01*
X147303379Y-75618427D01*
G37*
%TD.AperFunction*%
%TD*%
%TA.AperFunction,Conductor*%
%TO.N,/USART.RX6*%
G36*
X143941229Y-75833427D02*
G01*
X143943996Y-75837825D01*
X144051126Y-76143063D01*
X144050632Y-76152005D01*
X144044613Y-76157727D01*
X143874527Y-76229100D01*
X143865573Y-76229141D01*
X143865473Y-76229100D01*
X143695386Y-76157727D01*
X143689083Y-76151366D01*
X143688873Y-76143065D01*
X143796004Y-75837825D01*
X143801978Y-75831154D01*
X143807044Y-75830000D01*
X143932956Y-75830000D01*
X143941229Y-75833427D01*
G37*
%TD.AperFunction*%
%TD*%
%TA.AperFunction,Conductor*%
%TO.N,/USART.TX6*%
G36*
X146164613Y-69942272D02*
G01*
X146170916Y-69948634D01*
X146171126Y-69956936D01*
X146063996Y-70262175D01*
X146058023Y-70268846D01*
X146052956Y-70270000D01*
X145927044Y-70270000D01*
X145918771Y-70266573D01*
X145916004Y-70262175D01*
X145882047Y-70165425D01*
X145808873Y-69956934D01*
X145809367Y-69947995D01*
X145815384Y-69942273D01*
X145985474Y-69870898D01*
X145994428Y-69870858D01*
X146164613Y-69942272D01*
G37*
%TD.AperFunction*%
%TD*%
%TA.AperFunction,Conductor*%
%TO.N,/PA1*%
G36*
X144825014Y-83705367D02*
G01*
X145116603Y-83845451D01*
X145122576Y-83852122D01*
X145122366Y-83860425D01*
X145052564Y-84031162D01*
X145046261Y-84037523D01*
X145046162Y-84037564D01*
X144875425Y-84107366D01*
X144866470Y-84107325D01*
X144860452Y-84101603D01*
X144720367Y-83810014D01*
X144719874Y-83801073D01*
X144722639Y-83796677D01*
X144811676Y-83707640D01*
X144819948Y-83704214D01*
X144825014Y-83705367D01*
G37*
%TD.AperFunction*%
%TD*%
%TA.AperFunction,Conductor*%
%TO.N,/Barometer.SCL*%
G36*
X138774459Y-82115871D02*
G01*
X138939301Y-82185043D01*
X138944157Y-82187081D01*
X138950460Y-82193443D01*
X138950489Y-82202225D01*
X138870620Y-82401379D01*
X138829564Y-82503754D01*
X138829196Y-82504671D01*
X138822936Y-82511074D01*
X138818337Y-82512016D01*
X138692393Y-82512016D01*
X138684120Y-82508589D01*
X138681210Y-82503754D01*
X138677437Y-82491482D01*
X138588337Y-82201663D01*
X138589181Y-82192749D01*
X138594991Y-82187438D01*
X138765474Y-82115898D01*
X138774427Y-82115858D01*
X138774459Y-82115871D01*
G37*
%TD.AperFunction*%
%TD*%
%TA.AperFunction,Conductor*%
%TO.N,VCC_Voltage*%
G36*
X142775423Y-70337632D02*
G01*
X142911306Y-70393185D01*
X142946162Y-70407435D01*
X142952523Y-70413738D01*
X142952564Y-70413837D01*
X143022366Y-70584574D01*
X143022325Y-70593529D01*
X143016603Y-70599548D01*
X142725015Y-70739631D01*
X142716073Y-70740125D01*
X142711675Y-70737358D01*
X142622641Y-70648324D01*
X142619214Y-70640051D01*
X142620367Y-70634986D01*
X142760452Y-70343394D01*
X142767122Y-70337423D01*
X142775423Y-70337632D01*
G37*
%TD.AperFunction*%
%TD*%
%TA.AperFunction,Conductor*%
%TO.N,/QSPI.BK1_IO1*%
G36*
X148708031Y-76881729D02*
G01*
X148952624Y-77110356D01*
X148956328Y-77118508D01*
X148953182Y-77126892D01*
X148952949Y-77127135D01*
X148824157Y-77257221D01*
X148815901Y-77260689D01*
X148815802Y-77260689D01*
X148630831Y-77260038D01*
X148622570Y-77256582D01*
X148619204Y-77249199D01*
X148599398Y-76980110D01*
X148602208Y-76971608D01*
X148602779Y-76970993D01*
X148691770Y-76882002D01*
X148700042Y-76878576D01*
X148708031Y-76881729D01*
G37*
%TD.AperFunction*%
%TD*%
%TA.AperFunction,Conductor*%
%TO.N,ADC_CUL*%
G36*
X143910989Y-83055439D02*
G01*
X144238645Y-83141825D01*
X144245770Y-83147246D01*
X144246974Y-83156120D01*
X144246491Y-83157565D01*
X144176609Y-83328499D01*
X144174011Y-83332385D01*
X144043273Y-83461823D01*
X144034983Y-83465209D01*
X144026727Y-83461741D01*
X144025570Y-83460378D01*
X143931527Y-83330707D01*
X143809585Y-83162569D01*
X143807503Y-83153861D01*
X143810782Y-83147430D01*
X143899734Y-83058478D01*
X143908006Y-83055052D01*
X143910989Y-83055439D01*
G37*
%TD.AperFunction*%
%TD*%
%TA.AperFunction,Conductor*%
%TO.N,/PE11*%
G36*
X146385014Y-79755367D02*
G01*
X146676603Y-79895451D01*
X146682576Y-79902122D01*
X146682366Y-79910425D01*
X146612564Y-80081162D01*
X146606261Y-80087523D01*
X146606162Y-80087564D01*
X146435425Y-80157366D01*
X146426470Y-80157325D01*
X146420452Y-80151603D01*
X146280367Y-79860014D01*
X146279874Y-79851073D01*
X146282639Y-79846677D01*
X146371676Y-79757640D01*
X146379948Y-79754214D01*
X146385014Y-79755367D01*
G37*
%TD.AperFunction*%
%TD*%
%TA.AperFunction,Conductor*%
%TO.N,/USART.RX3*%
G36*
X152362005Y-69989367D02*
G01*
X152367727Y-69995386D01*
X152439100Y-70165473D01*
X152439141Y-70174428D01*
X152439100Y-70174527D01*
X152367727Y-70344613D01*
X152361365Y-70350916D01*
X152353063Y-70351126D01*
X152047825Y-70243996D01*
X152041154Y-70238023D01*
X152040000Y-70232956D01*
X152040000Y-70107043D01*
X152043427Y-70098770D01*
X152047822Y-70096004D01*
X152353065Y-69988873D01*
X152362005Y-69989367D01*
G37*
%TD.AperFunction*%
%TD*%
%TA.AperFunction,Conductor*%
%TO.N,/QSPI.BK1_IO2*%
G36*
X147972315Y-76801849D02*
G01*
X148100487Y-76855226D01*
X148144203Y-76873432D01*
X148150523Y-76879776D01*
X148151109Y-76886848D01*
X148098974Y-77114181D01*
X148095843Y-77119839D01*
X148007846Y-77207836D01*
X147999573Y-77211263D01*
X147991300Y-77207836D01*
X147989662Y-77205780D01*
X147791077Y-76888897D01*
X147789588Y-76880068D01*
X147794779Y-76872771D01*
X147796454Y-76871901D01*
X147963324Y-76801874D01*
X147972277Y-76801834D01*
X147972315Y-76801849D01*
G37*
%TD.AperFunction*%
%TD*%
%TA.AperFunction,Conductor*%
%TO.N,/BOOT0*%
G36*
X128167176Y-88461004D02*
G01*
X128173846Y-88466976D01*
X128175000Y-88472043D01*
X128175000Y-88597956D01*
X128171573Y-88606229D01*
X128167175Y-88608996D01*
X127861936Y-88716126D01*
X127852994Y-88715632D01*
X127847272Y-88709613D01*
X127775898Y-88539525D01*
X127775858Y-88530573D01*
X127775871Y-88530540D01*
X127847273Y-88360384D01*
X127853633Y-88354083D01*
X127861934Y-88353873D01*
X128167176Y-88461004D01*
G37*
%TD.AperFunction*%
%TD*%
%TA.AperFunction,Conductor*%
%TO.N,/QSPI.BK1_IO0*%
G36*
X159562005Y-69839367D02*
G01*
X159567727Y-69845386D01*
X159639100Y-70015473D01*
X159639141Y-70024428D01*
X159639100Y-70024527D01*
X159567727Y-70194613D01*
X159561365Y-70200916D01*
X159553063Y-70201126D01*
X159247825Y-70093996D01*
X159241154Y-70088023D01*
X159240000Y-70082956D01*
X159240000Y-69957043D01*
X159243427Y-69948770D01*
X159247822Y-69946004D01*
X159553065Y-69838873D01*
X159562005Y-69839367D01*
G37*
%TD.AperFunction*%
%TD*%
M02*
