M48
; DRILL file {KiCad 8.0.7} date 2025-02-13T13:50:41+0800
; FORMAT={-:-/ absolute / inch / decimal}
; #@! TF.CreationDate,2025-02-13T13:50:41+08:00
; #@! TF.GenerationSoftware,Kicad,Pcbnew,8.0.7
; #@! TF.FileFunction,Plated,1,6,PTH
FMAT,2
INCH
; #@! TA.AperFunction,Plated,PTH,ViaDrill
T1C0.0118
; #@! TA.AperFunction,Plated,PTH,ViaDrill
T2C0.0157
; #@! TA.AperFunction,Plated,PTH,ComponentDrill
T3C0.1575
%
G90
G05
T1
X5.0098Y-3.3411
X5.0305Y-3.4856
X5.0354Y-3.6756
X5.0574Y-3.2651
X5.0671Y-2.7941
X5.0933Y-3.6142
X5.1112Y-3.6691
X5.1126Y-3.635
X5.1266Y-3.2187
X5.1266Y-3.2429
X5.1323Y-3.5766
X5.1467Y-3.2061
X5.1467Y-3.2306
X5.1467Y-3.2551
X5.1636Y-3.3069
X5.1636Y-3.624
X5.1636Y-3.6815
X5.1685Y-2.6598
X5.1685Y-2.6829
X5.1685Y-2.7059
X5.1967Y-2.778
X5.1967Y-2.8083
X5.2138Y-2.5957
X5.2206Y-3.1972
X5.2299Y-2.6154
X5.2417Y-3.662
X5.2425Y-3.6376
X5.2465Y-3.3508
X5.2469Y-2.5961
X5.2541Y-3.2781
X5.2542Y-3.316
X5.2665Y-3.662
X5.2673Y-3.6376
X5.276Y-3.7228
X5.2785Y-3.1472
X5.2892Y-3.662
X5.29Y-3.7778
X5.3039Y-2.8213
X5.3043Y-2.7634
X5.314Y-3.662
X5.3152Y-3.1461
X5.3154Y-3.7228
X5.3228Y-2.8417
X5.323Y-2.7839
X5.3256Y-2.5622
X5.3325Y-2.8748
X5.35Y-3.8669
X5.3671Y-3.3427
X5.3679Y-3.3033
X5.372Y-3.6732
X5.3729Y-3.64
X5.3787Y-2.5701
X5.4004Y-3.6811
X5.4033Y-2.8687
X5.423Y-2.8892
X5.4272Y-3.0878
X5.4305Y-3.2388
X5.4305Y-3.2766
X5.4305Y-3.311
X5.4305Y-3.3492
X5.4343Y-3.6768
X5.4431Y-2.8742
X5.4563Y-3.8669
X5.4606Y-3.2051
X5.4632Y-2.8951
X5.4634Y-3.2329
X5.4642Y-3.1051
X5.4677Y-3.4073
X5.4677Y-3.6167
X5.4705Y-2.5689
X5.4732Y-3.6795
X5.4805Y-3.2522
X5.4992Y-2.8685
X5.4994Y-2.9406
X5.5177Y-2.7469
X5.5189Y-3.0866
X5.5193Y-3.0575
X5.5201Y-3.152
X5.5213Y-3.3071
X5.5319Y-2.7709
X5.5376Y-2.9406
X5.5378Y-3.3557
X5.5386Y-2.9035
X5.5394Y-2.8421
X5.5504Y-3.1197
X5.5512Y-3.0567
X5.5516Y-3.0902
X5.5516Y-3.2787
X5.5519Y-3.2141
X5.5547Y-3.1528
X5.5587Y-2.7909
X5.5728Y-2.6126
X5.575Y-2.9618
X5.5827Y-3.0181
X5.5839Y-2.9945
X5.5844Y-3.3087
X5.5913Y-2.8008
X5.6016Y-3.8165
X5.6051Y-2.9083
X5.615Y-3.1193
X5.6248Y-2.9965
X5.628Y-2.772
X5.6323Y-2.8232
X5.645Y-3.2481
X5.6453Y-3.7508
X5.6461Y-3.1846
X5.6465Y-3.2161
X5.6469Y-3.2803
X5.648Y-3.022
X5.648Y-3.1193
X5.648Y-3.1516
X5.6531Y-3.4362
X5.6642Y-3.0012
X5.6657Y-2.8236
X5.6693Y-2.6134
X5.6703Y-3.825
X5.6752Y-3.3421
X5.6762Y-3.2807
X5.6768Y-3.1823
X5.6776Y-3.215
X5.678Y-3.2469
X5.6787Y-3.3104
X5.6795Y-3.0569
X5.6862Y-2.9913
X5.6878Y-3.7799
X5.689Y-2.7705
X5.6898Y-3.4378
X5.7035Y-2.8236
X5.7077Y-3.2764
X5.71Y-3.247
X5.7106Y-3.3085
X5.7106Y-3.3417
X5.7114Y-2.9575
X5.7244Y-3.6799
X5.7246Y-3.6191
X5.7248Y-2.774
X5.7252Y-3.7799
X5.728Y-2.6228
X5.7281Y-3.4091
X5.7281Y-3.4472
X5.7374Y-3.537
X5.74Y-3.277
X5.7449Y-3.3402
X5.7476Y-2.7508
X5.7504Y-2.7075
X5.752Y-2.6776
X5.761Y-2.8744
X5.762Y-3.7228
X5.7701Y-3.2435
X5.772Y-3.153
X5.777Y-3.4089
X5.777Y-3.449
X5.777Y-3.6191
X5.7827Y-3.3417
X5.7965Y-2.9927
X5.803Y-3.5516
X5.8098Y-3.2315
X5.811Y-2.912
X5.811Y-2.9362
X5.8121Y-3.7504
X5.8124Y-2.9724
X5.8136Y-3.0736
X5.814Y-3.4085
X5.814Y-3.4486
X5.8148Y-3.1057
X5.8152Y-3.1996
X5.8255Y-3.0236
X5.8278Y-3.1368
X5.8301Y-2.9258
X5.8352Y-3.0694
X5.8396Y-3.2965
X5.8413Y-2.5697
X5.8435Y-3.0911
X5.8474Y-3.1677
X5.8533Y-3.1142
X5.8535Y-3.0079
X5.857Y-2.8754
X5.857Y-2.9201
X5.8583Y-3.3435
X5.8591Y-3.0417
X5.8618Y-3.8165
X5.8663Y-3.1844
X5.8927Y-2.8037
X5.8927Y-3.0051
X5.8927Y-3.0433
X5.8927Y-3.0781
X5.9033Y-3.1543
X5.9177Y-3.7504
X5.9181Y-3.7799
X5.9358Y-2.5661
X5.9376Y-3.2094
X5.9378Y-3.5866
X5.9411Y-3.1543
X5.9439Y-2.9907
X5.9583Y-2.7606
X5.9754Y-3.1543
X5.976Y-3.6732
X5.9791Y-3.0504
X5.9814Y-3.3391
X5.985Y-2.7421
X5.9953Y-2.8528
X5.9988Y-3.4846
X6.0016Y-2.7626
X6.0024Y-3.787
X6.0041Y-2.9944
X6.0118Y-3.7228
X6.0283Y-2.5665
X6.0339Y-3.3394
X6.0344Y-3.0402
X6.0366Y-3.4846
X6.039Y-3.0972
X6.0406Y-3.8157
X6.0512Y-3.7228
X6.0522Y-2.7856
X6.0539Y-2.7608
X6.0669Y-2.6154
X6.0691Y-3.6182
X6.0768Y-3.485
X6.0774Y-2.8035
X6.0778Y-2.7608
X6.1035Y-2.7856
X6.1039Y-2.7608
X6.1146Y-3.485
X6.1236Y-3.3465
X6.1388Y-3.2293
X6.1406Y-2.7472
X6.1614Y-3.3465
X6.2104Y-2.7852
X6.2107Y-2.9067
X6.211Y-2.9996
X6.2217Y-3.2339
X6.2343Y-3.0953
X6.2366Y-3.0594
X6.2591Y-2.7844
X6.2687Y-3.3624
X6.285Y-2.7567
X6.2921Y-3.2207
X6.2937Y-3.1776
X6.3058Y-3.2921
X6.3063Y-3.3624
X6.3291Y-3.061
X6.3388Y-3.1776
X6.344Y-3.2921
X6.3445Y-3.3624
T2
X5.9484Y-2.889
T3
X5.0573Y-2.6104
X5.0573Y-3.8112
X6.2581Y-2.6104
X6.2581Y-3.8112
M30
