%TF.GenerationSoftware,KiCad,Pcbnew,8.0.7*%
%TF.CreationDate,2025-02-13T13:50:40+08:00*%
%TF.ProjectId,NewSkyH7-Air,4e657753-6b79-4483-972d-4169722e6b69,rev?*%
%TF.SameCoordinates,Original*%
%TF.FileFunction,Legend,Top*%
%TF.FilePolarity,Positive*%
%FSLAX46Y46*%
G04 Gerber Fmt 4.6, Leading zero omitted, Abs format (unit mm)*
G04 Created by KiCad (PCBNEW 8.0.7) date 2025-02-13 13:50:40*
%MOMM*%
%LPD*%
G01*
G04 APERTURE LIST*
%ADD10C,0.150000*%
%ADD11C,0.200000*%
%ADD12C,0.130000*%
%ADD13C,0.112500*%
%ADD14C,0.120000*%
%ADD15C,0.100000*%
%ADD16C,0.254000*%
%ADD17C,0.010050*%
%ADD18C,0.127000*%
%ADD19C,0.250000*%
%ADD20C,0.016000*%
G04 APERTURE END LIST*
D10*
X146060000Y-67080000D02*
X146060000Y-65430000D01*
X146060000Y-64830000D02*
X146060000Y-63560000D01*
D11*
X135655000Y-89920000D02*
X134455000Y-90720000D01*
X135655000Y-88220000D01*
X135655000Y-89920000D01*
G36*
X135655000Y-89920000D02*
G01*
X134455000Y-90720000D01*
X135655000Y-88220000D01*
X135655000Y-89920000D01*
G37*
D10*
X136420000Y-63795000D02*
X136420000Y-65445000D01*
X136420000Y-66045000D02*
X136420000Y-67390000D01*
D11*
X136855000Y-90720000D02*
X135655000Y-89920000D01*
X135655000Y-88220000D01*
X136855000Y-90720000D01*
G36*
X136855000Y-90720000D02*
G01*
X135655000Y-89920000D01*
X135655000Y-88220000D01*
X136855000Y-90720000D01*
G37*
D12*
X134770764Y-66364644D02*
X134708859Y-66333692D01*
X134708859Y-66333692D02*
X134616002Y-66333692D01*
X134616002Y-66333692D02*
X134523145Y-66364644D01*
X134523145Y-66364644D02*
X134461240Y-66426549D01*
X134461240Y-66426549D02*
X134430287Y-66488454D01*
X134430287Y-66488454D02*
X134399335Y-66612263D01*
X134399335Y-66612263D02*
X134399335Y-66705120D01*
X134399335Y-66705120D02*
X134430287Y-66828930D01*
X134430287Y-66828930D02*
X134461240Y-66890835D01*
X134461240Y-66890835D02*
X134523145Y-66952740D01*
X134523145Y-66952740D02*
X134616002Y-66983692D01*
X134616002Y-66983692D02*
X134677906Y-66983692D01*
X134677906Y-66983692D02*
X134770764Y-66952740D01*
X134770764Y-66952740D02*
X134801716Y-66921787D01*
X134801716Y-66921787D02*
X134801716Y-66705120D01*
X134801716Y-66705120D02*
X134677906Y-66705120D01*
X135080287Y-66983692D02*
X135080287Y-66333692D01*
X135080287Y-66333692D02*
X135451716Y-66983692D01*
X135451716Y-66983692D02*
X135451716Y-66333692D01*
X135761239Y-66983692D02*
X135761239Y-66333692D01*
X135761239Y-66333692D02*
X135916001Y-66333692D01*
X135916001Y-66333692D02*
X136008858Y-66364644D01*
X136008858Y-66364644D02*
X136070763Y-66426549D01*
X136070763Y-66426549D02*
X136101716Y-66488454D01*
X136101716Y-66488454D02*
X136132668Y-66612263D01*
X136132668Y-66612263D02*
X136132668Y-66705120D01*
X136132668Y-66705120D02*
X136101716Y-66828930D01*
X136101716Y-66828930D02*
X136070763Y-66890835D01*
X136070763Y-66890835D02*
X136008858Y-66952740D01*
X136008858Y-66952740D02*
X135916001Y-66983692D01*
X135916001Y-66983692D02*
X135761239Y-66983692D01*
D10*
X147100826Y-72549819D02*
X147225826Y-71549819D01*
X147166303Y-72026009D02*
X147737731Y-72026009D01*
X147672255Y-72549819D02*
X147797255Y-71549819D01*
X148178207Y-71549819D02*
X148844874Y-71549819D01*
X148844874Y-71549819D02*
X148291303Y-72549819D01*
X149148445Y-72168866D02*
X149910350Y-72168866D01*
X150327017Y-72264104D02*
X150803207Y-72264104D01*
X150196064Y-72549819D02*
X150654398Y-71549819D01*
X150654398Y-71549819D02*
X150862731Y-72549819D01*
X151196064Y-72549819D02*
X151279398Y-71883152D01*
X151321064Y-71549819D02*
X151267493Y-71597438D01*
X151267493Y-71597438D02*
X151309160Y-71645057D01*
X151309160Y-71645057D02*
X151362731Y-71597438D01*
X151362731Y-71597438D02*
X151321064Y-71549819D01*
X151321064Y-71549819D02*
X151309160Y-71645057D01*
X151672254Y-72549819D02*
X151755588Y-71883152D01*
X151731778Y-72073628D02*
X151791302Y-71978390D01*
X151791302Y-71978390D02*
X151844873Y-71930771D01*
X151844873Y-71930771D02*
X151946064Y-71883152D01*
X151946064Y-71883152D02*
X152041302Y-71883152D01*
D13*
X144604251Y-94034602D02*
X144232822Y-94034602D01*
X144418536Y-94034602D02*
X144418536Y-93384602D01*
X144418536Y-93384602D02*
X144356632Y-93477459D01*
X144356632Y-93477459D02*
X144294727Y-93539364D01*
X144294727Y-93539364D02*
X144232822Y-93570316D01*
X144851870Y-93446507D02*
X144882822Y-93415554D01*
X144882822Y-93415554D02*
X144944727Y-93384602D01*
X144944727Y-93384602D02*
X145099489Y-93384602D01*
X145099489Y-93384602D02*
X145161394Y-93415554D01*
X145161394Y-93415554D02*
X145192346Y-93446507D01*
X145192346Y-93446507D02*
X145223299Y-93508411D01*
X145223299Y-93508411D02*
X145223299Y-93570316D01*
X145223299Y-93570316D02*
X145192346Y-93663173D01*
X145192346Y-93663173D02*
X144820918Y-94034602D01*
X144820918Y-94034602D02*
X145223299Y-94034602D01*
X145409013Y-93384602D02*
X145625680Y-94034602D01*
X145625680Y-94034602D02*
X145842347Y-93384602D01*
D12*
X134389811Y-69603692D02*
X134080287Y-69603692D01*
X134080287Y-69603692D02*
X134049335Y-69913216D01*
X134049335Y-69913216D02*
X134080287Y-69882263D01*
X134080287Y-69882263D02*
X134142192Y-69851311D01*
X134142192Y-69851311D02*
X134296954Y-69851311D01*
X134296954Y-69851311D02*
X134358859Y-69882263D01*
X134358859Y-69882263D02*
X134389811Y-69913216D01*
X134389811Y-69913216D02*
X134420764Y-69975120D01*
X134420764Y-69975120D02*
X134420764Y-70129882D01*
X134420764Y-70129882D02*
X134389811Y-70191787D01*
X134389811Y-70191787D02*
X134358859Y-70222740D01*
X134358859Y-70222740D02*
X134296954Y-70253692D01*
X134296954Y-70253692D02*
X134142192Y-70253692D01*
X134142192Y-70253692D02*
X134080287Y-70222740D01*
X134080287Y-70222740D02*
X134049335Y-70191787D01*
X134606478Y-69603692D02*
X134823145Y-70253692D01*
X134823145Y-70253692D02*
X135039812Y-69603692D01*
D13*
X151234487Y-69582815D02*
X151605916Y-69582815D01*
X151420202Y-70232815D02*
X151420202Y-69582815D01*
X151760678Y-69582815D02*
X152194011Y-70232815D01*
X152194011Y-69582815D02*
X151760678Y-70232815D01*
X152379726Y-69582815D02*
X152782107Y-69582815D01*
X152782107Y-69582815D02*
X152565440Y-69830434D01*
X152565440Y-69830434D02*
X152658297Y-69830434D01*
X152658297Y-69830434D02*
X152720202Y-69861386D01*
X152720202Y-69861386D02*
X152751154Y-69892339D01*
X152751154Y-69892339D02*
X152782107Y-69954243D01*
X152782107Y-69954243D02*
X152782107Y-70109005D01*
X152782107Y-70109005D02*
X152751154Y-70170910D01*
X152751154Y-70170910D02*
X152720202Y-70201863D01*
X152720202Y-70201863D02*
X152658297Y-70232815D01*
X152658297Y-70232815D02*
X152472583Y-70232815D01*
X152472583Y-70232815D02*
X152410678Y-70201863D01*
X152410678Y-70201863D02*
X152379726Y-70170910D01*
X139794251Y-93415554D02*
X139732346Y-93384602D01*
X139732346Y-93384602D02*
X139639489Y-93384602D01*
X139639489Y-93384602D02*
X139546632Y-93415554D01*
X139546632Y-93415554D02*
X139484727Y-93477459D01*
X139484727Y-93477459D02*
X139453774Y-93539364D01*
X139453774Y-93539364D02*
X139422822Y-93663173D01*
X139422822Y-93663173D02*
X139422822Y-93756030D01*
X139422822Y-93756030D02*
X139453774Y-93879840D01*
X139453774Y-93879840D02*
X139484727Y-93941745D01*
X139484727Y-93941745D02*
X139546632Y-94003650D01*
X139546632Y-94003650D02*
X139639489Y-94034602D01*
X139639489Y-94034602D02*
X139701393Y-94034602D01*
X139701393Y-94034602D02*
X139794251Y-94003650D01*
X139794251Y-94003650D02*
X139825203Y-93972697D01*
X139825203Y-93972697D02*
X139825203Y-93756030D01*
X139825203Y-93756030D02*
X139701393Y-93756030D01*
X138760917Y-96384602D02*
X139132346Y-96384602D01*
X138946632Y-97034602D02*
X138946632Y-96384602D01*
X139287108Y-96384602D02*
X139720441Y-97034602D01*
X139720441Y-96384602D02*
X139287108Y-97034602D01*
X140246632Y-96601269D02*
X140246632Y-97034602D01*
X140091870Y-96353650D02*
X139937108Y-96817935D01*
X139937108Y-96817935D02*
X140339489Y-96817935D01*
X151517822Y-66931863D02*
X151610679Y-66962815D01*
X151610679Y-66962815D02*
X151765441Y-66962815D01*
X151765441Y-66962815D02*
X151827346Y-66931863D01*
X151827346Y-66931863D02*
X151858298Y-66900910D01*
X151858298Y-66900910D02*
X151889251Y-66839005D01*
X151889251Y-66839005D02*
X151889251Y-66777101D01*
X151889251Y-66777101D02*
X151858298Y-66715196D01*
X151858298Y-66715196D02*
X151827346Y-66684243D01*
X151827346Y-66684243D02*
X151765441Y-66653291D01*
X151765441Y-66653291D02*
X151641632Y-66622339D01*
X151641632Y-66622339D02*
X151579727Y-66591386D01*
X151579727Y-66591386D02*
X151548774Y-66560434D01*
X151548774Y-66560434D02*
X151517822Y-66498529D01*
X151517822Y-66498529D02*
X151517822Y-66436624D01*
X151517822Y-66436624D02*
X151548774Y-66374720D01*
X151548774Y-66374720D02*
X151579727Y-66343767D01*
X151579727Y-66343767D02*
X151641632Y-66312815D01*
X151641632Y-66312815D02*
X151796393Y-66312815D01*
X151796393Y-66312815D02*
X151889251Y-66343767D01*
X152105918Y-66312815D02*
X152539251Y-66312815D01*
X152539251Y-66312815D02*
X152260680Y-66962815D01*
X144700203Y-70232815D02*
X144483536Y-69923291D01*
X144328774Y-70232815D02*
X144328774Y-69582815D01*
X144328774Y-69582815D02*
X144576393Y-69582815D01*
X144576393Y-69582815D02*
X144638298Y-69613767D01*
X144638298Y-69613767D02*
X144669251Y-69644720D01*
X144669251Y-69644720D02*
X144700203Y-69706624D01*
X144700203Y-69706624D02*
X144700203Y-69799482D01*
X144700203Y-69799482D02*
X144669251Y-69861386D01*
X144669251Y-69861386D02*
X144638298Y-69892339D01*
X144638298Y-69892339D02*
X144576393Y-69923291D01*
X144576393Y-69923291D02*
X144328774Y-69923291D01*
X144916870Y-69582815D02*
X145350203Y-70232815D01*
X145350203Y-69582815D02*
X144916870Y-70232815D01*
X145938299Y-70232815D02*
X145566870Y-70232815D01*
X145752584Y-70232815D02*
X145752584Y-69582815D01*
X145752584Y-69582815D02*
X145690680Y-69675672D01*
X145690680Y-69675672D02*
X145628775Y-69737577D01*
X145628775Y-69737577D02*
X145566870Y-69768529D01*
X153843333Y-66931863D02*
X153936190Y-66962815D01*
X153936190Y-66962815D02*
X154090952Y-66962815D01*
X154090952Y-66962815D02*
X154152857Y-66931863D01*
X154152857Y-66931863D02*
X154183809Y-66900910D01*
X154183809Y-66900910D02*
X154214762Y-66839005D01*
X154214762Y-66839005D02*
X154214762Y-66777101D01*
X154214762Y-66777101D02*
X154183809Y-66715196D01*
X154183809Y-66715196D02*
X154152857Y-66684243D01*
X154152857Y-66684243D02*
X154090952Y-66653291D01*
X154090952Y-66653291D02*
X153967143Y-66622339D01*
X153967143Y-66622339D02*
X153905238Y-66591386D01*
X153905238Y-66591386D02*
X153874285Y-66560434D01*
X153874285Y-66560434D02*
X153843333Y-66498529D01*
X153843333Y-66498529D02*
X153843333Y-66436624D01*
X153843333Y-66436624D02*
X153874285Y-66374720D01*
X153874285Y-66374720D02*
X153905238Y-66343767D01*
X153905238Y-66343767D02*
X153967143Y-66312815D01*
X153967143Y-66312815D02*
X154121904Y-66312815D01*
X154121904Y-66312815D02*
X154214762Y-66343767D01*
X154586191Y-66591386D02*
X154524286Y-66560434D01*
X154524286Y-66560434D02*
X154493333Y-66529482D01*
X154493333Y-66529482D02*
X154462381Y-66467577D01*
X154462381Y-66467577D02*
X154462381Y-66436624D01*
X154462381Y-66436624D02*
X154493333Y-66374720D01*
X154493333Y-66374720D02*
X154524286Y-66343767D01*
X154524286Y-66343767D02*
X154586191Y-66312815D01*
X154586191Y-66312815D02*
X154710000Y-66312815D01*
X154710000Y-66312815D02*
X154771905Y-66343767D01*
X154771905Y-66343767D02*
X154802857Y-66374720D01*
X154802857Y-66374720D02*
X154833810Y-66436624D01*
X154833810Y-66436624D02*
X154833810Y-66467577D01*
X154833810Y-66467577D02*
X154802857Y-66529482D01*
X154802857Y-66529482D02*
X154771905Y-66560434D01*
X154771905Y-66560434D02*
X154710000Y-66591386D01*
X154710000Y-66591386D02*
X154586191Y-66591386D01*
X154586191Y-66591386D02*
X154524286Y-66622339D01*
X154524286Y-66622339D02*
X154493333Y-66653291D01*
X154493333Y-66653291D02*
X154462381Y-66715196D01*
X154462381Y-66715196D02*
X154462381Y-66839005D01*
X154462381Y-66839005D02*
X154493333Y-66900910D01*
X154493333Y-66900910D02*
X154524286Y-66931863D01*
X154524286Y-66931863D02*
X154586191Y-66962815D01*
X154586191Y-66962815D02*
X154710000Y-66962815D01*
X154710000Y-66962815D02*
X154771905Y-66931863D01*
X154771905Y-66931863D02*
X154802857Y-66900910D01*
X154802857Y-66900910D02*
X154833810Y-66839005D01*
X154833810Y-66839005D02*
X154833810Y-66715196D01*
X154833810Y-66715196D02*
X154802857Y-66653291D01*
X154802857Y-66653291D02*
X154771905Y-66622339D01*
X154771905Y-66622339D02*
X154710000Y-66591386D01*
X154174489Y-70232815D02*
X153957822Y-69923291D01*
X153803060Y-70232815D02*
X153803060Y-69582815D01*
X153803060Y-69582815D02*
X154050679Y-69582815D01*
X154050679Y-69582815D02*
X154112584Y-69613767D01*
X154112584Y-69613767D02*
X154143537Y-69644720D01*
X154143537Y-69644720D02*
X154174489Y-69706624D01*
X154174489Y-69706624D02*
X154174489Y-69799482D01*
X154174489Y-69799482D02*
X154143537Y-69861386D01*
X154143537Y-69861386D02*
X154112584Y-69892339D01*
X154112584Y-69892339D02*
X154050679Y-69923291D01*
X154050679Y-69923291D02*
X153803060Y-69923291D01*
X154391156Y-69582815D02*
X154824489Y-70232815D01*
X154824489Y-69582815D02*
X154391156Y-70232815D01*
X155010204Y-69582815D02*
X155412585Y-69582815D01*
X155412585Y-69582815D02*
X155195918Y-69830434D01*
X155195918Y-69830434D02*
X155288775Y-69830434D01*
X155288775Y-69830434D02*
X155350680Y-69861386D01*
X155350680Y-69861386D02*
X155381632Y-69892339D01*
X155381632Y-69892339D02*
X155412585Y-69954243D01*
X155412585Y-69954243D02*
X155412585Y-70109005D01*
X155412585Y-70109005D02*
X155381632Y-70170910D01*
X155381632Y-70170910D02*
X155350680Y-70201863D01*
X155350680Y-70201863D02*
X155288775Y-70232815D01*
X155288775Y-70232815D02*
X155103061Y-70232815D01*
X155103061Y-70232815D02*
X155041156Y-70201863D01*
X155041156Y-70201863D02*
X155010204Y-70170910D01*
X141760203Y-69582815D02*
X142131632Y-69582815D01*
X141945918Y-70232815D02*
X141945918Y-69582815D01*
X142286394Y-69582815D02*
X142719727Y-70232815D01*
X142719727Y-69582815D02*
X142286394Y-70232815D01*
X143307823Y-70232815D02*
X142936394Y-70232815D01*
X143122108Y-70232815D02*
X143122108Y-69582815D01*
X143122108Y-69582815D02*
X143060204Y-69675672D01*
X143060204Y-69675672D02*
X142998299Y-69737577D01*
X142998299Y-69737577D02*
X142936394Y-69768529D01*
X139637822Y-66931863D02*
X139730679Y-66962815D01*
X139730679Y-66962815D02*
X139885441Y-66962815D01*
X139885441Y-66962815D02*
X139947346Y-66931863D01*
X139947346Y-66931863D02*
X139978298Y-66900910D01*
X139978298Y-66900910D02*
X140009251Y-66839005D01*
X140009251Y-66839005D02*
X140009251Y-66777101D01*
X140009251Y-66777101D02*
X139978298Y-66715196D01*
X139978298Y-66715196D02*
X139947346Y-66684243D01*
X139947346Y-66684243D02*
X139885441Y-66653291D01*
X139885441Y-66653291D02*
X139761632Y-66622339D01*
X139761632Y-66622339D02*
X139699727Y-66591386D01*
X139699727Y-66591386D02*
X139668774Y-66560434D01*
X139668774Y-66560434D02*
X139637822Y-66498529D01*
X139637822Y-66498529D02*
X139637822Y-66436624D01*
X139637822Y-66436624D02*
X139668774Y-66374720D01*
X139668774Y-66374720D02*
X139699727Y-66343767D01*
X139699727Y-66343767D02*
X139761632Y-66312815D01*
X139761632Y-66312815D02*
X139916393Y-66312815D01*
X139916393Y-66312815D02*
X140009251Y-66343767D01*
X140256870Y-66374720D02*
X140287822Y-66343767D01*
X140287822Y-66343767D02*
X140349727Y-66312815D01*
X140349727Y-66312815D02*
X140504489Y-66312815D01*
X140504489Y-66312815D02*
X140566394Y-66343767D01*
X140566394Y-66343767D02*
X140597346Y-66374720D01*
X140597346Y-66374720D02*
X140628299Y-66436624D01*
X140628299Y-66436624D02*
X140628299Y-66498529D01*
X140628299Y-66498529D02*
X140597346Y-66591386D01*
X140597346Y-66591386D02*
X140225918Y-66962815D01*
X140225918Y-66962815D02*
X140628299Y-66962815D01*
X144347822Y-66931863D02*
X144440679Y-66962815D01*
X144440679Y-66962815D02*
X144595441Y-66962815D01*
X144595441Y-66962815D02*
X144657346Y-66931863D01*
X144657346Y-66931863D02*
X144688298Y-66900910D01*
X144688298Y-66900910D02*
X144719251Y-66839005D01*
X144719251Y-66839005D02*
X144719251Y-66777101D01*
X144719251Y-66777101D02*
X144688298Y-66715196D01*
X144688298Y-66715196D02*
X144657346Y-66684243D01*
X144657346Y-66684243D02*
X144595441Y-66653291D01*
X144595441Y-66653291D02*
X144471632Y-66622339D01*
X144471632Y-66622339D02*
X144409727Y-66591386D01*
X144409727Y-66591386D02*
X144378774Y-66560434D01*
X144378774Y-66560434D02*
X144347822Y-66498529D01*
X144347822Y-66498529D02*
X144347822Y-66436624D01*
X144347822Y-66436624D02*
X144378774Y-66374720D01*
X144378774Y-66374720D02*
X144409727Y-66343767D01*
X144409727Y-66343767D02*
X144471632Y-66312815D01*
X144471632Y-66312815D02*
X144626393Y-66312815D01*
X144626393Y-66312815D02*
X144719251Y-66343767D01*
X145276394Y-66529482D02*
X145276394Y-66962815D01*
X145121632Y-66281863D02*
X144966870Y-66746148D01*
X144966870Y-66746148D02*
X145369251Y-66746148D01*
X144170917Y-96384602D02*
X144542346Y-96384602D01*
X144356632Y-97034602D02*
X144356632Y-96384602D01*
X144697108Y-96384602D02*
X145130441Y-97034602D01*
X145130441Y-96384602D02*
X144697108Y-97034602D01*
X145347108Y-96446507D02*
X145378060Y-96415554D01*
X145378060Y-96415554D02*
X145439965Y-96384602D01*
X145439965Y-96384602D02*
X145594727Y-96384602D01*
X145594727Y-96384602D02*
X145656632Y-96415554D01*
X145656632Y-96415554D02*
X145687584Y-96446507D01*
X145687584Y-96446507D02*
X145718537Y-96508411D01*
X145718537Y-96508411D02*
X145718537Y-96570316D01*
X145718537Y-96570316D02*
X145687584Y-96663173D01*
X145687584Y-96663173D02*
X145316156Y-97034602D01*
X145316156Y-97034602D02*
X145718537Y-97034602D01*
X146860917Y-96384602D02*
X147077584Y-97034602D01*
X147077584Y-97034602D02*
X147294251Y-96384602D01*
X147418060Y-96384602D02*
X147789489Y-96384602D01*
X147603775Y-97034602D02*
X147603775Y-96384602D01*
X147944251Y-96384602D02*
X148377584Y-97034602D01*
X148377584Y-96384602D02*
X147944251Y-97034602D01*
X137217822Y-66931863D02*
X137310679Y-66962815D01*
X137310679Y-66962815D02*
X137465441Y-66962815D01*
X137465441Y-66962815D02*
X137527346Y-66931863D01*
X137527346Y-66931863D02*
X137558298Y-66900910D01*
X137558298Y-66900910D02*
X137589251Y-66839005D01*
X137589251Y-66839005D02*
X137589251Y-66777101D01*
X137589251Y-66777101D02*
X137558298Y-66715196D01*
X137558298Y-66715196D02*
X137527346Y-66684243D01*
X137527346Y-66684243D02*
X137465441Y-66653291D01*
X137465441Y-66653291D02*
X137341632Y-66622339D01*
X137341632Y-66622339D02*
X137279727Y-66591386D01*
X137279727Y-66591386D02*
X137248774Y-66560434D01*
X137248774Y-66560434D02*
X137217822Y-66498529D01*
X137217822Y-66498529D02*
X137217822Y-66436624D01*
X137217822Y-66436624D02*
X137248774Y-66374720D01*
X137248774Y-66374720D02*
X137279727Y-66343767D01*
X137279727Y-66343767D02*
X137341632Y-66312815D01*
X137341632Y-66312815D02*
X137496393Y-66312815D01*
X137496393Y-66312815D02*
X137589251Y-66343767D01*
X138208299Y-66962815D02*
X137836870Y-66962815D01*
X138022584Y-66962815D02*
X138022584Y-66312815D01*
X138022584Y-66312815D02*
X137960680Y-66405672D01*
X137960680Y-66405672D02*
X137898775Y-66467577D01*
X137898775Y-66467577D02*
X137836870Y-66498529D01*
X147899251Y-93415554D02*
X147837346Y-93384602D01*
X147837346Y-93384602D02*
X147744489Y-93384602D01*
X147744489Y-93384602D02*
X147651632Y-93415554D01*
X147651632Y-93415554D02*
X147589727Y-93477459D01*
X147589727Y-93477459D02*
X147558774Y-93539364D01*
X147558774Y-93539364D02*
X147527822Y-93663173D01*
X147527822Y-93663173D02*
X147527822Y-93756030D01*
X147527822Y-93756030D02*
X147558774Y-93879840D01*
X147558774Y-93879840D02*
X147589727Y-93941745D01*
X147589727Y-93941745D02*
X147651632Y-94003650D01*
X147651632Y-94003650D02*
X147744489Y-94034602D01*
X147744489Y-94034602D02*
X147806393Y-94034602D01*
X147806393Y-94034602D02*
X147899251Y-94003650D01*
X147899251Y-94003650D02*
X147930203Y-93972697D01*
X147930203Y-93972697D02*
X147930203Y-93756030D01*
X147930203Y-93756030D02*
X147806393Y-93756030D01*
D12*
X131967430Y-66333692D02*
X132184097Y-66983692D01*
X132184097Y-66983692D02*
X132400764Y-66333692D01*
X132988859Y-66921787D02*
X132957907Y-66952740D01*
X132957907Y-66952740D02*
X132865049Y-66983692D01*
X132865049Y-66983692D02*
X132803145Y-66983692D01*
X132803145Y-66983692D02*
X132710288Y-66952740D01*
X132710288Y-66952740D02*
X132648383Y-66890835D01*
X132648383Y-66890835D02*
X132617430Y-66828930D01*
X132617430Y-66828930D02*
X132586478Y-66705120D01*
X132586478Y-66705120D02*
X132586478Y-66612263D01*
X132586478Y-66612263D02*
X132617430Y-66488454D01*
X132617430Y-66488454D02*
X132648383Y-66426549D01*
X132648383Y-66426549D02*
X132710288Y-66364644D01*
X132710288Y-66364644D02*
X132803145Y-66333692D01*
X132803145Y-66333692D02*
X132865049Y-66333692D01*
X132865049Y-66333692D02*
X132957907Y-66364644D01*
X132957907Y-66364644D02*
X132988859Y-66395597D01*
X133638859Y-66921787D02*
X133607907Y-66952740D01*
X133607907Y-66952740D02*
X133515049Y-66983692D01*
X133515049Y-66983692D02*
X133453145Y-66983692D01*
X133453145Y-66983692D02*
X133360288Y-66952740D01*
X133360288Y-66952740D02*
X133298383Y-66890835D01*
X133298383Y-66890835D02*
X133267430Y-66828930D01*
X133267430Y-66828930D02*
X133236478Y-66705120D01*
X133236478Y-66705120D02*
X133236478Y-66612263D01*
X133236478Y-66612263D02*
X133267430Y-66488454D01*
X133267430Y-66488454D02*
X133298383Y-66426549D01*
X133298383Y-66426549D02*
X133360288Y-66364644D01*
X133360288Y-66364644D02*
X133453145Y-66333692D01*
X133453145Y-66333692D02*
X133515049Y-66333692D01*
X133515049Y-66333692D02*
X133607907Y-66364644D01*
X133607907Y-66364644D02*
X133638859Y-66395597D01*
D13*
X149192312Y-66931863D02*
X149285169Y-66962815D01*
X149285169Y-66962815D02*
X149439931Y-66962815D01*
X149439931Y-66962815D02*
X149501836Y-66931863D01*
X149501836Y-66931863D02*
X149532788Y-66900910D01*
X149532788Y-66900910D02*
X149563741Y-66839005D01*
X149563741Y-66839005D02*
X149563741Y-66777101D01*
X149563741Y-66777101D02*
X149532788Y-66715196D01*
X149532788Y-66715196D02*
X149501836Y-66684243D01*
X149501836Y-66684243D02*
X149439931Y-66653291D01*
X149439931Y-66653291D02*
X149316122Y-66622339D01*
X149316122Y-66622339D02*
X149254217Y-66591386D01*
X149254217Y-66591386D02*
X149223264Y-66560434D01*
X149223264Y-66560434D02*
X149192312Y-66498529D01*
X149192312Y-66498529D02*
X149192312Y-66436624D01*
X149192312Y-66436624D02*
X149223264Y-66374720D01*
X149223264Y-66374720D02*
X149254217Y-66343767D01*
X149254217Y-66343767D02*
X149316122Y-66312815D01*
X149316122Y-66312815D02*
X149470883Y-66312815D01*
X149470883Y-66312815D02*
X149563741Y-66343767D01*
X150120884Y-66312815D02*
X149997074Y-66312815D01*
X149997074Y-66312815D02*
X149935170Y-66343767D01*
X149935170Y-66343767D02*
X149904217Y-66374720D01*
X149904217Y-66374720D02*
X149842312Y-66467577D01*
X149842312Y-66467577D02*
X149811360Y-66591386D01*
X149811360Y-66591386D02*
X149811360Y-66839005D01*
X149811360Y-66839005D02*
X149842312Y-66900910D01*
X149842312Y-66900910D02*
X149873265Y-66931863D01*
X149873265Y-66931863D02*
X149935170Y-66962815D01*
X149935170Y-66962815D02*
X150058979Y-66962815D01*
X150058979Y-66962815D02*
X150120884Y-66931863D01*
X150120884Y-66931863D02*
X150151836Y-66900910D01*
X150151836Y-66900910D02*
X150182789Y-66839005D01*
X150182789Y-66839005D02*
X150182789Y-66684243D01*
X150182789Y-66684243D02*
X150151836Y-66622339D01*
X150151836Y-66622339D02*
X150120884Y-66591386D01*
X150120884Y-66591386D02*
X150058979Y-66560434D01*
X150058979Y-66560434D02*
X149935170Y-66560434D01*
X149935170Y-66560434D02*
X149873265Y-66591386D01*
X149873265Y-66591386D02*
X149842312Y-66622339D01*
X149842312Y-66622339D02*
X149811360Y-66684243D01*
X142027822Y-66931863D02*
X142120679Y-66962815D01*
X142120679Y-66962815D02*
X142275441Y-66962815D01*
X142275441Y-66962815D02*
X142337346Y-66931863D01*
X142337346Y-66931863D02*
X142368298Y-66900910D01*
X142368298Y-66900910D02*
X142399251Y-66839005D01*
X142399251Y-66839005D02*
X142399251Y-66777101D01*
X142399251Y-66777101D02*
X142368298Y-66715196D01*
X142368298Y-66715196D02*
X142337346Y-66684243D01*
X142337346Y-66684243D02*
X142275441Y-66653291D01*
X142275441Y-66653291D02*
X142151632Y-66622339D01*
X142151632Y-66622339D02*
X142089727Y-66591386D01*
X142089727Y-66591386D02*
X142058774Y-66560434D01*
X142058774Y-66560434D02*
X142027822Y-66498529D01*
X142027822Y-66498529D02*
X142027822Y-66436624D01*
X142027822Y-66436624D02*
X142058774Y-66374720D01*
X142058774Y-66374720D02*
X142089727Y-66343767D01*
X142089727Y-66343767D02*
X142151632Y-66312815D01*
X142151632Y-66312815D02*
X142306393Y-66312815D01*
X142306393Y-66312815D02*
X142399251Y-66343767D01*
X142615918Y-66312815D02*
X143018299Y-66312815D01*
X143018299Y-66312815D02*
X142801632Y-66560434D01*
X142801632Y-66560434D02*
X142894489Y-66560434D01*
X142894489Y-66560434D02*
X142956394Y-66591386D01*
X142956394Y-66591386D02*
X142987346Y-66622339D01*
X142987346Y-66622339D02*
X143018299Y-66684243D01*
X143018299Y-66684243D02*
X143018299Y-66839005D01*
X143018299Y-66839005D02*
X142987346Y-66900910D01*
X142987346Y-66900910D02*
X142956394Y-66931863D01*
X142956394Y-66931863D02*
X142894489Y-66962815D01*
X142894489Y-66962815D02*
X142708775Y-66962815D01*
X142708775Y-66962815D02*
X142646870Y-66931863D01*
X142646870Y-66931863D02*
X142615918Y-66900910D01*
X146866802Y-66931863D02*
X146959659Y-66962815D01*
X146959659Y-66962815D02*
X147114421Y-66962815D01*
X147114421Y-66962815D02*
X147176326Y-66931863D01*
X147176326Y-66931863D02*
X147207278Y-66900910D01*
X147207278Y-66900910D02*
X147238231Y-66839005D01*
X147238231Y-66839005D02*
X147238231Y-66777101D01*
X147238231Y-66777101D02*
X147207278Y-66715196D01*
X147207278Y-66715196D02*
X147176326Y-66684243D01*
X147176326Y-66684243D02*
X147114421Y-66653291D01*
X147114421Y-66653291D02*
X146990612Y-66622339D01*
X146990612Y-66622339D02*
X146928707Y-66591386D01*
X146928707Y-66591386D02*
X146897754Y-66560434D01*
X146897754Y-66560434D02*
X146866802Y-66498529D01*
X146866802Y-66498529D02*
X146866802Y-66436624D01*
X146866802Y-66436624D02*
X146897754Y-66374720D01*
X146897754Y-66374720D02*
X146928707Y-66343767D01*
X146928707Y-66343767D02*
X146990612Y-66312815D01*
X146990612Y-66312815D02*
X147145373Y-66312815D01*
X147145373Y-66312815D02*
X147238231Y-66343767D01*
X147826326Y-66312815D02*
X147516802Y-66312815D01*
X147516802Y-66312815D02*
X147485850Y-66622339D01*
X147485850Y-66622339D02*
X147516802Y-66591386D01*
X147516802Y-66591386D02*
X147578707Y-66560434D01*
X147578707Y-66560434D02*
X147733469Y-66560434D01*
X147733469Y-66560434D02*
X147795374Y-66591386D01*
X147795374Y-66591386D02*
X147826326Y-66622339D01*
X147826326Y-66622339D02*
X147857279Y-66684243D01*
X147857279Y-66684243D02*
X147857279Y-66839005D01*
X147857279Y-66839005D02*
X147826326Y-66900910D01*
X147826326Y-66900910D02*
X147795374Y-66931863D01*
X147795374Y-66931863D02*
X147733469Y-66962815D01*
X147733469Y-66962815D02*
X147578707Y-66962815D01*
X147578707Y-66962815D02*
X147516802Y-66931863D01*
X147516802Y-66931863D02*
X147485850Y-66900910D01*
X146497345Y-69582815D02*
X146868774Y-69582815D01*
X146683060Y-70232815D02*
X146683060Y-69582815D01*
X147023536Y-69582815D02*
X147456869Y-70232815D01*
X147456869Y-69582815D02*
X147023536Y-70232815D01*
X147983060Y-69582815D02*
X147859250Y-69582815D01*
X147859250Y-69582815D02*
X147797346Y-69613767D01*
X147797346Y-69613767D02*
X147766393Y-69644720D01*
X147766393Y-69644720D02*
X147704488Y-69737577D01*
X147704488Y-69737577D02*
X147673536Y-69861386D01*
X147673536Y-69861386D02*
X147673536Y-70109005D01*
X147673536Y-70109005D02*
X147704488Y-70170910D01*
X147704488Y-70170910D02*
X147735441Y-70201863D01*
X147735441Y-70201863D02*
X147797346Y-70232815D01*
X147797346Y-70232815D02*
X147921155Y-70232815D01*
X147921155Y-70232815D02*
X147983060Y-70201863D01*
X147983060Y-70201863D02*
X148014012Y-70170910D01*
X148014012Y-70170910D02*
X148044965Y-70109005D01*
X148044965Y-70109005D02*
X148044965Y-69954243D01*
X148044965Y-69954243D02*
X148014012Y-69892339D01*
X148014012Y-69892339D02*
X147983060Y-69861386D01*
X147983060Y-69861386D02*
X147921155Y-69830434D01*
X147921155Y-69830434D02*
X147797346Y-69830434D01*
X147797346Y-69830434D02*
X147735441Y-69861386D01*
X147735441Y-69861386D02*
X147704488Y-69892339D01*
X147704488Y-69892339D02*
X147673536Y-69954243D01*
X149437345Y-70232815D02*
X149220678Y-69923291D01*
X149065916Y-70232815D02*
X149065916Y-69582815D01*
X149065916Y-69582815D02*
X149313535Y-69582815D01*
X149313535Y-69582815D02*
X149375440Y-69613767D01*
X149375440Y-69613767D02*
X149406393Y-69644720D01*
X149406393Y-69644720D02*
X149437345Y-69706624D01*
X149437345Y-69706624D02*
X149437345Y-69799482D01*
X149437345Y-69799482D02*
X149406393Y-69861386D01*
X149406393Y-69861386D02*
X149375440Y-69892339D01*
X149375440Y-69892339D02*
X149313535Y-69923291D01*
X149313535Y-69923291D02*
X149065916Y-69923291D01*
X149654012Y-69582815D02*
X150087345Y-70232815D01*
X150087345Y-69582815D02*
X149654012Y-70232815D01*
X150613536Y-69582815D02*
X150489726Y-69582815D01*
X150489726Y-69582815D02*
X150427822Y-69613767D01*
X150427822Y-69613767D02*
X150396869Y-69644720D01*
X150396869Y-69644720D02*
X150334964Y-69737577D01*
X150334964Y-69737577D02*
X150304012Y-69861386D01*
X150304012Y-69861386D02*
X150304012Y-70109005D01*
X150304012Y-70109005D02*
X150334964Y-70170910D01*
X150334964Y-70170910D02*
X150365917Y-70201863D01*
X150365917Y-70201863D02*
X150427822Y-70232815D01*
X150427822Y-70232815D02*
X150551631Y-70232815D01*
X150551631Y-70232815D02*
X150613536Y-70201863D01*
X150613536Y-70201863D02*
X150644488Y-70170910D01*
X150644488Y-70170910D02*
X150675441Y-70109005D01*
X150675441Y-70109005D02*
X150675441Y-69954243D01*
X150675441Y-69954243D02*
X150644488Y-69892339D01*
X150644488Y-69892339D02*
X150613536Y-69861386D01*
X150613536Y-69861386D02*
X150551631Y-69830434D01*
X150551631Y-69830434D02*
X150427822Y-69830434D01*
X150427822Y-69830434D02*
X150365917Y-69861386D01*
X150365917Y-69861386D02*
X150334964Y-69892339D01*
X150334964Y-69892339D02*
X150304012Y-69954243D01*
X149690203Y-96972697D02*
X149659251Y-97003650D01*
X149659251Y-97003650D02*
X149566393Y-97034602D01*
X149566393Y-97034602D02*
X149504489Y-97034602D01*
X149504489Y-97034602D02*
X149411632Y-97003650D01*
X149411632Y-97003650D02*
X149349727Y-96941745D01*
X149349727Y-96941745D02*
X149318774Y-96879840D01*
X149318774Y-96879840D02*
X149287822Y-96756030D01*
X149287822Y-96756030D02*
X149287822Y-96663173D01*
X149287822Y-96663173D02*
X149318774Y-96539364D01*
X149318774Y-96539364D02*
X149349727Y-96477459D01*
X149349727Y-96477459D02*
X149411632Y-96415554D01*
X149411632Y-96415554D02*
X149504489Y-96384602D01*
X149504489Y-96384602D02*
X149566393Y-96384602D01*
X149566393Y-96384602D02*
X149659251Y-96415554D01*
X149659251Y-96415554D02*
X149690203Y-96446507D01*
X150247346Y-97034602D02*
X150247346Y-96694126D01*
X150247346Y-96694126D02*
X150216393Y-96632221D01*
X150216393Y-96632221D02*
X150154489Y-96601269D01*
X150154489Y-96601269D02*
X150030679Y-96601269D01*
X150030679Y-96601269D02*
X149968774Y-96632221D01*
X150247346Y-97003650D02*
X150185441Y-97034602D01*
X150185441Y-97034602D02*
X150030679Y-97034602D01*
X150030679Y-97034602D02*
X149968774Y-97003650D01*
X149968774Y-97003650D02*
X149937822Y-96941745D01*
X149937822Y-96941745D02*
X149937822Y-96879840D01*
X149937822Y-96879840D02*
X149968774Y-96817935D01*
X149968774Y-96817935D02*
X150030679Y-96786983D01*
X150030679Y-96786983D02*
X150185441Y-96786983D01*
X150185441Y-96786983D02*
X150247346Y-96756030D01*
X150556869Y-97034602D02*
X150556869Y-96601269D01*
X150556869Y-96663173D02*
X150587822Y-96632221D01*
X150587822Y-96632221D02*
X150649727Y-96601269D01*
X150649727Y-96601269D02*
X150742584Y-96601269D01*
X150742584Y-96601269D02*
X150804488Y-96632221D01*
X150804488Y-96632221D02*
X150835441Y-96694126D01*
X150835441Y-96694126D02*
X150835441Y-97034602D01*
X150835441Y-96694126D02*
X150866393Y-96632221D01*
X150866393Y-96632221D02*
X150928298Y-96601269D01*
X150928298Y-96601269D02*
X151021155Y-96601269D01*
X151021155Y-96601269D02*
X151083060Y-96632221D01*
X151083060Y-96632221D02*
X151114012Y-96694126D01*
X151114012Y-96694126D02*
X151114012Y-97034602D01*
X142686225Y-93415554D02*
X142624320Y-93384602D01*
X142624320Y-93384602D02*
X142531463Y-93384602D01*
X142531463Y-93384602D02*
X142438606Y-93415554D01*
X142438606Y-93415554D02*
X142376701Y-93477459D01*
X142376701Y-93477459D02*
X142345748Y-93539364D01*
X142345748Y-93539364D02*
X142314796Y-93663173D01*
X142314796Y-93663173D02*
X142314796Y-93756030D01*
X142314796Y-93756030D02*
X142345748Y-93879840D01*
X142345748Y-93879840D02*
X142376701Y-93941745D01*
X142376701Y-93941745D02*
X142438606Y-94003650D01*
X142438606Y-94003650D02*
X142531463Y-94034602D01*
X142531463Y-94034602D02*
X142593367Y-94034602D01*
X142593367Y-94034602D02*
X142686225Y-94003650D01*
X142686225Y-94003650D02*
X142717177Y-93972697D01*
X142717177Y-93972697D02*
X142717177Y-93756030D01*
X142717177Y-93756030D02*
X142593367Y-93756030D01*
X141910203Y-97034602D02*
X141693536Y-96725078D01*
X141538774Y-97034602D02*
X141538774Y-96384602D01*
X141538774Y-96384602D02*
X141786393Y-96384602D01*
X141786393Y-96384602D02*
X141848298Y-96415554D01*
X141848298Y-96415554D02*
X141879251Y-96446507D01*
X141879251Y-96446507D02*
X141910203Y-96508411D01*
X141910203Y-96508411D02*
X141910203Y-96601269D01*
X141910203Y-96601269D02*
X141879251Y-96663173D01*
X141879251Y-96663173D02*
X141848298Y-96694126D01*
X141848298Y-96694126D02*
X141786393Y-96725078D01*
X141786393Y-96725078D02*
X141538774Y-96725078D01*
X142126870Y-96384602D02*
X142560203Y-97034602D01*
X142560203Y-96384602D02*
X142126870Y-97034602D01*
X142776870Y-96446507D02*
X142807822Y-96415554D01*
X142807822Y-96415554D02*
X142869727Y-96384602D01*
X142869727Y-96384602D02*
X143024489Y-96384602D01*
X143024489Y-96384602D02*
X143086394Y-96415554D01*
X143086394Y-96415554D02*
X143117346Y-96446507D01*
X143117346Y-96446507D02*
X143148299Y-96508411D01*
X143148299Y-96508411D02*
X143148299Y-96570316D01*
X143148299Y-96570316D02*
X143117346Y-96663173D01*
X143117346Y-96663173D02*
X142745918Y-97034602D01*
X142745918Y-97034602D02*
X143148299Y-97034602D01*
X136969081Y-93384602D02*
X136659557Y-93384602D01*
X136659557Y-93384602D02*
X136628605Y-93694126D01*
X136628605Y-93694126D02*
X136659557Y-93663173D01*
X136659557Y-93663173D02*
X136721462Y-93632221D01*
X136721462Y-93632221D02*
X136876224Y-93632221D01*
X136876224Y-93632221D02*
X136938129Y-93663173D01*
X136938129Y-93663173D02*
X136969081Y-93694126D01*
X136969081Y-93694126D02*
X137000034Y-93756030D01*
X137000034Y-93756030D02*
X137000034Y-93910792D01*
X137000034Y-93910792D02*
X136969081Y-93972697D01*
X136969081Y-93972697D02*
X136938129Y-94003650D01*
X136938129Y-94003650D02*
X136876224Y-94034602D01*
X136876224Y-94034602D02*
X136721462Y-94034602D01*
X136721462Y-94034602D02*
X136659557Y-94003650D01*
X136659557Y-94003650D02*
X136628605Y-93972697D01*
X137185748Y-93384602D02*
X137402415Y-94034602D01*
X137402415Y-94034602D02*
X137619082Y-93384602D01*
X150148298Y-93384602D02*
X149838774Y-93384602D01*
X149838774Y-93384602D02*
X149807822Y-93694126D01*
X149807822Y-93694126D02*
X149838774Y-93663173D01*
X149838774Y-93663173D02*
X149900679Y-93632221D01*
X149900679Y-93632221D02*
X150055441Y-93632221D01*
X150055441Y-93632221D02*
X150117346Y-93663173D01*
X150117346Y-93663173D02*
X150148298Y-93694126D01*
X150148298Y-93694126D02*
X150179251Y-93756030D01*
X150179251Y-93756030D02*
X150179251Y-93910792D01*
X150179251Y-93910792D02*
X150148298Y-93972697D01*
X150148298Y-93972697D02*
X150117346Y-94003650D01*
X150117346Y-94003650D02*
X150055441Y-94034602D01*
X150055441Y-94034602D02*
X149900679Y-94034602D01*
X149900679Y-94034602D02*
X149838774Y-94003650D01*
X149838774Y-94003650D02*
X149807822Y-93972697D01*
X150364965Y-93384602D02*
X150581632Y-94034602D01*
X150581632Y-94034602D02*
X150798299Y-93384602D01*
D12*
X138500764Y-69634644D02*
X138438859Y-69603692D01*
X138438859Y-69603692D02*
X138346002Y-69603692D01*
X138346002Y-69603692D02*
X138253145Y-69634644D01*
X138253145Y-69634644D02*
X138191240Y-69696549D01*
X138191240Y-69696549D02*
X138160287Y-69758454D01*
X138160287Y-69758454D02*
X138129335Y-69882263D01*
X138129335Y-69882263D02*
X138129335Y-69975120D01*
X138129335Y-69975120D02*
X138160287Y-70098930D01*
X138160287Y-70098930D02*
X138191240Y-70160835D01*
X138191240Y-70160835D02*
X138253145Y-70222740D01*
X138253145Y-70222740D02*
X138346002Y-70253692D01*
X138346002Y-70253692D02*
X138407906Y-70253692D01*
X138407906Y-70253692D02*
X138500764Y-70222740D01*
X138500764Y-70222740D02*
X138531716Y-70191787D01*
X138531716Y-70191787D02*
X138531716Y-69975120D01*
X138531716Y-69975120D02*
X138407906Y-69975120D01*
X138810287Y-70253692D02*
X138810287Y-69603692D01*
X138810287Y-69603692D02*
X139181716Y-70253692D01*
X139181716Y-70253692D02*
X139181716Y-69603692D01*
X139491239Y-70253692D02*
X139491239Y-69603692D01*
X139491239Y-69603692D02*
X139646001Y-69603692D01*
X139646001Y-69603692D02*
X139738858Y-69634644D01*
X139738858Y-69634644D02*
X139800763Y-69696549D01*
X139800763Y-69696549D02*
X139831716Y-69758454D01*
X139831716Y-69758454D02*
X139862668Y-69882263D01*
X139862668Y-69882263D02*
X139862668Y-69975120D01*
X139862668Y-69975120D02*
X139831716Y-70098930D01*
X139831716Y-70098930D02*
X139800763Y-70160835D01*
X139800763Y-70160835D02*
X139738858Y-70222740D01*
X139738858Y-70222740D02*
X139646001Y-70253692D01*
X139646001Y-70253692D02*
X139491239Y-70253692D01*
D13*
X136510203Y-97034602D02*
X136293536Y-96725078D01*
X136138774Y-97034602D02*
X136138774Y-96384602D01*
X136138774Y-96384602D02*
X136386393Y-96384602D01*
X136386393Y-96384602D02*
X136448298Y-96415554D01*
X136448298Y-96415554D02*
X136479251Y-96446507D01*
X136479251Y-96446507D02*
X136510203Y-96508411D01*
X136510203Y-96508411D02*
X136510203Y-96601269D01*
X136510203Y-96601269D02*
X136479251Y-96663173D01*
X136479251Y-96663173D02*
X136448298Y-96694126D01*
X136448298Y-96694126D02*
X136386393Y-96725078D01*
X136386393Y-96725078D02*
X136138774Y-96725078D01*
X136726870Y-96384602D02*
X137160203Y-97034602D01*
X137160203Y-96384602D02*
X136726870Y-97034602D01*
X137686394Y-96601269D02*
X137686394Y-97034602D01*
X137531632Y-96353650D02*
X137376870Y-96817935D01*
X137376870Y-96817935D02*
X137779251Y-96817935D01*
D14*
%TO.C,R25*%
X134240000Y-78486359D02*
X134240000Y-78793641D01*
X135000000Y-78486359D02*
X135000000Y-78793641D01*
%TO.C,C12*%
X152147164Y-79760000D02*
X152362836Y-79760000D01*
X152147164Y-80480000D02*
X152362836Y-80480000D01*
D15*
%TO.C,D4*%
X159625000Y-85405000D02*
G75*
G02*
X159525000Y-85405000I-50000J0D01*
G01*
X159525000Y-85405000D02*
G75*
G02*
X159625000Y-85405000I50000J0D01*
G01*
D14*
%TO.C,C46*%
X144497836Y-71360000D02*
X144282164Y-71360000D01*
X144497836Y-72080000D02*
X144282164Y-72080000D01*
D15*
%TO.C,D9*%
X159612500Y-83620000D02*
G75*
G02*
X159512500Y-83620000I-50000J0D01*
G01*
X159512500Y-83620000D02*
G75*
G02*
X159612500Y-83620000I50000J0D01*
G01*
D14*
%TO.C,C15*%
X140307836Y-73390000D02*
X140092164Y-73390000D01*
X140307836Y-74110000D02*
X140092164Y-74110000D01*
%TO.C,R30*%
X153775000Y-92565641D02*
X153775000Y-92258359D01*
X154535000Y-92565641D02*
X154535000Y-92258359D01*
%TO.C,C17*%
X133095000Y-83852836D02*
X133095000Y-83637164D01*
X133815000Y-83852836D02*
X133815000Y-83637164D01*
%TO.C,C14*%
X144710000Y-74747836D02*
X144710000Y-74532164D01*
X145430000Y-74747836D02*
X145430000Y-74532164D01*
%TO.C,C2*%
X142052164Y-85970000D02*
X142267836Y-85970000D01*
X142052164Y-86690000D02*
X142267836Y-86690000D01*
%TO.C,R37*%
X146355000Y-87248641D02*
X146355000Y-86941359D01*
X147115000Y-87248641D02*
X147115000Y-86941359D01*
D11*
%TO.C,U5*%
X158385000Y-83037000D02*
X158385000Y-84512000D01*
D14*
%TO.C,R2*%
X144140000Y-86963641D02*
X144140000Y-86656359D01*
X144900000Y-86963641D02*
X144900000Y-86656359D01*
%TO.C,C16*%
X137575000Y-82852836D02*
X137575000Y-82637164D01*
X138295000Y-82852836D02*
X138295000Y-82637164D01*
D16*
%TO.C,U4*%
X125813500Y-71590000D02*
X125813500Y-80590000D01*
X125813500Y-71590000D02*
X127532500Y-71590000D01*
X125813500Y-80590000D02*
X127532500Y-80590000D01*
X129994500Y-71590000D02*
X131313500Y-71590000D01*
X129994500Y-80590000D02*
X131513500Y-80590000D01*
D15*
%TO.C,SW1*%
X125060000Y-89425000D02*
X126210000Y-89425000D01*
X125060000Y-91115000D02*
X125060000Y-89425000D01*
X126200000Y-91115000D02*
X125060000Y-91115000D01*
X126240000Y-92340000D02*
X126240000Y-88200000D01*
X127010000Y-92620000D02*
X128450000Y-92620000D01*
X127020000Y-87890000D02*
X128460000Y-87890000D01*
X128450000Y-92620000D02*
X128450000Y-92470000D01*
X128460000Y-87890000D02*
X128460000Y-88040000D01*
X125060000Y-91115000D02*
X126240000Y-91115000D01*
X126240000Y-89425000D01*
X125060000Y-89425000D01*
X125060000Y-91115000D01*
G36*
X125060000Y-91115000D02*
G01*
X126240000Y-91115000D01*
X126240000Y-89425000D01*
X125060000Y-89425000D01*
X125060000Y-91115000D01*
G37*
D14*
%TO.C,C47*%
X145045000Y-92512836D02*
X145045000Y-92297164D01*
X145765000Y-92512836D02*
X145765000Y-92297164D01*
%TO.C,C1*%
X140437836Y-85970000D02*
X140222164Y-85970000D01*
X140437836Y-86690000D02*
X140222164Y-86690000D01*
D15*
%TO.C,U6*%
X141265000Y-72330000D02*
X141265000Y-72830000D01*
X141265000Y-72330000D02*
X141765000Y-72330000D01*
X141265000Y-75530000D02*
X141265000Y-75030000D01*
X141265000Y-75530000D02*
X141765000Y-75530000D01*
X143965000Y-72330000D02*
X144465000Y-72330000D01*
X144465000Y-72330000D02*
X144465000Y-72830000D01*
X144465000Y-75530000D02*
X143965000Y-75530000D01*
X144465000Y-75530000D02*
X144465000Y-75030000D01*
D14*
X141190000Y-73180000D02*
X140854000Y-73420000D01*
X140854000Y-72940000D01*
X141190000Y-73180000D01*
G36*
X141190000Y-73180000D02*
G01*
X140854000Y-73420000D01*
X140854000Y-72940000D01*
X141190000Y-73180000D01*
G37*
%TO.C,C13*%
X150532836Y-79760000D02*
X150317164Y-79760000D01*
X150532836Y-80480000D02*
X150317164Y-80480000D01*
%TO.C,R26*%
X135406359Y-76150000D02*
X135713641Y-76150000D01*
X135406359Y-76910000D02*
X135713641Y-76910000D01*
%TO.C,R27*%
X135406359Y-75190000D02*
X135713641Y-75190000D01*
X135406359Y-75950000D02*
X135713641Y-75950000D01*
%TO.C,C11*%
X149315000Y-78772836D02*
X149315000Y-78557164D01*
X150035000Y-78772836D02*
X150035000Y-78557164D01*
%TO.C,C38*%
X156475000Y-92482580D02*
X156475000Y-92201420D01*
X157495000Y-92482580D02*
X157495000Y-92201420D01*
D11*
%TO.C,J1*%
X125705000Y-96555000D02*
X125705000Y-66555000D01*
X128705000Y-63555000D02*
X158705000Y-63555000D01*
X128705000Y-99555000D02*
X158705000Y-99555000D01*
X161705000Y-96555000D02*
X161705000Y-66555000D01*
X125705000Y-66555000D02*
G75*
G02*
X128705000Y-63555000I3000001J-1D01*
G01*
X128705000Y-99555000D02*
G75*
G02*
X125705000Y-96555000I1J3000001D01*
G01*
X158705000Y-63555000D02*
G75*
G02*
X161705000Y-66555000I0J-3000000D01*
G01*
X161705000Y-96555000D02*
G75*
G02*
X158705000Y-99555000I-3000000J0D01*
G01*
D17*
X143710025Y-81555000D02*
G75*
G02*
X143699975Y-81555000I-5025J0D01*
G01*
X143699975Y-81555000D02*
G75*
G02*
X143710025Y-81555000I5025J0D01*
G01*
X143710025Y-81555000D02*
G75*
G02*
X143699975Y-81555000I-5025J0D01*
G01*
X143699975Y-81555000D02*
G75*
G02*
X143710025Y-81555000I5025J0D01*
G01*
D18*
%TO.C,IC2*%
X134185000Y-81655000D02*
X134185000Y-81905000D01*
X134185000Y-86155000D02*
X134185000Y-85905000D01*
X135185000Y-81655000D02*
X134185000Y-81655000D01*
X135185000Y-86155000D02*
X134185000Y-86155000D01*
X136185000Y-81655000D02*
X137185000Y-81655000D01*
X137185000Y-81655000D02*
X137185000Y-81905000D01*
X137185000Y-85905000D02*
X137185000Y-86155000D01*
X137185000Y-86155000D02*
X136185000Y-86155000D01*
D11*
X133685000Y-85534000D02*
G75*
G02*
X133485000Y-85534000I-100000J0D01*
G01*
X133485000Y-85534000D02*
G75*
G02*
X133685000Y-85534000I100000J0D01*
G01*
D14*
%TO.C,IC3*%
X155355000Y-77820000D02*
X155355000Y-75150000D01*
X161335000Y-69860000D02*
X161335000Y-77850000D01*
D19*
X155840000Y-78225000D02*
G75*
G02*
X155590000Y-78225000I-125000J0D01*
G01*
X155590000Y-78225000D02*
G75*
G02*
X155840000Y-78225000I125000J0D01*
G01*
D14*
%TO.C,R35*%
X140343641Y-72480000D02*
X140036359Y-72480000D01*
X140343641Y-73240000D02*
X140036359Y-73240000D01*
%TO.C,R36*%
X147295000Y-86931359D02*
X147295000Y-87238641D01*
X148055000Y-86931359D02*
X148055000Y-87238641D01*
%TO.C,R24*%
X134230000Y-73683641D02*
X134230000Y-73376359D01*
X134990000Y-73683641D02*
X134990000Y-73376359D01*
%TO.C,C39*%
X155015000Y-92482580D02*
X155015000Y-92201420D01*
X156035000Y-92482580D02*
X156035000Y-92201420D01*
%TO.C,C41*%
X152835000Y-92294164D02*
X152835000Y-92509836D01*
X153555000Y-92294164D02*
X153555000Y-92509836D01*
%TO.C,D7*%
X130410000Y-82480000D02*
X126550000Y-82480000D01*
X130410000Y-84480000D02*
X126550000Y-84480000D01*
X130410000Y-84480000D02*
X130410000Y-82480000D01*
%TO.C,Y1*%
X142575000Y-86935000D02*
X139875000Y-86935000D01*
X142575000Y-89235000D02*
X142575000Y-86935000D01*
D16*
%TO.C,IC6*%
X145190000Y-90210000D02*
X145190000Y-89710000D01*
D20*
X145423000Y-88536000D02*
X145423000Y-88536000D01*
X145439000Y-88536000D02*
X145439000Y-88536000D01*
D16*
X147690000Y-90210000D02*
X147690000Y-89710000D01*
D20*
X145423000Y-88536000D02*
G75*
G02*
X145439000Y-88536000I8000J0D01*
G01*
X145439000Y-88536000D02*
G75*
G02*
X145423000Y-88536000I-8000J0D01*
G01*
D14*
%TO.C,R29*%
X155591359Y-93912000D02*
X155898641Y-93912000D01*
X155591359Y-94672000D02*
X155898641Y-94672000D01*
%TO.C,U1*%
X139310000Y-76760000D02*
X147530000Y-76760000D01*
X139310000Y-83980000D02*
X139310000Y-76760000D01*
X147530000Y-76760000D02*
X147530000Y-84980000D01*
X147530000Y-84980000D02*
X140310000Y-84980000D01*
X139310000Y-85480000D02*
X138810000Y-84980000D01*
X139310000Y-84980000D01*
X139310000Y-85480000D01*
G36*
X139310000Y-85480000D02*
G01*
X138810000Y-84980000D01*
X139310000Y-84980000D01*
X139310000Y-85480000D01*
G37*
%TO.C,C48*%
X146375000Y-92297164D02*
X146375000Y-92512836D01*
X147095000Y-92297164D02*
X147095000Y-92512836D01*
D15*
%TO.C,LED1*%
X159690000Y-80260000D02*
X160490000Y-80260000D01*
X159690000Y-82260000D02*
X160490000Y-82260000D01*
D11*
X160890000Y-82760000D02*
X160890000Y-82760000D01*
X161090000Y-82760000D02*
X161090000Y-82760000D01*
X160890000Y-82760000D02*
G75*
G02*
X161090000Y-82760000I100000J0D01*
G01*
X161090000Y-82760000D02*
G75*
G02*
X160890000Y-82760000I-100000J0D01*
G01*
D14*
%TO.C,Y2*%
X156585000Y-80315000D02*
X153885000Y-80315000D01*
X156585000Y-82615000D02*
X156585000Y-80315000D01*
D15*
%TO.C,D11*%
X137010000Y-74010000D02*
G75*
G02*
X136910000Y-74010000I-50000J0D01*
G01*
X136910000Y-74010000D02*
G75*
G02*
X137010000Y-74010000I50000J0D01*
G01*
D14*
%TO.C,R34*%
X142703641Y-71330000D02*
X142396359Y-71330000D01*
X142703641Y-72090000D02*
X142396359Y-72090000D01*
%TO.C,R38*%
X147335000Y-92251359D02*
X147335000Y-92558641D01*
X148095000Y-92251359D02*
X148095000Y-92558641D01*
%TO.C,R28*%
X151483641Y-90720000D02*
X151176359Y-90720000D01*
X151483641Y-91480000D02*
X151176359Y-91480000D01*
D15*
%TO.C,D10*%
X137010000Y-78060000D02*
G75*
G02*
X136910000Y-78060000I-50000J0D01*
G01*
X136910000Y-78060000D02*
G75*
G02*
X137010000Y-78060000I50000J0D01*
G01*
D14*
%TO.C,C3*%
X143230000Y-86692164D02*
X143230000Y-86907836D01*
X143950000Y-86692164D02*
X143950000Y-86907836D01*
D15*
%TO.C,IC7*%
X150475000Y-76240000D02*
X150475000Y-76940000D01*
X150475000Y-78540000D02*
X150475000Y-79240000D01*
X150475000Y-79240000D02*
X150725000Y-79240000D01*
X150625000Y-76240000D02*
X150475000Y-76240000D01*
X152425000Y-75840000D02*
X152425000Y-75840000D01*
X152525000Y-75840000D02*
X152525000Y-75840000D01*
X152725000Y-76240000D02*
X152975000Y-76240000D01*
X152975000Y-76240000D02*
X152975000Y-76940000D01*
X152975000Y-78540000D02*
X152975000Y-79240000D01*
X152975000Y-79240000D02*
X152725000Y-79240000D01*
X152425000Y-75840000D02*
G75*
G02*
X152525000Y-75840000I50000J0D01*
G01*
X152525000Y-75840000D02*
G75*
G02*
X152425000Y-75840000I-50000J0D01*
G01*
%TD*%
M02*
