%TF.GenerationSoftware,KiCad,Pcbnew,8.0.7*%
%TF.CreationDate,2025-02-13T13:50:40+08:00*%
%TF.ProjectId,NewSkyH7-Air,4e657753-6b79-4483-972d-4169722e6b69,rev?*%
%TF.SameCoordinates,Original*%
%TF.FileFunction,Legend,Bot*%
%TF.FilePolarity,Positive*%
%FSLAX46Y46*%
G04 Gerber Fmt 4.6, Leading zero omitted, Abs format (unit mm)*
G04 Created by KiCad (PCBNEW 8.0.7) date 2025-02-13 13:50:40*
%MOMM*%
%LPD*%
G01*
G04 APERTURE LIST*
%ADD10C,0.150000*%
%ADD11C,0.120000*%
%ADD12C,0.127000*%
%ADD13C,0.200000*%
%ADD14C,0.300000*%
%ADD15C,0.100000*%
%ADD16C,0.000000*%
G04 APERTURE END LIST*
D10*
X142728220Y-92644819D02*
X142728220Y-93454342D01*
X142728220Y-93454342D02*
X142680601Y-93549580D01*
X142680601Y-93549580D02*
X142632982Y-93597200D01*
X142632982Y-93597200D02*
X142537744Y-93644819D01*
X142537744Y-93644819D02*
X142347268Y-93644819D01*
X142347268Y-93644819D02*
X142252030Y-93597200D01*
X142252030Y-93597200D02*
X142204411Y-93549580D01*
X142204411Y-93549580D02*
X142156792Y-93454342D01*
X142156792Y-93454342D02*
X142156792Y-92644819D01*
X141728220Y-93359104D02*
X141252030Y-93359104D01*
X141823458Y-93644819D02*
X141490125Y-92644819D01*
X141490125Y-92644819D02*
X141156792Y-93644819D01*
X140252030Y-93644819D02*
X140585363Y-93168628D01*
X140823458Y-93644819D02*
X140823458Y-92644819D01*
X140823458Y-92644819D02*
X140442506Y-92644819D01*
X140442506Y-92644819D02*
X140347268Y-92692438D01*
X140347268Y-92692438D02*
X140299649Y-92740057D01*
X140299649Y-92740057D02*
X140252030Y-92835295D01*
X140252030Y-92835295D02*
X140252030Y-92978152D01*
X140252030Y-92978152D02*
X140299649Y-93073390D01*
X140299649Y-93073390D02*
X140347268Y-93121009D01*
X140347268Y-93121009D02*
X140442506Y-93168628D01*
X140442506Y-93168628D02*
X140823458Y-93168628D01*
X139966315Y-92644819D02*
X139394887Y-92644819D01*
X139680601Y-93644819D02*
X139680601Y-92644819D01*
X142664411Y-88739819D02*
X143235839Y-88739819D01*
X142950125Y-88739819D02*
X142950125Y-87739819D01*
X142950125Y-87739819D02*
X143045363Y-87882676D01*
X143045363Y-87882676D02*
X143140601Y-87977914D01*
X143140601Y-87977914D02*
X143235839Y-88025533D01*
X142235839Y-88644580D02*
X142188220Y-88692200D01*
X142188220Y-88692200D02*
X142235839Y-88739819D01*
X142235839Y-88739819D02*
X142283458Y-88692200D01*
X142283458Y-88692200D02*
X142235839Y-88644580D01*
X142235839Y-88644580D02*
X142235839Y-88739819D01*
X141569173Y-87739819D02*
X141473935Y-87739819D01*
X141473935Y-87739819D02*
X141378697Y-87787438D01*
X141378697Y-87787438D02*
X141331078Y-87835057D01*
X141331078Y-87835057D02*
X141283459Y-87930295D01*
X141283459Y-87930295D02*
X141235840Y-88120771D01*
X141235840Y-88120771D02*
X141235840Y-88358866D01*
X141235840Y-88358866D02*
X141283459Y-88549342D01*
X141283459Y-88549342D02*
X141331078Y-88644580D01*
X141331078Y-88644580D02*
X141378697Y-88692200D01*
X141378697Y-88692200D02*
X141473935Y-88739819D01*
X141473935Y-88739819D02*
X141569173Y-88739819D01*
X141569173Y-88739819D02*
X141664411Y-88692200D01*
X141664411Y-88692200D02*
X141712030Y-88644580D01*
X141712030Y-88644580D02*
X141759649Y-88549342D01*
X141759649Y-88549342D02*
X141807268Y-88358866D01*
X141807268Y-88358866D02*
X141807268Y-88120771D01*
X141807268Y-88120771D02*
X141759649Y-87930295D01*
X141759649Y-87930295D02*
X141712030Y-87835057D01*
X141712030Y-87835057D02*
X141664411Y-87787438D01*
X141664411Y-87787438D02*
X141569173Y-87739819D01*
X140950125Y-87739819D02*
X140616792Y-88739819D01*
X140616792Y-88739819D02*
X140283459Y-87739819D01*
D11*
X151150338Y-88615855D02*
X151050338Y-87815855D01*
X151050338Y-87815855D02*
X150859862Y-87815855D01*
X150859862Y-87815855D02*
X150750338Y-87853950D01*
X150750338Y-87853950D02*
X150683672Y-87930140D01*
X150683672Y-87930140D02*
X150655100Y-88006331D01*
X150655100Y-88006331D02*
X150636053Y-88158712D01*
X150636053Y-88158712D02*
X150650338Y-88272998D01*
X150650338Y-88272998D02*
X150707481Y-88425379D01*
X150707481Y-88425379D02*
X150755100Y-88501569D01*
X150755100Y-88501569D02*
X150840814Y-88577760D01*
X150840814Y-88577760D02*
X150959862Y-88615855D01*
X150959862Y-88615855D02*
X151150338Y-88615855D01*
X150040814Y-88577760D02*
X150121767Y-88615855D01*
X150121767Y-88615855D02*
X150274148Y-88615855D01*
X150274148Y-88615855D02*
X150345576Y-88577760D01*
X150345576Y-88577760D02*
X150374148Y-88501569D01*
X150374148Y-88501569D02*
X150336053Y-88196807D01*
X150336053Y-88196807D02*
X150288433Y-88120617D01*
X150288433Y-88120617D02*
X150207481Y-88082521D01*
X150207481Y-88082521D02*
X150055100Y-88082521D01*
X150055100Y-88082521D02*
X149983672Y-88120617D01*
X149983672Y-88120617D02*
X149955100Y-88196807D01*
X149955100Y-88196807D02*
X149964624Y-88272998D01*
X149964624Y-88272998D02*
X150355100Y-88349188D01*
X149697958Y-88577760D02*
X149626529Y-88615855D01*
X149626529Y-88615855D02*
X149474148Y-88615855D01*
X149474148Y-88615855D02*
X149393196Y-88577760D01*
X149393196Y-88577760D02*
X149345577Y-88501569D01*
X149345577Y-88501569D02*
X149340815Y-88463474D01*
X149340815Y-88463474D02*
X149369386Y-88387283D01*
X149369386Y-88387283D02*
X149440815Y-88349188D01*
X149440815Y-88349188D02*
X149555100Y-88349188D01*
X149555100Y-88349188D02*
X149626529Y-88311093D01*
X149626529Y-88311093D02*
X149655100Y-88234902D01*
X149655100Y-88234902D02*
X149650339Y-88196807D01*
X149650339Y-88196807D02*
X149602719Y-88120617D01*
X149602719Y-88120617D02*
X149521767Y-88082521D01*
X149521767Y-88082521D02*
X149407481Y-88082521D01*
X149407481Y-88082521D02*
X149336053Y-88120617D01*
X149017005Y-88615855D02*
X148950339Y-88082521D01*
X148917005Y-87815855D02*
X148959862Y-87853950D01*
X148959862Y-87853950D02*
X148926529Y-87892045D01*
X148926529Y-87892045D02*
X148883672Y-87853950D01*
X148883672Y-87853950D02*
X148917005Y-87815855D01*
X148917005Y-87815855D02*
X148926529Y-87892045D01*
X148226529Y-88082521D02*
X148307482Y-88730140D01*
X148307482Y-88730140D02*
X148355101Y-88806331D01*
X148355101Y-88806331D02*
X148397958Y-88844426D01*
X148397958Y-88844426D02*
X148478910Y-88882521D01*
X148478910Y-88882521D02*
X148593196Y-88882521D01*
X148593196Y-88882521D02*
X148664625Y-88844426D01*
X148288434Y-88577760D02*
X148369387Y-88615855D01*
X148369387Y-88615855D02*
X148521768Y-88615855D01*
X148521768Y-88615855D02*
X148593196Y-88577760D01*
X148593196Y-88577760D02*
X148626529Y-88539664D01*
X148626529Y-88539664D02*
X148655101Y-88463474D01*
X148655101Y-88463474D02*
X148626529Y-88234902D01*
X148626529Y-88234902D02*
X148578910Y-88158712D01*
X148578910Y-88158712D02*
X148536053Y-88120617D01*
X148536053Y-88120617D02*
X148455101Y-88082521D01*
X148455101Y-88082521D02*
X148302720Y-88082521D01*
X148302720Y-88082521D02*
X148231291Y-88120617D01*
X147845577Y-88082521D02*
X147912243Y-88615855D01*
X147855100Y-88158712D02*
X147812243Y-88120617D01*
X147812243Y-88120617D02*
X147731291Y-88082521D01*
X147731291Y-88082521D02*
X147617005Y-88082521D01*
X147617005Y-88082521D02*
X147545577Y-88120617D01*
X147545577Y-88120617D02*
X147517005Y-88196807D01*
X147517005Y-88196807D02*
X147569386Y-88615855D01*
X147150338Y-88311093D02*
X146540814Y-88311093D01*
X145878910Y-88196807D02*
X145769386Y-88234902D01*
X145769386Y-88234902D02*
X145736052Y-88272998D01*
X145736052Y-88272998D02*
X145707481Y-88349188D01*
X145707481Y-88349188D02*
X145721767Y-88463474D01*
X145721767Y-88463474D02*
X145769386Y-88539664D01*
X145769386Y-88539664D02*
X145812243Y-88577760D01*
X145812243Y-88577760D02*
X145893195Y-88615855D01*
X145893195Y-88615855D02*
X146197957Y-88615855D01*
X146197957Y-88615855D02*
X146097957Y-87815855D01*
X146097957Y-87815855D02*
X145831291Y-87815855D01*
X145831291Y-87815855D02*
X145759862Y-87853950D01*
X145759862Y-87853950D02*
X145726529Y-87892045D01*
X145726529Y-87892045D02*
X145697957Y-87968236D01*
X145697957Y-87968236D02*
X145707481Y-88044426D01*
X145707481Y-88044426D02*
X145755100Y-88120617D01*
X145755100Y-88120617D02*
X145797957Y-88158712D01*
X145797957Y-88158712D02*
X145878910Y-88196807D01*
X145878910Y-88196807D02*
X146145576Y-88196807D01*
X145407481Y-88082521D02*
X145283672Y-88615855D01*
X145026529Y-88082521D02*
X145283672Y-88615855D01*
X145283672Y-88615855D02*
X145383672Y-88806331D01*
X145383672Y-88806331D02*
X145426529Y-88844426D01*
X145426529Y-88844426D02*
X145507481Y-88882521D01*
X144778909Y-88539664D02*
X144745576Y-88577760D01*
X144745576Y-88577760D02*
X144788433Y-88615855D01*
X144788433Y-88615855D02*
X144821767Y-88577760D01*
X144821767Y-88577760D02*
X144778909Y-88539664D01*
X144778909Y-88539664D02*
X144788433Y-88615855D01*
X144726528Y-88120617D02*
X144693195Y-88158712D01*
X144693195Y-88158712D02*
X144736052Y-88196807D01*
X144736052Y-88196807D02*
X144769386Y-88158712D01*
X144769386Y-88158712D02*
X144726528Y-88120617D01*
X144726528Y-88120617D02*
X144736052Y-88196807D01*
D10*
X154516792Y-93309580D02*
X154564411Y-93357200D01*
X154564411Y-93357200D02*
X154707268Y-93404819D01*
X154707268Y-93404819D02*
X154802506Y-93404819D01*
X154802506Y-93404819D02*
X154945363Y-93357200D01*
X154945363Y-93357200D02*
X155040601Y-93261961D01*
X155040601Y-93261961D02*
X155088220Y-93166723D01*
X155088220Y-93166723D02*
X155135839Y-92976247D01*
X155135839Y-92976247D02*
X155135839Y-92833390D01*
X155135839Y-92833390D02*
X155088220Y-92642914D01*
X155088220Y-92642914D02*
X155040601Y-92547676D01*
X155040601Y-92547676D02*
X154945363Y-92452438D01*
X154945363Y-92452438D02*
X154802506Y-92404819D01*
X154802506Y-92404819D02*
X154707268Y-92404819D01*
X154707268Y-92404819D02*
X154564411Y-92452438D01*
X154564411Y-92452438D02*
X154516792Y-92500057D01*
X153659649Y-93404819D02*
X153659649Y-92881009D01*
X153659649Y-92881009D02*
X153707268Y-92785771D01*
X153707268Y-92785771D02*
X153802506Y-92738152D01*
X153802506Y-92738152D02*
X153992982Y-92738152D01*
X153992982Y-92738152D02*
X154088220Y-92785771D01*
X153659649Y-93357200D02*
X153754887Y-93404819D01*
X153754887Y-93404819D02*
X153992982Y-93404819D01*
X153992982Y-93404819D02*
X154088220Y-93357200D01*
X154088220Y-93357200D02*
X154135839Y-93261961D01*
X154135839Y-93261961D02*
X154135839Y-93166723D01*
X154135839Y-93166723D02*
X154088220Y-93071485D01*
X154088220Y-93071485D02*
X153992982Y-93023866D01*
X153992982Y-93023866D02*
X153754887Y-93023866D01*
X153754887Y-93023866D02*
X153659649Y-92976247D01*
X153183458Y-93404819D02*
X153183458Y-92738152D01*
X153183458Y-92833390D02*
X153135839Y-92785771D01*
X153135839Y-92785771D02*
X153040601Y-92738152D01*
X153040601Y-92738152D02*
X152897744Y-92738152D01*
X152897744Y-92738152D02*
X152802506Y-92785771D01*
X152802506Y-92785771D02*
X152754887Y-92881009D01*
X152754887Y-92881009D02*
X152754887Y-93404819D01*
X152754887Y-92881009D02*
X152707268Y-92785771D01*
X152707268Y-92785771D02*
X152612030Y-92738152D01*
X152612030Y-92738152D02*
X152469173Y-92738152D01*
X152469173Y-92738152D02*
X152373934Y-92785771D01*
X152373934Y-92785771D02*
X152326315Y-92881009D01*
X152326315Y-92881009D02*
X152326315Y-93404819D01*
X147801077Y-92404819D02*
X147467744Y-93404819D01*
X147467744Y-93404819D02*
X147134411Y-92404819D01*
X146943934Y-92404819D02*
X146372506Y-92404819D01*
X146658220Y-93404819D02*
X146658220Y-92404819D01*
X146134410Y-92404819D02*
X145467744Y-93404819D01*
X145467744Y-92404819D02*
X146134410Y-93404819D01*
X140347506Y-66179819D02*
X140347506Y-66894104D01*
X140347506Y-66894104D02*
X140395125Y-67036961D01*
X140395125Y-67036961D02*
X140490363Y-67132200D01*
X140490363Y-67132200D02*
X140633220Y-67179819D01*
X140633220Y-67179819D02*
X140728458Y-67179819D01*
X139395125Y-67179819D02*
X139871315Y-67179819D01*
X139871315Y-67179819D02*
X139871315Y-66179819D01*
X138490363Y-67084580D02*
X138537982Y-67132200D01*
X138537982Y-67132200D02*
X138680839Y-67179819D01*
X138680839Y-67179819D02*
X138776077Y-67179819D01*
X138776077Y-67179819D02*
X138918934Y-67132200D01*
X138918934Y-67132200D02*
X139014172Y-67036961D01*
X139014172Y-67036961D02*
X139061791Y-66941723D01*
X139061791Y-66941723D02*
X139109410Y-66751247D01*
X139109410Y-66751247D02*
X139109410Y-66608390D01*
X139109410Y-66608390D02*
X139061791Y-66417914D01*
X139061791Y-66417914D02*
X139014172Y-66322676D01*
X139014172Y-66322676D02*
X138918934Y-66227438D01*
X138918934Y-66227438D02*
X138776077Y-66179819D01*
X138776077Y-66179819D02*
X138680839Y-66179819D01*
X138680839Y-66179819D02*
X138537982Y-66227438D01*
X138537982Y-66227438D02*
X138490363Y-66275057D01*
X137776077Y-66179819D02*
X137776077Y-66894104D01*
X137776077Y-66894104D02*
X137823696Y-67036961D01*
X137823696Y-67036961D02*
X137918934Y-67132200D01*
X137918934Y-67132200D02*
X138061791Y-67179819D01*
X138061791Y-67179819D02*
X138157029Y-67179819D01*
X136823696Y-67179819D02*
X137299886Y-67179819D01*
X137299886Y-67179819D02*
X137299886Y-66179819D01*
X135918934Y-67084580D02*
X135966553Y-67132200D01*
X135966553Y-67132200D02*
X136109410Y-67179819D01*
X136109410Y-67179819D02*
X136204648Y-67179819D01*
X136204648Y-67179819D02*
X136347505Y-67132200D01*
X136347505Y-67132200D02*
X136442743Y-67036961D01*
X136442743Y-67036961D02*
X136490362Y-66941723D01*
X136490362Y-66941723D02*
X136537981Y-66751247D01*
X136537981Y-66751247D02*
X136537981Y-66608390D01*
X136537981Y-66608390D02*
X136490362Y-66417914D01*
X136490362Y-66417914D02*
X136442743Y-66322676D01*
X136442743Y-66322676D02*
X136347505Y-66227438D01*
X136347505Y-66227438D02*
X136204648Y-66179819D01*
X136204648Y-66179819D02*
X136109410Y-66179819D01*
X136109410Y-66179819D02*
X135966553Y-66227438D01*
X135966553Y-66227438D02*
X135918934Y-66275057D01*
D11*
%TO.C,R15*%
X128875000Y-84396359D02*
X128875000Y-84703641D01*
X129635000Y-84396359D02*
X129635000Y-84703641D01*
D12*
%TO.C,J2*%
X132650000Y-66006750D02*
X132650000Y-68141750D01*
X132650000Y-68141750D02*
X133680000Y-68141750D01*
X141560000Y-63841750D02*
X133830000Y-63841750D01*
X142650000Y-66046750D02*
X142650000Y-68141750D01*
X142650000Y-68141750D02*
X141690000Y-68141750D01*
D11*
%TO.C,C26*%
X134645000Y-79537836D02*
X134645000Y-79322164D01*
X135365000Y-79537836D02*
X135365000Y-79322164D01*
%TO.C,C30*%
X155550000Y-73390835D02*
X155550000Y-73159165D01*
X156270000Y-73390835D02*
X156270000Y-73159165D01*
%TO.C,C34*%
X138145000Y-87756252D02*
X138145000Y-87233748D01*
X139615000Y-87756252D02*
X139615000Y-87233748D01*
%TO.C,C43*%
X144562164Y-81280000D02*
X144777836Y-81280000D01*
X144562164Y-82000000D02*
X144777836Y-82000000D01*
%TO.C,C19*%
X130520580Y-91540000D02*
X130239420Y-91540000D01*
X130520580Y-92560000D02*
X130239420Y-92560000D01*
%TO.C,L1*%
X153340000Y-72145000D02*
X153340000Y-74665000D01*
X155460000Y-72145000D02*
X155460000Y-74665000D01*
%TO.C,C20*%
X134044420Y-69940000D02*
X134325580Y-69940000D01*
X134044420Y-70960000D02*
X134325580Y-70960000D01*
%TO.C,RN1*%
X136855000Y-71975000D02*
X136855000Y-71475000D01*
X139135000Y-71975000D02*
X139135000Y-71475000D01*
%TO.C,U2*%
X150500000Y-71832500D02*
X151300000Y-71832500D01*
X150500000Y-74952500D02*
X151300000Y-74952500D01*
X152100000Y-71832500D02*
X151300000Y-71832500D01*
X152100000Y-74952500D02*
X151300000Y-74952500D01*
X152600000Y-71882500D02*
X152360000Y-71552500D01*
X152840000Y-71552500D01*
X152600000Y-71882500D01*
G36*
X152600000Y-71882500D02*
G01*
X152360000Y-71552500D01*
X152840000Y-71552500D01*
X152600000Y-71882500D01*
G37*
D12*
%TO.C,J9*%
X132510000Y-94885000D02*
X133310000Y-94885000D01*
X132510000Y-97160000D02*
X132510000Y-94885000D01*
X133710000Y-99135000D02*
X139310000Y-99135000D01*
X140510000Y-94885000D02*
X139710000Y-94885000D01*
X140510000Y-97160000D02*
X140510000Y-94885000D01*
D13*
X139910000Y-94060000D02*
G75*
G02*
X139710000Y-94060000I-100000J0D01*
G01*
X139710000Y-94060000D02*
G75*
G02*
X139910000Y-94060000I100000J0D01*
G01*
D11*
%TO.C,RN2*%
X145440000Y-72290000D02*
X145440000Y-71790000D01*
X147720000Y-72290000D02*
X147720000Y-71790000D01*
%TO.C,R1*%
X139880000Y-81828641D02*
X139880000Y-81521359D01*
X140640000Y-81828641D02*
X140640000Y-81521359D01*
%TO.C,R10*%
X150031359Y-70835000D02*
X150338641Y-70835000D01*
X150031359Y-71595000D02*
X150338641Y-71595000D01*
%TO.C,R5*%
X131695000Y-84371359D02*
X131695000Y-84678641D01*
X132455000Y-84371359D02*
X132455000Y-84678641D01*
D12*
%TO.C,J33*%
X142855000Y-94885000D02*
X142855000Y-97160000D01*
X143740000Y-94885000D02*
X142855000Y-94885000D01*
X144055000Y-99135000D02*
X146655000Y-99135000D01*
X147855000Y-94885000D02*
X146970000Y-94885000D01*
X147855000Y-97160000D02*
X147855000Y-94885000D01*
D14*
X147255000Y-94160000D02*
G75*
G02*
X147055000Y-94160000I-100000J0D01*
G01*
X147055000Y-94160000D02*
G75*
G02*
X147255000Y-94160000I100000J0D01*
G01*
D11*
%TO.C,R6*%
X128155000Y-89226359D02*
X128155000Y-89533641D01*
X128915000Y-89226359D02*
X128915000Y-89533641D01*
%TO.C,C42*%
X152742164Y-88150000D02*
X152957836Y-88150000D01*
X152742164Y-88870000D02*
X152957836Y-88870000D01*
%TO.C,R11*%
X128135000Y-86301359D02*
X128135000Y-86608641D01*
X128895000Y-86301359D02*
X128895000Y-86608641D01*
%TO.C,R14*%
X132741359Y-77650000D02*
X133048641Y-77650000D01*
X132741359Y-78410000D02*
X133048641Y-78410000D01*
%TO.C,C37*%
X155912164Y-84640000D02*
X156127836Y-84640000D01*
X155912164Y-85360000D02*
X156127836Y-85360000D01*
%TO.C,R33*%
X144925000Y-79468641D02*
X144925000Y-79161359D01*
X145685000Y-79468641D02*
X145685000Y-79161359D01*
D15*
%TO.C,IC5*%
X133035000Y-74180000D02*
X133035000Y-76980000D01*
X135535000Y-77880000D02*
X135535000Y-77880000D01*
X135535000Y-77980000D02*
X135535000Y-77980000D01*
X136035000Y-74180000D02*
X136035000Y-76980000D01*
X135535000Y-77880000D02*
G75*
G02*
X135535000Y-77980000I0J-50000D01*
G01*
X135535000Y-77980000D02*
G75*
G02*
X135535000Y-77880000I0J50000D01*
G01*
D11*
%TO.C,C18*%
X130520580Y-93000000D02*
X130239420Y-93000000D01*
X130520580Y-94020000D02*
X130239420Y-94020000D01*
D15*
%TO.C,IC4*%
X129130000Y-89785000D02*
X129130000Y-86985000D01*
X129630000Y-85985000D02*
X129630000Y-85985000D01*
X129630000Y-86085000D02*
X129630000Y-86085000D01*
X132130000Y-89785000D02*
X132130000Y-86985000D01*
X129630000Y-85985000D02*
G75*
G02*
X129630000Y-86085000I0J-50000D01*
G01*
X129630000Y-86085000D02*
G75*
G02*
X129630000Y-85985000I0J50000D01*
G01*
D11*
%TO.C,R4*%
X130760000Y-84673641D02*
X130760000Y-84366359D01*
X131520000Y-84673641D02*
X131520000Y-84366359D01*
%TO.C,C44*%
X139880000Y-83627836D02*
X139880000Y-83412164D01*
X140600000Y-83627836D02*
X140600000Y-83412164D01*
%TO.C,R16*%
X135560000Y-79598641D02*
X135560000Y-79291359D01*
X136320000Y-79598641D02*
X136320000Y-79291359D01*
%TO.C,D2*%
X126810000Y-81340000D02*
X129470000Y-81340000D01*
X126810000Y-83040000D02*
X129470000Y-83040000D01*
X129470000Y-83040000D02*
X129470000Y-81340000D01*
%TO.C,C49*%
X159247164Y-81440000D02*
X159462836Y-81440000D01*
X159247164Y-82160000D02*
X159462836Y-82160000D01*
%TO.C,C36*%
X156470000Y-73380835D02*
X156470000Y-73149165D01*
X157190000Y-73380835D02*
X157190000Y-73149165D01*
%TO.C,C22*%
X134044420Y-71410000D02*
X134325580Y-71410000D01*
X134044420Y-72430000D02*
X134325580Y-72430000D01*
%TO.C,R32*%
X159568859Y-83240000D02*
X159876141Y-83240000D01*
X159568859Y-84000000D02*
X159876141Y-84000000D01*
%TO.C,R20*%
X144143641Y-69990000D02*
X143836359Y-69990000D01*
X144143641Y-70750000D02*
X143836359Y-70750000D01*
%TO.C,D1*%
X133812500Y-91605000D02*
X133812500Y-93305000D01*
X136472500Y-91605000D02*
X133812500Y-91605000D01*
X136472500Y-93305000D02*
X133812500Y-93305000D01*
%TO.C,L3*%
X127225000Y-78870000D02*
X127225000Y-73950000D01*
X128075000Y-73950000D02*
X127225000Y-73950000D01*
X128075000Y-78870000D02*
X127225000Y-78870000D01*
X131095000Y-73950000D02*
X131945000Y-73950000D01*
X131095000Y-78870000D02*
X131945000Y-78870000D01*
X131945000Y-78870000D02*
X131945000Y-73950000D01*
%TO.C,C9*%
X144562164Y-82220000D02*
X144777836Y-82220000D01*
X144562164Y-82940000D02*
X144777836Y-82940000D01*
%TO.C,R9*%
X151911359Y-70835000D02*
X152218641Y-70835000D01*
X151911359Y-71595000D02*
X152218641Y-71595000D01*
%TO.C,C27*%
X132370000Y-87580835D02*
X132370000Y-87349165D01*
X133090000Y-87580835D02*
X133090000Y-87349165D01*
%TO.C,C4*%
X142150000Y-78627164D02*
X142150000Y-78842836D01*
X142870000Y-78627164D02*
X142870000Y-78842836D01*
%TO.C,R13*%
X136255000Y-77693641D02*
X136255000Y-77386359D01*
X137015000Y-77693641D02*
X137015000Y-77386359D01*
%TO.C,C5*%
X143070000Y-78627164D02*
X143070000Y-78842836D01*
X143790000Y-78627164D02*
X143790000Y-78842836D01*
%TO.C,R3*%
X143985000Y-79448641D02*
X143985000Y-79141359D01*
X144745000Y-79448641D02*
X144745000Y-79141359D01*
%TO.C,R22*%
X159508641Y-80330000D02*
X159201359Y-80330000D01*
X159508641Y-81090000D02*
X159201359Y-81090000D01*
%TO.C,C10*%
X156342164Y-69420000D02*
X156557836Y-69420000D01*
X156342164Y-70140000D02*
X156557836Y-70140000D01*
%TO.C,R17*%
X127930000Y-84406359D02*
X127930000Y-84713641D01*
X128690000Y-84406359D02*
X128690000Y-84713641D01*
%TO.C,R18*%
X136500000Y-79598641D02*
X136500000Y-79291359D01*
X137260000Y-79598641D02*
X137260000Y-79291359D01*
%TO.C,D3*%
X154365000Y-70360000D02*
X157025000Y-70360000D01*
X154365000Y-72060000D02*
X157025000Y-72060000D01*
X157025000Y-72060000D02*
X157025000Y-70360000D01*
%TO.C,L2*%
X133190000Y-91080000D02*
X133190000Y-86160000D01*
X134040000Y-86160000D02*
X133190000Y-86160000D01*
X134040000Y-91080000D02*
X133190000Y-91080000D01*
X137060000Y-86160000D02*
X137910000Y-86160000D01*
X137060000Y-91080000D02*
X137910000Y-91080000D01*
X137910000Y-91080000D02*
X137910000Y-86160000D01*
%TO.C,C7*%
X144462164Y-84520000D02*
X144677836Y-84520000D01*
X144462164Y-85240000D02*
X144677836Y-85240000D01*
%TO.C,R12*%
X132408641Y-85540000D02*
X132101359Y-85540000D01*
X132408641Y-86300000D02*
X132101359Y-86300000D01*
%TO.C,C32*%
X131103748Y-79515000D02*
X131626252Y-79515000D01*
X131103748Y-80985000D02*
X131626252Y-80985000D01*
D16*
%TO.C,G\u002A\u002A\u002A*%
G36*
X149660472Y-83861896D02*
G01*
X149777769Y-83912671D01*
X149786781Y-84123154D01*
X149787979Y-84153204D01*
X149790505Y-84248490D01*
X149790450Y-84319267D01*
X149787755Y-84352012D01*
X149787238Y-84353041D01*
X149770139Y-84359149D01*
X149729865Y-84350214D01*
X149660725Y-84324108D01*
X149557028Y-84278702D01*
X149413084Y-84211869D01*
X149351963Y-84182250D01*
X149268363Y-84138560D01*
X149212354Y-84105019D01*
X149193674Y-84087163D01*
X149196873Y-84082791D01*
X149230601Y-84051951D01*
X149292374Y-84001606D01*
X149371964Y-83940188D01*
X149543176Y-83811122D01*
X149660472Y-83861896D01*
G37*
G36*
X150916016Y-79672665D02*
G01*
X150975777Y-79693824D01*
X151061028Y-79729785D01*
X151159598Y-79774729D01*
X151259314Y-79822833D01*
X151348005Y-79868275D01*
X151413498Y-79905235D01*
X151443622Y-79927890D01*
X151439930Y-79954519D01*
X151402034Y-79986588D01*
X151365898Y-80008596D01*
X151296063Y-80057218D01*
X151218788Y-80115722D01*
X151094344Y-80214012D01*
X150980017Y-80158468D01*
X150865691Y-80102924D01*
X150861389Y-79927377D01*
X150859024Y-79836284D01*
X150856650Y-79754761D01*
X150854936Y-79706656D01*
X150862711Y-79677033D01*
X150904411Y-79669996D01*
X150916016Y-79672665D01*
G37*
G36*
X151190463Y-83883586D02*
G01*
X151212170Y-83900509D01*
X151296600Y-83962331D01*
X151373255Y-84013578D01*
X151391400Y-84025566D01*
X151434731Y-84063933D01*
X151444764Y-84091197D01*
X151426820Y-84106775D01*
X151370204Y-84141726D01*
X151288434Y-84186099D01*
X151194375Y-84233268D01*
X151100890Y-84276609D01*
X151020845Y-84309496D01*
X150953985Y-84331966D01*
X150883055Y-84345037D01*
X150849585Y-84330706D01*
X150849422Y-84288465D01*
X150855929Y-84250063D01*
X150862609Y-84168885D01*
X150865339Y-84074198D01*
X150865691Y-83918011D01*
X150979909Y-83862519D01*
X151094127Y-83807028D01*
X151190463Y-83883586D01*
G37*
G36*
X152234461Y-80856219D02*
G01*
X152235272Y-80857232D01*
X152270884Y-80918035D01*
X152313717Y-81014249D01*
X152358627Y-81131582D01*
X152400471Y-81255740D01*
X152434105Y-81372429D01*
X152454385Y-81467357D01*
X152460493Y-81510390D01*
X152463968Y-81562735D01*
X152453720Y-81580679D01*
X152426992Y-81575070D01*
X152389526Y-81562921D01*
X152313634Y-81541413D01*
X152222376Y-81517548D01*
X152063966Y-81477756D01*
X152022462Y-81318455D01*
X152020935Y-81312586D01*
X152000086Y-81226155D01*
X151993873Y-81171961D01*
X152002597Y-81133523D01*
X152026560Y-81094363D01*
X152041216Y-81072311D01*
X152085619Y-80997767D01*
X152130381Y-80914578D01*
X152188601Y-80799584D01*
X152234461Y-80856219D01*
G37*
G36*
X148226311Y-82448370D02*
G01*
X148253794Y-82457714D01*
X148324582Y-82478782D01*
X148410910Y-82502363D01*
X148468585Y-82518356D01*
X148533507Y-82539144D01*
X148564511Y-82553020D01*
X148574812Y-82572828D01*
X148596793Y-82630777D01*
X148623065Y-82710626D01*
X148667443Y-82854058D01*
X148566262Y-83010604D01*
X148561523Y-83017960D01*
X148512754Y-83096713D01*
X148478202Y-83157953D01*
X148465082Y-83188961D01*
X148460993Y-83211893D01*
X148442549Y-83208863D01*
X148412632Y-83170034D01*
X148374968Y-83102881D01*
X148333285Y-83014874D01*
X148291311Y-82913486D01*
X148252773Y-82806190D01*
X148221399Y-82700458D01*
X148212019Y-82663469D01*
X148187701Y-82550592D01*
X148181917Y-82480169D01*
X148194757Y-82447621D01*
X148226311Y-82448370D01*
G37*
G36*
X149786666Y-79665596D02*
G01*
X149789072Y-79709332D01*
X149788939Y-79787549D01*
X149786210Y-79887696D01*
X149781559Y-79992486D01*
X149774412Y-80059849D01*
X149760588Y-80099825D01*
X149735827Y-80124622D01*
X149695865Y-80146443D01*
X149690623Y-80149014D01*
X149621991Y-80176692D01*
X149568660Y-80188999D01*
X149558262Y-80187012D01*
X149508506Y-80163498D01*
X149436574Y-80120646D01*
X149355818Y-80067471D01*
X149279589Y-80012986D01*
X149221241Y-79966207D01*
X149194125Y-79936146D01*
X149199632Y-79926319D01*
X149240811Y-79897296D01*
X149312719Y-79857021D01*
X149404564Y-79810524D01*
X149505556Y-79762833D01*
X149604904Y-79718977D01*
X149691818Y-79683984D01*
X149755508Y-79662883D01*
X149785183Y-79660702D01*
X149786666Y-79665596D01*
G37*
G36*
X148445834Y-80810374D02*
G01*
X148465082Y-80831974D01*
X148465192Y-80833166D01*
X148480491Y-80867350D01*
X148516586Y-80930644D01*
X148566262Y-81010331D01*
X148667443Y-81166877D01*
X148624176Y-81304729D01*
X148609142Y-81351728D01*
X148578646Y-81434527D01*
X148550369Y-81481623D01*
X148516696Y-81503108D01*
X148470011Y-81509077D01*
X148465679Y-81509258D01*
X148391225Y-81521426D01*
X148310203Y-81545833D01*
X148245669Y-81569676D01*
X148201950Y-81579275D01*
X148184374Y-81566593D01*
X148181138Y-81530199D01*
X148181797Y-81513954D01*
X148194501Y-81434410D01*
X148220492Y-81331541D01*
X148255972Y-81215806D01*
X148297142Y-81097662D01*
X148340201Y-80987568D01*
X148381351Y-80895981D01*
X148416792Y-80833360D01*
X148442725Y-80810162D01*
X148445834Y-80810374D01*
G37*
G36*
X152460879Y-82445934D02*
G01*
X152463690Y-82480268D01*
X152454245Y-82554512D01*
X152444010Y-82607347D01*
X152414099Y-82719774D01*
X152373297Y-82847112D01*
X152327331Y-82973080D01*
X152281925Y-83081399D01*
X152242804Y-83155788D01*
X152224281Y-83182219D01*
X152198050Y-83202857D01*
X152177286Y-83184039D01*
X152154931Y-83146159D01*
X152114374Y-83077551D01*
X152065373Y-82994728D01*
X152039106Y-82950078D01*
X152004050Y-82884316D01*
X151990457Y-82837103D01*
X151995011Y-82791169D01*
X152014395Y-82729243D01*
X152025294Y-82695730D01*
X152045199Y-82624756D01*
X152053090Y-82580590D01*
X152066762Y-82561753D01*
X152123633Y-82533307D01*
X152216938Y-82504753D01*
X152298360Y-82483595D01*
X152378480Y-82461253D01*
X152426992Y-82445865D01*
X152443097Y-82440682D01*
X152460879Y-82445934D01*
G37*
G36*
X151692955Y-84126700D02*
G01*
X151779693Y-84159231D01*
X151864415Y-84205425D01*
X151921809Y-84243031D01*
X151855387Y-84417400D01*
X151824050Y-84515341D01*
X151785424Y-84719465D01*
X151771471Y-84939914D01*
X151782907Y-85157554D01*
X151820445Y-85353252D01*
X151823747Y-85364849D01*
X151861232Y-85500060D01*
X151883852Y-85595249D01*
X151891813Y-85659134D01*
X151885321Y-85700433D01*
X151864580Y-85727865D01*
X151829796Y-85750149D01*
X151815655Y-85757677D01*
X151747161Y-85786651D01*
X151692355Y-85788588D01*
X151642190Y-85758633D01*
X151587618Y-85691926D01*
X151519592Y-85583612D01*
X151507785Y-85564027D01*
X151337773Y-85329369D01*
X151140094Y-85134886D01*
X150918062Y-84983349D01*
X150674993Y-84877530D01*
X150657810Y-84870233D01*
X150639346Y-84847354D01*
X150634776Y-84800527D01*
X150641278Y-84716245D01*
X150650066Y-84655015D01*
X150667295Y-84586450D01*
X150686146Y-84552341D01*
X150734272Y-84545159D01*
X150816935Y-84556849D01*
X150920514Y-84584021D01*
X151032226Y-84622749D01*
X151139288Y-84669102D01*
X151228917Y-84719153D01*
X151321105Y-84779997D01*
X151351376Y-84634256D01*
X151357713Y-84607210D01*
X151388497Y-84507228D01*
X151431422Y-84392854D01*
X151479783Y-84280060D01*
X151526875Y-84184818D01*
X151565991Y-84123099D01*
X151571191Y-84118562D01*
X151618641Y-84111816D01*
X151692955Y-84126700D01*
G37*
G36*
X148315279Y-80320313D02*
G01*
X148332211Y-80345791D01*
X148358650Y-80407222D01*
X148389198Y-80492174D01*
X148446589Y-80664633D01*
X148375348Y-80721438D01*
X148341749Y-80746544D01*
X148222492Y-80818017D01*
X148094962Y-80874063D01*
X147981645Y-80904241D01*
X147938177Y-80910452D01*
X147867944Y-80924424D01*
X147839783Y-80944175D01*
X147847253Y-80978368D01*
X147883911Y-81035667D01*
X147947051Y-81154685D01*
X148002584Y-81324538D01*
X148039443Y-81523435D01*
X148056082Y-81655915D01*
X147957279Y-81682099D01*
X147950446Y-81683884D01*
X147832081Y-81706572D01*
X147731101Y-81711276D01*
X147657994Y-81698424D01*
X147623249Y-81668445D01*
X147591675Y-81577772D01*
X147523639Y-81419467D01*
X147446385Y-81274549D01*
X147369272Y-81161695D01*
X147313210Y-81100667D01*
X147214670Y-81020422D01*
X147085713Y-80942735D01*
X146916301Y-80860943D01*
X146895276Y-80843799D01*
X146872936Y-80785405D01*
X146870366Y-80706583D01*
X146885446Y-80624073D01*
X146916059Y-80554612D01*
X146960086Y-80514941D01*
X146991091Y-80511585D01*
X147065179Y-80512648D01*
X147168176Y-80518707D01*
X147287926Y-80529230D01*
X147333470Y-80533537D01*
X147565757Y-80543111D01*
X147766921Y-80526545D01*
X147949330Y-80482048D01*
X148125355Y-80407824D01*
X148138495Y-80401189D01*
X148221769Y-80360301D01*
X148284706Y-80331335D01*
X148314552Y-80320198D01*
X148315279Y-80320313D01*
G37*
G36*
X147800946Y-82312666D02*
G01*
X147888216Y-82326529D01*
X147969204Y-82347748D01*
X148028845Y-82372571D01*
X148052073Y-82397243D01*
X148042592Y-82496312D01*
X148017143Y-82621925D01*
X147980999Y-82753845D01*
X147939436Y-82872846D01*
X147897731Y-82959703D01*
X147876728Y-82993756D01*
X147846488Y-83051960D01*
X147850035Y-83084631D01*
X147893157Y-83102598D01*
X147981645Y-83116694D01*
X148017392Y-83123465D01*
X148137221Y-83163306D01*
X148263502Y-83225002D01*
X148373522Y-83298041D01*
X148442937Y-83353391D01*
X148385845Y-83527305D01*
X148383189Y-83535357D01*
X148353824Y-83619227D01*
X148329990Y-83678652D01*
X148316625Y-83701219D01*
X148313556Y-83700477D01*
X148276344Y-83684878D01*
X148207914Y-83653190D01*
X148120206Y-83610904D01*
X148117074Y-83609373D01*
X147924160Y-83531993D01*
X147724999Y-83487753D01*
X147507219Y-83474941D01*
X147258445Y-83491850D01*
X146981219Y-83524075D01*
X146921609Y-83454774D01*
X146904482Y-83430621D01*
X146875888Y-83355118D01*
X146868112Y-83272637D01*
X146881476Y-83201107D01*
X146916301Y-83158454D01*
X146925515Y-83154072D01*
X146981859Y-83128597D01*
X147054264Y-83096998D01*
X147194819Y-83018270D01*
X147347164Y-82880574D01*
X147474738Y-82700181D01*
X147575462Y-82479557D01*
X147603231Y-82406898D01*
X147632725Y-82350138D01*
X147664279Y-82322150D01*
X147707007Y-82311273D01*
X147722460Y-82309913D01*
X147800946Y-82312666D01*
G37*
G36*
X149051674Y-84114450D02*
G01*
X149081967Y-84140504D01*
X149117970Y-84196098D01*
X149167484Y-84289973D01*
X149170536Y-84296029D01*
X149221742Y-84410444D01*
X149265627Y-84529939D01*
X149292982Y-84629596D01*
X149322684Y-84780568D01*
X149442409Y-84704624D01*
X149546708Y-84647482D01*
X149662137Y-84600457D01*
X149773298Y-84569006D01*
X149869883Y-84555332D01*
X149941582Y-84561640D01*
X149978086Y-84590132D01*
X149982149Y-84604886D01*
X149991080Y-84666743D01*
X149996636Y-84747133D01*
X150000956Y-84867051D01*
X149834675Y-84930139D01*
X149624775Y-85035696D01*
X149428359Y-85190174D01*
X149248915Y-85392624D01*
X149085809Y-85643648D01*
X149048720Y-85706839D01*
X149008597Y-85761002D01*
X148971381Y-85786008D01*
X148926078Y-85792073D01*
X148864594Y-85779611D01*
X148787710Y-85729853D01*
X148752642Y-85690072D01*
X148738751Y-85645295D01*
X148753319Y-85581428D01*
X148778503Y-85502292D01*
X148823026Y-85351020D01*
X148852039Y-85227086D01*
X148867910Y-85116130D01*
X148873008Y-85003792D01*
X148869701Y-84875711D01*
X148857372Y-84717659D01*
X148832342Y-84572513D01*
X148791748Y-84438525D01*
X148787321Y-84426314D01*
X148758410Y-84338413D01*
X148741214Y-84271101D01*
X148739324Y-84238105D01*
X148747408Y-84228903D01*
X148796076Y-84195803D01*
X148868219Y-84159026D01*
X148944931Y-84127578D01*
X149007307Y-84110464D01*
X149019291Y-84109195D01*
X149051674Y-84114450D01*
G37*
G36*
X148955048Y-78231765D02*
G01*
X148988827Y-78247703D01*
X149025372Y-78284755D01*
X149072189Y-78350885D01*
X149136785Y-78454058D01*
X149191250Y-78539799D01*
X149338379Y-78736426D01*
X149493639Y-78890832D01*
X149664638Y-79009821D01*
X149858984Y-79100202D01*
X150000956Y-79153534D01*
X149996636Y-79273627D01*
X149989992Y-79369620D01*
X149974362Y-79430931D01*
X149944782Y-79460327D01*
X149896033Y-79467886D01*
X149804032Y-79456913D01*
X149679607Y-79423221D01*
X149551426Y-79373538D01*
X149439954Y-79314738D01*
X149322684Y-79240367D01*
X149293948Y-79386393D01*
X149288713Y-79410052D01*
X149259032Y-79509931D01*
X149216644Y-79624903D01*
X149168287Y-79738790D01*
X149120699Y-79835412D01*
X149080618Y-79898591D01*
X149080450Y-79898793D01*
X149053137Y-79913802D01*
X149004600Y-79908180D01*
X148922458Y-79880511D01*
X148920243Y-79879669D01*
X148821861Y-79839443D01*
X148765525Y-79802494D01*
X148745693Y-79756091D01*
X148756821Y-79687503D01*
X148793368Y-79584000D01*
X148798539Y-79570245D01*
X148826573Y-79488448D01*
X148844974Y-79413108D01*
X148855726Y-79329711D01*
X148860815Y-79223743D01*
X148862227Y-79080691D01*
X148860241Y-78935304D01*
X148850110Y-78792445D01*
X148828401Y-78668228D01*
X148791808Y-78544785D01*
X148737022Y-78404247D01*
X148733942Y-78393440D01*
X148746703Y-78340477D01*
X148791773Y-78286931D01*
X148855580Y-78245494D01*
X148924551Y-78228862D01*
X148955048Y-78231765D01*
G37*
G36*
X152394324Y-80343966D02*
G01*
X152468680Y-80387942D01*
X152660339Y-80473714D01*
X152865289Y-80524720D01*
X153093321Y-80542858D01*
X153354224Y-80530025D01*
X153357967Y-80529656D01*
X153506086Y-80517148D01*
X153611577Y-80515303D01*
X153682656Y-80526870D01*
X153727542Y-80554593D01*
X153754451Y-80601218D01*
X153771602Y-80669491D01*
X153779600Y-80740841D01*
X153764278Y-80809618D01*
X153712898Y-80862019D01*
X153617928Y-80909826D01*
X153529035Y-80952352D01*
X153361980Y-81071419D01*
X153222171Y-81231482D01*
X153108295Y-81434230D01*
X153019043Y-81681351D01*
X153018828Y-81682049D01*
X152986366Y-81704484D01*
X152916256Y-81712497D01*
X152820187Y-81705958D01*
X152709845Y-81684740D01*
X152695482Y-81681052D01*
X152630955Y-81659245D01*
X152602217Y-81631951D01*
X152596070Y-81587942D01*
X152603710Y-81493903D01*
X152632837Y-81349862D01*
X152678310Y-81205472D01*
X152734401Y-81078057D01*
X152795387Y-80984938D01*
X152803618Y-80975245D01*
X152818092Y-80949203D01*
X152804458Y-80931732D01*
X152754980Y-80918117D01*
X152661916Y-80903645D01*
X152611776Y-80892849D01*
X152509169Y-80857269D01*
X152401080Y-80807723D01*
X152306019Y-80753096D01*
X152242491Y-80702274D01*
X152222675Y-80677720D01*
X152211943Y-80645693D01*
X152218453Y-80598419D01*
X152242176Y-80519182D01*
X152268249Y-80440639D01*
X152298249Y-80366324D01*
X152325238Y-80330074D01*
X152355251Y-80324938D01*
X152394324Y-80343966D01*
G37*
G36*
X152986743Y-82331177D02*
G01*
X153028221Y-82384854D01*
X153063869Y-82473828D01*
X153113731Y-82595637D01*
X153193034Y-82740631D01*
X153283884Y-82870032D01*
X153375235Y-82966369D01*
X153378589Y-82969169D01*
X153459680Y-83027923D01*
X153549912Y-83080676D01*
X153632771Y-83118717D01*
X153691741Y-83133333D01*
X153723139Y-83142647D01*
X153757660Y-83188201D01*
X153773843Y-83259026D01*
X153771089Y-83340878D01*
X153748796Y-83419512D01*
X153706366Y-83480683D01*
X153686086Y-83496732D01*
X153654229Y-83509912D01*
X153606791Y-83513526D01*
X153531958Y-83508134D01*
X153417919Y-83494292D01*
X153293871Y-83482508D01*
X153088659Y-83480220D01*
X152889755Y-83497463D01*
X152708099Y-83532506D01*
X152554630Y-83583616D01*
X152440285Y-83649063D01*
X152439936Y-83649338D01*
X152385607Y-83685348D01*
X152345341Y-83700645D01*
X152334482Y-83694066D01*
X152306223Y-83651966D01*
X152272960Y-83583941D01*
X152241175Y-83505262D01*
X152217350Y-83431200D01*
X152207968Y-83377026D01*
X152208418Y-83373202D01*
X152235474Y-83335566D01*
X152295516Y-83285683D01*
X152376148Y-83231346D01*
X152464972Y-83180346D01*
X152549592Y-83140477D01*
X152617611Y-83119530D01*
X152622551Y-83118736D01*
X152703703Y-83104925D01*
X152770188Y-83092437D01*
X152829055Y-83080328D01*
X152763692Y-82994632D01*
X152745818Y-82966710D01*
X152705189Y-82878375D01*
X152664707Y-82763975D01*
X152629473Y-82640482D01*
X152604591Y-82524868D01*
X152595163Y-82434104D01*
X152596747Y-82404968D01*
X152611366Y-82373597D01*
X152651830Y-82352571D01*
X152730681Y-82332484D01*
X152842435Y-82311102D01*
X152928469Y-82308143D01*
X152986743Y-82331177D01*
G37*
G36*
X151736232Y-78237710D02*
G01*
X151740372Y-78238392D01*
X151826243Y-78260945D01*
X151876894Y-78298594D01*
X151894586Y-78358690D01*
X151881579Y-78448581D01*
X151840132Y-78575619D01*
X151835948Y-78587027D01*
X151812647Y-78659361D01*
X151797146Y-78732099D01*
X151787998Y-78818035D01*
X151783754Y-78929968D01*
X151782966Y-79080691D01*
X151783329Y-79153452D01*
X151785852Y-79282008D01*
X151792138Y-79378090D01*
X151803890Y-79454850D01*
X151822812Y-79525442D01*
X151850608Y-79603019D01*
X151885161Y-79697116D01*
X151897418Y-79760621D01*
X151879667Y-79802579D01*
X151825926Y-79836550D01*
X151730218Y-79876099D01*
X151678892Y-79894811D01*
X151614733Y-79912924D01*
X151581425Y-79914959D01*
X151556430Y-79885914D01*
X151517417Y-79817473D01*
X151472587Y-79723413D01*
X151427476Y-79616220D01*
X151387621Y-79508379D01*
X151358560Y-79412378D01*
X151313295Y-79234137D01*
X151241231Y-79290823D01*
X151175609Y-79331941D01*
X151069784Y-79381027D01*
X150950806Y-79424665D01*
X150837881Y-79455926D01*
X150750216Y-79467886D01*
X150750089Y-79467886D01*
X150699797Y-79465466D01*
X150671905Y-79449765D01*
X150656936Y-79408120D01*
X150645408Y-79327867D01*
X150639816Y-79275012D01*
X150639662Y-79190979D01*
X150657762Y-79145793D01*
X150695962Y-79132317D01*
X150699564Y-79132130D01*
X150751795Y-79116272D01*
X150832135Y-79080014D01*
X150927196Y-79030632D01*
X151023588Y-78975399D01*
X151107924Y-78921591D01*
X151166814Y-78876481D01*
X151244572Y-78798244D01*
X151359805Y-78663484D01*
X151470558Y-78515124D01*
X151561709Y-78372465D01*
X151578269Y-78343662D01*
X151620059Y-78276315D01*
X151652439Y-78242289D01*
X151687225Y-78232461D01*
X151736232Y-78237710D01*
G37*
G36*
X151969751Y-82063142D02*
G01*
X151947746Y-82130534D01*
X151933233Y-82165784D01*
X151932834Y-82195666D01*
X151958892Y-82195777D01*
X152025558Y-82186069D01*
X152122155Y-82168010D01*
X152238229Y-82143389D01*
X152244685Y-82141951D01*
X152522098Y-82088889D01*
X152762719Y-82061825D01*
X152973914Y-82060284D01*
X153163049Y-82083792D01*
X153256995Y-82105632D01*
X153359916Y-82135124D01*
X153456423Y-82167433D01*
X153535629Y-82198611D01*
X153586645Y-82224707D01*
X153598581Y-82241772D01*
X153582763Y-82243598D01*
X153524527Y-82241364D01*
X153434357Y-82234247D01*
X153323509Y-82223016D01*
X153189960Y-82211372D01*
X153049820Y-82208575D01*
X152910896Y-82218225D01*
X152763467Y-82241930D01*
X152597813Y-82281298D01*
X152404215Y-82337939D01*
X152172951Y-82413462D01*
X151700188Y-82573018D01*
X151814991Y-82764022D01*
X151841518Y-82811040D01*
X151898602Y-82923582D01*
X151964130Y-83063460D01*
X152031934Y-83217330D01*
X152095847Y-83371846D01*
X152146820Y-83498484D01*
X152226432Y-83688524D01*
X152296001Y-83841633D01*
X152359597Y-83965487D01*
X152421291Y-84067764D01*
X152485154Y-84156141D01*
X152555256Y-84238295D01*
X152684104Y-84379275D01*
X152568648Y-84320949D01*
X152547573Y-84310146D01*
X152404334Y-84226001D01*
X152279349Y-84129359D01*
X152166194Y-84012774D01*
X152058443Y-83868801D01*
X151949671Y-83689992D01*
X151833453Y-83468902D01*
X151830890Y-83463768D01*
X151770035Y-83344293D01*
X151712820Y-83236076D01*
X151665566Y-83150835D01*
X151634596Y-83100289D01*
X151583832Y-83028525D01*
X151528064Y-83139008D01*
X151472669Y-83221957D01*
X151375568Y-83301118D01*
X151351102Y-83314676D01*
X151299398Y-83347687D01*
X151278769Y-83368144D01*
X151282075Y-83379974D01*
X151318332Y-83426803D01*
X151389497Y-83493593D01*
X151489212Y-83575037D01*
X151611121Y-83665827D01*
X151748866Y-83760655D01*
X151750445Y-83761702D01*
X151873699Y-83847385D01*
X151994423Y-83938173D01*
X152098834Y-84023299D01*
X152173146Y-84091999D01*
X152174811Y-84093737D01*
X152239301Y-84166779D01*
X152309503Y-84255017D01*
X152377642Y-84347498D01*
X152435940Y-84433273D01*
X152476622Y-84501390D01*
X152491911Y-84540898D01*
X152491833Y-84541381D01*
X152471853Y-84532452D01*
X152423406Y-84497291D01*
X152356393Y-84443047D01*
X152334658Y-84424872D01*
X152238875Y-84348169D01*
X152144601Y-84279914D01*
X152042130Y-84214158D01*
X151921753Y-84144951D01*
X151773764Y-84066344D01*
X151588456Y-83972387D01*
X151503201Y-83929219D01*
X151354994Y-83851914D01*
X151215570Y-83776605D01*
X151097489Y-83710131D01*
X151013311Y-83659326D01*
X150988347Y-83643268D01*
X150910315Y-83593869D01*
X150853836Y-83559335D01*
X150829752Y-83546341D01*
X150824650Y-83561244D01*
X150816145Y-83615117D01*
X150807360Y-83694766D01*
X150804076Y-83720986D01*
X150786590Y-83815226D01*
X150758288Y-83940329D01*
X150722266Y-84083111D01*
X150681617Y-84230386D01*
X150659388Y-84307665D01*
X150622863Y-84439490D01*
X150597941Y-84543220D01*
X150582445Y-84633299D01*
X150574197Y-84724169D01*
X150571022Y-84830274D01*
X150570742Y-84966057D01*
X150572296Y-85109351D01*
X150577342Y-85226961D01*
X150587297Y-85317626D01*
X150603613Y-85394169D01*
X150627743Y-85469410D01*
X150683753Y-85624288D01*
X150606584Y-85534495D01*
X150541747Y-85443395D01*
X150473976Y-85292023D01*
X150428969Y-85105778D01*
X150406273Y-84881582D01*
X150405435Y-84616358D01*
X150426004Y-84307029D01*
X150428116Y-84284000D01*
X150440664Y-84100496D01*
X150440639Y-83961930D01*
X150427451Y-83863528D01*
X150400508Y-83800518D01*
X150359219Y-83768127D01*
X150358634Y-83767905D01*
X150295660Y-83768341D01*
X150240816Y-83810231D01*
X150207060Y-83883729D01*
X150203707Y-83918638D01*
X150202927Y-84002356D01*
X150206025Y-84119396D01*
X150212697Y-84259450D01*
X150222637Y-84412205D01*
X150235325Y-84620287D01*
X150239756Y-84827301D01*
X150231892Y-84999547D01*
X150210896Y-85145551D01*
X150175928Y-85273842D01*
X150126149Y-85392948D01*
X150121533Y-85402218D01*
X150083190Y-85470546D01*
X150042096Y-85532775D01*
X150004484Y-85581503D01*
X149976584Y-85609328D01*
X149964627Y-85608848D01*
X149974847Y-85572662D01*
X150029440Y-85418342D01*
X150074816Y-85204951D01*
X150088253Y-84977875D01*
X150069566Y-84730540D01*
X150018574Y-84456377D01*
X149935091Y-84148815D01*
X149918464Y-84091697D01*
X149883993Y-83955654D01*
X149856768Y-83824653D01*
X149841567Y-83720579D01*
X149841367Y-83718394D01*
X149831746Y-83631639D01*
X149821760Y-83569873D01*
X149813539Y-83546341D01*
X149810553Y-83547281D01*
X149775563Y-83566832D01*
X149711713Y-83606508D01*
X149630138Y-83659444D01*
X149582993Y-83688905D01*
X149477578Y-83749621D01*
X149345483Y-83821589D01*
X149198980Y-83898177D01*
X149050342Y-83972752D01*
X148968299Y-84013474D01*
X148730879Y-84138968D01*
X148534638Y-84256409D01*
X148372958Y-84369968D01*
X148239218Y-84483818D01*
X148196284Y-84521613D01*
X148163840Y-84539354D01*
X148162827Y-84517390D01*
X148193162Y-84456383D01*
X148254764Y-84357000D01*
X148327303Y-84256883D01*
X148492544Y-84076215D01*
X148699610Y-83896130D01*
X148942622Y-83722053D01*
X148984754Y-83694219D01*
X149134184Y-83589279D01*
X149246985Y-83499076D01*
X149320839Y-83425833D01*
X149353425Y-83371769D01*
X149342425Y-83339107D01*
X149320854Y-83327634D01*
X149274412Y-83314420D01*
X149242838Y-83300058D01*
X149192560Y-83253822D01*
X149141003Y-83190834D01*
X149100802Y-83126855D01*
X149084594Y-83077648D01*
X149078246Y-83043682D01*
X149057794Y-83046601D01*
X149021945Y-83089425D01*
X148969411Y-83174018D01*
X148898904Y-83302244D01*
X148809134Y-83475965D01*
X148780811Y-83531125D01*
X148653645Y-83757877D01*
X148529533Y-83941397D01*
X148403282Y-84087884D01*
X148269699Y-84203539D01*
X148123594Y-84294561D01*
X147961728Y-84379406D01*
X148055869Y-84279083D01*
X148124550Y-84199946D01*
X148237453Y-84040168D01*
X148345413Y-83846503D01*
X148451544Y-83613101D01*
X148558962Y-83334112D01*
X148560743Y-83329171D01*
X148627545Y-83161488D01*
X148707755Y-82986311D01*
X148792145Y-82822677D01*
X148871484Y-82689620D01*
X148891122Y-82658128D01*
X148918432Y-82603641D01*
X148922595Y-82575535D01*
X148894908Y-82563101D01*
X148826108Y-82537094D01*
X148724154Y-82500399D01*
X148596974Y-82455869D01*
X148452496Y-82406357D01*
X148356575Y-82374297D01*
X148131922Y-82304560D01*
X147939606Y-82254838D01*
X147769298Y-82223512D01*
X147610670Y-82208965D01*
X147453395Y-82209576D01*
X147287143Y-82223728D01*
X147216616Y-82231605D01*
X147120823Y-82240892D01*
X147053432Y-82245590D01*
X147025853Y-82244783D01*
X147025642Y-82244364D01*
X147046582Y-82230202D01*
X147103381Y-82203366D01*
X147184619Y-82169288D01*
X147268148Y-82138263D01*
X147461638Y-82085999D01*
X147663401Y-82060593D01*
X147882506Y-82061856D01*
X148128019Y-82089597D01*
X148409008Y-82143627D01*
X148518971Y-82166932D01*
X148616949Y-82185331D01*
X148685578Y-82195503D01*
X148714402Y-82195666D01*
X148716391Y-82176213D01*
X148699490Y-82130534D01*
X148696661Y-82124888D01*
X148678459Y-82060744D01*
X148673199Y-81995085D01*
X149084594Y-81995085D01*
X149093448Y-82054979D01*
X149143932Y-82144788D01*
X149231588Y-82216610D01*
X149347780Y-82264248D01*
X149483866Y-82281504D01*
X149559845Y-82286906D01*
X149594855Y-82306773D01*
X149582073Y-82344238D01*
X149522488Y-82402404D01*
X149505205Y-82417742D01*
X149427117Y-82513951D01*
X149379202Y-82621785D01*
X149363466Y-82729656D01*
X149381914Y-82825971D01*
X149436550Y-82899143D01*
X149517293Y-82941288D01*
X149627117Y-82946358D01*
X149752751Y-82902537D01*
X149807360Y-82868266D01*
X149879311Y-82809835D01*
X149945887Y-82744487D01*
X149994824Y-82684460D01*
X150013862Y-82641988D01*
X150017937Y-82630785D01*
X150051774Y-82617073D01*
X150069670Y-82624245D01*
X150079417Y-82653736D01*
X150080560Y-82715198D01*
X150074171Y-82818254D01*
X150070286Y-82927577D01*
X150085718Y-83059848D01*
X150129265Y-83161684D01*
X150203793Y-83242465D01*
X150274943Y-83280491D01*
X150358886Y-83276886D01*
X150448980Y-83222834D01*
X150494301Y-83177711D01*
X150550034Y-83080488D01*
X150574584Y-82955574D01*
X150570307Y-82794653D01*
X150564355Y-82706182D01*
X150566373Y-82640958D01*
X150576858Y-82617073D01*
X150584596Y-82619827D01*
X150619159Y-82651685D01*
X150662313Y-82707765D01*
X150682124Y-82734830D01*
X150785345Y-82835609D01*
X150909522Y-82910041D01*
X151036621Y-82946618D01*
X151101614Y-82950229D01*
X151158722Y-82935654D01*
X151212204Y-82892419D01*
X151222650Y-82881082D01*
X151266391Y-82793436D01*
X151273067Y-82687434D01*
X151245387Y-82575198D01*
X151186061Y-82468852D01*
X151097799Y-82380520D01*
X151085944Y-82371507D01*
X151039419Y-82330082D01*
X151020569Y-82302463D01*
X151029507Y-82294842D01*
X151076557Y-82285252D01*
X151150463Y-82281504D01*
X151250319Y-82273454D01*
X151371027Y-82238656D01*
X151466298Y-82182045D01*
X151531064Y-82109850D01*
X151560257Y-82028301D01*
X151548811Y-81943628D01*
X151491657Y-81862061D01*
X151406501Y-81796808D01*
X151292098Y-81752858D01*
X151147954Y-81739431D01*
X151063208Y-81734282D01*
X151027101Y-81716985D01*
X151039300Y-81684994D01*
X151098593Y-81635763D01*
X151114604Y-81623721D01*
X151198074Y-81534025D01*
X151252331Y-81427327D01*
X151274613Y-81315956D01*
X151262158Y-81212242D01*
X151212204Y-81128516D01*
X151169146Y-81091551D01*
X151114867Y-81071743D01*
X151036621Y-81074317D01*
X150979709Y-81085697D01*
X150855365Y-81138545D01*
X150741067Y-81219947D01*
X150657057Y-81316963D01*
X150623298Y-81367143D01*
X150589474Y-81399055D01*
X150570295Y-81384872D01*
X150564575Y-81323152D01*
X150571127Y-81212453D01*
X150577728Y-81121988D01*
X150576396Y-81041149D01*
X150562330Y-80975885D01*
X150533103Y-80906666D01*
X150507919Y-80860880D01*
X150432353Y-80775089D01*
X150347537Y-80737420D01*
X150260070Y-80747788D01*
X150176551Y-80806104D01*
X150103579Y-80912284D01*
X150089371Y-80943844D01*
X150072727Y-81006779D01*
X150068218Y-81087552D01*
X150074171Y-81202680D01*
X150080370Y-81300587D01*
X150079731Y-81364378D01*
X150070557Y-81395595D01*
X150051774Y-81403862D01*
X150034572Y-81400194D01*
X150013862Y-81370381D01*
X150007358Y-81352114D01*
X149972313Y-81303123D01*
X149917063Y-81244160D01*
X149896502Y-81224950D01*
X149766692Y-81127257D01*
X149645220Y-81077107D01*
X149534401Y-81075089D01*
X149436550Y-81121792D01*
X149400815Y-81155442D01*
X149375120Y-81208927D01*
X149368537Y-81290859D01*
X149377289Y-81385978D01*
X149426472Y-81511004D01*
X149522488Y-81618531D01*
X149579284Y-81673176D01*
X149595529Y-81712052D01*
X149564054Y-81733103D01*
X149483866Y-81739431D01*
X149392908Y-81746934D01*
X149272585Y-81781498D01*
X149174618Y-81838523D01*
X149108718Y-81911791D01*
X149084594Y-81995085D01*
X148673199Y-81995085D01*
X148672399Y-81985105D01*
X148678655Y-81918486D01*
X148697399Y-81881402D01*
X148704000Y-81877016D01*
X148725435Y-81846147D01*
X148705252Y-81825486D01*
X148652226Y-81825829D01*
X148529352Y-81851967D01*
X148275680Y-81901784D01*
X148063723Y-81937073D01*
X147897195Y-81957188D01*
X147746062Y-81961154D01*
X147533574Y-81941967D01*
X147327396Y-81898060D01*
X147148618Y-81832933D01*
X147006647Y-81765948D01*
X147148618Y-81784956D01*
X147206689Y-81790664D01*
X147318689Y-81796894D01*
X147451546Y-81800628D01*
X147587439Y-81801204D01*
X147634545Y-81800707D01*
X147729367Y-81798512D01*
X147809537Y-81793117D01*
X147885663Y-81782339D01*
X147968350Y-81763992D01*
X148068202Y-81735893D01*
X148195827Y-81695856D01*
X148361830Y-81641698D01*
X148370874Y-81638730D01*
X148522108Y-81589233D01*
X148659079Y-81544648D01*
X148773093Y-81507785D01*
X148855460Y-81481455D01*
X148897485Y-81468469D01*
X148955600Y-81451986D01*
X148881598Y-81344032D01*
X148856670Y-81306709D01*
X148798984Y-81211476D01*
X148741423Y-81101889D01*
X148679876Y-80969292D01*
X148610231Y-80805029D01*
X148528376Y-80600444D01*
X148476514Y-80470621D01*
X148393834Y-80276588D01*
X148318428Y-80119647D01*
X148245976Y-79991775D01*
X148172156Y-79884944D01*
X148092647Y-79791131D01*
X148033341Y-79726160D01*
X147990847Y-79677141D01*
X147974634Y-79654977D01*
X147988644Y-79652691D01*
X148034852Y-79673212D01*
X148103523Y-79712548D01*
X148184476Y-79764165D01*
X148267528Y-79821530D01*
X148342496Y-79878112D01*
X148399199Y-79927376D01*
X148401894Y-79930028D01*
X148477938Y-80008750D01*
X148544140Y-80087557D01*
X148606655Y-80175872D01*
X148671641Y-80283113D01*
X148745256Y-80418701D01*
X148833657Y-80592057D01*
X148875633Y-80674874D01*
X148952687Y-80819582D01*
X149011424Y-80917818D01*
X149052531Y-80970541D01*
X149076692Y-80978711D01*
X149084594Y-80943286D01*
X149088754Y-80919501D01*
X149122978Y-80853582D01*
X149180141Y-80782851D01*
X149246142Y-80723314D01*
X149306880Y-80690976D01*
X149346797Y-80676734D01*
X149368537Y-80657861D01*
X149355952Y-80632399D01*
X149307098Y-80579373D01*
X149228444Y-80509199D01*
X149127501Y-80428134D01*
X149011782Y-80342433D01*
X148888800Y-80258353D01*
X148831230Y-80219884D01*
X148597164Y-80041863D01*
X148406644Y-79856100D01*
X148253039Y-79656315D01*
X148209522Y-79588137D01*
X148168928Y-79515635D01*
X148160323Y-79482675D01*
X148183741Y-79489554D01*
X148239218Y-79536574D01*
X148288037Y-79580792D01*
X148394585Y-79666700D01*
X148518580Y-79752462D01*
X148667667Y-79842853D01*
X148849488Y-79942647D01*
X149071687Y-80056620D01*
X149077084Y-80059324D01*
X149228995Y-80136910D01*
X149373536Y-80213315D01*
X149500944Y-80283189D01*
X149601454Y-80341182D01*
X149665304Y-80381941D01*
X149726298Y-80424207D01*
X149783999Y-80460596D01*
X149813729Y-80474593D01*
X149819018Y-80470381D01*
X149829149Y-80430890D01*
X149833171Y-80363309D01*
X149836303Y-80326552D01*
X149851584Y-80237390D01*
X149877402Y-80117151D01*
X149911326Y-79976898D01*
X149950924Y-79827689D01*
X149991847Y-79673852D01*
X150047209Y-79427008D01*
X150079149Y-79210503D01*
X150087851Y-79014356D01*
X150073498Y-78828589D01*
X150036276Y-78643221D01*
X149976367Y-78448272D01*
X149973576Y-78432822D01*
X149991904Y-78439364D01*
X150038044Y-78486440D01*
X150057514Y-78509420D01*
X150131991Y-78625067D01*
X150186552Y-78765485D01*
X150221944Y-78935523D01*
X150238913Y-79140034D01*
X150238208Y-79383867D01*
X150220575Y-79671874D01*
X150209233Y-79819774D01*
X150201490Y-79969713D01*
X150202421Y-80079052D01*
X150213009Y-80153738D01*
X150234233Y-80199721D01*
X150267075Y-80222949D01*
X150312515Y-80229370D01*
X150354990Y-80224942D01*
X150399702Y-80200669D01*
X150427907Y-80149868D01*
X150441156Y-80066523D01*
X150441004Y-79944620D01*
X150429002Y-79778143D01*
X150408346Y-79498920D01*
X150401591Y-79248573D01*
X150410649Y-79037272D01*
X150436002Y-78859690D01*
X150478137Y-78710501D01*
X150537537Y-78584380D01*
X150552254Y-78560228D01*
X150596906Y-78495349D01*
X150639886Y-78442210D01*
X150672233Y-78411234D01*
X150684987Y-78412845D01*
X150679364Y-78431625D01*
X150659472Y-78487028D01*
X150630168Y-78564431D01*
X150598899Y-78670631D01*
X150571918Y-78834946D01*
X150559319Y-79018374D01*
X150562137Y-79203712D01*
X150581409Y-79373757D01*
X150596157Y-79446707D01*
X150625984Y-79573580D01*
X150662907Y-79716117D01*
X150702103Y-79855081D01*
X150731719Y-79961058D01*
X150765611Y-80098068D01*
X150791631Y-80221372D01*
X150805771Y-80313262D01*
X150814419Y-80390042D01*
X150823810Y-80451164D01*
X150830996Y-80474593D01*
X150831267Y-80474564D01*
X150857333Y-80460052D01*
X150913685Y-80424089D01*
X150988595Y-80374151D01*
X151041643Y-80340797D01*
X151142715Y-80282523D01*
X151270603Y-80212465D01*
X151414261Y-80136648D01*
X151562643Y-80061096D01*
X151663632Y-80010406D01*
X151830529Y-79924548D01*
X151964662Y-79851513D01*
X152075413Y-79785567D01*
X152172163Y-79720974D01*
X152264295Y-79651999D01*
X152361189Y-79572906D01*
X152389882Y-79549200D01*
X152449832Y-79504861D01*
X152477354Y-79495984D01*
X152472495Y-79523782D01*
X152435302Y-79589470D01*
X152365820Y-79694263D01*
X152273959Y-79815549D01*
X152126029Y-79971833D01*
X151943760Y-80125595D01*
X151719212Y-80284077D01*
X151686295Y-80305943D01*
X151557399Y-80396134D01*
X151445485Y-80481535D01*
X151357266Y-80556525D01*
X151299457Y-80615483D01*
X151278769Y-80652791D01*
X151281941Y-80658369D01*
X151316071Y-80684793D01*
X151375568Y-80719817D01*
X151450213Y-80775106D01*
X151528064Y-80881927D01*
X151583832Y-80992410D01*
X151639284Y-80914535D01*
X151653433Y-80892867D01*
X151695849Y-80818254D01*
X151747310Y-80718963D01*
X151799662Y-80610454D01*
X151809522Y-80589425D01*
X151900631Y-80412092D01*
X152001238Y-80241737D01*
X152104430Y-80088699D01*
X152203293Y-79963314D01*
X152290915Y-79875921D01*
X152314614Y-79857321D01*
X152390197Y-79803402D01*
X152475813Y-79747607D01*
X152558443Y-79697897D01*
X152625070Y-79662234D01*
X152662676Y-79648577D01*
X152663436Y-79649426D01*
X152648013Y-79673880D01*
X152606687Y-79725269D01*
X152546795Y-79794363D01*
X152523981Y-79820523D01*
X152453123Y-79910808D01*
X152386251Y-80012693D01*
X152319432Y-80133695D01*
X152248734Y-80281333D01*
X152170223Y-80463123D01*
X152079965Y-80686584D01*
X152048267Y-80764954D01*
X151982953Y-80916951D01*
X151916912Y-81060061D01*
X151856338Y-81181098D01*
X151807423Y-81266879D01*
X151791176Y-81292251D01*
X151743029Y-81369117D01*
X151710469Y-81423746D01*
X151699814Y-81445641D01*
X151712343Y-81452196D01*
X151768674Y-81473802D01*
X151860759Y-81505575D01*
X151979700Y-81544744D01*
X152116596Y-81588539D01*
X152262549Y-81634189D01*
X152408659Y-81678926D01*
X152546027Y-81719977D01*
X152665754Y-81754573D01*
X152758940Y-81779944D01*
X152816686Y-81793319D01*
X152927913Y-81805535D01*
X153080928Y-81810166D01*
X153246424Y-81806061D01*
X153404367Y-81793764D01*
X153534721Y-81773820D01*
X153585506Y-81765859D01*
X153605473Y-81771240D01*
X153587627Y-81789243D01*
X153537453Y-81816368D01*
X153460438Y-81849112D01*
X153362069Y-81883977D01*
X153145745Y-81935014D01*
X152882504Y-81955311D01*
X152588618Y-81938569D01*
X152261426Y-81884791D01*
X152244928Y-81881348D01*
X152125170Y-81857393D01*
X152026213Y-81839367D01*
X151957937Y-81828965D01*
X151930219Y-81827884D01*
X151929869Y-81845770D01*
X151947746Y-81890401D01*
X151964856Y-81936733D01*
X151975651Y-82010467D01*
X151973653Y-82028301D01*
X151969751Y-82063142D01*
G37*
D11*
%TO.C,C33*%
X157392500Y-73378335D02*
X157392500Y-73146665D01*
X158112500Y-73378335D02*
X158112500Y-73146665D01*
%TO.C,C35*%
X128216252Y-79515000D02*
X127693748Y-79515000D01*
X128216252Y-80985000D02*
X127693748Y-80985000D01*
%TO.C,C8*%
X144462164Y-85440000D02*
X144677836Y-85440000D01*
X144462164Y-86160000D02*
X144677836Y-86160000D01*
%TO.C,R7*%
X136260000Y-74693641D02*
X136260000Y-74386359D01*
X137020000Y-74693641D02*
X137020000Y-74386359D01*
%TO.C,C6*%
X144562164Y-80360000D02*
X144777836Y-80360000D01*
X144562164Y-81080000D02*
X144777836Y-81080000D01*
D12*
%TO.C,J34*%
X150200000Y-94885000D02*
X150200000Y-97160000D01*
X151085000Y-94885000D02*
X150200000Y-94885000D01*
X151400000Y-99135000D02*
X154000000Y-99135000D01*
X155200000Y-94885000D02*
X154315000Y-94885000D01*
X155200000Y-97160000D02*
X155200000Y-94885000D01*
D14*
X154600000Y-94160000D02*
G75*
G02*
X154400000Y-94160000I-100000J0D01*
G01*
X154400000Y-94160000D02*
G75*
G02*
X154600000Y-94160000I100000J0D01*
G01*
D11*
%TO.C,C24*%
X148407500Y-73486665D02*
X148407500Y-73718335D01*
X149127500Y-73486665D02*
X149127500Y-73718335D01*
%TO.C,C31*%
X138145000Y-90653748D02*
X138145000Y-91176252D01*
X139615000Y-90653748D02*
X139615000Y-91176252D01*
%TO.C,C23*%
X134077164Y-72750000D02*
X134292836Y-72750000D01*
X134077164Y-73470000D02*
X134292836Y-73470000D01*
%TO.C,R19*%
X143846359Y-69050000D02*
X144153641Y-69050000D01*
X143846359Y-69810000D02*
X144153641Y-69810000D01*
%TO.C,C28*%
X132075000Y-76354165D02*
X132075000Y-76585835D01*
X132795000Y-76354165D02*
X132795000Y-76585835D01*
%TO.C,C45*%
X146507836Y-84520000D02*
X146292164Y-84520000D01*
X146507836Y-85240000D02*
X146292164Y-85240000D01*
D12*
%TO.C,J28*%
X144685000Y-66006750D02*
X144685000Y-68141750D01*
X144685000Y-68141750D02*
X145715000Y-68141750D01*
X153595000Y-63841750D02*
X145865000Y-63841750D01*
X154685000Y-66046750D02*
X154685000Y-68141750D01*
X154685000Y-68141750D02*
X153725000Y-68141750D01*
D11*
%TO.C,R8*%
X133695000Y-79276359D02*
X133695000Y-79583641D01*
X134455000Y-79276359D02*
X134455000Y-79583641D01*
%TO.C,C25*%
X129820000Y-84462164D02*
X129820000Y-84677836D01*
X130540000Y-84462164D02*
X130540000Y-84677836D01*
%TO.C,C21*%
X130947836Y-90465000D02*
X130732164Y-90465000D01*
X130947836Y-91185000D02*
X130732164Y-91185000D01*
D16*
%TO.C,G\u002A\u002A\u002A*%
G36*
X147376298Y-89177930D02*
G01*
X147394706Y-89201017D01*
X147400242Y-89230365D01*
X147391507Y-89276726D01*
X147369962Y-89329109D01*
X147338646Y-89359428D01*
X147315075Y-89367588D01*
X147263947Y-89365118D01*
X147223271Y-89331361D01*
X147194287Y-89267109D01*
X147186782Y-89225710D01*
X147198723Y-89192674D01*
X147238210Y-89165087D01*
X147268023Y-89152587D01*
X147326626Y-89149368D01*
X147376298Y-89177930D01*
G37*
G36*
X145413285Y-90268805D02*
G01*
X145492188Y-90271110D01*
X145554404Y-90274893D01*
X145592876Y-90280200D01*
X145606334Y-90284924D01*
X145629993Y-90309091D01*
X145626368Y-90339888D01*
X145595191Y-90367202D01*
X145591125Y-90368565D01*
X145557764Y-90372815D01*
X145500076Y-90376004D01*
X145424492Y-90378149D01*
X145337442Y-90379268D01*
X145245355Y-90379378D01*
X145154660Y-90378497D01*
X145071788Y-90376641D01*
X145003168Y-90373829D01*
X144955230Y-90370078D01*
X144934404Y-90365406D01*
X144932483Y-90362785D01*
X144934768Y-90338681D01*
X144954210Y-90308268D01*
X144983223Y-90284168D01*
X144984785Y-90283455D01*
X145015558Y-90277853D01*
X145072001Y-90273454D01*
X145147054Y-90270304D01*
X145233659Y-90268448D01*
X145324756Y-90267933D01*
X145413285Y-90268805D01*
G37*
G36*
X147452978Y-89576277D02*
G01*
X147483864Y-89608035D01*
X147495161Y-89664891D01*
X147495188Y-89667094D01*
X147498784Y-89706830D01*
X147507247Y-89766350D01*
X147518887Y-89833646D01*
X147531863Y-89907279D01*
X147547309Y-90013856D01*
X147556807Y-90106942D01*
X147559762Y-90180151D01*
X147555577Y-90227096D01*
X147535762Y-90262686D01*
X147499139Y-90293911D01*
X147485263Y-90301398D01*
X147454145Y-90315926D01*
X147434482Y-90316413D01*
X147412555Y-90304541D01*
X147401254Y-90288612D01*
X147393405Y-90253662D01*
X147388629Y-90194977D01*
X147386275Y-90107671D01*
X147383153Y-90018283D01*
X147369908Y-89895174D01*
X147344570Y-89776660D01*
X147341411Y-89764655D01*
X147324473Y-89698427D01*
X147315894Y-89656406D01*
X147315373Y-89631431D01*
X147322607Y-89616339D01*
X147337296Y-89603970D01*
X147350410Y-89594991D01*
X147406995Y-89571351D01*
X147452978Y-89576277D01*
G37*
G36*
X148993789Y-90095575D02*
G01*
X148973608Y-90181428D01*
X148926315Y-90249379D01*
X148851008Y-90301490D01*
X148811376Y-90317300D01*
X148722800Y-90327686D01*
X148631681Y-90307756D01*
X148542455Y-90258857D01*
X148459557Y-90182342D01*
X148435347Y-90152967D01*
X148370396Y-90050560D01*
X148332535Y-89947923D01*
X148323210Y-89865802D01*
X148488133Y-89865802D01*
X148508461Y-89965618D01*
X148559736Y-90061560D01*
X148640912Y-90142519D01*
X148650521Y-90149489D01*
X148701381Y-90178735D01*
X148747939Y-90195768D01*
X148777190Y-90199447D01*
X148801061Y-90189141D01*
X148819779Y-90154196D01*
X148826260Y-90135153D01*
X148832365Y-90056069D01*
X148813000Y-89960774D01*
X148768783Y-89852905D01*
X148753836Y-89824478D01*
X148706211Y-89755167D01*
X148652737Y-89711840D01*
X148587132Y-89688824D01*
X148541690Y-89691189D01*
X148507569Y-89721718D01*
X148489521Y-89780271D01*
X148488133Y-89865802D01*
X148323210Y-89865802D01*
X148321297Y-89848953D01*
X148336214Y-89757546D01*
X148376820Y-89677599D01*
X148442647Y-89613009D01*
X148533228Y-89567673D01*
X148613156Y-89556921D01*
X148695526Y-89575396D01*
X148775030Y-89620037D01*
X148847831Y-89687288D01*
X148910093Y-89773589D01*
X148957979Y-89875383D01*
X148987652Y-89989111D01*
X148987757Y-89989761D01*
X148991537Y-90056069D01*
X148993789Y-90095575D01*
G37*
G36*
X143197683Y-89981596D02*
G01*
X143184291Y-90071324D01*
X143143290Y-90143203D01*
X143074484Y-90198011D01*
X143041637Y-90214140D01*
X142949792Y-90235680D01*
X142856229Y-90224191D01*
X142762092Y-90179941D01*
X142668523Y-90103195D01*
X142666221Y-90100882D01*
X142586769Y-90000622D01*
X142539438Y-89892085D01*
X142523439Y-89773475D01*
X142525716Y-89721605D01*
X142526312Y-89719150D01*
X142693957Y-89719150D01*
X142696357Y-89797798D01*
X142718895Y-89881017D01*
X142759793Y-89961008D01*
X142817271Y-90029972D01*
X142820666Y-90033039D01*
X142865858Y-90065227D01*
X142917864Y-90092415D01*
X142919793Y-90093219D01*
X142959995Y-90107814D01*
X142982756Y-90107471D01*
X143000261Y-90092153D01*
X143007114Y-90079332D01*
X143016720Y-90034403D01*
X143019196Y-89973578D01*
X143008828Y-89891680D01*
X142983919Y-89812030D01*
X142948013Y-89739775D01*
X142904631Y-89679014D01*
X142857291Y-89633847D01*
X142809514Y-89608372D01*
X142764817Y-89606690D01*
X142726722Y-89632900D01*
X142713473Y-89652871D01*
X142693957Y-89719150D01*
X142526312Y-89719150D01*
X142546563Y-89635713D01*
X142591543Y-89568929D01*
X142663553Y-89515930D01*
X142716444Y-89492219D01*
X142808574Y-89476200D01*
X142897982Y-89490876D01*
X142981714Y-89534465D01*
X143056815Y-89605185D01*
X143120329Y-89701255D01*
X143169303Y-89820894D01*
X143183661Y-89873241D01*
X143196645Y-89973578D01*
X143197683Y-89981596D01*
G37*
G36*
X147179530Y-90096607D02*
G01*
X147159151Y-90164613D01*
X147117271Y-90217904D01*
X147048997Y-90265371D01*
X147033961Y-90273317D01*
X146979674Y-90294430D01*
X146933137Y-90302955D01*
X146929043Y-90302913D01*
X146852499Y-90287125D01*
X146770058Y-90246654D01*
X146689293Y-90187035D01*
X146617775Y-90113801D01*
X146563075Y-90032486D01*
X146554933Y-90016003D01*
X146523809Y-89919636D01*
X146516597Y-89830176D01*
X146676935Y-89830176D01*
X146689668Y-89908406D01*
X146711779Y-89963016D01*
X146758168Y-90036067D01*
X146815824Y-90100565D01*
X146875269Y-90144456D01*
X146884054Y-90148859D01*
X146942665Y-90168037D01*
X146984119Y-90159543D01*
X147010505Y-90123045D01*
X147021825Y-90067189D01*
X147016236Y-89987457D01*
X146992858Y-89902116D01*
X146955352Y-89818996D01*
X146907377Y-89745930D01*
X146852595Y-89690751D01*
X146794667Y-89661288D01*
X146782365Y-89659230D01*
X146737384Y-89669301D01*
X146703208Y-89704939D01*
X146682253Y-89760459D01*
X146676935Y-89830176D01*
X146516597Y-89830176D01*
X146515815Y-89820480D01*
X146530817Y-89727695D01*
X146568679Y-89650436D01*
X146586426Y-89629714D01*
X146649341Y-89580565D01*
X146724114Y-89545483D01*
X146796387Y-89531940D01*
X146846394Y-89536944D01*
X146932206Y-89569319D01*
X147011365Y-89627549D01*
X147079977Y-89706720D01*
X147134150Y-89801916D01*
X147169990Y-89908223D01*
X147183604Y-90020727D01*
X147181109Y-90067189D01*
X147179530Y-90096607D01*
G37*
G36*
X146337900Y-89574076D02*
G01*
X146362689Y-89612872D01*
X146379675Y-89681508D01*
X146390192Y-89781642D01*
X146391604Y-89802503D01*
X146398540Y-89897804D01*
X146406320Y-89996176D01*
X146413514Y-90079336D01*
X146426147Y-90215977D01*
X146377660Y-90242237D01*
X146341568Y-90259501D01*
X146307791Y-90266973D01*
X146277013Y-90259337D01*
X146245688Y-90233585D01*
X146210274Y-90186707D01*
X146167226Y-90115697D01*
X146113000Y-90017543D01*
X146076410Y-89951640D01*
X146035683Y-89881949D01*
X146000639Y-89825705D01*
X145976199Y-89791057D01*
X145969321Y-89782803D01*
X145944582Y-89756864D01*
X145928605Y-89754034D01*
X145911715Y-89771358D01*
X145899097Y-89799656D01*
X145886191Y-89851593D01*
X145876936Y-89913961D01*
X145867666Y-89993135D01*
X145853863Y-90069629D01*
X145835918Y-90123342D01*
X145811650Y-90160334D01*
X145778883Y-90186660D01*
X145775030Y-90188940D01*
X145724875Y-90210538D01*
X145678312Y-90219448D01*
X145671509Y-90219134D01*
X145628524Y-90205284D01*
X145589319Y-90177039D01*
X145563197Y-90142870D01*
X145559463Y-90111249D01*
X145580790Y-90088256D01*
X145622003Y-90072152D01*
X145666304Y-90071677D01*
X145670067Y-90072342D01*
X145679247Y-90070225D01*
X145687293Y-90058512D01*
X145695468Y-90032492D01*
X145705036Y-89987455D01*
X145717259Y-89918690D01*
X145733402Y-89821485D01*
X145751201Y-89739762D01*
X145779841Y-89671941D01*
X145820710Y-89626687D01*
X145877451Y-89598359D01*
X145936781Y-89587736D01*
X145991275Y-89599217D01*
X146044355Y-89635375D01*
X146099678Y-89698706D01*
X146160904Y-89791704D01*
X146221484Y-89892364D01*
X146210212Y-89756451D01*
X146206303Y-89706436D01*
X146204398Y-89657085D01*
X146208171Y-89627193D01*
X146219043Y-89608533D01*
X146238431Y-89592878D01*
X146259572Y-89579359D01*
X146303972Y-89563458D01*
X146337900Y-89574076D01*
G37*
G36*
X147965145Y-89299004D02*
G01*
X147987289Y-89332625D01*
X148008168Y-89395074D01*
X148021601Y-89443456D01*
X148041282Y-89512538D01*
X148056538Y-89557421D01*
X148070753Y-89583297D01*
X148087310Y-89595354D01*
X148109595Y-89598782D01*
X148140992Y-89598771D01*
X148170294Y-89599278D01*
X148227149Y-89606129D01*
X148257751Y-89622536D01*
X148266889Y-89650466D01*
X148258021Y-89672706D01*
X148225620Y-89701600D01*
X148179993Y-89723990D01*
X148132377Y-89732985D01*
X148107508Y-89738953D01*
X148105539Y-89762345D01*
X148113026Y-89790049D01*
X148128975Y-89864535D01*
X148142676Y-89947808D01*
X148152756Y-90029508D01*
X148157839Y-90099277D01*
X148156552Y-90146756D01*
X148139057Y-90205230D01*
X148092489Y-90265569D01*
X148021624Y-90303427D01*
X147978591Y-90311454D01*
X147925820Y-90311102D01*
X147910699Y-90308350D01*
X147842758Y-90286344D01*
X147782480Y-90252668D01*
X147733562Y-90211826D01*
X147699698Y-90168321D01*
X147684585Y-90126655D01*
X147691917Y-90091334D01*
X147725391Y-90066859D01*
X147732357Y-90064610D01*
X147768077Y-90065779D01*
X147809274Y-90092031D01*
X147860462Y-90129549D01*
X147912309Y-90159212D01*
X147955847Y-90176581D01*
X147982176Y-90177265D01*
X147984506Y-90175184D01*
X147994309Y-90148425D01*
X147998097Y-90105278D01*
X147994977Y-90066192D01*
X147986052Y-90006224D01*
X147973145Y-89936349D01*
X147958086Y-89865178D01*
X147942707Y-89801323D01*
X147928839Y-89753397D01*
X147918313Y-89730011D01*
X147912451Y-89726875D01*
X147878936Y-89717522D01*
X147824155Y-89706513D01*
X147756456Y-89695622D01*
X147696695Y-89685661D01*
X147625424Y-89667043D01*
X147586694Y-89645220D01*
X147579934Y-89619800D01*
X147604577Y-89590388D01*
X147605360Y-89589782D01*
X147636394Y-89575267D01*
X147685156Y-89568783D01*
X147759293Y-89569286D01*
X147816931Y-89570857D01*
X147855575Y-89568882D01*
X147872328Y-89561883D01*
X147873295Y-89548762D01*
X147866662Y-89525975D01*
X147845499Y-89442721D01*
X147838107Y-89383702D01*
X147845190Y-89343424D01*
X147867455Y-89316394D01*
X147905606Y-89297118D01*
X147936980Y-89289670D01*
X147965145Y-89299004D01*
G37*
G36*
X150641506Y-89322331D02*
G01*
X150714587Y-89330812D01*
X150815179Y-89344674D01*
X150850382Y-89349614D01*
X150944254Y-89361843D01*
X151029642Y-89371701D01*
X151098321Y-89378279D01*
X151142062Y-89380674D01*
X151188024Y-89382973D01*
X151221885Y-89395532D01*
X151230294Y-89423658D01*
X151217475Y-89472495D01*
X151212031Y-89490425D01*
X151207347Y-89521205D01*
X151206929Y-89562202D01*
X151211066Y-89619141D01*
X151220046Y-89697745D01*
X151234158Y-89803738D01*
X151241364Y-89854662D01*
X151256665Y-89955855D01*
X151272061Y-90049812D01*
X151286100Y-90127850D01*
X151297329Y-90181289D01*
X151311401Y-90251367D01*
X151312692Y-90306423D01*
X151297703Y-90342884D01*
X151265364Y-90366967D01*
X151211774Y-90381936D01*
X151126829Y-90384578D01*
X151022721Y-90371345D01*
X150998658Y-90367185D01*
X150932292Y-90357489D01*
X150851215Y-90347177D01*
X150767837Y-90337877D01*
X150719018Y-90332333D01*
X150649208Y-90322450D01*
X150595225Y-90312409D01*
X150565874Y-90303700D01*
X150551255Y-90292082D01*
X150542599Y-90260627D01*
X150559390Y-90225225D01*
X150599094Y-90194223D01*
X150616616Y-90186323D01*
X150643593Y-90180199D01*
X150679712Y-90180514D01*
X150732845Y-90187539D01*
X150810865Y-90201547D01*
X150849030Y-90208661D01*
X150931127Y-90223405D01*
X151005106Y-90236016D01*
X151058560Y-90244348D01*
X151140787Y-90255881D01*
X151130074Y-90153386D01*
X151127082Y-90125821D01*
X151116869Y-90050915D01*
X151105424Y-90002118D01*
X151091016Y-89973680D01*
X151071919Y-89959845D01*
X151069801Y-89959131D01*
X151039000Y-89952174D01*
X150983306Y-89941910D01*
X150909903Y-89929606D01*
X150825976Y-89916526D01*
X150773341Y-89908275D01*
X150684112Y-89891525D01*
X150623252Y-89874669D01*
X150587278Y-89856198D01*
X150572705Y-89834606D01*
X150576049Y-89808386D01*
X150576374Y-89807608D01*
X150597722Y-89786131D01*
X150635625Y-89765207D01*
X150636197Y-89764971D01*
X150667746Y-89755520D01*
X150705129Y-89753344D01*
X150757244Y-89758755D01*
X150832994Y-89772060D01*
X150934384Y-89789960D01*
X151007181Y-89798879D01*
X151053613Y-89798658D01*
X151076655Y-89789282D01*
X151079280Y-89770733D01*
X151073745Y-89748232D01*
X151063138Y-89699625D01*
X151051166Y-89640713D01*
X151040861Y-89594406D01*
X151027202Y-89546731D01*
X151015758Y-89520714D01*
X151015019Y-89519916D01*
X150989353Y-89508966D01*
X150940786Y-89498556D01*
X150879168Y-89490840D01*
X150866441Y-89489719D01*
X150736204Y-89476580D01*
X150629334Y-89462597D01*
X150548375Y-89448215D01*
X150495870Y-89433879D01*
X150474362Y-89420034D01*
X150470601Y-89405491D01*
X150481254Y-89364902D01*
X150523525Y-89330256D01*
X150531702Y-89326428D01*
X150555626Y-89320414D01*
X150590373Y-89318957D01*
X150641506Y-89322331D01*
G37*
G36*
X150290993Y-89579353D02*
G01*
X150292448Y-89580801D01*
X150302195Y-89607115D01*
X150313449Y-89659114D01*
X150325344Y-89730163D01*
X150337012Y-89813625D01*
X150347586Y-89902863D01*
X150356200Y-89991241D01*
X150361987Y-90072122D01*
X150364080Y-90138870D01*
X150364051Y-90151399D01*
X150362505Y-90214061D01*
X150357131Y-90253050D01*
X150345878Y-90276877D01*
X150326696Y-90294055D01*
X150287213Y-90313904D01*
X150235041Y-90316647D01*
X150192916Y-90290812D01*
X150177866Y-90269861D01*
X150148759Y-90224525D01*
X150111371Y-90163408D01*
X150070170Y-90093685D01*
X150044380Y-90049707D01*
X149982929Y-89949141D01*
X149934158Y-89876235D01*
X149898674Y-89831855D01*
X149877080Y-89816869D01*
X149872002Y-89827134D01*
X149864888Y-89864748D01*
X149857785Y-89923506D01*
X149851661Y-89996560D01*
X149850539Y-90012834D01*
X149844481Y-90088753D01*
X149837648Y-90140107D01*
X149828052Y-90174523D01*
X149813705Y-90199627D01*
X149792618Y-90223047D01*
X149784792Y-90230445D01*
X149745303Y-90258489D01*
X149711786Y-90269841D01*
X149710598Y-90269815D01*
X149676587Y-90252631D01*
X149633872Y-90204423D01*
X149583268Y-90126290D01*
X149525592Y-90019329D01*
X149497467Y-89964851D01*
X149451868Y-89883695D01*
X149415188Y-89828571D01*
X149388623Y-89801181D01*
X149373372Y-89803224D01*
X149366474Y-89826683D01*
X149357881Y-89874499D01*
X149350232Y-89934306D01*
X149345938Y-89972295D01*
X149331068Y-90065613D01*
X149311070Y-90135113D01*
X149283389Y-90188052D01*
X149245468Y-90231684D01*
X149234176Y-90241897D01*
X149176296Y-90278541D01*
X149125237Y-90282378D01*
X149080885Y-90253423D01*
X149065798Y-90234557D01*
X149062984Y-90216462D01*
X149077387Y-90192252D01*
X149111839Y-90152714D01*
X149136009Y-90125315D01*
X149162526Y-90093120D01*
X149172833Y-90077368D01*
X149173491Y-90065468D01*
X149178728Y-90021710D01*
X149187962Y-89959876D01*
X149199708Y-89888511D01*
X149212482Y-89816160D01*
X149224798Y-89751367D01*
X149235172Y-89702677D01*
X149242119Y-89678635D01*
X149251138Y-89665393D01*
X149293880Y-89631340D01*
X149348469Y-89610032D01*
X149398993Y-89608577D01*
X149438390Y-89627603D01*
X149488863Y-89675989D01*
X149544184Y-89753818D01*
X149605678Y-89862721D01*
X149622085Y-89893717D01*
X149653676Y-89950339D01*
X149678897Y-89991568D01*
X149693405Y-90010106D01*
X149700411Y-90006756D01*
X149707506Y-89977020D01*
X149710420Y-89922714D01*
X149714609Y-89829405D01*
X149730821Y-89733763D01*
X149759811Y-89667164D01*
X149802249Y-89628221D01*
X149858805Y-89615548D01*
X149865653Y-89615683D01*
X149902765Y-89622676D01*
X149938609Y-89643186D01*
X149977437Y-89681242D01*
X150023504Y-89740871D01*
X150081060Y-89826103D01*
X150118431Y-89883146D01*
X150153409Y-89935781D01*
X150177725Y-89971486D01*
X150187600Y-89984637D01*
X150187937Y-89979896D01*
X150184767Y-89951134D01*
X150177778Y-89904947D01*
X150175549Y-89890920D01*
X150164745Y-89792567D01*
X150164072Y-89709604D01*
X150173254Y-89647647D01*
X150192021Y-89612310D01*
X150213492Y-89595962D01*
X150257868Y-89575641D01*
X150290993Y-89579353D01*
G37*
G36*
X141923184Y-89466009D02*
G01*
X141990616Y-89490834D01*
X142061556Y-89547290D01*
X142137003Y-89636111D01*
X142215046Y-89741374D01*
X142201440Y-89674267D01*
X142199878Y-89666277D01*
X142190906Y-89607634D01*
X142186575Y-89556853D01*
X142189574Y-89523353D01*
X142207181Y-89504337D01*
X142248741Y-89490856D01*
X142277313Y-89485430D01*
X142317952Y-89488986D01*
X142346083Y-89513613D01*
X142365262Y-89563457D01*
X142379048Y-89642660D01*
X142384439Y-89696662D01*
X142389181Y-89773772D01*
X142392305Y-89859980D01*
X142393768Y-89948187D01*
X142393530Y-90031293D01*
X142391548Y-90102198D01*
X142387780Y-90153801D01*
X142382186Y-90179003D01*
X142368456Y-90193472D01*
X142336307Y-90216639D01*
X142308015Y-90227417D01*
X142261134Y-90231982D01*
X142251992Y-90230703D01*
X142232984Y-90222241D01*
X142217953Y-90201043D01*
X142203221Y-90160421D01*
X142185111Y-90093685D01*
X142159917Y-90005814D01*
X142114695Y-89891144D01*
X142057068Y-89792796D01*
X141981687Y-89700429D01*
X141947234Y-89663597D01*
X141914625Y-89632273D01*
X141890867Y-89618621D01*
X141867957Y-89618626D01*
X141837894Y-89628273D01*
X141833578Y-89629802D01*
X141785438Y-89643483D01*
X141747667Y-89649102D01*
X141738601Y-89649564D01*
X141726253Y-89655842D01*
X141720770Y-89674964D01*
X141720999Y-89713776D01*
X141725790Y-89779121D01*
X141732461Y-89854791D01*
X141741081Y-89944181D01*
X141749158Y-90020599D01*
X141750913Y-90036309D01*
X141755627Y-90090318D01*
X141753589Y-90122329D01*
X141742959Y-90141568D01*
X141721896Y-90157261D01*
X141679534Y-90181452D01*
X141641075Y-90194023D01*
X141606862Y-90189707D01*
X141573209Y-90165802D01*
X141536430Y-90119602D01*
X141492839Y-90048402D01*
X141438751Y-89949499D01*
X141399281Y-89877180D01*
X141345278Y-89786062D01*
X141302743Y-89725724D01*
X141271406Y-89695801D01*
X141250997Y-89695931D01*
X141245816Y-89706579D01*
X141235084Y-89745713D01*
X141222824Y-89805154D01*
X141210801Y-89876955D01*
X141203610Y-89920854D01*
X141189566Y-89991058D01*
X141175331Y-90046335D01*
X141163089Y-90077502D01*
X141156098Y-90085979D01*
X141118859Y-90113354D01*
X141069624Y-90135640D01*
X141022020Y-90148853D01*
X140988748Y-90148758D01*
X140956286Y-90134709D01*
X140942691Y-90126526D01*
X140900812Y-90090229D01*
X140889280Y-90055656D01*
X140909296Y-90025596D01*
X140935650Y-90011451D01*
X140980277Y-90001413D01*
X140996193Y-90000572D01*
X141010412Y-89994229D01*
X141021146Y-89976830D01*
X141030416Y-89942831D01*
X141040242Y-89886687D01*
X141052647Y-89802850D01*
X141053927Y-89794071D01*
X141069965Y-89702280D01*
X141088757Y-89637196D01*
X141113739Y-89592496D01*
X141148346Y-89561859D01*
X141196011Y-89538961D01*
X141235163Y-89524625D01*
X141269542Y-89517140D01*
X141298370Y-89522563D01*
X141336128Y-89541116D01*
X141363207Y-89559616D01*
X141415570Y-89611662D01*
X141469023Y-89682655D01*
X141541236Y-89791704D01*
X141530044Y-89689281D01*
X141526211Y-89614903D01*
X141536262Y-89559147D01*
X141563311Y-89524513D01*
X141609605Y-89505821D01*
X141628618Y-89502353D01*
X141664575Y-89505809D01*
X141693628Y-89531482D01*
X141694463Y-89532506D01*
X141715321Y-89552730D01*
X141723956Y-89550641D01*
X141733506Y-89535032D01*
X141766384Y-89511747D01*
X141812712Y-89488892D01*
X141861970Y-89471504D01*
X141903638Y-89464620D01*
X141923184Y-89466009D01*
G37*
G36*
X143860354Y-89102654D02*
G01*
X143894458Y-89132987D01*
X143914185Y-89193621D01*
X143918439Y-89219007D01*
X143928026Y-89265182D01*
X143939347Y-89285789D01*
X143957525Y-89286307D01*
X143987683Y-89272211D01*
X143991005Y-89270562D01*
X144054914Y-89253221D01*
X144147474Y-89247688D01*
X144266107Y-89253964D01*
X144408236Y-89272048D01*
X144454468Y-89278664D01*
X144553994Y-89290373D01*
X144661482Y-89300567D01*
X144760548Y-89307594D01*
X144786162Y-89309056D01*
X144879117Y-89316064D01*
X144943855Y-89324894D01*
X144984719Y-89336688D01*
X145006053Y-89352586D01*
X145012199Y-89373732D01*
X145008584Y-89389244D01*
X144978470Y-89415719D01*
X144920491Y-89433162D01*
X144837857Y-89440832D01*
X144733780Y-89437988D01*
X144693675Y-89435258D01*
X144633190Y-89432104D01*
X144591589Y-89431239D01*
X144576149Y-89432899D01*
X144576179Y-89433376D01*
X144578483Y-89454764D01*
X144583921Y-89502214D01*
X144591735Y-89569175D01*
X144601169Y-89649102D01*
X144609070Y-89724089D01*
X144617877Y-89831771D01*
X144623913Y-89935709D01*
X144626188Y-90021167D01*
X144626194Y-90032712D01*
X144625578Y-90104341D01*
X144622573Y-90151064D01*
X144615469Y-90180531D01*
X144602558Y-90200391D01*
X144582129Y-90218293D01*
X144563067Y-90231368D01*
X144516216Y-90249953D01*
X144476233Y-90249383D01*
X144452868Y-90228861D01*
X144449537Y-90201712D01*
X144449604Y-90151636D01*
X144453186Y-90090082D01*
X144454268Y-90073821D01*
X144455088Y-89993345D01*
X144451039Y-89888343D01*
X144442566Y-89765607D01*
X144430116Y-89631933D01*
X144414132Y-89494116D01*
X144410344Y-89467210D01*
X144400236Y-89430376D01*
X144380533Y-89410864D01*
X144343188Y-89397743D01*
X144322200Y-89393466D01*
X144264870Y-89386964D01*
X144190841Y-89382469D01*
X144110868Y-89380767D01*
X143939326Y-89380674D01*
X143947503Y-89426810D01*
X143947946Y-89429349D01*
X143954020Y-89466635D01*
X143963665Y-89528174D01*
X143975647Y-89606019D01*
X143988731Y-89692222D01*
X144002702Y-89782378D01*
X144018962Y-89882617D01*
X144034484Y-89974073D01*
X144047238Y-90044534D01*
X144050871Y-90063562D01*
X144061995Y-90122475D01*
X144069771Y-90164661D01*
X144072698Y-90182010D01*
X144066539Y-90189127D01*
X144039616Y-90207182D01*
X144002120Y-90228230D01*
X143966033Y-90245694D01*
X143943335Y-90253002D01*
X143928529Y-90249276D01*
X143900691Y-90227511D01*
X143864843Y-90183857D01*
X143818802Y-90115532D01*
X143760388Y-90019756D01*
X143733920Y-89975736D01*
X143676935Y-89886079D01*
X143626237Y-89813271D01*
X143584253Y-89760475D01*
X143553409Y-89730852D01*
X143536133Y-89727564D01*
X143532858Y-89734808D01*
X143524483Y-89770218D01*
X143514928Y-89826643D01*
X143505685Y-89895837D01*
X143504896Y-89902482D01*
X143492690Y-89990394D01*
X143478747Y-90052330D01*
X143460055Y-90095387D01*
X143433598Y-90126659D01*
X143396366Y-90153239D01*
X143395664Y-90153666D01*
X143333724Y-90181794D01*
X143287772Y-90184515D01*
X143261339Y-90164479D01*
X143257956Y-90124336D01*
X143281153Y-90066738D01*
X143301591Y-90019524D01*
X143321833Y-89952188D01*
X143336709Y-89880890D01*
X143344177Y-89833803D01*
X143360009Y-89741138D01*
X143374228Y-89674243D01*
X143388751Y-89627811D01*
X143405497Y-89596533D01*
X143426385Y-89575102D01*
X143453332Y-89558209D01*
X143513422Y-89526036D01*
X143586271Y-89566598D01*
X143636857Y-89604050D01*
X143699908Y-89667498D01*
X143767217Y-89749368D01*
X143833390Y-89843615D01*
X143844133Y-89859460D01*
X143850434Y-89861703D01*
X143846414Y-89833646D01*
X143844135Y-89822314D01*
X143834512Y-89778214D01*
X143819506Y-89711655D01*
X143800668Y-89629485D01*
X143779549Y-89538551D01*
X143768061Y-89488772D01*
X143743162Y-89372518D01*
X143728238Y-89283104D01*
X143723599Y-89216626D01*
X143729552Y-89169180D01*
X143746406Y-89136865D01*
X143774470Y-89115775D01*
X143814052Y-89102009D01*
X143860354Y-89102654D01*
G37*
D11*
%TO.C,R21*%
X159581359Y-85025000D02*
X159888641Y-85025000D01*
X159581359Y-85785000D02*
X159888641Y-85785000D01*
%TO.C,C40*%
X154722164Y-88160000D02*
X154937836Y-88160000D01*
X154722164Y-88880000D02*
X154937836Y-88880000D01*
%TD*%
M02*
