M48
; DRILL file {KiCad 7.0.9} date 2023年12月01日 星期五 13时28分02秒
; FORMAT={-:-/ absolute / inch / decimal}
; #@! TF.CreationDate,2023-12-01T13:28:02+08:00
; #@! TF.GenerationSoftware,Kicad,Pcbnew,7.0.9
; #@! TF.FileFunction,Plated,1,4,PTH
FMAT,2
INCH
; #@! TA.AperFunction,Plated,PTH,ViaDrill
T1C0.0079
; #@! TA.AperFunction,Plated,PTH,ComponentDrill
T2C0.0256
; #@! TA.AperFunction,Plated,PTH,ComponentDrill
T3C0.1575
%
G90
G05
T1
X4.0134Y-2.7374
X4.0469Y-3.6476
X4.0472Y-3.5118
X4.0787Y-3.4626
X4.111Y-3.3272
X4.1236Y-3.3094
X4.1248Y-3.4826
X4.1252Y-3.3433
X4.126Y-2.7457
X4.1366Y-3.3268
X4.161Y-2.8591
X4.1622Y-3.4378
X4.1622Y-3.4826
X4.2035Y-2.7378
X4.2154Y-3.7579
X4.2161Y-3.726
X4.2508Y-3.7268
X4.2508Y-3.7575
X4.2709Y-3.6291
X4.2742Y-2.6122
X4.2748Y-2.6358
X4.2839Y-3.6122
X4.285Y-3.6453
X4.2913Y-3.3921
X4.298Y-3.628
X4.3004Y-2.6122
X4.301Y-2.6358
X4.313Y-3.2756
X4.3134Y-3.237
X4.3173Y-3.3028
X4.3266Y-2.6122
X4.3272Y-2.6358
X4.3272Y-3.4607
X4.3354Y-3.5984
X4.3374Y-3.5273
X4.3409Y-3.4161
X4.3413Y-3.1902
X4.3413Y-3.3272
X4.3709Y-3.1248
X4.3756Y-3.2508
X4.3815Y-3.3953
X4.3988Y-2.6614
X4.3988Y-2.6953
X4.4071Y-3.3776
X4.4154Y-2.7661
X4.4169Y-3.8161
X4.4185Y-2.8311
X4.4323Y-3.3882
X4.4354Y-3.2575
X4.439Y-2.7248
X4.4413Y-3.4815
X4.4433Y-3.1205
X4.4539Y-3.535
X4.4579Y-3.5819
X4.4587Y-2.828
X4.4591Y-2.7744
X4.4795Y-2.7224
X4.4811Y-3.3327
X4.4862Y-3.5937
X4.5067Y-3.1512
X4.5083Y-2.6346
X4.5185Y-3.1819
X4.5189Y-3.2788
X4.526Y-3.8232
X4.5429Y-3.4083
X4.548Y-3.6417
X4.5524Y-3.3539
X4.5535Y-2.8886
X4.5545Y-3.0614
X4.5547Y-3.1358
X4.5547Y-3.1988
X4.5551Y-2.6331
X4.5559Y-3.2921
X4.5827Y-3.4894
X4.5839Y-3.3543
X4.585Y-3.1677
X4.5866Y-3.2937
X4.5902Y-2.9728
X4.6Y-2.6331
X4.6157Y-3.3547
X4.6189Y-3.2929
X4.6193Y-3.2591
X4.6232Y-3.6886
X4.6343Y-2.9472
X4.635Y-2.6354
X4.648Y-3.3547
X4.648Y-3.5772
X4.6496Y-3.2303
X4.6496Y-3.2642
X4.65Y-3.1988
X4.6504Y-3.1677
X4.6543Y-2.9665
X4.6587Y-3.6551
X4.6602Y-3.8579
X4.6787Y-3.1039
X4.6811Y-3.1669
X4.7043Y-3.8417
X4.7043Y-3.8732
X4.7098Y-3.1685
X4.711Y-3.1043
X4.7114Y-3.1988
X4.7118Y-3.2933
X4.7122Y-3.2299
X4.7122Y-3.3252
X4.7126Y-3.261
X4.7173Y-3.0469
X4.7394Y-3.8421
X4.7394Y-3.8728
X4.7398Y-3.652
X4.7413Y-3.3839
X4.7425Y-2.722
X4.7425Y-3.2933
X4.7429Y-3.2618
X4.7433Y-3.3248
X4.7445Y-3.135
X4.7575Y-3.5795
X4.7661Y-3.4835
X4.7697Y-3.7866
X4.7724Y-3.3846
X4.7732Y-3.1362
X4.7756Y-3.2925
X4.7976Y-3.5472
X4.8031Y-3.3846
X4.8059Y-3.1677
X4.8142Y-2.7504
X4.8173Y-3.7087
X4.8323Y-3.0472
X4.8346Y-3.3835
X4.839Y-2.9646
X4.8409Y-3.4445
X4.8409Y-3.5106
X4.8417Y-3.1827
X4.8492Y-3.2736
X4.85Y-3.248
X4.8657Y-2.5472
X4.8819Y-3.0937
X4.887Y-2.8583
X4.8872Y-2.8799
X4.8996Y-3.4339
X4.915Y-3.7083
X4.9242Y-3.0026
X4.9256Y-3.4146
X4.9441Y-3.1953
X4.9559Y-2.5465
X4.9587Y-2.8906
X4.9591Y-2.865
X4.9634Y-3.4776
X4.9768Y-3.6209
X4.9827Y-3.7709
X4.9835Y-2.8654
X4.9839Y-2.8906
X4.985Y-3.6638
X4.9866Y-3.3854
X4.998Y-3.8413
X4.9984Y-3.8736
X5.0028Y-3.0228
X5.0055Y-3.2327
X5.011Y-3.1472
X5.0138Y-3.4811
X5.0323Y-3.8421
X5.0327Y-3.8728
X5.039Y-3.1929
X5.0406Y-3.0543
X5.0421Y-3.4811
X5.0484Y-2.5472
X5.0539Y-3.0063
X5.0583Y-2.8098
X5.065Y-2.9807
X5.0654Y-3.3323
X5.0669Y-3.6126
X5.0705Y-3.4815
X5.0827Y-3.4059
X5.1024Y-2.5811
X5.1043Y-2.7709
X5.1185Y-3.4827
X5.1201Y-3.7622
X5.1445Y-2.7047
X5.148Y-3.4827
X5.1681Y-3.3268
X5.1705Y-3.7055
X5.1972Y-3.3272
X5.2579Y-3.3409
X5.2736Y-2.8362
X5.2807Y-2.7256
X5.2839Y-3.6193
X5.2992Y-3.4575
X5.2992Y-3.5232
X5.3Y-3.3921
X5.3094Y-2.8382
X5.3232Y-3.0327
X5.337Y-2.9921
X5.3382Y-2.9496
X5.3524Y-3.094
X5.3524Y-3.1182
X5.3524Y-3.1425
X5.3524Y-3.1668
X5.3583Y-3.3921
X5.3583Y-3.4575
X5.3587Y-3.524
T3
X4.0768Y-2.5929
X4.0768Y-3.7937
X5.2776Y-2.5929
X5.2776Y-3.7937
T2
G00X4.1018Y-2.8269
M15
G01X4.0722Y-2.8269
M16
G05
G00X4.1018Y-3.1675
M15
G01X4.0722Y-3.1675
M16
G05
G00X4.2726Y-2.8269
M15
G01X4.2305Y-2.8269
M16
G05
G00X4.2675Y-3.1676
M15
G01X4.238Y-3.1676
M16
G05
T0
M30
