%TF.GenerationSoftware,KiCad,Pcbnew,7.0.9*%
%TF.CreationDate,2023-11-16T22:51:06+08:00*%
%TF.ProjectId,NewSkyF7-Air,4e657753-6b79-4463-972d-4169722e6b69,rev?*%
%TF.SameCoordinates,Original*%
%TF.FileFunction,Drillmap*%
%TF.FilePolarity,Positive*%
%FSLAX45Y45*%
G04 Gerber Fmt 4.5, Leading zero omitted, Abs format (unit mm)*
G04 Created by KiCad (PCBNEW 7.0.9) date 2023-11-16 22:51:06*
%MOMM*%
%LPD*%
G01*
G04 APERTURE LIST*
%ADD10C,0.200000*%
%ADD11C,0.100000*%
%ADD12C,0.400000*%
G04 APERTURE END LIST*
D10*
X13679872Y-6610868D02*
G75*
G03*
X13379868Y-6310868I-300002J-2D01*
G01*
X13379868Y-9910868D02*
G75*
G03*
X13679868Y-9610868I2J299998D01*
G01*
X10379868Y-6310868D02*
X13379868Y-6310868D01*
X10379868Y-6310868D02*
G75*
G03*
X10079868Y-6610868I2J-300002D01*
G01*
X10379868Y-9910868D02*
X13379868Y-9910868D01*
X10079872Y-9610868D02*
G75*
G03*
X10379868Y-9910868I299998J-2D01*
G01*
X13679868Y-9610868D02*
X13679868Y-6610868D01*
X10079868Y-9610868D02*
X10079868Y-6610868D01*
D11*
X10184000Y-6943000D02*
X10204000Y-6963000D01*
X10204000Y-6943000D02*
X10184000Y-6963000D01*
X10269000Y-9255000D02*
X10289000Y-9275000D01*
X10289000Y-9255000D02*
X10269000Y-9275000D01*
X10270000Y-8910000D02*
X10290000Y-8930000D01*
X10290000Y-8910000D02*
X10270000Y-8930000D01*
X10350000Y-8785000D02*
X10370000Y-8805000D01*
X10370000Y-8785000D02*
X10350000Y-8805000D01*
X10432000Y-8441000D02*
X10452000Y-8461000D01*
X10452000Y-8441000D02*
X10432000Y-8461000D01*
X10464000Y-8396000D02*
X10484000Y-8416000D01*
X10484000Y-8396000D02*
X10464000Y-8416000D01*
X10467000Y-8835750D02*
X10487000Y-8855750D01*
X10487000Y-8835750D02*
X10467000Y-8855750D01*
X10468000Y-8482000D02*
X10488000Y-8502000D01*
X10488000Y-8482000D02*
X10468000Y-8502000D01*
X10470000Y-6964000D02*
X10490000Y-6984000D01*
X10490000Y-6964000D02*
X10470000Y-6984000D01*
X10497000Y-8440000D02*
X10517000Y-8460000D01*
X10517000Y-8440000D02*
X10497000Y-8460000D01*
X10559000Y-7252000D02*
X10579000Y-7272000D01*
X10579000Y-7252000D02*
X10559000Y-7272000D01*
X10562000Y-8722000D02*
X10582000Y-8742000D01*
X10582000Y-8722000D02*
X10562000Y-8742000D01*
X10562000Y-8835750D02*
X10582000Y-8855750D01*
X10582000Y-8835750D02*
X10562000Y-8855750D01*
X10667000Y-6944000D02*
X10687000Y-6964000D01*
X10687000Y-6944000D02*
X10667000Y-6964000D01*
X10697000Y-9535000D02*
X10717000Y-9555000D01*
X10717000Y-9535000D02*
X10697000Y-9555000D01*
X10699000Y-9454000D02*
X10719000Y-9474000D01*
X10719000Y-9454000D02*
X10699000Y-9474000D01*
X10787000Y-9456000D02*
X10807000Y-9476000D01*
X10807000Y-9456000D02*
X10787000Y-9476000D01*
X10787000Y-9534000D02*
X10807000Y-9554000D01*
X10807000Y-9534000D02*
X10787000Y-9554000D01*
X10838000Y-9208000D02*
X10858000Y-9228000D01*
X10858000Y-9208000D02*
X10838000Y-9228000D01*
X10846500Y-6625000D02*
X10866500Y-6645000D01*
X10866500Y-6625000D02*
X10846500Y-6645000D01*
X10848000Y-6685000D02*
X10868000Y-6705000D01*
X10868000Y-6685000D02*
X10848000Y-6705000D01*
X10871000Y-9165000D02*
X10891000Y-9185000D01*
X10891000Y-9165000D02*
X10871000Y-9185000D01*
X10874000Y-9249000D02*
X10894000Y-9269000D01*
X10894000Y-9249000D02*
X10874000Y-9269000D01*
X10890000Y-8606000D02*
X10910000Y-8626000D01*
X10910000Y-8606000D02*
X10890000Y-8626000D01*
X10907000Y-9205000D02*
X10927000Y-9225000D01*
X10927000Y-9205000D02*
X10907000Y-9225000D01*
X10913000Y-6625000D02*
X10933000Y-6645000D01*
X10933000Y-6625000D02*
X10913000Y-6645000D01*
X10914500Y-6685000D02*
X10934500Y-6705000D01*
X10934500Y-6685000D02*
X10914500Y-6705000D01*
X10945000Y-8310000D02*
X10965000Y-8330000D01*
X10965000Y-8310000D02*
X10945000Y-8330000D01*
X10946000Y-8212000D02*
X10966000Y-8232000D01*
X10966000Y-8212000D02*
X10946000Y-8232000D01*
X10956000Y-8379000D02*
X10976000Y-8399000D01*
X10976000Y-8379000D02*
X10956000Y-8399000D01*
X10979500Y-6625000D02*
X10999500Y-6645000D01*
X10999500Y-6625000D02*
X10979500Y-6645000D01*
X10981000Y-6685000D02*
X11001000Y-6705000D01*
X11001000Y-6685000D02*
X10981000Y-6705000D01*
X10981000Y-8780250D02*
X11001000Y-8800250D01*
X11001000Y-8780250D02*
X10981000Y-8800250D01*
X11002000Y-9130000D02*
X11022000Y-9150000D01*
X11022000Y-9130000D02*
X11002000Y-9150000D01*
X11007000Y-8949250D02*
X11027000Y-8969250D01*
X11027000Y-8949250D02*
X11007000Y-8969250D01*
X11016000Y-8667000D02*
X11036000Y-8687000D01*
X11036000Y-8667000D02*
X11016000Y-8687000D01*
X11017000Y-8093000D02*
X11037000Y-8113000D01*
X11037000Y-8093000D02*
X11017000Y-8113000D01*
X11017000Y-8441000D02*
X11037000Y-8461000D01*
X11037000Y-8441000D02*
X11017000Y-8461000D01*
X11092000Y-7927000D02*
X11112000Y-7947000D01*
X11112000Y-7927000D02*
X11092000Y-7947000D01*
X11104000Y-8247000D02*
X11124000Y-8267000D01*
X11124000Y-8247000D02*
X11104000Y-8267000D01*
X11119000Y-8614000D02*
X11139000Y-8634000D01*
X11139000Y-8614000D02*
X11119000Y-8634000D01*
X11163000Y-6750000D02*
X11183000Y-6770000D01*
X11183000Y-6750000D02*
X11163000Y-6770000D01*
X11163000Y-6836000D02*
X11183000Y-6856000D01*
X11183000Y-6836000D02*
X11163000Y-6856000D01*
X11184000Y-8569000D02*
X11204000Y-8589000D01*
X11204000Y-8569000D02*
X11184000Y-8589000D01*
X11205000Y-7016000D02*
X11225000Y-7036000D01*
X11225000Y-7016000D02*
X11205000Y-7036000D01*
X11209000Y-9683000D02*
X11229000Y-9703000D01*
X11229000Y-9683000D02*
X11209000Y-9703000D01*
X11213000Y-7181000D02*
X11233000Y-7201000D01*
X11233000Y-7181000D02*
X11213000Y-7201000D01*
X11248000Y-8596000D02*
X11268000Y-8616000D01*
X11268000Y-8596000D02*
X11248000Y-8616000D01*
X11256000Y-8264000D02*
X11276000Y-8284000D01*
X11276000Y-8264000D02*
X11256000Y-8284000D01*
X11265000Y-6911000D02*
X11285000Y-6931000D01*
X11285000Y-6911000D02*
X11265000Y-6931000D01*
X11271000Y-8833000D02*
X11291000Y-8853000D01*
X11291000Y-8833000D02*
X11271000Y-8853000D01*
X11276000Y-7916000D02*
X11296000Y-7936000D01*
X11296000Y-7916000D02*
X11276000Y-7936000D01*
X11303000Y-8969000D02*
X11323000Y-8989000D01*
X11323000Y-8969000D02*
X11303000Y-8989000D01*
X11313000Y-9088000D02*
X11333000Y-9108000D01*
X11333000Y-9088000D02*
X11313000Y-9108000D01*
X11315000Y-7173000D02*
X11335000Y-7193000D01*
X11335000Y-7173000D02*
X11315000Y-7193000D01*
X11316000Y-7037000D02*
X11336000Y-7057000D01*
X11336000Y-7037000D02*
X11316000Y-7057000D01*
X11368000Y-6905000D02*
X11388000Y-6925000D01*
X11388000Y-6905000D02*
X11368000Y-6925000D01*
X11372000Y-8455000D02*
X11392000Y-8475000D01*
X11392000Y-8455000D02*
X11372000Y-8475000D01*
X11385000Y-9118000D02*
X11405000Y-9138000D01*
X11405000Y-9118000D02*
X11385000Y-9138000D01*
X11437000Y-7994000D02*
X11457000Y-8014000D01*
X11457000Y-7994000D02*
X11437000Y-8014000D01*
X11441000Y-6682000D02*
X11461000Y-6702000D01*
X11461000Y-6682000D02*
X11441000Y-6702000D01*
X11467000Y-8072000D02*
X11487000Y-8092000D01*
X11487000Y-8072000D02*
X11467000Y-8092000D01*
X11468000Y-8318275D02*
X11488000Y-8338275D01*
X11488000Y-8318275D02*
X11468000Y-8338275D01*
X11486000Y-9701000D02*
X11506000Y-9721000D01*
X11506000Y-9701000D02*
X11486000Y-9721000D01*
X11529000Y-8647000D02*
X11549000Y-8667000D01*
X11549000Y-8647000D02*
X11529000Y-8667000D01*
X11542000Y-9240000D02*
X11562000Y-9260000D01*
X11562000Y-9240000D02*
X11542000Y-9260000D01*
X11553000Y-8509000D02*
X11573000Y-8529000D01*
X11573000Y-8509000D02*
X11553000Y-8529000D01*
X11556000Y-7327000D02*
X11576000Y-7347000D01*
X11576000Y-7327000D02*
X11556000Y-7347000D01*
X11558372Y-7766000D02*
X11578372Y-7786000D01*
X11578372Y-7766000D02*
X11558372Y-7786000D01*
X11559000Y-7955000D02*
X11579000Y-7975000D01*
X11579000Y-7955000D02*
X11559000Y-7975000D01*
X11559000Y-8115000D02*
X11579000Y-8135000D01*
X11579000Y-8115000D02*
X11559000Y-8135000D01*
X11560000Y-6678000D02*
X11580000Y-6698000D01*
X11580000Y-6678000D02*
X11560000Y-6698000D01*
X11562000Y-8352000D02*
X11582000Y-8372000D01*
X11582000Y-8352000D02*
X11562000Y-8372000D01*
X11630000Y-8853000D02*
X11650000Y-8873000D01*
X11650000Y-8853000D02*
X11630000Y-8873000D01*
X11633000Y-8510000D02*
X11653000Y-8530000D01*
X11653000Y-8510000D02*
X11633000Y-8530000D01*
X11636000Y-8036000D02*
X11656000Y-8056000D01*
X11656000Y-8036000D02*
X11636000Y-8056000D01*
X11640000Y-8356000D02*
X11660000Y-8376000D01*
X11660000Y-8356000D02*
X11640000Y-8376000D01*
X11649000Y-7541000D02*
X11669000Y-7561000D01*
X11669000Y-7541000D02*
X11649000Y-7561000D01*
X11674000Y-6678000D02*
X11694000Y-6698000D01*
X11694000Y-6678000D02*
X11674000Y-6698000D01*
X11714000Y-8511000D02*
X11734000Y-8531000D01*
X11734000Y-8511000D02*
X11714000Y-8531000D01*
X11722000Y-8354000D02*
X11742000Y-8374000D01*
X11742000Y-8354000D02*
X11722000Y-8374000D01*
X11723000Y-8268000D02*
X11743000Y-8288000D01*
X11743000Y-8268000D02*
X11723000Y-8288000D01*
X11733000Y-9359000D02*
X11753000Y-9379000D01*
X11753000Y-9359000D02*
X11733000Y-9379000D01*
X11761000Y-7476000D02*
X11781000Y-7496000D01*
X11781000Y-7476000D02*
X11761000Y-7496000D01*
X11763000Y-6684000D02*
X11783000Y-6704000D01*
X11783000Y-6684000D02*
X11763000Y-6704000D01*
X11796000Y-8511000D02*
X11816000Y-8531000D01*
X11816000Y-8511000D02*
X11796000Y-8531000D01*
X11796000Y-9076000D02*
X11816000Y-9096000D01*
X11816000Y-9076000D02*
X11796000Y-9096000D01*
X11800000Y-8195000D02*
X11820000Y-8215000D01*
X11820000Y-8195000D02*
X11800000Y-8215000D01*
X11800000Y-8281000D02*
X11820000Y-8301000D01*
X11820000Y-8281000D02*
X11800000Y-8301000D01*
X11801000Y-8115000D02*
X11821000Y-8135000D01*
X11821000Y-8115000D02*
X11801000Y-8135000D01*
X11802000Y-8036000D02*
X11822000Y-8056000D01*
X11822000Y-8036000D02*
X11802000Y-8056000D01*
X11812000Y-7525000D02*
X11832000Y-7545000D01*
X11832000Y-7525000D02*
X11812000Y-7545000D01*
X11823000Y-9274000D02*
X11843000Y-9294000D01*
X11843000Y-9274000D02*
X11823000Y-9294000D01*
X11827000Y-9789000D02*
X11847000Y-9809000D01*
X11847000Y-9789000D02*
X11827000Y-9809000D01*
X11874000Y-7874000D02*
X11894000Y-7894000D01*
X11894000Y-7874000D02*
X11874000Y-7894000D01*
X11880000Y-8034000D02*
X11900000Y-8054000D01*
X11900000Y-8034000D02*
X11880000Y-8054000D01*
X11939000Y-9748000D02*
X11959000Y-9768000D01*
X11959000Y-9748000D02*
X11939000Y-9768000D01*
X11939000Y-9828000D02*
X11959000Y-9848000D01*
X11959000Y-9828000D02*
X11939000Y-9848000D01*
X11953000Y-8038000D02*
X11973000Y-8058000D01*
X11973000Y-8038000D02*
X11953000Y-8058000D01*
X11956000Y-7875000D02*
X11976000Y-7895000D01*
X11976000Y-7875000D02*
X11956000Y-7895000D01*
X11957000Y-8115000D02*
X11977000Y-8135000D01*
X11977000Y-8115000D02*
X11957000Y-8135000D01*
X11958000Y-8355000D02*
X11978000Y-8375000D01*
X11978000Y-8355000D02*
X11958000Y-8375000D01*
X11959000Y-8194000D02*
X11979000Y-8214000D01*
X11979000Y-8194000D02*
X11959000Y-8214000D01*
X11959000Y-8436000D02*
X11979000Y-8456000D01*
X11979000Y-8436000D02*
X11959000Y-8456000D01*
X11960000Y-8273000D02*
X11980000Y-8293000D01*
X11980000Y-8273000D02*
X11960000Y-8293000D01*
X11972000Y-7729000D02*
X11992000Y-7749000D01*
X11992000Y-7729000D02*
X11972000Y-7749000D01*
X12028000Y-9749000D02*
X12048000Y-9769000D01*
X12048000Y-9749000D02*
X12028000Y-9769000D01*
X12028000Y-9827000D02*
X12048000Y-9847000D01*
X12048000Y-9827000D02*
X12028000Y-9847000D01*
X12029000Y-9266000D02*
X12049000Y-9286000D01*
X12049000Y-9266000D02*
X12029000Y-9286000D01*
X12033000Y-8585000D02*
X12053000Y-8605000D01*
X12053000Y-8585000D02*
X12033000Y-8605000D01*
X12036000Y-6904000D02*
X12056000Y-6924000D01*
X12056000Y-6904000D02*
X12036000Y-6924000D01*
X12036000Y-8355000D02*
X12056000Y-8375000D01*
X12056000Y-8355000D02*
X12036000Y-8375000D01*
X12037000Y-8275000D02*
X12057000Y-8295000D01*
X12057000Y-8275000D02*
X12037000Y-8295000D01*
X12038000Y-8435000D02*
X12058000Y-8455000D01*
X12058000Y-8435000D02*
X12038000Y-8455000D01*
X12041000Y-7953000D02*
X12061000Y-7973000D01*
X12061000Y-7953000D02*
X12041000Y-7973000D01*
X12074000Y-9082000D02*
X12094000Y-9102000D01*
X12094000Y-9082000D02*
X12074000Y-9102000D01*
X12096000Y-8838000D02*
X12116000Y-8858000D01*
X12116000Y-8838000D02*
X12096000Y-8858000D01*
X12105000Y-9608000D02*
X12125000Y-9628000D01*
X12125000Y-9608000D02*
X12105000Y-9628000D01*
X12112000Y-8587000D02*
X12132000Y-8607000D01*
X12132000Y-8587000D02*
X12112000Y-8607000D01*
X12114000Y-7956000D02*
X12134000Y-7976000D01*
X12134000Y-7956000D02*
X12114000Y-7976000D01*
X12120000Y-8353000D02*
X12140000Y-8373000D01*
X12140000Y-8353000D02*
X12120000Y-8373000D01*
X12176000Y-9000000D02*
X12196000Y-9020000D01*
X12196000Y-9000000D02*
X12176000Y-9020000D01*
X12190000Y-8587000D02*
X12210000Y-8607000D01*
X12210000Y-8587000D02*
X12190000Y-8607000D01*
X12197000Y-8036000D02*
X12217000Y-8056000D01*
X12217000Y-8036000D02*
X12197000Y-8056000D01*
X12218000Y-6976000D02*
X12238000Y-6996000D01*
X12238000Y-6976000D02*
X12218000Y-6996000D01*
X12226000Y-9410000D02*
X12246000Y-9430000D01*
X12246000Y-9410000D02*
X12226000Y-9430000D01*
X12264000Y-7730000D02*
X12284000Y-7750000D01*
X12284000Y-7730000D02*
X12264000Y-7750000D01*
X12270000Y-8584000D02*
X12290000Y-8604000D01*
X12290000Y-8584000D02*
X12270000Y-8604000D01*
X12281000Y-7520000D02*
X12301000Y-7540000D01*
X12301000Y-7520000D02*
X12281000Y-7540000D01*
X12286000Y-8739000D02*
X12306000Y-8759000D01*
X12306000Y-8739000D02*
X12286000Y-8759000D01*
X12286000Y-8907000D02*
X12306000Y-8927000D01*
X12306000Y-8907000D02*
X12286000Y-8927000D01*
X12288000Y-8074000D02*
X12308000Y-8094000D01*
X12308000Y-8074000D02*
X12288000Y-8094000D01*
X12307000Y-8305000D02*
X12327000Y-8325000D01*
X12327000Y-8305000D02*
X12307000Y-8325000D01*
X12309000Y-8240000D02*
X12329000Y-8260000D01*
X12329000Y-8240000D02*
X12309000Y-8260000D01*
X12349000Y-6460000D02*
X12369000Y-6480000D01*
X12369000Y-6460000D02*
X12349000Y-6480000D01*
X12390000Y-7848000D02*
X12410000Y-7868000D01*
X12410000Y-7848000D02*
X12390000Y-7868000D01*
X12403000Y-7250000D02*
X12423000Y-7270000D01*
X12423000Y-7250000D02*
X12403000Y-7270000D01*
X12403500Y-7305000D02*
X12423500Y-7325000D01*
X12423500Y-7305000D02*
X12403500Y-7325000D01*
X12435000Y-8712000D02*
X12455000Y-8732000D01*
X12455000Y-8712000D02*
X12435000Y-8732000D01*
X12474000Y-9409000D02*
X12494000Y-9429000D01*
X12494000Y-9409000D02*
X12474000Y-9429000D01*
X12497500Y-7616500D02*
X12517500Y-7636500D01*
X12517500Y-7616500D02*
X12497500Y-7636500D01*
X12501000Y-8663000D02*
X12521000Y-8683000D01*
X12521000Y-8663000D02*
X12501000Y-8683000D01*
X12548000Y-8106000D02*
X12568000Y-8126000D01*
X12568000Y-8106000D02*
X12548000Y-8126000D01*
X12578000Y-6458000D02*
X12598000Y-6478000D01*
X12598000Y-6458000D02*
X12578000Y-6478000D01*
X12585000Y-7332000D02*
X12605000Y-7352000D01*
X12605000Y-7332000D02*
X12585000Y-7352000D01*
X12586000Y-7267000D02*
X12606000Y-7287000D01*
X12606000Y-7267000D02*
X12586000Y-7287000D01*
X12597000Y-8823000D02*
X12617000Y-8843000D01*
X12617000Y-8823000D02*
X12597000Y-8843000D01*
X12631000Y-9187000D02*
X12651000Y-9207000D01*
X12651000Y-9187000D02*
X12631000Y-9207000D01*
X12646000Y-9568000D02*
X12666000Y-9588000D01*
X12666000Y-9568000D02*
X12646000Y-9588000D01*
X12648000Y-7268000D02*
X12668000Y-7288000D01*
X12668000Y-7268000D02*
X12648000Y-7288000D01*
X12649000Y-7332000D02*
X12669000Y-7352000D01*
X12669000Y-7332000D02*
X12649000Y-7352000D01*
X12652000Y-9296000D02*
X12672000Y-9316000D01*
X12672000Y-9296000D02*
X12652000Y-9316000D01*
X12656000Y-8589000D02*
X12676000Y-8609000D01*
X12676000Y-8589000D02*
X12656000Y-8609000D01*
X12685000Y-9747000D02*
X12705000Y-9767000D01*
X12705000Y-9747000D02*
X12685000Y-9767000D01*
X12686000Y-9829000D02*
X12706000Y-9849000D01*
X12706000Y-9829000D02*
X12686000Y-9849000D01*
X12697000Y-7668000D02*
X12717000Y-7688000D01*
X12717000Y-7668000D02*
X12697000Y-7688000D01*
X12704000Y-8201000D02*
X12724000Y-8221000D01*
X12724000Y-8201000D02*
X12704000Y-8221000D01*
X12718000Y-7984000D02*
X12738000Y-8004000D01*
X12738000Y-7984000D02*
X12718000Y-8004000D01*
X12725000Y-8832000D02*
X12745000Y-8852000D01*
X12745000Y-8832000D02*
X12725000Y-8852000D01*
X12772000Y-9749000D02*
X12792000Y-9769000D01*
X12792000Y-9749000D02*
X12772000Y-9769000D01*
X12773000Y-9827000D02*
X12793000Y-9847000D01*
X12793000Y-9827000D02*
X12773000Y-9847000D01*
X12789000Y-8100000D02*
X12809000Y-8120000D01*
X12809000Y-8100000D02*
X12789000Y-8120000D01*
X12793000Y-7748000D02*
X12813000Y-7768000D01*
X12813000Y-7748000D02*
X12793000Y-7768000D01*
X12797000Y-8832000D02*
X12817000Y-8852000D01*
X12817000Y-8832000D02*
X12797000Y-8852000D01*
X12813000Y-6460000D02*
X12833000Y-6480000D01*
X12833000Y-6460000D02*
X12813000Y-6480000D01*
X12827000Y-7626000D02*
X12847000Y-7646000D01*
X12847000Y-7626000D02*
X12827000Y-7646000D01*
X12838000Y-7127000D02*
X12858000Y-7147000D01*
X12858000Y-7127000D02*
X12838000Y-7147000D01*
X12855000Y-7561000D02*
X12875000Y-7581000D01*
X12875000Y-7561000D02*
X12855000Y-7581000D01*
X12856000Y-8454000D02*
X12876000Y-8474000D01*
X12876000Y-8454000D02*
X12856000Y-8474000D01*
X12860000Y-9166000D02*
X12880000Y-9186000D01*
X12880000Y-9166000D02*
X12860000Y-9186000D01*
X12869000Y-8833000D02*
X12889000Y-8853000D01*
X12889000Y-8833000D02*
X12869000Y-8853000D01*
X12900000Y-8641000D02*
X12920000Y-8661000D01*
X12920000Y-8641000D02*
X12900000Y-8661000D01*
X12950000Y-6546000D02*
X12970000Y-6566000D01*
X12970000Y-6546000D02*
X12950000Y-6566000D01*
X12955000Y-7028000D02*
X12975000Y-7048000D01*
X12975000Y-7028000D02*
X12955000Y-7048000D01*
X12991000Y-8836000D02*
X13011000Y-8856000D01*
X13011000Y-8836000D02*
X12991000Y-8856000D01*
X12995000Y-9546000D02*
X13015000Y-9566000D01*
X13015000Y-9546000D02*
X12995000Y-9566000D01*
X13057000Y-6860000D02*
X13077000Y-6880000D01*
X13077000Y-6860000D02*
X13057000Y-6880000D01*
X13066000Y-8836000D02*
X13086000Y-8856000D01*
X13086000Y-8836000D02*
X13066000Y-8856000D01*
X13117000Y-8440000D02*
X13137000Y-8460000D01*
X13137000Y-8440000D02*
X13117000Y-8460000D01*
X13123000Y-9402000D02*
X13143000Y-9422000D01*
X13143000Y-9402000D02*
X13123000Y-9422000D01*
X13191000Y-8441000D02*
X13211000Y-8461000D01*
X13211000Y-8441000D02*
X13191000Y-8461000D01*
X13345000Y-8476000D02*
X13365000Y-8496000D01*
X13365000Y-8476000D02*
X13345000Y-8496000D01*
X13385000Y-7194000D02*
X13405000Y-7214000D01*
X13405000Y-7194000D02*
X13385000Y-7214000D01*
X13403000Y-6913000D02*
X13423000Y-6933000D01*
X13423000Y-6913000D02*
X13403000Y-6933000D01*
X13411000Y-9183000D02*
X13431000Y-9203000D01*
X13431000Y-9183000D02*
X13411000Y-9203000D01*
X13450000Y-8772000D02*
X13470000Y-8792000D01*
X13470000Y-8772000D02*
X13450000Y-8792000D01*
X13450000Y-8939000D02*
X13470000Y-8959000D01*
X13470000Y-8939000D02*
X13450000Y-8959000D01*
X13452000Y-8606000D02*
X13472000Y-8626000D01*
X13472000Y-8606000D02*
X13452000Y-8626000D01*
X13476000Y-7199000D02*
X13496000Y-7219000D01*
X13496000Y-7199000D02*
X13476000Y-7219000D01*
X13511000Y-7693000D02*
X13531000Y-7713000D01*
X13531000Y-7693000D02*
X13511000Y-7713000D01*
X13546000Y-7590000D02*
X13566000Y-7610000D01*
X13566000Y-7590000D02*
X13546000Y-7610000D01*
X13549000Y-7482000D02*
X13569000Y-7502000D01*
X13569000Y-7482000D02*
X13549000Y-7502000D01*
X13585000Y-7848667D02*
X13605000Y-7868667D01*
X13605000Y-7848667D02*
X13585000Y-7868667D01*
X13585000Y-7910333D02*
X13605000Y-7930333D01*
X13605000Y-7910333D02*
X13585000Y-7930333D01*
X13585000Y-7972000D02*
X13605000Y-7992000D01*
X13605000Y-7972000D02*
X13585000Y-7992000D01*
X13585000Y-8033667D02*
X13605000Y-8053667D01*
X13605000Y-8033667D02*
X13585000Y-8053667D01*
X13600000Y-8606000D02*
X13620000Y-8626000D01*
X13620000Y-8606000D02*
X13600000Y-8626000D01*
X13600000Y-8772000D02*
X13620000Y-8792000D01*
X13620000Y-8772000D02*
X13600000Y-8792000D01*
X13601000Y-8941000D02*
X13621000Y-8961000D01*
X13621000Y-8941000D02*
X13601000Y-8961000D01*
X10413500Y-7180325D02*
G75*
G03*
X10413500Y-7180325I-32500J0D01*
G01*
X10418500Y-7147825D02*
X10343500Y-7147825D01*
X10343500Y-7147825D02*
G75*
G03*
X10343500Y-7212825I0J-32500D01*
G01*
X10343500Y-7212825D02*
X10418500Y-7212825D01*
X10418500Y-7212825D02*
G75*
G03*
X10418500Y-7147825I0J32500D01*
G01*
X10413500Y-8045325D02*
G75*
G03*
X10413500Y-8045325I-32500J0D01*
G01*
X10418500Y-8012825D02*
X10343500Y-8012825D01*
X10343500Y-8012825D02*
G75*
G03*
X10343500Y-8077825I0J-32500D01*
G01*
X10343500Y-8077825D02*
X10418500Y-8077825D01*
X10418500Y-8077825D02*
G75*
G03*
X10418500Y-8012825I0J32500D01*
G01*
X10831500Y-7180325D02*
G75*
G03*
X10831500Y-7180325I-32500J0D01*
G01*
X10852516Y-7147825D02*
X10745484Y-7147825D01*
X10745484Y-7147825D02*
G75*
G03*
X10745484Y-7212825I0J-32500D01*
G01*
X10745484Y-7212825D02*
X10852516Y-7212825D01*
X10852516Y-7212825D02*
G75*
G03*
X10852516Y-7147825I0J32500D01*
G01*
X10834500Y-8045825D02*
G75*
G03*
X10834500Y-8045825I-32500J0D01*
G01*
X10839500Y-8013325D02*
X10764500Y-8013325D01*
X10764500Y-8013325D02*
G75*
G03*
X10764500Y-8078325I0J-32500D01*
G01*
X10764500Y-8078325D02*
X10839500Y-8078325D01*
X10839500Y-8078325D02*
G75*
G03*
X10839500Y-8013325I0J32500D01*
G01*
D12*
X10355000Y-6386000D02*
X10355000Y-6786000D01*
X10155000Y-6586000D02*
X10555000Y-6586000D01*
X10355000Y-9436000D02*
X10355000Y-9836000D01*
X10155000Y-9636000D02*
X10555000Y-9636000D01*
X13405000Y-6386000D02*
X13405000Y-6786000D01*
X13205000Y-6586000D02*
X13605000Y-6586000D01*
X13405000Y-9436000D02*
X13405000Y-9836000D01*
X13205000Y-9636000D02*
X13605000Y-9636000D01*
D10*
X10330645Y-10232352D02*
X10330645Y-10032352D01*
X10330645Y-10032352D02*
X10378264Y-10032352D01*
X10378264Y-10032352D02*
X10406835Y-10041876D01*
X10406835Y-10041876D02*
X10425883Y-10060923D01*
X10425883Y-10060923D02*
X10435407Y-10079971D01*
X10435407Y-10079971D02*
X10444931Y-10118066D01*
X10444931Y-10118066D02*
X10444931Y-10146638D01*
X10444931Y-10146638D02*
X10435407Y-10184733D01*
X10435407Y-10184733D02*
X10425883Y-10203780D01*
X10425883Y-10203780D02*
X10406835Y-10222828D01*
X10406835Y-10222828D02*
X10378264Y-10232352D01*
X10378264Y-10232352D02*
X10330645Y-10232352D01*
X10530645Y-10232352D02*
X10530645Y-10099018D01*
X10530645Y-10137114D02*
X10540169Y-10118066D01*
X10540169Y-10118066D02*
X10549692Y-10108542D01*
X10549692Y-10108542D02*
X10568740Y-10099018D01*
X10568740Y-10099018D02*
X10587788Y-10099018D01*
X10654454Y-10232352D02*
X10654454Y-10099018D01*
X10654454Y-10032352D02*
X10644931Y-10041876D01*
X10644931Y-10041876D02*
X10654454Y-10051399D01*
X10654454Y-10051399D02*
X10663978Y-10041876D01*
X10663978Y-10041876D02*
X10654454Y-10032352D01*
X10654454Y-10032352D02*
X10654454Y-10051399D01*
X10778264Y-10232352D02*
X10759216Y-10222828D01*
X10759216Y-10222828D02*
X10749692Y-10203780D01*
X10749692Y-10203780D02*
X10749692Y-10032352D01*
X10883026Y-10232352D02*
X10863978Y-10222828D01*
X10863978Y-10222828D02*
X10854454Y-10203780D01*
X10854454Y-10203780D02*
X10854454Y-10032352D01*
X11111597Y-10232352D02*
X11111597Y-10032352D01*
X11111597Y-10032352D02*
X11178264Y-10175209D01*
X11178264Y-10175209D02*
X11244930Y-10032352D01*
X11244930Y-10032352D02*
X11244930Y-10232352D01*
X11425883Y-10232352D02*
X11425883Y-10127590D01*
X11425883Y-10127590D02*
X11416359Y-10108542D01*
X11416359Y-10108542D02*
X11397311Y-10099018D01*
X11397311Y-10099018D02*
X11359216Y-10099018D01*
X11359216Y-10099018D02*
X11340169Y-10108542D01*
X11425883Y-10222828D02*
X11406835Y-10232352D01*
X11406835Y-10232352D02*
X11359216Y-10232352D01*
X11359216Y-10232352D02*
X11340169Y-10222828D01*
X11340169Y-10222828D02*
X11330645Y-10203780D01*
X11330645Y-10203780D02*
X11330645Y-10184733D01*
X11330645Y-10184733D02*
X11340169Y-10165685D01*
X11340169Y-10165685D02*
X11359216Y-10156161D01*
X11359216Y-10156161D02*
X11406835Y-10156161D01*
X11406835Y-10156161D02*
X11425883Y-10146638D01*
X11521121Y-10099018D02*
X11521121Y-10299018D01*
X11521121Y-10108542D02*
X11540169Y-10099018D01*
X11540169Y-10099018D02*
X11578264Y-10099018D01*
X11578264Y-10099018D02*
X11597311Y-10108542D01*
X11597311Y-10108542D02*
X11606835Y-10118066D01*
X11606835Y-10118066D02*
X11616359Y-10137114D01*
X11616359Y-10137114D02*
X11616359Y-10194257D01*
X11616359Y-10194257D02*
X11606835Y-10213304D01*
X11606835Y-10213304D02*
X11597311Y-10222828D01*
X11597311Y-10222828D02*
X11578264Y-10232352D01*
X11578264Y-10232352D02*
X11540169Y-10232352D01*
X11540169Y-10232352D02*
X11521121Y-10222828D01*
X11702073Y-10213304D02*
X11711597Y-10222828D01*
X11711597Y-10222828D02*
X11702073Y-10232352D01*
X11702073Y-10232352D02*
X11692550Y-10222828D01*
X11692550Y-10222828D02*
X11702073Y-10213304D01*
X11702073Y-10213304D02*
X11702073Y-10232352D01*
X11702073Y-10108542D02*
X11711597Y-10118066D01*
X11711597Y-10118066D02*
X11702073Y-10127590D01*
X11702073Y-10127590D02*
X11692550Y-10118066D01*
X11692550Y-10118066D02*
X11702073Y-10108542D01*
X11702073Y-10108542D02*
X11702073Y-10127590D01*
D11*
X10049868Y-10550868D02*
X10069868Y-10570868D01*
X10069868Y-10550868D02*
X10049868Y-10570868D01*
D10*
X10368740Y-10452352D02*
X10387788Y-10452352D01*
X10387788Y-10452352D02*
X10406835Y-10461876D01*
X10406835Y-10461876D02*
X10416359Y-10471399D01*
X10416359Y-10471399D02*
X10425883Y-10490447D01*
X10425883Y-10490447D02*
X10435407Y-10528542D01*
X10435407Y-10528542D02*
X10435407Y-10576161D01*
X10435407Y-10576161D02*
X10425883Y-10614257D01*
X10425883Y-10614257D02*
X10416359Y-10633304D01*
X10416359Y-10633304D02*
X10406835Y-10642828D01*
X10406835Y-10642828D02*
X10387788Y-10652352D01*
X10387788Y-10652352D02*
X10368740Y-10652352D01*
X10368740Y-10652352D02*
X10349692Y-10642828D01*
X10349692Y-10642828D02*
X10340169Y-10633304D01*
X10340169Y-10633304D02*
X10330645Y-10614257D01*
X10330645Y-10614257D02*
X10321121Y-10576161D01*
X10321121Y-10576161D02*
X10321121Y-10528542D01*
X10321121Y-10528542D02*
X10330645Y-10490447D01*
X10330645Y-10490447D02*
X10340169Y-10471399D01*
X10340169Y-10471399D02*
X10349692Y-10461876D01*
X10349692Y-10461876D02*
X10368740Y-10452352D01*
X10521121Y-10633304D02*
X10530645Y-10642828D01*
X10530645Y-10642828D02*
X10521121Y-10652352D01*
X10521121Y-10652352D02*
X10511597Y-10642828D01*
X10511597Y-10642828D02*
X10521121Y-10633304D01*
X10521121Y-10633304D02*
X10521121Y-10652352D01*
X10606835Y-10471399D02*
X10616359Y-10461876D01*
X10616359Y-10461876D02*
X10635407Y-10452352D01*
X10635407Y-10452352D02*
X10683026Y-10452352D01*
X10683026Y-10452352D02*
X10702073Y-10461876D01*
X10702073Y-10461876D02*
X10711597Y-10471399D01*
X10711597Y-10471399D02*
X10721121Y-10490447D01*
X10721121Y-10490447D02*
X10721121Y-10509495D01*
X10721121Y-10509495D02*
X10711597Y-10538066D01*
X10711597Y-10538066D02*
X10597312Y-10652352D01*
X10597312Y-10652352D02*
X10721121Y-10652352D01*
X10844931Y-10452352D02*
X10863978Y-10452352D01*
X10863978Y-10452352D02*
X10883026Y-10461876D01*
X10883026Y-10461876D02*
X10892550Y-10471399D01*
X10892550Y-10471399D02*
X10902073Y-10490447D01*
X10902073Y-10490447D02*
X10911597Y-10528542D01*
X10911597Y-10528542D02*
X10911597Y-10576161D01*
X10911597Y-10576161D02*
X10902073Y-10614257D01*
X10902073Y-10614257D02*
X10892550Y-10633304D01*
X10892550Y-10633304D02*
X10883026Y-10642828D01*
X10883026Y-10642828D02*
X10863978Y-10652352D01*
X10863978Y-10652352D02*
X10844931Y-10652352D01*
X10844931Y-10652352D02*
X10825883Y-10642828D01*
X10825883Y-10642828D02*
X10816359Y-10633304D01*
X10816359Y-10633304D02*
X10806835Y-10614257D01*
X10806835Y-10614257D02*
X10797312Y-10576161D01*
X10797312Y-10576161D02*
X10797312Y-10528542D01*
X10797312Y-10528542D02*
X10806835Y-10490447D01*
X10806835Y-10490447D02*
X10816359Y-10471399D01*
X10816359Y-10471399D02*
X10825883Y-10461876D01*
X10825883Y-10461876D02*
X10844931Y-10452352D01*
X11035407Y-10452352D02*
X11054454Y-10452352D01*
X11054454Y-10452352D02*
X11073502Y-10461876D01*
X11073502Y-10461876D02*
X11083026Y-10471399D01*
X11083026Y-10471399D02*
X11092550Y-10490447D01*
X11092550Y-10490447D02*
X11102073Y-10528542D01*
X11102073Y-10528542D02*
X11102073Y-10576161D01*
X11102073Y-10576161D02*
X11092550Y-10614257D01*
X11092550Y-10614257D02*
X11083026Y-10633304D01*
X11083026Y-10633304D02*
X11073502Y-10642828D01*
X11073502Y-10642828D02*
X11054454Y-10652352D01*
X11054454Y-10652352D02*
X11035407Y-10652352D01*
X11035407Y-10652352D02*
X11016359Y-10642828D01*
X11016359Y-10642828D02*
X11006835Y-10633304D01*
X11006835Y-10633304D02*
X10997312Y-10614257D01*
X10997312Y-10614257D02*
X10987788Y-10576161D01*
X10987788Y-10576161D02*
X10987788Y-10528542D01*
X10987788Y-10528542D02*
X10997312Y-10490447D01*
X10997312Y-10490447D02*
X11006835Y-10471399D01*
X11006835Y-10471399D02*
X11016359Y-10461876D01*
X11016359Y-10461876D02*
X11035407Y-10452352D01*
X11187788Y-10652352D02*
X11187788Y-10519018D01*
X11187788Y-10538066D02*
X11197311Y-10528542D01*
X11197311Y-10528542D02*
X11216359Y-10519018D01*
X11216359Y-10519018D02*
X11244931Y-10519018D01*
X11244931Y-10519018D02*
X11263978Y-10528542D01*
X11263978Y-10528542D02*
X11273502Y-10547590D01*
X11273502Y-10547590D02*
X11273502Y-10652352D01*
X11273502Y-10547590D02*
X11283026Y-10528542D01*
X11283026Y-10528542D02*
X11302073Y-10519018D01*
X11302073Y-10519018D02*
X11330645Y-10519018D01*
X11330645Y-10519018D02*
X11349692Y-10528542D01*
X11349692Y-10528542D02*
X11359216Y-10547590D01*
X11359216Y-10547590D02*
X11359216Y-10652352D01*
X11454454Y-10652352D02*
X11454454Y-10519018D01*
X11454454Y-10538066D02*
X11463978Y-10528542D01*
X11463978Y-10528542D02*
X11483026Y-10519018D01*
X11483026Y-10519018D02*
X11511597Y-10519018D01*
X11511597Y-10519018D02*
X11530645Y-10528542D01*
X11530645Y-10528542D02*
X11540169Y-10547590D01*
X11540169Y-10547590D02*
X11540169Y-10652352D01*
X11540169Y-10547590D02*
X11549692Y-10528542D01*
X11549692Y-10528542D02*
X11568740Y-10519018D01*
X11568740Y-10519018D02*
X11597311Y-10519018D01*
X11597311Y-10519018D02*
X11616359Y-10528542D01*
X11616359Y-10528542D02*
X11625883Y-10547590D01*
X11625883Y-10547590D02*
X11625883Y-10652352D01*
X12016359Y-10442828D02*
X11844931Y-10699971D01*
X12273502Y-10452352D02*
X12292550Y-10452352D01*
X12292550Y-10452352D02*
X12311597Y-10461876D01*
X12311597Y-10461876D02*
X12321121Y-10471399D01*
X12321121Y-10471399D02*
X12330645Y-10490447D01*
X12330645Y-10490447D02*
X12340169Y-10528542D01*
X12340169Y-10528542D02*
X12340169Y-10576161D01*
X12340169Y-10576161D02*
X12330645Y-10614257D01*
X12330645Y-10614257D02*
X12321121Y-10633304D01*
X12321121Y-10633304D02*
X12311597Y-10642828D01*
X12311597Y-10642828D02*
X12292550Y-10652352D01*
X12292550Y-10652352D02*
X12273502Y-10652352D01*
X12273502Y-10652352D02*
X12254454Y-10642828D01*
X12254454Y-10642828D02*
X12244931Y-10633304D01*
X12244931Y-10633304D02*
X12235407Y-10614257D01*
X12235407Y-10614257D02*
X12225883Y-10576161D01*
X12225883Y-10576161D02*
X12225883Y-10528542D01*
X12225883Y-10528542D02*
X12235407Y-10490447D01*
X12235407Y-10490447D02*
X12244931Y-10471399D01*
X12244931Y-10471399D02*
X12254454Y-10461876D01*
X12254454Y-10461876D02*
X12273502Y-10452352D01*
X12425883Y-10633304D02*
X12435407Y-10642828D01*
X12435407Y-10642828D02*
X12425883Y-10652352D01*
X12425883Y-10652352D02*
X12416359Y-10642828D01*
X12416359Y-10642828D02*
X12425883Y-10633304D01*
X12425883Y-10633304D02*
X12425883Y-10652352D01*
X12559216Y-10452352D02*
X12578264Y-10452352D01*
X12578264Y-10452352D02*
X12597312Y-10461876D01*
X12597312Y-10461876D02*
X12606835Y-10471399D01*
X12606835Y-10471399D02*
X12616359Y-10490447D01*
X12616359Y-10490447D02*
X12625883Y-10528542D01*
X12625883Y-10528542D02*
X12625883Y-10576161D01*
X12625883Y-10576161D02*
X12616359Y-10614257D01*
X12616359Y-10614257D02*
X12606835Y-10633304D01*
X12606835Y-10633304D02*
X12597312Y-10642828D01*
X12597312Y-10642828D02*
X12578264Y-10652352D01*
X12578264Y-10652352D02*
X12559216Y-10652352D01*
X12559216Y-10652352D02*
X12540169Y-10642828D01*
X12540169Y-10642828D02*
X12530645Y-10633304D01*
X12530645Y-10633304D02*
X12521121Y-10614257D01*
X12521121Y-10614257D02*
X12511597Y-10576161D01*
X12511597Y-10576161D02*
X12511597Y-10528542D01*
X12511597Y-10528542D02*
X12521121Y-10490447D01*
X12521121Y-10490447D02*
X12530645Y-10471399D01*
X12530645Y-10471399D02*
X12540169Y-10461876D01*
X12540169Y-10461876D02*
X12559216Y-10452352D01*
X12749693Y-10452352D02*
X12768740Y-10452352D01*
X12768740Y-10452352D02*
X12787788Y-10461876D01*
X12787788Y-10461876D02*
X12797312Y-10471399D01*
X12797312Y-10471399D02*
X12806835Y-10490447D01*
X12806835Y-10490447D02*
X12816359Y-10528542D01*
X12816359Y-10528542D02*
X12816359Y-10576161D01*
X12816359Y-10576161D02*
X12806835Y-10614257D01*
X12806835Y-10614257D02*
X12797312Y-10633304D01*
X12797312Y-10633304D02*
X12787788Y-10642828D01*
X12787788Y-10642828D02*
X12768740Y-10652352D01*
X12768740Y-10652352D02*
X12749693Y-10652352D01*
X12749693Y-10652352D02*
X12730645Y-10642828D01*
X12730645Y-10642828D02*
X12721121Y-10633304D01*
X12721121Y-10633304D02*
X12711597Y-10614257D01*
X12711597Y-10614257D02*
X12702074Y-10576161D01*
X12702074Y-10576161D02*
X12702074Y-10528542D01*
X12702074Y-10528542D02*
X12711597Y-10490447D01*
X12711597Y-10490447D02*
X12721121Y-10471399D01*
X12721121Y-10471399D02*
X12730645Y-10461876D01*
X12730645Y-10461876D02*
X12749693Y-10452352D01*
X12883026Y-10452352D02*
X13016359Y-10452352D01*
X13016359Y-10452352D02*
X12930645Y-10652352D01*
X13102074Y-10652352D02*
X13140169Y-10652352D01*
X13140169Y-10652352D02*
X13159216Y-10642828D01*
X13159216Y-10642828D02*
X13168740Y-10633304D01*
X13168740Y-10633304D02*
X13187788Y-10604733D01*
X13187788Y-10604733D02*
X13197312Y-10566638D01*
X13197312Y-10566638D02*
X13197312Y-10490447D01*
X13197312Y-10490447D02*
X13187788Y-10471399D01*
X13187788Y-10471399D02*
X13178264Y-10461876D01*
X13178264Y-10461876D02*
X13159216Y-10452352D01*
X13159216Y-10452352D02*
X13121121Y-10452352D01*
X13121121Y-10452352D02*
X13102074Y-10461876D01*
X13102074Y-10461876D02*
X13092550Y-10471399D01*
X13092550Y-10471399D02*
X13083026Y-10490447D01*
X13083026Y-10490447D02*
X13083026Y-10538066D01*
X13083026Y-10538066D02*
X13092550Y-10557114D01*
X13092550Y-10557114D02*
X13102074Y-10566638D01*
X13102074Y-10566638D02*
X13121121Y-10576161D01*
X13121121Y-10576161D02*
X13159216Y-10576161D01*
X13159216Y-10576161D02*
X13178264Y-10566638D01*
X13178264Y-10566638D02*
X13187788Y-10557114D01*
X13187788Y-10557114D02*
X13197312Y-10538066D01*
X13273502Y-10452352D02*
X13273502Y-10490447D01*
X13349693Y-10452352D02*
X13349693Y-10490447D01*
X13644931Y-10728542D02*
X13635407Y-10719018D01*
X13635407Y-10719018D02*
X13616359Y-10690447D01*
X13616359Y-10690447D02*
X13606836Y-10671399D01*
X13606836Y-10671399D02*
X13597312Y-10642828D01*
X13597312Y-10642828D02*
X13587788Y-10595209D01*
X13587788Y-10595209D02*
X13587788Y-10557114D01*
X13587788Y-10557114D02*
X13597312Y-10509495D01*
X13597312Y-10509495D02*
X13606836Y-10480923D01*
X13606836Y-10480923D02*
X13616359Y-10461876D01*
X13616359Y-10461876D02*
X13635407Y-10433304D01*
X13635407Y-10433304D02*
X13644931Y-10423780D01*
X13825883Y-10652352D02*
X13711597Y-10652352D01*
X13768740Y-10652352D02*
X13768740Y-10452352D01*
X13768740Y-10452352D02*
X13749693Y-10480923D01*
X13749693Y-10480923D02*
X13730645Y-10499971D01*
X13730645Y-10499971D02*
X13711597Y-10509495D01*
X13921121Y-10652352D02*
X13959216Y-10652352D01*
X13959216Y-10652352D02*
X13978264Y-10642828D01*
X13978264Y-10642828D02*
X13987788Y-10633304D01*
X13987788Y-10633304D02*
X14006836Y-10604733D01*
X14006836Y-10604733D02*
X14016359Y-10566638D01*
X14016359Y-10566638D02*
X14016359Y-10490447D01*
X14016359Y-10490447D02*
X14006836Y-10471399D01*
X14006836Y-10471399D02*
X13997312Y-10461876D01*
X13997312Y-10461876D02*
X13978264Y-10452352D01*
X13978264Y-10452352D02*
X13940169Y-10452352D01*
X13940169Y-10452352D02*
X13921121Y-10461876D01*
X13921121Y-10461876D02*
X13911597Y-10471399D01*
X13911597Y-10471399D02*
X13902074Y-10490447D01*
X13902074Y-10490447D02*
X13902074Y-10538066D01*
X13902074Y-10538066D02*
X13911597Y-10557114D01*
X13911597Y-10557114D02*
X13921121Y-10566638D01*
X13921121Y-10566638D02*
X13940169Y-10576161D01*
X13940169Y-10576161D02*
X13978264Y-10576161D01*
X13978264Y-10576161D02*
X13997312Y-10566638D01*
X13997312Y-10566638D02*
X14006836Y-10557114D01*
X14006836Y-10557114D02*
X14016359Y-10538066D01*
X14111597Y-10652352D02*
X14149693Y-10652352D01*
X14149693Y-10652352D02*
X14168740Y-10642828D01*
X14168740Y-10642828D02*
X14178264Y-10633304D01*
X14178264Y-10633304D02*
X14197312Y-10604733D01*
X14197312Y-10604733D02*
X14206836Y-10566638D01*
X14206836Y-10566638D02*
X14206836Y-10490447D01*
X14206836Y-10490447D02*
X14197312Y-10471399D01*
X14197312Y-10471399D02*
X14187788Y-10461876D01*
X14187788Y-10461876D02*
X14168740Y-10452352D01*
X14168740Y-10452352D02*
X14130645Y-10452352D01*
X14130645Y-10452352D02*
X14111597Y-10461876D01*
X14111597Y-10461876D02*
X14102074Y-10471399D01*
X14102074Y-10471399D02*
X14092550Y-10490447D01*
X14092550Y-10490447D02*
X14092550Y-10538066D01*
X14092550Y-10538066D02*
X14102074Y-10557114D01*
X14102074Y-10557114D02*
X14111597Y-10566638D01*
X14111597Y-10566638D02*
X14130645Y-10576161D01*
X14130645Y-10576161D02*
X14168740Y-10576161D01*
X14168740Y-10576161D02*
X14187788Y-10566638D01*
X14187788Y-10566638D02*
X14197312Y-10557114D01*
X14197312Y-10557114D02*
X14206836Y-10538066D01*
X14444931Y-10652352D02*
X14444931Y-10452352D01*
X14530645Y-10652352D02*
X14530645Y-10547590D01*
X14530645Y-10547590D02*
X14521121Y-10528542D01*
X14521121Y-10528542D02*
X14502074Y-10519018D01*
X14502074Y-10519018D02*
X14473502Y-10519018D01*
X14473502Y-10519018D02*
X14454455Y-10528542D01*
X14454455Y-10528542D02*
X14444931Y-10538066D01*
X14654455Y-10652352D02*
X14635407Y-10642828D01*
X14635407Y-10642828D02*
X14625883Y-10633304D01*
X14625883Y-10633304D02*
X14616359Y-10614257D01*
X14616359Y-10614257D02*
X14616359Y-10557114D01*
X14616359Y-10557114D02*
X14625883Y-10538066D01*
X14625883Y-10538066D02*
X14635407Y-10528542D01*
X14635407Y-10528542D02*
X14654455Y-10519018D01*
X14654455Y-10519018D02*
X14683026Y-10519018D01*
X14683026Y-10519018D02*
X14702074Y-10528542D01*
X14702074Y-10528542D02*
X14711598Y-10538066D01*
X14711598Y-10538066D02*
X14721121Y-10557114D01*
X14721121Y-10557114D02*
X14721121Y-10614257D01*
X14721121Y-10614257D02*
X14711598Y-10633304D01*
X14711598Y-10633304D02*
X14702074Y-10642828D01*
X14702074Y-10642828D02*
X14683026Y-10652352D01*
X14683026Y-10652352D02*
X14654455Y-10652352D01*
X14835407Y-10652352D02*
X14816359Y-10642828D01*
X14816359Y-10642828D02*
X14806836Y-10623780D01*
X14806836Y-10623780D02*
X14806836Y-10452352D01*
X14987788Y-10642828D02*
X14968740Y-10652352D01*
X14968740Y-10652352D02*
X14930645Y-10652352D01*
X14930645Y-10652352D02*
X14911598Y-10642828D01*
X14911598Y-10642828D02*
X14902074Y-10623780D01*
X14902074Y-10623780D02*
X14902074Y-10547590D01*
X14902074Y-10547590D02*
X14911598Y-10528542D01*
X14911598Y-10528542D02*
X14930645Y-10519018D01*
X14930645Y-10519018D02*
X14968740Y-10519018D01*
X14968740Y-10519018D02*
X14987788Y-10528542D01*
X14987788Y-10528542D02*
X14997312Y-10547590D01*
X14997312Y-10547590D02*
X14997312Y-10566638D01*
X14997312Y-10566638D02*
X14902074Y-10585685D01*
X15073502Y-10642828D02*
X15092550Y-10652352D01*
X15092550Y-10652352D02*
X15130645Y-10652352D01*
X15130645Y-10652352D02*
X15149693Y-10642828D01*
X15149693Y-10642828D02*
X15159217Y-10623780D01*
X15159217Y-10623780D02*
X15159217Y-10614257D01*
X15159217Y-10614257D02*
X15149693Y-10595209D01*
X15149693Y-10595209D02*
X15130645Y-10585685D01*
X15130645Y-10585685D02*
X15102074Y-10585685D01*
X15102074Y-10585685D02*
X15083026Y-10576161D01*
X15083026Y-10576161D02*
X15073502Y-10557114D01*
X15073502Y-10557114D02*
X15073502Y-10547590D01*
X15073502Y-10547590D02*
X15083026Y-10528542D01*
X15083026Y-10528542D02*
X15102074Y-10519018D01*
X15102074Y-10519018D02*
X15130645Y-10519018D01*
X15130645Y-10519018D02*
X15149693Y-10528542D01*
X15225883Y-10728542D02*
X15235407Y-10719018D01*
X15235407Y-10719018D02*
X15254455Y-10690447D01*
X15254455Y-10690447D02*
X15263979Y-10671399D01*
X15263979Y-10671399D02*
X15273502Y-10642828D01*
X15273502Y-10642828D02*
X15283026Y-10595209D01*
X15283026Y-10595209D02*
X15283026Y-10557114D01*
X15283026Y-10557114D02*
X15273502Y-10509495D01*
X15273502Y-10509495D02*
X15263979Y-10480923D01*
X15263979Y-10480923D02*
X15254455Y-10461876D01*
X15254455Y-10461876D02*
X15235407Y-10433304D01*
X15235407Y-10433304D02*
X15225883Y-10423780D01*
D11*
X10069868Y-10824868D02*
G75*
G03*
X10069868Y-10824868I-32500J0D01*
G01*
D10*
X10368740Y-10716352D02*
X10387788Y-10716352D01*
X10387788Y-10716352D02*
X10406835Y-10725876D01*
X10406835Y-10725876D02*
X10416359Y-10735399D01*
X10416359Y-10735399D02*
X10425883Y-10754447D01*
X10425883Y-10754447D02*
X10435407Y-10792542D01*
X10435407Y-10792542D02*
X10435407Y-10840161D01*
X10435407Y-10840161D02*
X10425883Y-10878257D01*
X10425883Y-10878257D02*
X10416359Y-10897304D01*
X10416359Y-10897304D02*
X10406835Y-10906828D01*
X10406835Y-10906828D02*
X10387788Y-10916352D01*
X10387788Y-10916352D02*
X10368740Y-10916352D01*
X10368740Y-10916352D02*
X10349692Y-10906828D01*
X10349692Y-10906828D02*
X10340169Y-10897304D01*
X10340169Y-10897304D02*
X10330645Y-10878257D01*
X10330645Y-10878257D02*
X10321121Y-10840161D01*
X10321121Y-10840161D02*
X10321121Y-10792542D01*
X10321121Y-10792542D02*
X10330645Y-10754447D01*
X10330645Y-10754447D02*
X10340169Y-10735399D01*
X10340169Y-10735399D02*
X10349692Y-10725876D01*
X10349692Y-10725876D02*
X10368740Y-10716352D01*
X10521121Y-10897304D02*
X10530645Y-10906828D01*
X10530645Y-10906828D02*
X10521121Y-10916352D01*
X10521121Y-10916352D02*
X10511597Y-10906828D01*
X10511597Y-10906828D02*
X10521121Y-10897304D01*
X10521121Y-10897304D02*
X10521121Y-10916352D01*
X10702073Y-10716352D02*
X10663978Y-10716352D01*
X10663978Y-10716352D02*
X10644931Y-10725876D01*
X10644931Y-10725876D02*
X10635407Y-10735399D01*
X10635407Y-10735399D02*
X10616359Y-10763971D01*
X10616359Y-10763971D02*
X10606835Y-10802066D01*
X10606835Y-10802066D02*
X10606835Y-10878257D01*
X10606835Y-10878257D02*
X10616359Y-10897304D01*
X10616359Y-10897304D02*
X10625883Y-10906828D01*
X10625883Y-10906828D02*
X10644931Y-10916352D01*
X10644931Y-10916352D02*
X10683026Y-10916352D01*
X10683026Y-10916352D02*
X10702073Y-10906828D01*
X10702073Y-10906828D02*
X10711597Y-10897304D01*
X10711597Y-10897304D02*
X10721121Y-10878257D01*
X10721121Y-10878257D02*
X10721121Y-10830638D01*
X10721121Y-10830638D02*
X10711597Y-10811590D01*
X10711597Y-10811590D02*
X10702073Y-10802066D01*
X10702073Y-10802066D02*
X10683026Y-10792542D01*
X10683026Y-10792542D02*
X10644931Y-10792542D01*
X10644931Y-10792542D02*
X10625883Y-10802066D01*
X10625883Y-10802066D02*
X10616359Y-10811590D01*
X10616359Y-10811590D02*
X10606835Y-10830638D01*
X10902073Y-10716352D02*
X10806835Y-10716352D01*
X10806835Y-10716352D02*
X10797312Y-10811590D01*
X10797312Y-10811590D02*
X10806835Y-10802066D01*
X10806835Y-10802066D02*
X10825883Y-10792542D01*
X10825883Y-10792542D02*
X10873502Y-10792542D01*
X10873502Y-10792542D02*
X10892550Y-10802066D01*
X10892550Y-10802066D02*
X10902073Y-10811590D01*
X10902073Y-10811590D02*
X10911597Y-10830638D01*
X10911597Y-10830638D02*
X10911597Y-10878257D01*
X10911597Y-10878257D02*
X10902073Y-10897304D01*
X10902073Y-10897304D02*
X10892550Y-10906828D01*
X10892550Y-10906828D02*
X10873502Y-10916352D01*
X10873502Y-10916352D02*
X10825883Y-10916352D01*
X10825883Y-10916352D02*
X10806835Y-10906828D01*
X10806835Y-10906828D02*
X10797312Y-10897304D01*
X11035407Y-10716352D02*
X11054454Y-10716352D01*
X11054454Y-10716352D02*
X11073502Y-10725876D01*
X11073502Y-10725876D02*
X11083026Y-10735399D01*
X11083026Y-10735399D02*
X11092550Y-10754447D01*
X11092550Y-10754447D02*
X11102073Y-10792542D01*
X11102073Y-10792542D02*
X11102073Y-10840161D01*
X11102073Y-10840161D02*
X11092550Y-10878257D01*
X11092550Y-10878257D02*
X11083026Y-10897304D01*
X11083026Y-10897304D02*
X11073502Y-10906828D01*
X11073502Y-10906828D02*
X11054454Y-10916352D01*
X11054454Y-10916352D02*
X11035407Y-10916352D01*
X11035407Y-10916352D02*
X11016359Y-10906828D01*
X11016359Y-10906828D02*
X11006835Y-10897304D01*
X11006835Y-10897304D02*
X10997312Y-10878257D01*
X10997312Y-10878257D02*
X10987788Y-10840161D01*
X10987788Y-10840161D02*
X10987788Y-10792542D01*
X10987788Y-10792542D02*
X10997312Y-10754447D01*
X10997312Y-10754447D02*
X11006835Y-10735399D01*
X11006835Y-10735399D02*
X11016359Y-10725876D01*
X11016359Y-10725876D02*
X11035407Y-10716352D01*
X11187788Y-10916352D02*
X11187788Y-10783018D01*
X11187788Y-10802066D02*
X11197311Y-10792542D01*
X11197311Y-10792542D02*
X11216359Y-10783018D01*
X11216359Y-10783018D02*
X11244931Y-10783018D01*
X11244931Y-10783018D02*
X11263978Y-10792542D01*
X11263978Y-10792542D02*
X11273502Y-10811590D01*
X11273502Y-10811590D02*
X11273502Y-10916352D01*
X11273502Y-10811590D02*
X11283026Y-10792542D01*
X11283026Y-10792542D02*
X11302073Y-10783018D01*
X11302073Y-10783018D02*
X11330645Y-10783018D01*
X11330645Y-10783018D02*
X11349692Y-10792542D01*
X11349692Y-10792542D02*
X11359216Y-10811590D01*
X11359216Y-10811590D02*
X11359216Y-10916352D01*
X11454454Y-10916352D02*
X11454454Y-10783018D01*
X11454454Y-10802066D02*
X11463978Y-10792542D01*
X11463978Y-10792542D02*
X11483026Y-10783018D01*
X11483026Y-10783018D02*
X11511597Y-10783018D01*
X11511597Y-10783018D02*
X11530645Y-10792542D01*
X11530645Y-10792542D02*
X11540169Y-10811590D01*
X11540169Y-10811590D02*
X11540169Y-10916352D01*
X11540169Y-10811590D02*
X11549692Y-10792542D01*
X11549692Y-10792542D02*
X11568740Y-10783018D01*
X11568740Y-10783018D02*
X11597311Y-10783018D01*
X11597311Y-10783018D02*
X11616359Y-10792542D01*
X11616359Y-10792542D02*
X11625883Y-10811590D01*
X11625883Y-10811590D02*
X11625883Y-10916352D01*
X12016359Y-10706828D02*
X11844931Y-10963971D01*
X12273502Y-10716352D02*
X12292550Y-10716352D01*
X12292550Y-10716352D02*
X12311597Y-10725876D01*
X12311597Y-10725876D02*
X12321121Y-10735399D01*
X12321121Y-10735399D02*
X12330645Y-10754447D01*
X12330645Y-10754447D02*
X12340169Y-10792542D01*
X12340169Y-10792542D02*
X12340169Y-10840161D01*
X12340169Y-10840161D02*
X12330645Y-10878257D01*
X12330645Y-10878257D02*
X12321121Y-10897304D01*
X12321121Y-10897304D02*
X12311597Y-10906828D01*
X12311597Y-10906828D02*
X12292550Y-10916352D01*
X12292550Y-10916352D02*
X12273502Y-10916352D01*
X12273502Y-10916352D02*
X12254454Y-10906828D01*
X12254454Y-10906828D02*
X12244931Y-10897304D01*
X12244931Y-10897304D02*
X12235407Y-10878257D01*
X12235407Y-10878257D02*
X12225883Y-10840161D01*
X12225883Y-10840161D02*
X12225883Y-10792542D01*
X12225883Y-10792542D02*
X12235407Y-10754447D01*
X12235407Y-10754447D02*
X12244931Y-10735399D01*
X12244931Y-10735399D02*
X12254454Y-10725876D01*
X12254454Y-10725876D02*
X12273502Y-10716352D01*
X12425883Y-10897304D02*
X12435407Y-10906828D01*
X12435407Y-10906828D02*
X12425883Y-10916352D01*
X12425883Y-10916352D02*
X12416359Y-10906828D01*
X12416359Y-10906828D02*
X12425883Y-10897304D01*
X12425883Y-10897304D02*
X12425883Y-10916352D01*
X12559216Y-10716352D02*
X12578264Y-10716352D01*
X12578264Y-10716352D02*
X12597312Y-10725876D01*
X12597312Y-10725876D02*
X12606835Y-10735399D01*
X12606835Y-10735399D02*
X12616359Y-10754447D01*
X12616359Y-10754447D02*
X12625883Y-10792542D01*
X12625883Y-10792542D02*
X12625883Y-10840161D01*
X12625883Y-10840161D02*
X12616359Y-10878257D01*
X12616359Y-10878257D02*
X12606835Y-10897304D01*
X12606835Y-10897304D02*
X12597312Y-10906828D01*
X12597312Y-10906828D02*
X12578264Y-10916352D01*
X12578264Y-10916352D02*
X12559216Y-10916352D01*
X12559216Y-10916352D02*
X12540169Y-10906828D01*
X12540169Y-10906828D02*
X12530645Y-10897304D01*
X12530645Y-10897304D02*
X12521121Y-10878257D01*
X12521121Y-10878257D02*
X12511597Y-10840161D01*
X12511597Y-10840161D02*
X12511597Y-10792542D01*
X12511597Y-10792542D02*
X12521121Y-10754447D01*
X12521121Y-10754447D02*
X12530645Y-10735399D01*
X12530645Y-10735399D02*
X12540169Y-10725876D01*
X12540169Y-10725876D02*
X12559216Y-10716352D01*
X12702074Y-10735399D02*
X12711597Y-10725876D01*
X12711597Y-10725876D02*
X12730645Y-10716352D01*
X12730645Y-10716352D02*
X12778264Y-10716352D01*
X12778264Y-10716352D02*
X12797312Y-10725876D01*
X12797312Y-10725876D02*
X12806835Y-10735399D01*
X12806835Y-10735399D02*
X12816359Y-10754447D01*
X12816359Y-10754447D02*
X12816359Y-10773495D01*
X12816359Y-10773495D02*
X12806835Y-10802066D01*
X12806835Y-10802066D02*
X12692550Y-10916352D01*
X12692550Y-10916352D02*
X12816359Y-10916352D01*
X12997312Y-10716352D02*
X12902074Y-10716352D01*
X12902074Y-10716352D02*
X12892550Y-10811590D01*
X12892550Y-10811590D02*
X12902074Y-10802066D01*
X12902074Y-10802066D02*
X12921121Y-10792542D01*
X12921121Y-10792542D02*
X12968740Y-10792542D01*
X12968740Y-10792542D02*
X12987788Y-10802066D01*
X12987788Y-10802066D02*
X12997312Y-10811590D01*
X12997312Y-10811590D02*
X13006835Y-10830638D01*
X13006835Y-10830638D02*
X13006835Y-10878257D01*
X13006835Y-10878257D02*
X12997312Y-10897304D01*
X12997312Y-10897304D02*
X12987788Y-10906828D01*
X12987788Y-10906828D02*
X12968740Y-10916352D01*
X12968740Y-10916352D02*
X12921121Y-10916352D01*
X12921121Y-10916352D02*
X12902074Y-10906828D01*
X12902074Y-10906828D02*
X12892550Y-10897304D01*
X13178264Y-10716352D02*
X13140169Y-10716352D01*
X13140169Y-10716352D02*
X13121121Y-10725876D01*
X13121121Y-10725876D02*
X13111597Y-10735399D01*
X13111597Y-10735399D02*
X13092550Y-10763971D01*
X13092550Y-10763971D02*
X13083026Y-10802066D01*
X13083026Y-10802066D02*
X13083026Y-10878257D01*
X13083026Y-10878257D02*
X13092550Y-10897304D01*
X13092550Y-10897304D02*
X13102074Y-10906828D01*
X13102074Y-10906828D02*
X13121121Y-10916352D01*
X13121121Y-10916352D02*
X13159216Y-10916352D01*
X13159216Y-10916352D02*
X13178264Y-10906828D01*
X13178264Y-10906828D02*
X13187788Y-10897304D01*
X13187788Y-10897304D02*
X13197312Y-10878257D01*
X13197312Y-10878257D02*
X13197312Y-10830638D01*
X13197312Y-10830638D02*
X13187788Y-10811590D01*
X13187788Y-10811590D02*
X13178264Y-10802066D01*
X13178264Y-10802066D02*
X13159216Y-10792542D01*
X13159216Y-10792542D02*
X13121121Y-10792542D01*
X13121121Y-10792542D02*
X13102074Y-10802066D01*
X13102074Y-10802066D02*
X13092550Y-10811590D01*
X13092550Y-10811590D02*
X13083026Y-10830638D01*
X13273502Y-10716352D02*
X13273502Y-10754447D01*
X13349693Y-10716352D02*
X13349693Y-10754447D01*
X13644931Y-10992542D02*
X13635407Y-10983018D01*
X13635407Y-10983018D02*
X13616359Y-10954447D01*
X13616359Y-10954447D02*
X13606836Y-10935399D01*
X13606836Y-10935399D02*
X13597312Y-10906828D01*
X13597312Y-10906828D02*
X13587788Y-10859209D01*
X13587788Y-10859209D02*
X13587788Y-10821114D01*
X13587788Y-10821114D02*
X13597312Y-10773495D01*
X13597312Y-10773495D02*
X13606836Y-10744923D01*
X13606836Y-10744923D02*
X13616359Y-10725876D01*
X13616359Y-10725876D02*
X13635407Y-10697304D01*
X13635407Y-10697304D02*
X13644931Y-10687780D01*
X13759216Y-10716352D02*
X13778264Y-10716352D01*
X13778264Y-10716352D02*
X13797312Y-10725876D01*
X13797312Y-10725876D02*
X13806836Y-10735399D01*
X13806836Y-10735399D02*
X13816359Y-10754447D01*
X13816359Y-10754447D02*
X13825883Y-10792542D01*
X13825883Y-10792542D02*
X13825883Y-10840161D01*
X13825883Y-10840161D02*
X13816359Y-10878257D01*
X13816359Y-10878257D02*
X13806836Y-10897304D01*
X13806836Y-10897304D02*
X13797312Y-10906828D01*
X13797312Y-10906828D02*
X13778264Y-10916352D01*
X13778264Y-10916352D02*
X13759216Y-10916352D01*
X13759216Y-10916352D02*
X13740169Y-10906828D01*
X13740169Y-10906828D02*
X13730645Y-10897304D01*
X13730645Y-10897304D02*
X13721121Y-10878257D01*
X13721121Y-10878257D02*
X13711597Y-10840161D01*
X13711597Y-10840161D02*
X13711597Y-10792542D01*
X13711597Y-10792542D02*
X13721121Y-10754447D01*
X13721121Y-10754447D02*
X13730645Y-10735399D01*
X13730645Y-10735399D02*
X13740169Y-10725876D01*
X13740169Y-10725876D02*
X13759216Y-10716352D01*
X14063978Y-10916352D02*
X14063978Y-10716352D01*
X14149693Y-10916352D02*
X14149693Y-10811590D01*
X14149693Y-10811590D02*
X14140169Y-10792542D01*
X14140169Y-10792542D02*
X14121121Y-10783018D01*
X14121121Y-10783018D02*
X14092550Y-10783018D01*
X14092550Y-10783018D02*
X14073502Y-10792542D01*
X14073502Y-10792542D02*
X14063978Y-10802066D01*
X14273502Y-10916352D02*
X14254455Y-10906828D01*
X14254455Y-10906828D02*
X14244931Y-10897304D01*
X14244931Y-10897304D02*
X14235407Y-10878257D01*
X14235407Y-10878257D02*
X14235407Y-10821114D01*
X14235407Y-10821114D02*
X14244931Y-10802066D01*
X14244931Y-10802066D02*
X14254455Y-10792542D01*
X14254455Y-10792542D02*
X14273502Y-10783018D01*
X14273502Y-10783018D02*
X14302074Y-10783018D01*
X14302074Y-10783018D02*
X14321121Y-10792542D01*
X14321121Y-10792542D02*
X14330645Y-10802066D01*
X14330645Y-10802066D02*
X14340169Y-10821114D01*
X14340169Y-10821114D02*
X14340169Y-10878257D01*
X14340169Y-10878257D02*
X14330645Y-10897304D01*
X14330645Y-10897304D02*
X14321121Y-10906828D01*
X14321121Y-10906828D02*
X14302074Y-10916352D01*
X14302074Y-10916352D02*
X14273502Y-10916352D01*
X14454455Y-10916352D02*
X14435407Y-10906828D01*
X14435407Y-10906828D02*
X14425883Y-10887780D01*
X14425883Y-10887780D02*
X14425883Y-10716352D01*
X14606836Y-10906828D02*
X14587788Y-10916352D01*
X14587788Y-10916352D02*
X14549693Y-10916352D01*
X14549693Y-10916352D02*
X14530645Y-10906828D01*
X14530645Y-10906828D02*
X14521121Y-10887780D01*
X14521121Y-10887780D02*
X14521121Y-10811590D01*
X14521121Y-10811590D02*
X14530645Y-10792542D01*
X14530645Y-10792542D02*
X14549693Y-10783018D01*
X14549693Y-10783018D02*
X14587788Y-10783018D01*
X14587788Y-10783018D02*
X14606836Y-10792542D01*
X14606836Y-10792542D02*
X14616359Y-10811590D01*
X14616359Y-10811590D02*
X14616359Y-10830638D01*
X14616359Y-10830638D02*
X14521121Y-10849685D01*
X14692550Y-10906828D02*
X14711598Y-10916352D01*
X14711598Y-10916352D02*
X14749693Y-10916352D01*
X14749693Y-10916352D02*
X14768740Y-10906828D01*
X14768740Y-10906828D02*
X14778264Y-10887780D01*
X14778264Y-10887780D02*
X14778264Y-10878257D01*
X14778264Y-10878257D02*
X14768740Y-10859209D01*
X14768740Y-10859209D02*
X14749693Y-10849685D01*
X14749693Y-10849685D02*
X14721121Y-10849685D01*
X14721121Y-10849685D02*
X14702074Y-10840161D01*
X14702074Y-10840161D02*
X14692550Y-10821114D01*
X14692550Y-10821114D02*
X14692550Y-10811590D01*
X14692550Y-10811590D02*
X14702074Y-10792542D01*
X14702074Y-10792542D02*
X14721121Y-10783018D01*
X14721121Y-10783018D02*
X14749693Y-10783018D01*
X14749693Y-10783018D02*
X14768740Y-10792542D01*
X15016360Y-10840161D02*
X15168741Y-10840161D01*
X15092550Y-10916352D02*
X15092550Y-10763971D01*
X15502074Y-10783018D02*
X15502074Y-10916352D01*
X15454455Y-10706828D02*
X15406836Y-10849685D01*
X15406836Y-10849685D02*
X15530645Y-10849685D01*
X15749693Y-10906828D02*
X15768741Y-10916352D01*
X15768741Y-10916352D02*
X15806836Y-10916352D01*
X15806836Y-10916352D02*
X15825883Y-10906828D01*
X15825883Y-10906828D02*
X15835407Y-10887780D01*
X15835407Y-10887780D02*
X15835407Y-10878257D01*
X15835407Y-10878257D02*
X15825883Y-10859209D01*
X15825883Y-10859209D02*
X15806836Y-10849685D01*
X15806836Y-10849685D02*
X15778264Y-10849685D01*
X15778264Y-10849685D02*
X15759217Y-10840161D01*
X15759217Y-10840161D02*
X15749693Y-10821114D01*
X15749693Y-10821114D02*
X15749693Y-10811590D01*
X15749693Y-10811590D02*
X15759217Y-10792542D01*
X15759217Y-10792542D02*
X15778264Y-10783018D01*
X15778264Y-10783018D02*
X15806836Y-10783018D01*
X15806836Y-10783018D02*
X15825883Y-10792542D01*
X15949693Y-10916352D02*
X15930645Y-10906828D01*
X15930645Y-10906828D02*
X15921122Y-10887780D01*
X15921122Y-10887780D02*
X15921122Y-10716352D01*
X16054455Y-10916352D02*
X16035407Y-10906828D01*
X16035407Y-10906828D02*
X16025883Y-10897304D01*
X16025883Y-10897304D02*
X16016360Y-10878257D01*
X16016360Y-10878257D02*
X16016360Y-10821114D01*
X16016360Y-10821114D02*
X16025883Y-10802066D01*
X16025883Y-10802066D02*
X16035407Y-10792542D01*
X16035407Y-10792542D02*
X16054455Y-10783018D01*
X16054455Y-10783018D02*
X16083026Y-10783018D01*
X16083026Y-10783018D02*
X16102074Y-10792542D01*
X16102074Y-10792542D02*
X16111598Y-10802066D01*
X16111598Y-10802066D02*
X16121122Y-10821114D01*
X16121122Y-10821114D02*
X16121122Y-10878257D01*
X16121122Y-10878257D02*
X16111598Y-10897304D01*
X16111598Y-10897304D02*
X16102074Y-10906828D01*
X16102074Y-10906828D02*
X16083026Y-10916352D01*
X16083026Y-10916352D02*
X16054455Y-10916352D01*
X16178264Y-10783018D02*
X16254455Y-10783018D01*
X16206836Y-10716352D02*
X16206836Y-10887780D01*
X16206836Y-10887780D02*
X16216360Y-10906828D01*
X16216360Y-10906828D02*
X16235407Y-10916352D01*
X16235407Y-10916352D02*
X16254455Y-10916352D01*
X16311598Y-10906828D02*
X16330645Y-10916352D01*
X16330645Y-10916352D02*
X16368741Y-10916352D01*
X16368741Y-10916352D02*
X16387788Y-10906828D01*
X16387788Y-10906828D02*
X16397312Y-10887780D01*
X16397312Y-10887780D02*
X16397312Y-10878257D01*
X16397312Y-10878257D02*
X16387788Y-10859209D01*
X16387788Y-10859209D02*
X16368741Y-10849685D01*
X16368741Y-10849685D02*
X16340169Y-10849685D01*
X16340169Y-10849685D02*
X16321122Y-10840161D01*
X16321122Y-10840161D02*
X16311598Y-10821114D01*
X16311598Y-10821114D02*
X16311598Y-10811590D01*
X16311598Y-10811590D02*
X16321122Y-10792542D01*
X16321122Y-10792542D02*
X16340169Y-10783018D01*
X16340169Y-10783018D02*
X16368741Y-10783018D01*
X16368741Y-10783018D02*
X16387788Y-10792542D01*
X16463979Y-10992542D02*
X16473503Y-10983018D01*
X16473503Y-10983018D02*
X16492550Y-10954447D01*
X16492550Y-10954447D02*
X16502074Y-10935399D01*
X16502074Y-10935399D02*
X16511598Y-10906828D01*
X16511598Y-10906828D02*
X16521122Y-10859209D01*
X16521122Y-10859209D02*
X16521122Y-10821114D01*
X16521122Y-10821114D02*
X16511598Y-10773495D01*
X16511598Y-10773495D02*
X16502074Y-10744923D01*
X16502074Y-10744923D02*
X16492550Y-10725876D01*
X16492550Y-10725876D02*
X16473503Y-10697304D01*
X16473503Y-10697304D02*
X16463979Y-10687780D01*
X9969868Y-10988868D02*
X9969868Y-11188868D01*
X9869868Y-11088868D02*
X10069868Y-11088868D01*
X10416359Y-11047018D02*
X10416359Y-11180352D01*
X10368740Y-10970828D02*
X10321121Y-11113685D01*
X10321121Y-11113685D02*
X10444931Y-11113685D01*
X10521121Y-11161304D02*
X10530645Y-11170828D01*
X10530645Y-11170828D02*
X10521121Y-11180352D01*
X10521121Y-11180352D02*
X10511597Y-11170828D01*
X10511597Y-11170828D02*
X10521121Y-11161304D01*
X10521121Y-11161304D02*
X10521121Y-11180352D01*
X10654454Y-10980352D02*
X10673502Y-10980352D01*
X10673502Y-10980352D02*
X10692550Y-10989876D01*
X10692550Y-10989876D02*
X10702073Y-10999399D01*
X10702073Y-10999399D02*
X10711597Y-11018447D01*
X10711597Y-11018447D02*
X10721121Y-11056542D01*
X10721121Y-11056542D02*
X10721121Y-11104161D01*
X10721121Y-11104161D02*
X10711597Y-11142257D01*
X10711597Y-11142257D02*
X10702073Y-11161304D01*
X10702073Y-11161304D02*
X10692550Y-11170828D01*
X10692550Y-11170828D02*
X10673502Y-11180352D01*
X10673502Y-11180352D02*
X10654454Y-11180352D01*
X10654454Y-11180352D02*
X10635407Y-11170828D01*
X10635407Y-11170828D02*
X10625883Y-11161304D01*
X10625883Y-11161304D02*
X10616359Y-11142257D01*
X10616359Y-11142257D02*
X10606835Y-11104161D01*
X10606835Y-11104161D02*
X10606835Y-11056542D01*
X10606835Y-11056542D02*
X10616359Y-11018447D01*
X10616359Y-11018447D02*
X10625883Y-10999399D01*
X10625883Y-10999399D02*
X10635407Y-10989876D01*
X10635407Y-10989876D02*
X10654454Y-10980352D01*
X10844931Y-10980352D02*
X10863978Y-10980352D01*
X10863978Y-10980352D02*
X10883026Y-10989876D01*
X10883026Y-10989876D02*
X10892550Y-10999399D01*
X10892550Y-10999399D02*
X10902073Y-11018447D01*
X10902073Y-11018447D02*
X10911597Y-11056542D01*
X10911597Y-11056542D02*
X10911597Y-11104161D01*
X10911597Y-11104161D02*
X10902073Y-11142257D01*
X10902073Y-11142257D02*
X10892550Y-11161304D01*
X10892550Y-11161304D02*
X10883026Y-11170828D01*
X10883026Y-11170828D02*
X10863978Y-11180352D01*
X10863978Y-11180352D02*
X10844931Y-11180352D01*
X10844931Y-11180352D02*
X10825883Y-11170828D01*
X10825883Y-11170828D02*
X10816359Y-11161304D01*
X10816359Y-11161304D02*
X10806835Y-11142257D01*
X10806835Y-11142257D02*
X10797312Y-11104161D01*
X10797312Y-11104161D02*
X10797312Y-11056542D01*
X10797312Y-11056542D02*
X10806835Y-11018447D01*
X10806835Y-11018447D02*
X10816359Y-10999399D01*
X10816359Y-10999399D02*
X10825883Y-10989876D01*
X10825883Y-10989876D02*
X10844931Y-10980352D01*
X11035407Y-10980352D02*
X11054454Y-10980352D01*
X11054454Y-10980352D02*
X11073502Y-10989876D01*
X11073502Y-10989876D02*
X11083026Y-10999399D01*
X11083026Y-10999399D02*
X11092550Y-11018447D01*
X11092550Y-11018447D02*
X11102073Y-11056542D01*
X11102073Y-11056542D02*
X11102073Y-11104161D01*
X11102073Y-11104161D02*
X11092550Y-11142257D01*
X11092550Y-11142257D02*
X11083026Y-11161304D01*
X11083026Y-11161304D02*
X11073502Y-11170828D01*
X11073502Y-11170828D02*
X11054454Y-11180352D01*
X11054454Y-11180352D02*
X11035407Y-11180352D01*
X11035407Y-11180352D02*
X11016359Y-11170828D01*
X11016359Y-11170828D02*
X11006835Y-11161304D01*
X11006835Y-11161304D02*
X10997312Y-11142257D01*
X10997312Y-11142257D02*
X10987788Y-11104161D01*
X10987788Y-11104161D02*
X10987788Y-11056542D01*
X10987788Y-11056542D02*
X10997312Y-11018447D01*
X10997312Y-11018447D02*
X11006835Y-10999399D01*
X11006835Y-10999399D02*
X11016359Y-10989876D01*
X11016359Y-10989876D02*
X11035407Y-10980352D01*
X11187788Y-11180352D02*
X11187788Y-11047018D01*
X11187788Y-11066066D02*
X11197311Y-11056542D01*
X11197311Y-11056542D02*
X11216359Y-11047018D01*
X11216359Y-11047018D02*
X11244931Y-11047018D01*
X11244931Y-11047018D02*
X11263978Y-11056542D01*
X11263978Y-11056542D02*
X11273502Y-11075590D01*
X11273502Y-11075590D02*
X11273502Y-11180352D01*
X11273502Y-11075590D02*
X11283026Y-11056542D01*
X11283026Y-11056542D02*
X11302073Y-11047018D01*
X11302073Y-11047018D02*
X11330645Y-11047018D01*
X11330645Y-11047018D02*
X11349692Y-11056542D01*
X11349692Y-11056542D02*
X11359216Y-11075590D01*
X11359216Y-11075590D02*
X11359216Y-11180352D01*
X11454454Y-11180352D02*
X11454454Y-11047018D01*
X11454454Y-11066066D02*
X11463978Y-11056542D01*
X11463978Y-11056542D02*
X11483026Y-11047018D01*
X11483026Y-11047018D02*
X11511597Y-11047018D01*
X11511597Y-11047018D02*
X11530645Y-11056542D01*
X11530645Y-11056542D02*
X11540169Y-11075590D01*
X11540169Y-11075590D02*
X11540169Y-11180352D01*
X11540169Y-11075590D02*
X11549692Y-11056542D01*
X11549692Y-11056542D02*
X11568740Y-11047018D01*
X11568740Y-11047018D02*
X11597311Y-11047018D01*
X11597311Y-11047018D02*
X11616359Y-11056542D01*
X11616359Y-11056542D02*
X11625883Y-11075590D01*
X11625883Y-11075590D02*
X11625883Y-11180352D01*
X12016359Y-10970828D02*
X11844931Y-11227971D01*
X12273502Y-10980352D02*
X12292550Y-10980352D01*
X12292550Y-10980352D02*
X12311597Y-10989876D01*
X12311597Y-10989876D02*
X12321121Y-10999399D01*
X12321121Y-10999399D02*
X12330645Y-11018447D01*
X12330645Y-11018447D02*
X12340169Y-11056542D01*
X12340169Y-11056542D02*
X12340169Y-11104161D01*
X12340169Y-11104161D02*
X12330645Y-11142257D01*
X12330645Y-11142257D02*
X12321121Y-11161304D01*
X12321121Y-11161304D02*
X12311597Y-11170828D01*
X12311597Y-11170828D02*
X12292550Y-11180352D01*
X12292550Y-11180352D02*
X12273502Y-11180352D01*
X12273502Y-11180352D02*
X12254454Y-11170828D01*
X12254454Y-11170828D02*
X12244931Y-11161304D01*
X12244931Y-11161304D02*
X12235407Y-11142257D01*
X12235407Y-11142257D02*
X12225883Y-11104161D01*
X12225883Y-11104161D02*
X12225883Y-11056542D01*
X12225883Y-11056542D02*
X12235407Y-11018447D01*
X12235407Y-11018447D02*
X12244931Y-10999399D01*
X12244931Y-10999399D02*
X12254454Y-10989876D01*
X12254454Y-10989876D02*
X12273502Y-10980352D01*
X12425883Y-11161304D02*
X12435407Y-11170828D01*
X12435407Y-11170828D02*
X12425883Y-11180352D01*
X12425883Y-11180352D02*
X12416359Y-11170828D01*
X12416359Y-11170828D02*
X12425883Y-11161304D01*
X12425883Y-11161304D02*
X12425883Y-11180352D01*
X12625883Y-11180352D02*
X12511597Y-11180352D01*
X12568740Y-11180352D02*
X12568740Y-10980352D01*
X12568740Y-10980352D02*
X12549693Y-11008923D01*
X12549693Y-11008923D02*
X12530645Y-11027971D01*
X12530645Y-11027971D02*
X12511597Y-11037495D01*
X12806835Y-10980352D02*
X12711597Y-10980352D01*
X12711597Y-10980352D02*
X12702074Y-11075590D01*
X12702074Y-11075590D02*
X12711597Y-11066066D01*
X12711597Y-11066066D02*
X12730645Y-11056542D01*
X12730645Y-11056542D02*
X12778264Y-11056542D01*
X12778264Y-11056542D02*
X12797312Y-11066066D01*
X12797312Y-11066066D02*
X12806835Y-11075590D01*
X12806835Y-11075590D02*
X12816359Y-11094638D01*
X12816359Y-11094638D02*
X12816359Y-11142257D01*
X12816359Y-11142257D02*
X12806835Y-11161304D01*
X12806835Y-11161304D02*
X12797312Y-11170828D01*
X12797312Y-11170828D02*
X12778264Y-11180352D01*
X12778264Y-11180352D02*
X12730645Y-11180352D01*
X12730645Y-11180352D02*
X12711597Y-11170828D01*
X12711597Y-11170828D02*
X12702074Y-11161304D01*
X12883026Y-10980352D02*
X13016359Y-10980352D01*
X13016359Y-10980352D02*
X12930645Y-11180352D01*
X13187788Y-10980352D02*
X13092550Y-10980352D01*
X13092550Y-10980352D02*
X13083026Y-11075590D01*
X13083026Y-11075590D02*
X13092550Y-11066066D01*
X13092550Y-11066066D02*
X13111597Y-11056542D01*
X13111597Y-11056542D02*
X13159216Y-11056542D01*
X13159216Y-11056542D02*
X13178264Y-11066066D01*
X13178264Y-11066066D02*
X13187788Y-11075590D01*
X13187788Y-11075590D02*
X13197312Y-11094638D01*
X13197312Y-11094638D02*
X13197312Y-11142257D01*
X13197312Y-11142257D02*
X13187788Y-11161304D01*
X13187788Y-11161304D02*
X13178264Y-11170828D01*
X13178264Y-11170828D02*
X13159216Y-11180352D01*
X13159216Y-11180352D02*
X13111597Y-11180352D01*
X13111597Y-11180352D02*
X13092550Y-11170828D01*
X13092550Y-11170828D02*
X13083026Y-11161304D01*
X13273502Y-10980352D02*
X13273502Y-11018447D01*
X13349693Y-10980352D02*
X13349693Y-11018447D01*
X13644931Y-11256542D02*
X13635407Y-11247018D01*
X13635407Y-11247018D02*
X13616359Y-11218447D01*
X13616359Y-11218447D02*
X13606836Y-11199399D01*
X13606836Y-11199399D02*
X13597312Y-11170828D01*
X13597312Y-11170828D02*
X13587788Y-11123209D01*
X13587788Y-11123209D02*
X13587788Y-11085114D01*
X13587788Y-11085114D02*
X13597312Y-11037495D01*
X13597312Y-11037495D02*
X13606836Y-11008923D01*
X13606836Y-11008923D02*
X13616359Y-10989876D01*
X13616359Y-10989876D02*
X13635407Y-10961304D01*
X13635407Y-10961304D02*
X13644931Y-10951780D01*
X13806836Y-11047018D02*
X13806836Y-11180352D01*
X13759216Y-10970828D02*
X13711597Y-11113685D01*
X13711597Y-11113685D02*
X13835407Y-11113685D01*
X14063978Y-11180352D02*
X14063978Y-10980352D01*
X14149693Y-11180352D02*
X14149693Y-11075590D01*
X14149693Y-11075590D02*
X14140169Y-11056542D01*
X14140169Y-11056542D02*
X14121121Y-11047018D01*
X14121121Y-11047018D02*
X14092550Y-11047018D01*
X14092550Y-11047018D02*
X14073502Y-11056542D01*
X14073502Y-11056542D02*
X14063978Y-11066066D01*
X14273502Y-11180352D02*
X14254455Y-11170828D01*
X14254455Y-11170828D02*
X14244931Y-11161304D01*
X14244931Y-11161304D02*
X14235407Y-11142257D01*
X14235407Y-11142257D02*
X14235407Y-11085114D01*
X14235407Y-11085114D02*
X14244931Y-11066066D01*
X14244931Y-11066066D02*
X14254455Y-11056542D01*
X14254455Y-11056542D02*
X14273502Y-11047018D01*
X14273502Y-11047018D02*
X14302074Y-11047018D01*
X14302074Y-11047018D02*
X14321121Y-11056542D01*
X14321121Y-11056542D02*
X14330645Y-11066066D01*
X14330645Y-11066066D02*
X14340169Y-11085114D01*
X14340169Y-11085114D02*
X14340169Y-11142257D01*
X14340169Y-11142257D02*
X14330645Y-11161304D01*
X14330645Y-11161304D02*
X14321121Y-11170828D01*
X14321121Y-11170828D02*
X14302074Y-11180352D01*
X14302074Y-11180352D02*
X14273502Y-11180352D01*
X14454455Y-11180352D02*
X14435407Y-11170828D01*
X14435407Y-11170828D02*
X14425883Y-11151780D01*
X14425883Y-11151780D02*
X14425883Y-10980352D01*
X14606836Y-11170828D02*
X14587788Y-11180352D01*
X14587788Y-11180352D02*
X14549693Y-11180352D01*
X14549693Y-11180352D02*
X14530645Y-11170828D01*
X14530645Y-11170828D02*
X14521121Y-11151780D01*
X14521121Y-11151780D02*
X14521121Y-11075590D01*
X14521121Y-11075590D02*
X14530645Y-11056542D01*
X14530645Y-11056542D02*
X14549693Y-11047018D01*
X14549693Y-11047018D02*
X14587788Y-11047018D01*
X14587788Y-11047018D02*
X14606836Y-11056542D01*
X14606836Y-11056542D02*
X14616359Y-11075590D01*
X14616359Y-11075590D02*
X14616359Y-11094638D01*
X14616359Y-11094638D02*
X14521121Y-11113685D01*
X14692550Y-11170828D02*
X14711598Y-11180352D01*
X14711598Y-11180352D02*
X14749693Y-11180352D01*
X14749693Y-11180352D02*
X14768740Y-11170828D01*
X14768740Y-11170828D02*
X14778264Y-11151780D01*
X14778264Y-11151780D02*
X14778264Y-11142257D01*
X14778264Y-11142257D02*
X14768740Y-11123209D01*
X14768740Y-11123209D02*
X14749693Y-11113685D01*
X14749693Y-11113685D02*
X14721121Y-11113685D01*
X14721121Y-11113685D02*
X14702074Y-11104161D01*
X14702074Y-11104161D02*
X14692550Y-11085114D01*
X14692550Y-11085114D02*
X14692550Y-11075590D01*
X14692550Y-11075590D02*
X14702074Y-11056542D01*
X14702074Y-11056542D02*
X14721121Y-11047018D01*
X14721121Y-11047018D02*
X14749693Y-11047018D01*
X14749693Y-11047018D02*
X14768740Y-11056542D01*
X14844931Y-11256542D02*
X14854455Y-11247018D01*
X14854455Y-11247018D02*
X14873502Y-11218447D01*
X14873502Y-11218447D02*
X14883026Y-11199399D01*
X14883026Y-11199399D02*
X14892550Y-11170828D01*
X14892550Y-11170828D02*
X14902074Y-11123209D01*
X14902074Y-11123209D02*
X14902074Y-11085114D01*
X14902074Y-11085114D02*
X14892550Y-11037495D01*
X14892550Y-11037495D02*
X14883026Y-11008923D01*
X14883026Y-11008923D02*
X14873502Y-10989876D01*
X14873502Y-10989876D02*
X14854455Y-10961304D01*
X14854455Y-10961304D02*
X14844931Y-10951780D01*
M02*
