%TF.GenerationSoftware,KiCad,Pcbnew,7.0.9*%
%TF.CreationDate,2023-12-01T13:28:00+08:00*%
%TF.ProjectId,NewSkyF7-Air,4e657753-6b79-4463-972d-4169722e6b69,rev?*%
%TF.SameCoordinates,Original*%
%TF.FileFunction,Paste,Top*%
%TF.FilePolarity,Positive*%
%FSLAX46Y46*%
G04 Gerber Fmt 4.6, Leading zero omitted, Abs format (unit mm)*
G04 Created by KiCad (PCBNEW 7.0.9) date 2023-12-01 13:28:00*
%MOMM*%
%LPD*%
G01*
G04 APERTURE LIST*
G04 Aperture macros list*
%AMRoundRect*
0 Rectangle with rounded corners*
0 $1 Rounding radius*
0 $2 $3 $4 $5 $6 $7 $8 $9 X,Y pos of 4 corners*
0 Add a 4 corners polygon primitive as box body*
4,1,4,$2,$3,$4,$5,$6,$7,$8,$9,$2,$3,0*
0 Add four circle primitives for the rounded corners*
1,1,$1+$1,$2,$3*
1,1,$1+$1,$4,$5*
1,1,$1+$1,$6,$7*
1,1,$1+$1,$8,$9*
0 Add four rect primitives between the rounded corners*
20,1,$1+$1,$2,$3,$4,$5,0*
20,1,$1+$1,$4,$5,$6,$7,0*
20,1,$1+$1,$6,$7,$8,$9,0*
20,1,$1+$1,$8,$9,$2,$3,0*%
G04 Aperture macros list end*
%ADD10RoundRect,0.325000X0.375000X-0.325000X0.375000X0.325000X-0.375000X0.325000X-0.375000X-0.325000X0*%
%ADD11RoundRect,0.147500X-0.147500X-0.172500X0.147500X-0.172500X0.147500X0.172500X-0.147500X0.172500X0*%
%ADD12RoundRect,0.140000X-0.170000X0.140000X-0.170000X-0.140000X0.170000X-0.140000X0.170000X0.140000X0*%
%ADD13RoundRect,0.225000X0.250000X-0.225000X0.250000X0.225000X-0.250000X0.225000X-0.250000X-0.225000X0*%
%ADD14RoundRect,0.135000X-0.185000X0.135000X-0.185000X-0.135000X0.185000X-0.135000X0.185000X0.135000X0*%
%ADD15C,0.400000*%
%ADD16RoundRect,0.135000X0.185000X-0.135000X0.185000X0.135000X-0.185000X0.135000X-0.185000X-0.135000X0*%
%ADD17RoundRect,0.150000X0.150000X-0.512500X0.150000X0.512500X-0.150000X0.512500X-0.150000X-0.512500X0*%
%ADD18R,0.300000X0.600000*%
%ADD19R,0.600000X0.300000*%
%ADD20RoundRect,0.140000X0.140000X0.170000X-0.140000X0.170000X-0.140000X-0.170000X0.140000X-0.170000X0*%
%ADD21R,1.140000X0.300000*%
%ADD22RoundRect,0.155000X-0.212500X-0.155000X0.212500X-0.155000X0.212500X0.155000X-0.212500X0.155000X0*%
%ADD23RoundRect,0.140000X-0.140000X-0.170000X0.140000X-0.170000X0.140000X0.170000X-0.140000X0.170000X0*%
%ADD24RoundRect,0.135000X-0.135000X-0.185000X0.135000X-0.185000X0.135000X0.185000X-0.135000X0.185000X0*%
%ADD25RoundRect,0.135000X0.135000X0.185000X-0.135000X0.185000X-0.135000X-0.185000X0.135000X-0.185000X0*%
%ADD26R,0.450000X0.950000*%
%ADD27R,4.350000X3.450000*%
%ADD28RoundRect,0.140000X0.170000X-0.140000X0.170000X0.140000X-0.170000X0.140000X-0.170000X-0.140000X0*%
%ADD29RoundRect,0.155000X0.212500X0.155000X-0.212500X0.155000X-0.212500X-0.155000X0.212500X-0.155000X0*%
%ADD30RoundRect,0.112500X-0.112500X0.187500X-0.112500X-0.187500X0.112500X-0.187500X0.112500X0.187500X0*%
%ADD31RoundRect,0.325000X-0.375000X0.325000X-0.375000X-0.325000X0.375000X-0.325000X0.375000X0.325000X0*%
%ADD32R,1.400000X1.200000*%
%ADD33R,0.450000X1.475000*%
%ADD34R,6.200000X2.750000*%
%ADD35RoundRect,0.155000X0.155000X-0.212500X0.155000X0.212500X-0.155000X0.212500X-0.155000X-0.212500X0*%
%ADD36R,1.600000X0.550000*%
%ADD37R,0.550000X0.950000*%
%ADD38RoundRect,0.250000X-0.300000X-0.300000X0.300000X-0.300000X0.300000X0.300000X-0.300000X0.300000X0*%
%ADD39RoundRect,0.150000X0.450000X-0.150000X0.450000X0.150000X-0.450000X0.150000X-0.450000X-0.150000X0*%
%ADD40RoundRect,0.200000X0.200000X-0.250000X0.200000X0.250000X-0.200000X0.250000X-0.200000X-0.250000X0*%
%ADD41R,1.150000X1.000000*%
%ADD42R,0.250000X0.475000*%
%ADD43R,0.475000X0.250000*%
G04 APERTURE END LIST*
D10*
%TO.C,J31*%
X112465714Y-95050000D03*
%TD*%
D11*
%TO.C,D4*%
X135122500Y-89490000D03*
X136092500Y-89490000D03*
%TD*%
D12*
%TO.C,C41*%
X109340000Y-87572500D03*
X109340000Y-88532500D03*
%TD*%
D13*
%TO.C,C34*%
X132360000Y-92705000D03*
X132360000Y-91155000D03*
%TD*%
D14*
%TO.C,R23*%
X109870000Y-78270000D03*
X109870000Y-79290000D03*
%TD*%
D10*
%TO.C,J22*%
X109992857Y-95050000D03*
%TD*%
D15*
%TO.C,U2*%
X115270000Y-85640000D03*
X115270000Y-84840000D03*
X115270000Y-84040000D03*
X115270000Y-83240000D03*
X115270000Y-82440000D03*
X115270000Y-81640000D03*
X115270000Y-80840000D03*
X115270000Y-80040000D03*
X115270000Y-79240000D03*
X115270000Y-78440000D03*
X116070000Y-85640000D03*
X116070000Y-84840000D03*
X116070000Y-84040000D03*
X116070000Y-83240000D03*
X116070000Y-82440000D03*
X116070000Y-81640000D03*
X116070000Y-80840000D03*
X116070000Y-80040000D03*
X116070000Y-79240000D03*
X116070000Y-78440000D03*
X116870000Y-85640000D03*
X116870000Y-84840000D03*
X116870000Y-84040000D03*
X116870000Y-83240000D03*
X116870000Y-82440000D03*
X116870000Y-81640000D03*
X116870000Y-80840000D03*
X116870000Y-80040000D03*
X116870000Y-79240000D03*
X116870000Y-78440000D03*
X117670000Y-85640000D03*
X117670000Y-84840000D03*
X117670000Y-84040000D03*
X117670000Y-83240000D03*
X117670000Y-82440000D03*
X117670000Y-81640000D03*
X117670000Y-80840000D03*
X117670000Y-80040000D03*
X117670000Y-79240000D03*
X117670000Y-78440000D03*
X118470000Y-85640000D03*
X118470000Y-84840000D03*
X118470000Y-84040000D03*
X118470000Y-83240000D03*
X118470000Y-82440000D03*
X118470000Y-81640000D03*
X118470000Y-80840000D03*
X118470000Y-80040000D03*
X118470000Y-79240000D03*
X118470000Y-78440000D03*
X119270000Y-85640000D03*
X119270000Y-84840000D03*
X119270000Y-84040000D03*
X119270000Y-83240000D03*
X119270000Y-82440000D03*
X119270000Y-81640000D03*
X119270000Y-80840000D03*
X119270000Y-80040000D03*
X119270000Y-79240000D03*
X119270000Y-78440000D03*
X120070000Y-85640000D03*
X120070000Y-84840000D03*
X120070000Y-84040000D03*
X120070000Y-83240000D03*
X120070000Y-82440000D03*
X120070000Y-81640000D03*
X120070000Y-80840000D03*
X120070000Y-80040000D03*
X120070000Y-79240000D03*
X120070000Y-78440000D03*
X120870000Y-85640000D03*
X120870000Y-84840000D03*
X120870000Y-84040000D03*
X120870000Y-83240000D03*
X120870000Y-82440000D03*
X120870000Y-81640000D03*
X120870000Y-80840000D03*
X120870000Y-80040000D03*
X120870000Y-79240000D03*
X120870000Y-78440000D03*
X121670000Y-85640000D03*
X121670000Y-84840000D03*
X121670000Y-84040000D03*
X121670000Y-83240000D03*
X121670000Y-82440000D03*
X121670000Y-81640000D03*
X121670000Y-80840000D03*
X121670000Y-80040000D03*
X121670000Y-79240000D03*
X121670000Y-78440000D03*
X122470000Y-85640000D03*
X122470000Y-84840000D03*
X122470000Y-84040000D03*
X122470000Y-83240000D03*
X122470000Y-82440000D03*
X122470000Y-81640000D03*
X122470000Y-80840000D03*
X122470000Y-80040000D03*
X122470000Y-79240000D03*
X122470000Y-78440000D03*
%TD*%
D10*
%TO.C,J14*%
X113344444Y-64700000D03*
%TD*%
%TO.C,J18*%
X122633332Y-64700000D03*
%TD*%
D16*
%TO.C,R5*%
X103540000Y-87360000D03*
X103540000Y-86340000D03*
%TD*%
D17*
%TO.C,U1*%
X104770000Y-88457500D03*
X105720000Y-88457500D03*
X106670000Y-88457500D03*
X106670000Y-86182500D03*
X104770000Y-86182500D03*
%TD*%
D18*
%TO.C,IC3*%
X111760000Y-81580000D03*
X111260000Y-81580000D03*
X110760000Y-81580000D03*
X110260000Y-81580000D03*
D19*
X110110000Y-82230000D03*
X110110000Y-82730000D03*
X110110000Y-83230000D03*
D18*
X110260000Y-83880000D03*
X110760000Y-83880000D03*
X111260000Y-83880000D03*
X111760000Y-83880000D03*
D19*
X111910000Y-83230000D03*
X111910000Y-82730000D03*
X111910000Y-82230000D03*
%TD*%
D10*
%TO.C,J5*%
X124934000Y-67980000D03*
%TD*%
D11*
%TO.C,D5*%
X135122500Y-86150000D03*
X136092500Y-86150000D03*
%TD*%
D10*
%TO.C,J30*%
X109994444Y-97980000D03*
%TD*%
%TO.C,J20*%
X107520000Y-95050000D03*
%TD*%
D20*
%TO.C,C21*%
X116890000Y-87530000D03*
X115930000Y-87530000D03*
%TD*%
D21*
%TO.C,U4*%
X108580000Y-72778250D03*
X108580000Y-73578250D03*
X108580000Y-74878250D03*
X108580000Y-75878250D03*
X108580000Y-76378250D03*
X108580000Y-77378250D03*
X108580000Y-78678250D03*
X108580000Y-79478250D03*
X108580000Y-79178250D03*
X108580000Y-78378250D03*
X108580000Y-77878250D03*
X108580000Y-76878250D03*
X108580000Y-75378250D03*
X108580000Y-74378250D03*
X108580000Y-73878250D03*
X108580000Y-73078250D03*
%TD*%
D10*
%TO.C,J12*%
X117988888Y-64700000D03*
%TD*%
%TO.C,J9*%
X129870000Y-97980000D03*
%TD*%
D16*
%TO.C,R28*%
X122860000Y-92110000D03*
X122860000Y-91090000D03*
%TD*%
D10*
%TO.C,J40*%
X124830000Y-95050000D03*
%TD*%
D22*
%TO.C,C13*%
X107452500Y-93497500D03*
X108587500Y-93497500D03*
%TD*%
D10*
%TO.C,J7*%
X120262000Y-67980000D03*
%TD*%
D23*
%TO.C,C44*%
X109840000Y-85150000D03*
X110800000Y-85150000D03*
%TD*%
D24*
%TO.C,R30*%
X124045000Y-76265000D03*
X125065000Y-76265000D03*
%TD*%
D25*
%TO.C,R19*%
X121030000Y-88440000D03*
X120010000Y-88440000D03*
%TD*%
D26*
%TO.C,IC4*%
X130610000Y-78230000D03*
X131880000Y-78230000D03*
X133150000Y-78230000D03*
X134420000Y-78230000D03*
X134420000Y-70430000D03*
X133150000Y-70430000D03*
X131880000Y-70430000D03*
X130610000Y-70430000D03*
D27*
X132515000Y-74330000D03*
%TD*%
D23*
%TO.C,C22*%
X120020000Y-87510000D03*
X120980000Y-87510000D03*
%TD*%
D28*
%TO.C,C43*%
X108940000Y-83210000D03*
X108940000Y-82250000D03*
%TD*%
D24*
%TO.C,R25*%
X110770000Y-75610000D03*
X111790000Y-75610000D03*
%TD*%
D22*
%TO.C,C7*%
X105692500Y-84760000D03*
X106827500Y-84760000D03*
%TD*%
D29*
%TO.C,C19*%
X106387500Y-92582500D03*
X105252500Y-92582500D03*
%TD*%
D30*
%TO.C,D3*%
X107900000Y-89990000D03*
X107900000Y-92090000D03*
%TD*%
D31*
%TO.C,J33*%
X111022222Y-64700000D03*
%TD*%
D29*
%TO.C,C16*%
X106387500Y-93517500D03*
X105252500Y-93517500D03*
%TD*%
D10*
%TO.C,J11*%
X120311110Y-64700000D03*
%TD*%
D12*
%TO.C,C37*%
X123800000Y-91110000D03*
X123800000Y-92070000D03*
%TD*%
D10*
%TO.C,J29*%
X107510000Y-97980000D03*
%TD*%
D24*
%TO.C,R31*%
X120330000Y-71690000D03*
X121350000Y-71690000D03*
%TD*%
D23*
%TO.C,C20*%
X117750000Y-87530000D03*
X118710000Y-87530000D03*
%TD*%
D32*
%TO.C,Y1*%
X116150000Y-90540000D03*
X118350000Y-90540000D03*
X118350000Y-88840000D03*
X116150000Y-88840000D03*
%TD*%
D10*
%TO.C,J24*%
X114963332Y-97980000D03*
%TD*%
%TO.C,J28*%
X117447776Y-97980000D03*
%TD*%
D24*
%TO.C,R29*%
X122185000Y-76265000D03*
X123205000Y-76265000D03*
%TD*%
D10*
%TO.C,J37*%
X115590000Y-67980000D03*
%TD*%
D20*
%TO.C,C32*%
X131650000Y-69230000D03*
X130690000Y-69230000D03*
%TD*%
D24*
%TO.C,R24*%
X110770000Y-76560000D03*
X111790000Y-76560000D03*
%TD*%
D10*
%TO.C,J19*%
X127385552Y-97980000D03*
%TD*%
%TO.C,J38*%
X113254000Y-67980000D03*
%TD*%
D33*
%TO.C,U5*%
X133285000Y-83542000D03*
X132635000Y-83542000D03*
X131985000Y-83542000D03*
X131335000Y-83542000D03*
X130685000Y-83542000D03*
X130035000Y-83542000D03*
X129385000Y-83542000D03*
X128735000Y-83542000D03*
X128085000Y-83542000D03*
X127435000Y-83542000D03*
X126785000Y-83542000D03*
X126135000Y-83542000D03*
X125485000Y-83542000D03*
X124835000Y-83542000D03*
X124835000Y-89418000D03*
X125485000Y-89418000D03*
X126135000Y-89418000D03*
X126785000Y-89418000D03*
X127435000Y-89418000D03*
X128085000Y-89418000D03*
X128735000Y-89418000D03*
X129385000Y-89418000D03*
X130035000Y-89418000D03*
X130685000Y-89418000D03*
X131335000Y-89418000D03*
X131985000Y-89418000D03*
X132635000Y-89418000D03*
X133285000Y-89418000D03*
D34*
X129060000Y-86480000D03*
%TD*%
D25*
%TO.C,R32*%
X121340000Y-76250000D03*
X120320000Y-76250000D03*
%TD*%
D28*
%TO.C,C42*%
X109350000Y-90360000D03*
X109350000Y-89400000D03*
%TD*%
D10*
%TO.C,J27*%
X124901108Y-97980000D03*
%TD*%
D11*
%TO.C,D6*%
X135122500Y-87820000D03*
X136092500Y-87820000D03*
%TD*%
D35*
%TO.C,C12*%
X102610000Y-87277500D03*
X102610000Y-86142500D03*
%TD*%
D10*
%TO.C,J15*%
X129600000Y-64700000D03*
%TD*%
D36*
%TO.C,L1*%
X105820000Y-90097500D03*
X105820000Y-91547500D03*
%TD*%
D10*
%TO.C,J16*%
X127277776Y-64700000D03*
%TD*%
%TO.C,J21*%
X122416664Y-97980000D03*
%TD*%
D37*
%TO.C,U8*%
X124775000Y-72890000D03*
X123525000Y-72890000D03*
X122275000Y-72890000D03*
X121025000Y-72890000D03*
X121025000Y-75040000D03*
X122275000Y-75040000D03*
X123525000Y-75040000D03*
X124775000Y-75040000D03*
%TD*%
D13*
%TO.C,C35*%
X130900000Y-92705000D03*
X130900000Y-91155000D03*
%TD*%
D10*
%TO.C,J32*%
X114938571Y-95050000D03*
%TD*%
%TO.C,J6*%
X122598000Y-67980000D03*
%TD*%
D31*
%TO.C,J34*%
X108700000Y-64700000D03*
%TD*%
D10*
%TO.C,J10*%
X119932220Y-97980000D03*
%TD*%
%TO.C,J26*%
X119884285Y-95050000D03*
%TD*%
%TO.C,J25*%
X117411428Y-95050000D03*
%TD*%
%TO.C,J8*%
X117926000Y-67980000D03*
%TD*%
D24*
%TO.C,R27*%
X128730000Y-92940000D03*
X129750000Y-92940000D03*
%TD*%
D38*
%TO.C,D7*%
X103750000Y-82360000D03*
X106550000Y-82360000D03*
%TD*%
D10*
%TO.C,J13*%
X115666666Y-64700000D03*
%TD*%
D39*
%TO.C,SW1*%
X101410000Y-93300000D03*
X101410000Y-88540000D03*
D40*
X103410000Y-92645000D03*
X103410000Y-89195000D03*
%TD*%
D41*
%TO.C,Y2*%
X131505000Y-80340000D03*
X129755000Y-80340000D03*
X129755000Y-81740000D03*
X131505000Y-81740000D03*
%TD*%
D16*
%TO.C,R22*%
X109870000Y-74090000D03*
X109870000Y-73070000D03*
%TD*%
%TO.C,R6*%
X103540000Y-85500000D03*
X103540000Y-84480000D03*
%TD*%
D42*
%TO.C,U6*%
X112070000Y-87267500D03*
X111570000Y-87267500D03*
X111070000Y-87267500D03*
X110570000Y-87267500D03*
D43*
X110407500Y-87930000D03*
X110407500Y-88430000D03*
X110407500Y-88930000D03*
D42*
X110570000Y-89592500D03*
X111070000Y-89592500D03*
X111570000Y-89592500D03*
X112070000Y-89592500D03*
D43*
X112232500Y-88930000D03*
X112232500Y-88430000D03*
X112232500Y-87930000D03*
%TD*%
D10*
%TO.C,J23*%
X112478888Y-97980000D03*
%TD*%
%TO.C,J17*%
X124955554Y-64700000D03*
%TD*%
%TO.C,J39*%
X122357142Y-95050000D03*
%TD*%
D12*
%TO.C,C45*%
X108940000Y-84070000D03*
X108940000Y-85030000D03*
%TD*%
M02*
