%TF.GenerationSoftware,KiCad,Pcbnew,7.0.9*%
%TF.CreationDate,2023-11-16T22:51:06+08:00*%
%TF.ProjectId,NewSkyF7-Air,4e657753-6b79-4463-972d-4169722e6b69,rev?*%
%TF.SameCoordinates,Original*%
%TF.FileFunction,Drillmap*%
%TF.FilePolarity,Positive*%
%FSLAX45Y45*%
G04 Gerber Fmt 4.5, Leading zero omitted, Abs format (unit mm)*
G04 Created by KiCad (PCBNEW 7.0.9) date 2023-11-16 22:51:06*
%MOMM*%
%LPD*%
G01*
G04 APERTURE LIST*
%ADD10C,0.200000*%
%ADD11C,0.100000*%
G04 APERTURE END LIST*
D10*
X13679872Y-6610868D02*
G75*
G03*
X13379868Y-6310868I-300002J-2D01*
G01*
X13379868Y-9910868D02*
G75*
G03*
X13679868Y-9610868I2J299998D01*
G01*
X10379868Y-6310868D02*
X13379868Y-6310868D01*
X10379868Y-6310868D02*
G75*
G03*
X10079868Y-6610868I2J-300002D01*
G01*
X10379868Y-9910868D02*
X13379868Y-9910868D01*
X10079872Y-9610868D02*
G75*
G03*
X10379868Y-9910868I299998J-2D01*
G01*
X13679868Y-9610868D02*
X13679868Y-6610868D01*
X10079868Y-9610868D02*
X10079868Y-6610868D01*
D11*
X10718500Y-7291325D02*
X10783500Y-7356325D01*
X10783500Y-7291325D02*
X10718500Y-7356325D01*
X10718500Y-7869325D02*
X10783500Y-7934325D01*
X10783500Y-7869325D02*
X10718500Y-7934325D01*
X10246000Y-9007000D02*
G75*
G03*
X10246000Y-9007000I-45000J0D01*
G01*
X10246000Y-9177000D02*
G75*
G03*
X10246000Y-9177000I-45000J0D01*
G01*
D10*
X10330645Y-10232352D02*
X10330645Y-10032352D01*
X10330645Y-10032352D02*
X10378264Y-10032352D01*
X10378264Y-10032352D02*
X10406835Y-10041876D01*
X10406835Y-10041876D02*
X10425883Y-10060923D01*
X10425883Y-10060923D02*
X10435407Y-10079971D01*
X10435407Y-10079971D02*
X10444931Y-10118066D01*
X10444931Y-10118066D02*
X10444931Y-10146638D01*
X10444931Y-10146638D02*
X10435407Y-10184733D01*
X10435407Y-10184733D02*
X10425883Y-10203780D01*
X10425883Y-10203780D02*
X10406835Y-10222828D01*
X10406835Y-10222828D02*
X10378264Y-10232352D01*
X10378264Y-10232352D02*
X10330645Y-10232352D01*
X10530645Y-10232352D02*
X10530645Y-10099018D01*
X10530645Y-10137114D02*
X10540169Y-10118066D01*
X10540169Y-10118066D02*
X10549692Y-10108542D01*
X10549692Y-10108542D02*
X10568740Y-10099018D01*
X10568740Y-10099018D02*
X10587788Y-10099018D01*
X10654454Y-10232352D02*
X10654454Y-10099018D01*
X10654454Y-10032352D02*
X10644931Y-10041876D01*
X10644931Y-10041876D02*
X10654454Y-10051399D01*
X10654454Y-10051399D02*
X10663978Y-10041876D01*
X10663978Y-10041876D02*
X10654454Y-10032352D01*
X10654454Y-10032352D02*
X10654454Y-10051399D01*
X10778264Y-10232352D02*
X10759216Y-10222828D01*
X10759216Y-10222828D02*
X10749692Y-10203780D01*
X10749692Y-10203780D02*
X10749692Y-10032352D01*
X10883026Y-10232352D02*
X10863978Y-10222828D01*
X10863978Y-10222828D02*
X10854454Y-10203780D01*
X10854454Y-10203780D02*
X10854454Y-10032352D01*
X11111597Y-10232352D02*
X11111597Y-10032352D01*
X11111597Y-10032352D02*
X11178264Y-10175209D01*
X11178264Y-10175209D02*
X11244930Y-10032352D01*
X11244930Y-10032352D02*
X11244930Y-10232352D01*
X11425883Y-10232352D02*
X11425883Y-10127590D01*
X11425883Y-10127590D02*
X11416359Y-10108542D01*
X11416359Y-10108542D02*
X11397311Y-10099018D01*
X11397311Y-10099018D02*
X11359216Y-10099018D01*
X11359216Y-10099018D02*
X11340169Y-10108542D01*
X11425883Y-10222828D02*
X11406835Y-10232352D01*
X11406835Y-10232352D02*
X11359216Y-10232352D01*
X11359216Y-10232352D02*
X11340169Y-10222828D01*
X11340169Y-10222828D02*
X11330645Y-10203780D01*
X11330645Y-10203780D02*
X11330645Y-10184733D01*
X11330645Y-10184733D02*
X11340169Y-10165685D01*
X11340169Y-10165685D02*
X11359216Y-10156161D01*
X11359216Y-10156161D02*
X11406835Y-10156161D01*
X11406835Y-10156161D02*
X11425883Y-10146638D01*
X11521121Y-10099018D02*
X11521121Y-10299018D01*
X11521121Y-10108542D02*
X11540169Y-10099018D01*
X11540169Y-10099018D02*
X11578264Y-10099018D01*
X11578264Y-10099018D02*
X11597311Y-10108542D01*
X11597311Y-10108542D02*
X11606835Y-10118066D01*
X11606835Y-10118066D02*
X11616359Y-10137114D01*
X11616359Y-10137114D02*
X11616359Y-10194257D01*
X11616359Y-10194257D02*
X11606835Y-10213304D01*
X11606835Y-10213304D02*
X11597311Y-10222828D01*
X11597311Y-10222828D02*
X11578264Y-10232352D01*
X11578264Y-10232352D02*
X11540169Y-10232352D01*
X11540169Y-10232352D02*
X11521121Y-10222828D01*
X11702073Y-10213304D02*
X11711597Y-10222828D01*
X11711597Y-10222828D02*
X11702073Y-10232352D01*
X11702073Y-10232352D02*
X11692550Y-10222828D01*
X11692550Y-10222828D02*
X11702073Y-10213304D01*
X11702073Y-10213304D02*
X11702073Y-10232352D01*
X11702073Y-10108542D02*
X11711597Y-10118066D01*
X11711597Y-10118066D02*
X11702073Y-10127590D01*
X11702073Y-10127590D02*
X11692550Y-10118066D01*
X11692550Y-10118066D02*
X11702073Y-10108542D01*
X11702073Y-10108542D02*
X11702073Y-10127590D01*
D11*
X10004868Y-10528368D02*
X10069868Y-10593368D01*
X10069868Y-10528368D02*
X10004868Y-10593368D01*
D10*
X10368740Y-10452352D02*
X10387788Y-10452352D01*
X10387788Y-10452352D02*
X10406835Y-10461876D01*
X10406835Y-10461876D02*
X10416359Y-10471399D01*
X10416359Y-10471399D02*
X10425883Y-10490447D01*
X10425883Y-10490447D02*
X10435407Y-10528542D01*
X10435407Y-10528542D02*
X10435407Y-10576161D01*
X10435407Y-10576161D02*
X10425883Y-10614257D01*
X10425883Y-10614257D02*
X10416359Y-10633304D01*
X10416359Y-10633304D02*
X10406835Y-10642828D01*
X10406835Y-10642828D02*
X10387788Y-10652352D01*
X10387788Y-10652352D02*
X10368740Y-10652352D01*
X10368740Y-10652352D02*
X10349692Y-10642828D01*
X10349692Y-10642828D02*
X10340169Y-10633304D01*
X10340169Y-10633304D02*
X10330645Y-10614257D01*
X10330645Y-10614257D02*
X10321121Y-10576161D01*
X10321121Y-10576161D02*
X10321121Y-10528542D01*
X10321121Y-10528542D02*
X10330645Y-10490447D01*
X10330645Y-10490447D02*
X10340169Y-10471399D01*
X10340169Y-10471399D02*
X10349692Y-10461876D01*
X10349692Y-10461876D02*
X10368740Y-10452352D01*
X10521121Y-10633304D02*
X10530645Y-10642828D01*
X10530645Y-10642828D02*
X10521121Y-10652352D01*
X10521121Y-10652352D02*
X10511597Y-10642828D01*
X10511597Y-10642828D02*
X10521121Y-10633304D01*
X10521121Y-10633304D02*
X10521121Y-10652352D01*
X10702073Y-10452352D02*
X10663978Y-10452352D01*
X10663978Y-10452352D02*
X10644931Y-10461876D01*
X10644931Y-10461876D02*
X10635407Y-10471399D01*
X10635407Y-10471399D02*
X10616359Y-10499971D01*
X10616359Y-10499971D02*
X10606835Y-10538066D01*
X10606835Y-10538066D02*
X10606835Y-10614257D01*
X10606835Y-10614257D02*
X10616359Y-10633304D01*
X10616359Y-10633304D02*
X10625883Y-10642828D01*
X10625883Y-10642828D02*
X10644931Y-10652352D01*
X10644931Y-10652352D02*
X10683026Y-10652352D01*
X10683026Y-10652352D02*
X10702073Y-10642828D01*
X10702073Y-10642828D02*
X10711597Y-10633304D01*
X10711597Y-10633304D02*
X10721121Y-10614257D01*
X10721121Y-10614257D02*
X10721121Y-10566638D01*
X10721121Y-10566638D02*
X10711597Y-10547590D01*
X10711597Y-10547590D02*
X10702073Y-10538066D01*
X10702073Y-10538066D02*
X10683026Y-10528542D01*
X10683026Y-10528542D02*
X10644931Y-10528542D01*
X10644931Y-10528542D02*
X10625883Y-10538066D01*
X10625883Y-10538066D02*
X10616359Y-10547590D01*
X10616359Y-10547590D02*
X10606835Y-10566638D01*
X10902073Y-10452352D02*
X10806835Y-10452352D01*
X10806835Y-10452352D02*
X10797312Y-10547590D01*
X10797312Y-10547590D02*
X10806835Y-10538066D01*
X10806835Y-10538066D02*
X10825883Y-10528542D01*
X10825883Y-10528542D02*
X10873502Y-10528542D01*
X10873502Y-10528542D02*
X10892550Y-10538066D01*
X10892550Y-10538066D02*
X10902073Y-10547590D01*
X10902073Y-10547590D02*
X10911597Y-10566638D01*
X10911597Y-10566638D02*
X10911597Y-10614257D01*
X10911597Y-10614257D02*
X10902073Y-10633304D01*
X10902073Y-10633304D02*
X10892550Y-10642828D01*
X10892550Y-10642828D02*
X10873502Y-10652352D01*
X10873502Y-10652352D02*
X10825883Y-10652352D01*
X10825883Y-10652352D02*
X10806835Y-10642828D01*
X10806835Y-10642828D02*
X10797312Y-10633304D01*
X11035407Y-10452352D02*
X11054454Y-10452352D01*
X11054454Y-10452352D02*
X11073502Y-10461876D01*
X11073502Y-10461876D02*
X11083026Y-10471399D01*
X11083026Y-10471399D02*
X11092550Y-10490447D01*
X11092550Y-10490447D02*
X11102073Y-10528542D01*
X11102073Y-10528542D02*
X11102073Y-10576161D01*
X11102073Y-10576161D02*
X11092550Y-10614257D01*
X11092550Y-10614257D02*
X11083026Y-10633304D01*
X11083026Y-10633304D02*
X11073502Y-10642828D01*
X11073502Y-10642828D02*
X11054454Y-10652352D01*
X11054454Y-10652352D02*
X11035407Y-10652352D01*
X11035407Y-10652352D02*
X11016359Y-10642828D01*
X11016359Y-10642828D02*
X11006835Y-10633304D01*
X11006835Y-10633304D02*
X10997312Y-10614257D01*
X10997312Y-10614257D02*
X10987788Y-10576161D01*
X10987788Y-10576161D02*
X10987788Y-10528542D01*
X10987788Y-10528542D02*
X10997312Y-10490447D01*
X10997312Y-10490447D02*
X11006835Y-10471399D01*
X11006835Y-10471399D02*
X11016359Y-10461876D01*
X11016359Y-10461876D02*
X11035407Y-10452352D01*
X11187788Y-10652352D02*
X11187788Y-10519018D01*
X11187788Y-10538066D02*
X11197311Y-10528542D01*
X11197311Y-10528542D02*
X11216359Y-10519018D01*
X11216359Y-10519018D02*
X11244931Y-10519018D01*
X11244931Y-10519018D02*
X11263978Y-10528542D01*
X11263978Y-10528542D02*
X11273502Y-10547590D01*
X11273502Y-10547590D02*
X11273502Y-10652352D01*
X11273502Y-10547590D02*
X11283026Y-10528542D01*
X11283026Y-10528542D02*
X11302073Y-10519018D01*
X11302073Y-10519018D02*
X11330645Y-10519018D01*
X11330645Y-10519018D02*
X11349692Y-10528542D01*
X11349692Y-10528542D02*
X11359216Y-10547590D01*
X11359216Y-10547590D02*
X11359216Y-10652352D01*
X11454454Y-10652352D02*
X11454454Y-10519018D01*
X11454454Y-10538066D02*
X11463978Y-10528542D01*
X11463978Y-10528542D02*
X11483026Y-10519018D01*
X11483026Y-10519018D02*
X11511597Y-10519018D01*
X11511597Y-10519018D02*
X11530645Y-10528542D01*
X11530645Y-10528542D02*
X11540169Y-10547590D01*
X11540169Y-10547590D02*
X11540169Y-10652352D01*
X11540169Y-10547590D02*
X11549692Y-10528542D01*
X11549692Y-10528542D02*
X11568740Y-10519018D01*
X11568740Y-10519018D02*
X11597311Y-10519018D01*
X11597311Y-10519018D02*
X11616359Y-10528542D01*
X11616359Y-10528542D02*
X11625883Y-10547590D01*
X11625883Y-10547590D02*
X11625883Y-10652352D01*
X12016359Y-10442828D02*
X11844931Y-10699971D01*
X12273502Y-10452352D02*
X12292550Y-10452352D01*
X12292550Y-10452352D02*
X12311597Y-10461876D01*
X12311597Y-10461876D02*
X12321121Y-10471399D01*
X12321121Y-10471399D02*
X12330645Y-10490447D01*
X12330645Y-10490447D02*
X12340169Y-10528542D01*
X12340169Y-10528542D02*
X12340169Y-10576161D01*
X12340169Y-10576161D02*
X12330645Y-10614257D01*
X12330645Y-10614257D02*
X12321121Y-10633304D01*
X12321121Y-10633304D02*
X12311597Y-10642828D01*
X12311597Y-10642828D02*
X12292550Y-10652352D01*
X12292550Y-10652352D02*
X12273502Y-10652352D01*
X12273502Y-10652352D02*
X12254454Y-10642828D01*
X12254454Y-10642828D02*
X12244931Y-10633304D01*
X12244931Y-10633304D02*
X12235407Y-10614257D01*
X12235407Y-10614257D02*
X12225883Y-10576161D01*
X12225883Y-10576161D02*
X12225883Y-10528542D01*
X12225883Y-10528542D02*
X12235407Y-10490447D01*
X12235407Y-10490447D02*
X12244931Y-10471399D01*
X12244931Y-10471399D02*
X12254454Y-10461876D01*
X12254454Y-10461876D02*
X12273502Y-10452352D01*
X12425883Y-10633304D02*
X12435407Y-10642828D01*
X12435407Y-10642828D02*
X12425883Y-10652352D01*
X12425883Y-10652352D02*
X12416359Y-10642828D01*
X12416359Y-10642828D02*
X12425883Y-10633304D01*
X12425883Y-10633304D02*
X12425883Y-10652352D01*
X12559216Y-10452352D02*
X12578264Y-10452352D01*
X12578264Y-10452352D02*
X12597312Y-10461876D01*
X12597312Y-10461876D02*
X12606835Y-10471399D01*
X12606835Y-10471399D02*
X12616359Y-10490447D01*
X12616359Y-10490447D02*
X12625883Y-10528542D01*
X12625883Y-10528542D02*
X12625883Y-10576161D01*
X12625883Y-10576161D02*
X12616359Y-10614257D01*
X12616359Y-10614257D02*
X12606835Y-10633304D01*
X12606835Y-10633304D02*
X12597312Y-10642828D01*
X12597312Y-10642828D02*
X12578264Y-10652352D01*
X12578264Y-10652352D02*
X12559216Y-10652352D01*
X12559216Y-10652352D02*
X12540169Y-10642828D01*
X12540169Y-10642828D02*
X12530645Y-10633304D01*
X12530645Y-10633304D02*
X12521121Y-10614257D01*
X12521121Y-10614257D02*
X12511597Y-10576161D01*
X12511597Y-10576161D02*
X12511597Y-10528542D01*
X12511597Y-10528542D02*
X12521121Y-10490447D01*
X12521121Y-10490447D02*
X12530645Y-10471399D01*
X12530645Y-10471399D02*
X12540169Y-10461876D01*
X12540169Y-10461876D02*
X12559216Y-10452352D01*
X12702074Y-10471399D02*
X12711597Y-10461876D01*
X12711597Y-10461876D02*
X12730645Y-10452352D01*
X12730645Y-10452352D02*
X12778264Y-10452352D01*
X12778264Y-10452352D02*
X12797312Y-10461876D01*
X12797312Y-10461876D02*
X12806835Y-10471399D01*
X12806835Y-10471399D02*
X12816359Y-10490447D01*
X12816359Y-10490447D02*
X12816359Y-10509495D01*
X12816359Y-10509495D02*
X12806835Y-10538066D01*
X12806835Y-10538066D02*
X12692550Y-10652352D01*
X12692550Y-10652352D02*
X12816359Y-10652352D01*
X12997312Y-10452352D02*
X12902074Y-10452352D01*
X12902074Y-10452352D02*
X12892550Y-10547590D01*
X12892550Y-10547590D02*
X12902074Y-10538066D01*
X12902074Y-10538066D02*
X12921121Y-10528542D01*
X12921121Y-10528542D02*
X12968740Y-10528542D01*
X12968740Y-10528542D02*
X12987788Y-10538066D01*
X12987788Y-10538066D02*
X12997312Y-10547590D01*
X12997312Y-10547590D02*
X13006835Y-10566638D01*
X13006835Y-10566638D02*
X13006835Y-10614257D01*
X13006835Y-10614257D02*
X12997312Y-10633304D01*
X12997312Y-10633304D02*
X12987788Y-10642828D01*
X12987788Y-10642828D02*
X12968740Y-10652352D01*
X12968740Y-10652352D02*
X12921121Y-10652352D01*
X12921121Y-10652352D02*
X12902074Y-10642828D01*
X12902074Y-10642828D02*
X12892550Y-10633304D01*
X13178264Y-10452352D02*
X13140169Y-10452352D01*
X13140169Y-10452352D02*
X13121121Y-10461876D01*
X13121121Y-10461876D02*
X13111597Y-10471399D01*
X13111597Y-10471399D02*
X13092550Y-10499971D01*
X13092550Y-10499971D02*
X13083026Y-10538066D01*
X13083026Y-10538066D02*
X13083026Y-10614257D01*
X13083026Y-10614257D02*
X13092550Y-10633304D01*
X13092550Y-10633304D02*
X13102074Y-10642828D01*
X13102074Y-10642828D02*
X13121121Y-10652352D01*
X13121121Y-10652352D02*
X13159216Y-10652352D01*
X13159216Y-10652352D02*
X13178264Y-10642828D01*
X13178264Y-10642828D02*
X13187788Y-10633304D01*
X13187788Y-10633304D02*
X13197312Y-10614257D01*
X13197312Y-10614257D02*
X13197312Y-10566638D01*
X13197312Y-10566638D02*
X13187788Y-10547590D01*
X13187788Y-10547590D02*
X13178264Y-10538066D01*
X13178264Y-10538066D02*
X13159216Y-10528542D01*
X13159216Y-10528542D02*
X13121121Y-10528542D01*
X13121121Y-10528542D02*
X13102074Y-10538066D01*
X13102074Y-10538066D02*
X13092550Y-10547590D01*
X13092550Y-10547590D02*
X13083026Y-10566638D01*
X13273502Y-10452352D02*
X13273502Y-10490447D01*
X13349693Y-10452352D02*
X13349693Y-10490447D01*
X13644931Y-10728542D02*
X13635407Y-10719018D01*
X13635407Y-10719018D02*
X13616359Y-10690447D01*
X13616359Y-10690447D02*
X13606836Y-10671399D01*
X13606836Y-10671399D02*
X13597312Y-10642828D01*
X13597312Y-10642828D02*
X13587788Y-10595209D01*
X13587788Y-10595209D02*
X13587788Y-10557114D01*
X13587788Y-10557114D02*
X13597312Y-10509495D01*
X13597312Y-10509495D02*
X13606836Y-10480923D01*
X13606836Y-10480923D02*
X13616359Y-10461876D01*
X13616359Y-10461876D02*
X13635407Y-10433304D01*
X13635407Y-10433304D02*
X13644931Y-10423780D01*
X13711597Y-10471399D02*
X13721121Y-10461876D01*
X13721121Y-10461876D02*
X13740169Y-10452352D01*
X13740169Y-10452352D02*
X13787788Y-10452352D01*
X13787788Y-10452352D02*
X13806836Y-10461876D01*
X13806836Y-10461876D02*
X13816359Y-10471399D01*
X13816359Y-10471399D02*
X13825883Y-10490447D01*
X13825883Y-10490447D02*
X13825883Y-10509495D01*
X13825883Y-10509495D02*
X13816359Y-10538066D01*
X13816359Y-10538066D02*
X13702074Y-10652352D01*
X13702074Y-10652352D02*
X13825883Y-10652352D01*
X14063978Y-10652352D02*
X14063978Y-10452352D01*
X14149693Y-10652352D02*
X14149693Y-10547590D01*
X14149693Y-10547590D02*
X14140169Y-10528542D01*
X14140169Y-10528542D02*
X14121121Y-10519018D01*
X14121121Y-10519018D02*
X14092550Y-10519018D01*
X14092550Y-10519018D02*
X14073502Y-10528542D01*
X14073502Y-10528542D02*
X14063978Y-10538066D01*
X14273502Y-10652352D02*
X14254455Y-10642828D01*
X14254455Y-10642828D02*
X14244931Y-10633304D01*
X14244931Y-10633304D02*
X14235407Y-10614257D01*
X14235407Y-10614257D02*
X14235407Y-10557114D01*
X14235407Y-10557114D02*
X14244931Y-10538066D01*
X14244931Y-10538066D02*
X14254455Y-10528542D01*
X14254455Y-10528542D02*
X14273502Y-10519018D01*
X14273502Y-10519018D02*
X14302074Y-10519018D01*
X14302074Y-10519018D02*
X14321121Y-10528542D01*
X14321121Y-10528542D02*
X14330645Y-10538066D01*
X14330645Y-10538066D02*
X14340169Y-10557114D01*
X14340169Y-10557114D02*
X14340169Y-10614257D01*
X14340169Y-10614257D02*
X14330645Y-10633304D01*
X14330645Y-10633304D02*
X14321121Y-10642828D01*
X14321121Y-10642828D02*
X14302074Y-10652352D01*
X14302074Y-10652352D02*
X14273502Y-10652352D01*
X14454455Y-10652352D02*
X14435407Y-10642828D01*
X14435407Y-10642828D02*
X14425883Y-10623780D01*
X14425883Y-10623780D02*
X14425883Y-10452352D01*
X14606836Y-10642828D02*
X14587788Y-10652352D01*
X14587788Y-10652352D02*
X14549693Y-10652352D01*
X14549693Y-10652352D02*
X14530645Y-10642828D01*
X14530645Y-10642828D02*
X14521121Y-10623780D01*
X14521121Y-10623780D02*
X14521121Y-10547590D01*
X14521121Y-10547590D02*
X14530645Y-10528542D01*
X14530645Y-10528542D02*
X14549693Y-10519018D01*
X14549693Y-10519018D02*
X14587788Y-10519018D01*
X14587788Y-10519018D02*
X14606836Y-10528542D01*
X14606836Y-10528542D02*
X14616359Y-10547590D01*
X14616359Y-10547590D02*
X14616359Y-10566638D01*
X14616359Y-10566638D02*
X14521121Y-10585685D01*
X14692550Y-10642828D02*
X14711598Y-10652352D01*
X14711598Y-10652352D02*
X14749693Y-10652352D01*
X14749693Y-10652352D02*
X14768740Y-10642828D01*
X14768740Y-10642828D02*
X14778264Y-10623780D01*
X14778264Y-10623780D02*
X14778264Y-10614257D01*
X14778264Y-10614257D02*
X14768740Y-10595209D01*
X14768740Y-10595209D02*
X14749693Y-10585685D01*
X14749693Y-10585685D02*
X14721121Y-10585685D01*
X14721121Y-10585685D02*
X14702074Y-10576161D01*
X14702074Y-10576161D02*
X14692550Y-10557114D01*
X14692550Y-10557114D02*
X14692550Y-10547590D01*
X14692550Y-10547590D02*
X14702074Y-10528542D01*
X14702074Y-10528542D02*
X14721121Y-10519018D01*
X14721121Y-10519018D02*
X14749693Y-10519018D01*
X14749693Y-10519018D02*
X14768740Y-10528542D01*
X14844931Y-10728542D02*
X14854455Y-10719018D01*
X14854455Y-10719018D02*
X14873502Y-10690447D01*
X14873502Y-10690447D02*
X14883026Y-10671399D01*
X14883026Y-10671399D02*
X14892550Y-10642828D01*
X14892550Y-10642828D02*
X14902074Y-10595209D01*
X14902074Y-10595209D02*
X14902074Y-10557114D01*
X14902074Y-10557114D02*
X14892550Y-10509495D01*
X14892550Y-10509495D02*
X14883026Y-10480923D01*
X14883026Y-10480923D02*
X14873502Y-10461876D01*
X14873502Y-10461876D02*
X14854455Y-10433304D01*
X14854455Y-10433304D02*
X14844931Y-10423780D01*
X15206836Y-10728542D02*
X15197312Y-10719018D01*
X15197312Y-10719018D02*
X15178264Y-10690447D01*
X15178264Y-10690447D02*
X15168740Y-10671399D01*
X15168740Y-10671399D02*
X15159217Y-10642828D01*
X15159217Y-10642828D02*
X15149693Y-10595209D01*
X15149693Y-10595209D02*
X15149693Y-10557114D01*
X15149693Y-10557114D02*
X15159217Y-10509495D01*
X15159217Y-10509495D02*
X15168740Y-10480923D01*
X15168740Y-10480923D02*
X15178264Y-10461876D01*
X15178264Y-10461876D02*
X15197312Y-10433304D01*
X15197312Y-10433304D02*
X15206836Y-10423780D01*
X15283026Y-10519018D02*
X15283026Y-10652352D01*
X15283026Y-10538066D02*
X15292550Y-10528542D01*
X15292550Y-10528542D02*
X15311598Y-10519018D01*
X15311598Y-10519018D02*
X15340169Y-10519018D01*
X15340169Y-10519018D02*
X15359217Y-10528542D01*
X15359217Y-10528542D02*
X15368740Y-10547590D01*
X15368740Y-10547590D02*
X15368740Y-10652352D01*
X15492550Y-10652352D02*
X15473502Y-10642828D01*
X15473502Y-10642828D02*
X15463979Y-10633304D01*
X15463979Y-10633304D02*
X15454455Y-10614257D01*
X15454455Y-10614257D02*
X15454455Y-10557114D01*
X15454455Y-10557114D02*
X15463979Y-10538066D01*
X15463979Y-10538066D02*
X15473502Y-10528542D01*
X15473502Y-10528542D02*
X15492550Y-10519018D01*
X15492550Y-10519018D02*
X15521121Y-10519018D01*
X15521121Y-10519018D02*
X15540169Y-10528542D01*
X15540169Y-10528542D02*
X15549693Y-10538066D01*
X15549693Y-10538066D02*
X15559217Y-10557114D01*
X15559217Y-10557114D02*
X15559217Y-10614257D01*
X15559217Y-10614257D02*
X15549693Y-10633304D01*
X15549693Y-10633304D02*
X15540169Y-10642828D01*
X15540169Y-10642828D02*
X15521121Y-10652352D01*
X15521121Y-10652352D02*
X15492550Y-10652352D01*
X15616360Y-10519018D02*
X15692550Y-10519018D01*
X15644931Y-10452352D02*
X15644931Y-10623780D01*
X15644931Y-10623780D02*
X15654455Y-10642828D01*
X15654455Y-10642828D02*
X15673502Y-10652352D01*
X15673502Y-10652352D02*
X15692550Y-10652352D01*
X15911598Y-10519018D02*
X15911598Y-10719018D01*
X15911598Y-10528542D02*
X15930645Y-10519018D01*
X15930645Y-10519018D02*
X15968741Y-10519018D01*
X15968741Y-10519018D02*
X15987788Y-10528542D01*
X15987788Y-10528542D02*
X15997312Y-10538066D01*
X15997312Y-10538066D02*
X16006836Y-10557114D01*
X16006836Y-10557114D02*
X16006836Y-10614257D01*
X16006836Y-10614257D02*
X15997312Y-10633304D01*
X15997312Y-10633304D02*
X15987788Y-10642828D01*
X15987788Y-10642828D02*
X15968741Y-10652352D01*
X15968741Y-10652352D02*
X15930645Y-10652352D01*
X15930645Y-10652352D02*
X15911598Y-10642828D01*
X16121121Y-10652352D02*
X16102074Y-10642828D01*
X16102074Y-10642828D02*
X16092550Y-10623780D01*
X16092550Y-10623780D02*
X16092550Y-10452352D01*
X16283026Y-10652352D02*
X16283026Y-10547590D01*
X16283026Y-10547590D02*
X16273502Y-10528542D01*
X16273502Y-10528542D02*
X16254455Y-10519018D01*
X16254455Y-10519018D02*
X16216360Y-10519018D01*
X16216360Y-10519018D02*
X16197312Y-10528542D01*
X16283026Y-10642828D02*
X16263979Y-10652352D01*
X16263979Y-10652352D02*
X16216360Y-10652352D01*
X16216360Y-10652352D02*
X16197312Y-10642828D01*
X16197312Y-10642828D02*
X16187788Y-10623780D01*
X16187788Y-10623780D02*
X16187788Y-10604733D01*
X16187788Y-10604733D02*
X16197312Y-10585685D01*
X16197312Y-10585685D02*
X16216360Y-10576161D01*
X16216360Y-10576161D02*
X16263979Y-10576161D01*
X16263979Y-10576161D02*
X16283026Y-10566638D01*
X16349693Y-10519018D02*
X16425883Y-10519018D01*
X16378264Y-10452352D02*
X16378264Y-10623780D01*
X16378264Y-10623780D02*
X16387788Y-10642828D01*
X16387788Y-10642828D02*
X16406836Y-10652352D01*
X16406836Y-10652352D02*
X16425883Y-10652352D01*
X16568741Y-10642828D02*
X16549693Y-10652352D01*
X16549693Y-10652352D02*
X16511598Y-10652352D01*
X16511598Y-10652352D02*
X16492550Y-10642828D01*
X16492550Y-10642828D02*
X16483026Y-10623780D01*
X16483026Y-10623780D02*
X16483026Y-10547590D01*
X16483026Y-10547590D02*
X16492550Y-10528542D01*
X16492550Y-10528542D02*
X16511598Y-10519018D01*
X16511598Y-10519018D02*
X16549693Y-10519018D01*
X16549693Y-10519018D02*
X16568741Y-10528542D01*
X16568741Y-10528542D02*
X16578264Y-10547590D01*
X16578264Y-10547590D02*
X16578264Y-10566638D01*
X16578264Y-10566638D02*
X16483026Y-10585685D01*
X16749693Y-10652352D02*
X16749693Y-10452352D01*
X16749693Y-10642828D02*
X16730645Y-10652352D01*
X16730645Y-10652352D02*
X16692550Y-10652352D01*
X16692550Y-10652352D02*
X16673502Y-10642828D01*
X16673502Y-10642828D02*
X16663979Y-10633304D01*
X16663979Y-10633304D02*
X16654455Y-10614257D01*
X16654455Y-10614257D02*
X16654455Y-10557114D01*
X16654455Y-10557114D02*
X16663979Y-10538066D01*
X16663979Y-10538066D02*
X16673502Y-10528542D01*
X16673502Y-10528542D02*
X16692550Y-10519018D01*
X16692550Y-10519018D02*
X16730645Y-10519018D01*
X16730645Y-10519018D02*
X16749693Y-10528542D01*
X16825884Y-10728542D02*
X16835407Y-10719018D01*
X16835407Y-10719018D02*
X16854455Y-10690447D01*
X16854455Y-10690447D02*
X16863979Y-10671399D01*
X16863979Y-10671399D02*
X16873503Y-10642828D01*
X16873503Y-10642828D02*
X16883026Y-10595209D01*
X16883026Y-10595209D02*
X16883026Y-10557114D01*
X16883026Y-10557114D02*
X16873503Y-10509495D01*
X16873503Y-10509495D02*
X16863979Y-10480923D01*
X16863979Y-10480923D02*
X16854455Y-10461876D01*
X16854455Y-10461876D02*
X16835407Y-10433304D01*
X16835407Y-10433304D02*
X16825884Y-10423780D01*
D11*
X10069868Y-10824868D02*
G75*
G03*
X10069868Y-10824868I-45000J0D01*
G01*
D10*
X10368740Y-10716352D02*
X10387788Y-10716352D01*
X10387788Y-10716352D02*
X10406835Y-10725876D01*
X10406835Y-10725876D02*
X10416359Y-10735399D01*
X10416359Y-10735399D02*
X10425883Y-10754447D01*
X10425883Y-10754447D02*
X10435407Y-10792542D01*
X10435407Y-10792542D02*
X10435407Y-10840161D01*
X10435407Y-10840161D02*
X10425883Y-10878257D01*
X10425883Y-10878257D02*
X10416359Y-10897304D01*
X10416359Y-10897304D02*
X10406835Y-10906828D01*
X10406835Y-10906828D02*
X10387788Y-10916352D01*
X10387788Y-10916352D02*
X10368740Y-10916352D01*
X10368740Y-10916352D02*
X10349692Y-10906828D01*
X10349692Y-10906828D02*
X10340169Y-10897304D01*
X10340169Y-10897304D02*
X10330645Y-10878257D01*
X10330645Y-10878257D02*
X10321121Y-10840161D01*
X10321121Y-10840161D02*
X10321121Y-10792542D01*
X10321121Y-10792542D02*
X10330645Y-10754447D01*
X10330645Y-10754447D02*
X10340169Y-10735399D01*
X10340169Y-10735399D02*
X10349692Y-10725876D01*
X10349692Y-10725876D02*
X10368740Y-10716352D01*
X10521121Y-10897304D02*
X10530645Y-10906828D01*
X10530645Y-10906828D02*
X10521121Y-10916352D01*
X10521121Y-10916352D02*
X10511597Y-10906828D01*
X10511597Y-10906828D02*
X10521121Y-10897304D01*
X10521121Y-10897304D02*
X10521121Y-10916352D01*
X10625883Y-10916352D02*
X10663978Y-10916352D01*
X10663978Y-10916352D02*
X10683026Y-10906828D01*
X10683026Y-10906828D02*
X10692550Y-10897304D01*
X10692550Y-10897304D02*
X10711597Y-10868733D01*
X10711597Y-10868733D02*
X10721121Y-10830638D01*
X10721121Y-10830638D02*
X10721121Y-10754447D01*
X10721121Y-10754447D02*
X10711597Y-10735399D01*
X10711597Y-10735399D02*
X10702073Y-10725876D01*
X10702073Y-10725876D02*
X10683026Y-10716352D01*
X10683026Y-10716352D02*
X10644931Y-10716352D01*
X10644931Y-10716352D02*
X10625883Y-10725876D01*
X10625883Y-10725876D02*
X10616359Y-10735399D01*
X10616359Y-10735399D02*
X10606835Y-10754447D01*
X10606835Y-10754447D02*
X10606835Y-10802066D01*
X10606835Y-10802066D02*
X10616359Y-10821114D01*
X10616359Y-10821114D02*
X10625883Y-10830638D01*
X10625883Y-10830638D02*
X10644931Y-10840161D01*
X10644931Y-10840161D02*
X10683026Y-10840161D01*
X10683026Y-10840161D02*
X10702073Y-10830638D01*
X10702073Y-10830638D02*
X10711597Y-10821114D01*
X10711597Y-10821114D02*
X10721121Y-10802066D01*
X10844931Y-10716352D02*
X10863978Y-10716352D01*
X10863978Y-10716352D02*
X10883026Y-10725876D01*
X10883026Y-10725876D02*
X10892550Y-10735399D01*
X10892550Y-10735399D02*
X10902073Y-10754447D01*
X10902073Y-10754447D02*
X10911597Y-10792542D01*
X10911597Y-10792542D02*
X10911597Y-10840161D01*
X10911597Y-10840161D02*
X10902073Y-10878257D01*
X10902073Y-10878257D02*
X10892550Y-10897304D01*
X10892550Y-10897304D02*
X10883026Y-10906828D01*
X10883026Y-10906828D02*
X10863978Y-10916352D01*
X10863978Y-10916352D02*
X10844931Y-10916352D01*
X10844931Y-10916352D02*
X10825883Y-10906828D01*
X10825883Y-10906828D02*
X10816359Y-10897304D01*
X10816359Y-10897304D02*
X10806835Y-10878257D01*
X10806835Y-10878257D02*
X10797312Y-10840161D01*
X10797312Y-10840161D02*
X10797312Y-10792542D01*
X10797312Y-10792542D02*
X10806835Y-10754447D01*
X10806835Y-10754447D02*
X10816359Y-10735399D01*
X10816359Y-10735399D02*
X10825883Y-10725876D01*
X10825883Y-10725876D02*
X10844931Y-10716352D01*
X11035407Y-10716352D02*
X11054454Y-10716352D01*
X11054454Y-10716352D02*
X11073502Y-10725876D01*
X11073502Y-10725876D02*
X11083026Y-10735399D01*
X11083026Y-10735399D02*
X11092550Y-10754447D01*
X11092550Y-10754447D02*
X11102073Y-10792542D01*
X11102073Y-10792542D02*
X11102073Y-10840161D01*
X11102073Y-10840161D02*
X11092550Y-10878257D01*
X11092550Y-10878257D02*
X11083026Y-10897304D01*
X11083026Y-10897304D02*
X11073502Y-10906828D01*
X11073502Y-10906828D02*
X11054454Y-10916352D01*
X11054454Y-10916352D02*
X11035407Y-10916352D01*
X11035407Y-10916352D02*
X11016359Y-10906828D01*
X11016359Y-10906828D02*
X11006835Y-10897304D01*
X11006835Y-10897304D02*
X10997312Y-10878257D01*
X10997312Y-10878257D02*
X10987788Y-10840161D01*
X10987788Y-10840161D02*
X10987788Y-10792542D01*
X10987788Y-10792542D02*
X10997312Y-10754447D01*
X10997312Y-10754447D02*
X11006835Y-10735399D01*
X11006835Y-10735399D02*
X11016359Y-10725876D01*
X11016359Y-10725876D02*
X11035407Y-10716352D01*
X11187788Y-10916352D02*
X11187788Y-10783018D01*
X11187788Y-10802066D02*
X11197311Y-10792542D01*
X11197311Y-10792542D02*
X11216359Y-10783018D01*
X11216359Y-10783018D02*
X11244931Y-10783018D01*
X11244931Y-10783018D02*
X11263978Y-10792542D01*
X11263978Y-10792542D02*
X11273502Y-10811590D01*
X11273502Y-10811590D02*
X11273502Y-10916352D01*
X11273502Y-10811590D02*
X11283026Y-10792542D01*
X11283026Y-10792542D02*
X11302073Y-10783018D01*
X11302073Y-10783018D02*
X11330645Y-10783018D01*
X11330645Y-10783018D02*
X11349692Y-10792542D01*
X11349692Y-10792542D02*
X11359216Y-10811590D01*
X11359216Y-10811590D02*
X11359216Y-10916352D01*
X11454454Y-10916352D02*
X11454454Y-10783018D01*
X11454454Y-10802066D02*
X11463978Y-10792542D01*
X11463978Y-10792542D02*
X11483026Y-10783018D01*
X11483026Y-10783018D02*
X11511597Y-10783018D01*
X11511597Y-10783018D02*
X11530645Y-10792542D01*
X11530645Y-10792542D02*
X11540169Y-10811590D01*
X11540169Y-10811590D02*
X11540169Y-10916352D01*
X11540169Y-10811590D02*
X11549692Y-10792542D01*
X11549692Y-10792542D02*
X11568740Y-10783018D01*
X11568740Y-10783018D02*
X11597311Y-10783018D01*
X11597311Y-10783018D02*
X11616359Y-10792542D01*
X11616359Y-10792542D02*
X11625883Y-10811590D01*
X11625883Y-10811590D02*
X11625883Y-10916352D01*
X12016359Y-10706828D02*
X11844931Y-10963971D01*
X12273502Y-10716352D02*
X12292550Y-10716352D01*
X12292550Y-10716352D02*
X12311597Y-10725876D01*
X12311597Y-10725876D02*
X12321121Y-10735399D01*
X12321121Y-10735399D02*
X12330645Y-10754447D01*
X12330645Y-10754447D02*
X12340169Y-10792542D01*
X12340169Y-10792542D02*
X12340169Y-10840161D01*
X12340169Y-10840161D02*
X12330645Y-10878257D01*
X12330645Y-10878257D02*
X12321121Y-10897304D01*
X12321121Y-10897304D02*
X12311597Y-10906828D01*
X12311597Y-10906828D02*
X12292550Y-10916352D01*
X12292550Y-10916352D02*
X12273502Y-10916352D01*
X12273502Y-10916352D02*
X12254454Y-10906828D01*
X12254454Y-10906828D02*
X12244931Y-10897304D01*
X12244931Y-10897304D02*
X12235407Y-10878257D01*
X12235407Y-10878257D02*
X12225883Y-10840161D01*
X12225883Y-10840161D02*
X12225883Y-10792542D01*
X12225883Y-10792542D02*
X12235407Y-10754447D01*
X12235407Y-10754447D02*
X12244931Y-10735399D01*
X12244931Y-10735399D02*
X12254454Y-10725876D01*
X12254454Y-10725876D02*
X12273502Y-10716352D01*
X12425883Y-10897304D02*
X12435407Y-10906828D01*
X12435407Y-10906828D02*
X12425883Y-10916352D01*
X12425883Y-10916352D02*
X12416359Y-10906828D01*
X12416359Y-10906828D02*
X12425883Y-10897304D01*
X12425883Y-10897304D02*
X12425883Y-10916352D01*
X12559216Y-10716352D02*
X12578264Y-10716352D01*
X12578264Y-10716352D02*
X12597312Y-10725876D01*
X12597312Y-10725876D02*
X12606835Y-10735399D01*
X12606835Y-10735399D02*
X12616359Y-10754447D01*
X12616359Y-10754447D02*
X12625883Y-10792542D01*
X12625883Y-10792542D02*
X12625883Y-10840161D01*
X12625883Y-10840161D02*
X12616359Y-10878257D01*
X12616359Y-10878257D02*
X12606835Y-10897304D01*
X12606835Y-10897304D02*
X12597312Y-10906828D01*
X12597312Y-10906828D02*
X12578264Y-10916352D01*
X12578264Y-10916352D02*
X12559216Y-10916352D01*
X12559216Y-10916352D02*
X12540169Y-10906828D01*
X12540169Y-10906828D02*
X12530645Y-10897304D01*
X12530645Y-10897304D02*
X12521121Y-10878257D01*
X12521121Y-10878257D02*
X12511597Y-10840161D01*
X12511597Y-10840161D02*
X12511597Y-10792542D01*
X12511597Y-10792542D02*
X12521121Y-10754447D01*
X12521121Y-10754447D02*
X12530645Y-10735399D01*
X12530645Y-10735399D02*
X12540169Y-10725876D01*
X12540169Y-10725876D02*
X12559216Y-10716352D01*
X12692550Y-10716352D02*
X12816359Y-10716352D01*
X12816359Y-10716352D02*
X12749693Y-10792542D01*
X12749693Y-10792542D02*
X12778264Y-10792542D01*
X12778264Y-10792542D02*
X12797312Y-10802066D01*
X12797312Y-10802066D02*
X12806835Y-10811590D01*
X12806835Y-10811590D02*
X12816359Y-10830638D01*
X12816359Y-10830638D02*
X12816359Y-10878257D01*
X12816359Y-10878257D02*
X12806835Y-10897304D01*
X12806835Y-10897304D02*
X12797312Y-10906828D01*
X12797312Y-10906828D02*
X12778264Y-10916352D01*
X12778264Y-10916352D02*
X12721121Y-10916352D01*
X12721121Y-10916352D02*
X12702074Y-10906828D01*
X12702074Y-10906828D02*
X12692550Y-10897304D01*
X12997312Y-10716352D02*
X12902074Y-10716352D01*
X12902074Y-10716352D02*
X12892550Y-10811590D01*
X12892550Y-10811590D02*
X12902074Y-10802066D01*
X12902074Y-10802066D02*
X12921121Y-10792542D01*
X12921121Y-10792542D02*
X12968740Y-10792542D01*
X12968740Y-10792542D02*
X12987788Y-10802066D01*
X12987788Y-10802066D02*
X12997312Y-10811590D01*
X12997312Y-10811590D02*
X13006835Y-10830638D01*
X13006835Y-10830638D02*
X13006835Y-10878257D01*
X13006835Y-10878257D02*
X12997312Y-10897304D01*
X12997312Y-10897304D02*
X12987788Y-10906828D01*
X12987788Y-10906828D02*
X12968740Y-10916352D01*
X12968740Y-10916352D02*
X12921121Y-10916352D01*
X12921121Y-10916352D02*
X12902074Y-10906828D01*
X12902074Y-10906828D02*
X12892550Y-10897304D01*
X13178264Y-10783018D02*
X13178264Y-10916352D01*
X13130645Y-10706828D02*
X13083026Y-10849685D01*
X13083026Y-10849685D02*
X13206835Y-10849685D01*
X13273502Y-10716352D02*
X13273502Y-10754447D01*
X13349693Y-10716352D02*
X13349693Y-10754447D01*
X13644931Y-10992542D02*
X13635407Y-10983018D01*
X13635407Y-10983018D02*
X13616359Y-10954447D01*
X13616359Y-10954447D02*
X13606836Y-10935399D01*
X13606836Y-10935399D02*
X13597312Y-10906828D01*
X13597312Y-10906828D02*
X13587788Y-10859209D01*
X13587788Y-10859209D02*
X13587788Y-10821114D01*
X13587788Y-10821114D02*
X13597312Y-10773495D01*
X13597312Y-10773495D02*
X13606836Y-10744923D01*
X13606836Y-10744923D02*
X13616359Y-10725876D01*
X13616359Y-10725876D02*
X13635407Y-10697304D01*
X13635407Y-10697304D02*
X13644931Y-10687780D01*
X13711597Y-10735399D02*
X13721121Y-10725876D01*
X13721121Y-10725876D02*
X13740169Y-10716352D01*
X13740169Y-10716352D02*
X13787788Y-10716352D01*
X13787788Y-10716352D02*
X13806836Y-10725876D01*
X13806836Y-10725876D02*
X13816359Y-10735399D01*
X13816359Y-10735399D02*
X13825883Y-10754447D01*
X13825883Y-10754447D02*
X13825883Y-10773495D01*
X13825883Y-10773495D02*
X13816359Y-10802066D01*
X13816359Y-10802066D02*
X13702074Y-10916352D01*
X13702074Y-10916352D02*
X13825883Y-10916352D01*
X14063978Y-10916352D02*
X14063978Y-10716352D01*
X14149693Y-10916352D02*
X14149693Y-10811590D01*
X14149693Y-10811590D02*
X14140169Y-10792542D01*
X14140169Y-10792542D02*
X14121121Y-10783018D01*
X14121121Y-10783018D02*
X14092550Y-10783018D01*
X14092550Y-10783018D02*
X14073502Y-10792542D01*
X14073502Y-10792542D02*
X14063978Y-10802066D01*
X14273502Y-10916352D02*
X14254455Y-10906828D01*
X14254455Y-10906828D02*
X14244931Y-10897304D01*
X14244931Y-10897304D02*
X14235407Y-10878257D01*
X14235407Y-10878257D02*
X14235407Y-10821114D01*
X14235407Y-10821114D02*
X14244931Y-10802066D01*
X14244931Y-10802066D02*
X14254455Y-10792542D01*
X14254455Y-10792542D02*
X14273502Y-10783018D01*
X14273502Y-10783018D02*
X14302074Y-10783018D01*
X14302074Y-10783018D02*
X14321121Y-10792542D01*
X14321121Y-10792542D02*
X14330645Y-10802066D01*
X14330645Y-10802066D02*
X14340169Y-10821114D01*
X14340169Y-10821114D02*
X14340169Y-10878257D01*
X14340169Y-10878257D02*
X14330645Y-10897304D01*
X14330645Y-10897304D02*
X14321121Y-10906828D01*
X14321121Y-10906828D02*
X14302074Y-10916352D01*
X14302074Y-10916352D02*
X14273502Y-10916352D01*
X14454455Y-10916352D02*
X14435407Y-10906828D01*
X14435407Y-10906828D02*
X14425883Y-10887780D01*
X14425883Y-10887780D02*
X14425883Y-10716352D01*
X14606836Y-10906828D02*
X14587788Y-10916352D01*
X14587788Y-10916352D02*
X14549693Y-10916352D01*
X14549693Y-10916352D02*
X14530645Y-10906828D01*
X14530645Y-10906828D02*
X14521121Y-10887780D01*
X14521121Y-10887780D02*
X14521121Y-10811590D01*
X14521121Y-10811590D02*
X14530645Y-10792542D01*
X14530645Y-10792542D02*
X14549693Y-10783018D01*
X14549693Y-10783018D02*
X14587788Y-10783018D01*
X14587788Y-10783018D02*
X14606836Y-10792542D01*
X14606836Y-10792542D02*
X14616359Y-10811590D01*
X14616359Y-10811590D02*
X14616359Y-10830638D01*
X14616359Y-10830638D02*
X14521121Y-10849685D01*
X14692550Y-10906828D02*
X14711598Y-10916352D01*
X14711598Y-10916352D02*
X14749693Y-10916352D01*
X14749693Y-10916352D02*
X14768740Y-10906828D01*
X14768740Y-10906828D02*
X14778264Y-10887780D01*
X14778264Y-10887780D02*
X14778264Y-10878257D01*
X14778264Y-10878257D02*
X14768740Y-10859209D01*
X14768740Y-10859209D02*
X14749693Y-10849685D01*
X14749693Y-10849685D02*
X14721121Y-10849685D01*
X14721121Y-10849685D02*
X14702074Y-10840161D01*
X14702074Y-10840161D02*
X14692550Y-10821114D01*
X14692550Y-10821114D02*
X14692550Y-10811590D01*
X14692550Y-10811590D02*
X14702074Y-10792542D01*
X14702074Y-10792542D02*
X14721121Y-10783018D01*
X14721121Y-10783018D02*
X14749693Y-10783018D01*
X14749693Y-10783018D02*
X14768740Y-10792542D01*
X14844931Y-10992542D02*
X14854455Y-10983018D01*
X14854455Y-10983018D02*
X14873502Y-10954447D01*
X14873502Y-10954447D02*
X14883026Y-10935399D01*
X14883026Y-10935399D02*
X14892550Y-10906828D01*
X14892550Y-10906828D02*
X14902074Y-10859209D01*
X14902074Y-10859209D02*
X14902074Y-10821114D01*
X14902074Y-10821114D02*
X14892550Y-10773495D01*
X14892550Y-10773495D02*
X14883026Y-10744923D01*
X14883026Y-10744923D02*
X14873502Y-10725876D01*
X14873502Y-10725876D02*
X14854455Y-10697304D01*
X14854455Y-10697304D02*
X14844931Y-10687780D01*
X15206836Y-10992542D02*
X15197312Y-10983018D01*
X15197312Y-10983018D02*
X15178264Y-10954447D01*
X15178264Y-10954447D02*
X15168740Y-10935399D01*
X15168740Y-10935399D02*
X15159217Y-10906828D01*
X15159217Y-10906828D02*
X15149693Y-10859209D01*
X15149693Y-10859209D02*
X15149693Y-10821114D01*
X15149693Y-10821114D02*
X15159217Y-10773495D01*
X15159217Y-10773495D02*
X15168740Y-10744923D01*
X15168740Y-10744923D02*
X15178264Y-10725876D01*
X15178264Y-10725876D02*
X15197312Y-10697304D01*
X15197312Y-10697304D02*
X15206836Y-10687780D01*
X15283026Y-10783018D02*
X15283026Y-10916352D01*
X15283026Y-10802066D02*
X15292550Y-10792542D01*
X15292550Y-10792542D02*
X15311598Y-10783018D01*
X15311598Y-10783018D02*
X15340169Y-10783018D01*
X15340169Y-10783018D02*
X15359217Y-10792542D01*
X15359217Y-10792542D02*
X15368740Y-10811590D01*
X15368740Y-10811590D02*
X15368740Y-10916352D01*
X15492550Y-10916352D02*
X15473502Y-10906828D01*
X15473502Y-10906828D02*
X15463979Y-10897304D01*
X15463979Y-10897304D02*
X15454455Y-10878257D01*
X15454455Y-10878257D02*
X15454455Y-10821114D01*
X15454455Y-10821114D02*
X15463979Y-10802066D01*
X15463979Y-10802066D02*
X15473502Y-10792542D01*
X15473502Y-10792542D02*
X15492550Y-10783018D01*
X15492550Y-10783018D02*
X15521121Y-10783018D01*
X15521121Y-10783018D02*
X15540169Y-10792542D01*
X15540169Y-10792542D02*
X15549693Y-10802066D01*
X15549693Y-10802066D02*
X15559217Y-10821114D01*
X15559217Y-10821114D02*
X15559217Y-10878257D01*
X15559217Y-10878257D02*
X15549693Y-10897304D01*
X15549693Y-10897304D02*
X15540169Y-10906828D01*
X15540169Y-10906828D02*
X15521121Y-10916352D01*
X15521121Y-10916352D02*
X15492550Y-10916352D01*
X15616360Y-10783018D02*
X15692550Y-10783018D01*
X15644931Y-10716352D02*
X15644931Y-10887780D01*
X15644931Y-10887780D02*
X15654455Y-10906828D01*
X15654455Y-10906828D02*
X15673502Y-10916352D01*
X15673502Y-10916352D02*
X15692550Y-10916352D01*
X15911598Y-10783018D02*
X15911598Y-10983018D01*
X15911598Y-10792542D02*
X15930645Y-10783018D01*
X15930645Y-10783018D02*
X15968741Y-10783018D01*
X15968741Y-10783018D02*
X15987788Y-10792542D01*
X15987788Y-10792542D02*
X15997312Y-10802066D01*
X15997312Y-10802066D02*
X16006836Y-10821114D01*
X16006836Y-10821114D02*
X16006836Y-10878257D01*
X16006836Y-10878257D02*
X15997312Y-10897304D01*
X15997312Y-10897304D02*
X15987788Y-10906828D01*
X15987788Y-10906828D02*
X15968741Y-10916352D01*
X15968741Y-10916352D02*
X15930645Y-10916352D01*
X15930645Y-10916352D02*
X15911598Y-10906828D01*
X16121121Y-10916352D02*
X16102074Y-10906828D01*
X16102074Y-10906828D02*
X16092550Y-10887780D01*
X16092550Y-10887780D02*
X16092550Y-10716352D01*
X16283026Y-10916352D02*
X16283026Y-10811590D01*
X16283026Y-10811590D02*
X16273502Y-10792542D01*
X16273502Y-10792542D02*
X16254455Y-10783018D01*
X16254455Y-10783018D02*
X16216360Y-10783018D01*
X16216360Y-10783018D02*
X16197312Y-10792542D01*
X16283026Y-10906828D02*
X16263979Y-10916352D01*
X16263979Y-10916352D02*
X16216360Y-10916352D01*
X16216360Y-10916352D02*
X16197312Y-10906828D01*
X16197312Y-10906828D02*
X16187788Y-10887780D01*
X16187788Y-10887780D02*
X16187788Y-10868733D01*
X16187788Y-10868733D02*
X16197312Y-10849685D01*
X16197312Y-10849685D02*
X16216360Y-10840161D01*
X16216360Y-10840161D02*
X16263979Y-10840161D01*
X16263979Y-10840161D02*
X16283026Y-10830638D01*
X16349693Y-10783018D02*
X16425883Y-10783018D01*
X16378264Y-10716352D02*
X16378264Y-10887780D01*
X16378264Y-10887780D02*
X16387788Y-10906828D01*
X16387788Y-10906828D02*
X16406836Y-10916352D01*
X16406836Y-10916352D02*
X16425883Y-10916352D01*
X16568741Y-10906828D02*
X16549693Y-10916352D01*
X16549693Y-10916352D02*
X16511598Y-10916352D01*
X16511598Y-10916352D02*
X16492550Y-10906828D01*
X16492550Y-10906828D02*
X16483026Y-10887780D01*
X16483026Y-10887780D02*
X16483026Y-10811590D01*
X16483026Y-10811590D02*
X16492550Y-10792542D01*
X16492550Y-10792542D02*
X16511598Y-10783018D01*
X16511598Y-10783018D02*
X16549693Y-10783018D01*
X16549693Y-10783018D02*
X16568741Y-10792542D01*
X16568741Y-10792542D02*
X16578264Y-10811590D01*
X16578264Y-10811590D02*
X16578264Y-10830638D01*
X16578264Y-10830638D02*
X16483026Y-10849685D01*
X16749693Y-10916352D02*
X16749693Y-10716352D01*
X16749693Y-10906828D02*
X16730645Y-10916352D01*
X16730645Y-10916352D02*
X16692550Y-10916352D01*
X16692550Y-10916352D02*
X16673502Y-10906828D01*
X16673502Y-10906828D02*
X16663979Y-10897304D01*
X16663979Y-10897304D02*
X16654455Y-10878257D01*
X16654455Y-10878257D02*
X16654455Y-10821114D01*
X16654455Y-10821114D02*
X16663979Y-10802066D01*
X16663979Y-10802066D02*
X16673502Y-10792542D01*
X16673502Y-10792542D02*
X16692550Y-10783018D01*
X16692550Y-10783018D02*
X16730645Y-10783018D01*
X16730645Y-10783018D02*
X16749693Y-10792542D01*
X16825884Y-10992542D02*
X16835407Y-10983018D01*
X16835407Y-10983018D02*
X16854455Y-10954447D01*
X16854455Y-10954447D02*
X16863979Y-10935399D01*
X16863979Y-10935399D02*
X16873503Y-10906828D01*
X16873503Y-10906828D02*
X16883026Y-10859209D01*
X16883026Y-10859209D02*
X16883026Y-10821114D01*
X16883026Y-10821114D02*
X16873503Y-10773495D01*
X16873503Y-10773495D02*
X16863979Y-10744923D01*
X16863979Y-10744923D02*
X16854455Y-10725876D01*
X16854455Y-10725876D02*
X16835407Y-10697304D01*
X16835407Y-10697304D02*
X16825884Y-10687780D01*
M02*
